<?xml version="1.0" encoding="UTF-8" standalone="no"?>
<!DOCTYPE svg PUBLIC "-//W3C//DTD SVG 1.1//EN"
 "http://www.w3.org/Graphics/SVG/1.1/DTD/svg11.dtd">
<!-- Generated by graphviz version 2.43.0 (0)
 -->
<!-- Title: MR24FDB1::setFallSensitivity Pages: 1 -->
<svg width="674pt" height="66pt"
 viewBox="0.00 0.00 674.00 66.00" xmlns="http://www.w3.org/2000/svg" xmlns:xlink="http://www.w3.org/1999/xlink">
<g id="graph0" class="graph" transform="scale(1 1) rotate(0) translate(4 62)">
<title>MR24FDB1::setFallSensitivity</title>
<polygon fill="white" stroke="transparent" points="-4,4 -4,-62 670,-62 670,4 -4,4"/>
<!-- Node400 -->
<g id="node1" class="node">
<title>Node400</title>
<g id="a_node1"><a xlink:title="set fall detection sensitivity ">
<polygon fill="#bfbfbf" stroke="black" points="0,-19.5 0,-38.5 161,-38.5 161,-19.5 0,-19.5"/>
<text text-anchor="middle" x="80.5" y="-26.5" font-family="Helvetica,sans-Serif" font-size="10.00">MR24FDB1::setFallSensitivity</text>
</a>
</g>
</g>
<!-- Node401 -->
<g id="node2" class="node">
<title>Node401</title>
<g id="a_node2"><a xlink:href="classMR24FDB1.html#a465db085a7c6388ad7ba874d2adef8a3" target="_top" xlink:title="send a &quot;GET&quot; packet to the module ">
<polygon fill="white" stroke="black" points="197,-19.5 197,-38.5 313,-38.5 313,-19.5 197,-19.5"/>
<text text-anchor="middle" x="255" y="-26.5" font-family="Helvetica,sans-Serif" font-size="10.00">MR24FDB1::sendSet</text>
</a>
</g>
</g>
<!-- Node400&#45;&gt;Node401 -->
<g id="edge1" class="edge">
<title>Node400&#45;&gt;Node401</title>
<path fill="none" stroke="midnightblue" d="M161.19,-29C169.72,-29 178.34,-29 186.71,-29"/>
<polygon fill="midnightblue" stroke="midnightblue" points="186.78,-32.5 196.78,-29 186.78,-25.5 186.78,-32.5"/>
</g>
<!-- Node402 -->
<g id="node3" class="node">
<title>Node402</title>
<g id="a_node3"><a xlink:href="classMR24FDB1.html#af148f4391ab1003e82d4497d8072aaa0" target="_top" xlink:title="calculate and add crc16 at end of buffer ">
<polygon fill="white" stroke="black" points="354,-38.5 354,-57.5 476,-57.5 476,-38.5 354,-38.5"/>
<text text-anchor="middle" x="415" y="-45.5" font-family="Helvetica,sans-Serif" font-size="10.00">MR24FDB1::addCrc16</text>
</a>
</g>
</g>
<!-- Node401&#45;&gt;Node402 -->
<g id="edge2" class="edge">
<title>Node401&#45;&gt;Node402</title>
<path fill="none" stroke="midnightblue" d="M313.04,-35.86C322.99,-37.06 333.43,-38.31 343.69,-39.54"/>
<polygon fill="midnightblue" stroke="midnightblue" points="343.5,-43.05 353.84,-40.77 344.33,-36.1 343.5,-43.05"/>
</g>
<!-- Node404 -->
<g id="node5" class="node">
<title>Node404</title>
<g id="a_node5"><a xlink:href="classMR24FDB1.html#a586848e9efe86b47520f92e049c502eb" target="_top" xlink:title="send a packet to the module ">
<polygon fill="white" stroke="black" points="349,-0.5 349,-19.5 481,-19.5 481,-0.5 349,-0.5"/>
<text text-anchor="middle" x="415" y="-7.5" font-family="Helvetica,sans-Serif" font-size="10.00">MR24FDB1::sendPacket</text>
</a>
</g>
</g>
<!-- Node401&#45;&gt;Node404 -->
<g id="edge4" class="edge">
<title>Node401&#45;&gt;Node404</title>
<path fill="none" stroke="midnightblue" d="M313.04,-22.14C321.43,-21.13 330.17,-20.08 338.86,-19.04"/>
<polygon fill="midnightblue" stroke="midnightblue" points="339.48,-22.49 348.99,-17.82 338.65,-15.54 339.48,-22.49"/>
</g>
<!-- Node403 -->
<g id="node4" class="node">
<title>Node403</title>
<g id="a_node4"><a xlink:href="classMR24FDB1.html#af7b82f23ec8f67c955ae413f4a078af0" target="_top" xlink:title="calculate crc16 of current packet ">
<polygon fill="white" stroke="black" points="517,-38.5 517,-57.5 666,-57.5 666,-38.5 517,-38.5"/>
<text text-anchor="middle" x="591.5" y="-45.5" font-family="Helvetica,sans-Serif" font-size="10.00">MR24FDB1::calculateCrc16</text>
</a>
</g>
</g>
<!-- Node402&#45;&gt;Node403 -->
<g id="edge3" class="edge">
<title>Node402&#45;&gt;Node403</title>
<path fill="none" stroke="midnightblue" d="M476.05,-48C485.89,-48 496.23,-48 506.52,-48"/>
<polygon fill="midnightblue" stroke="midnightblue" points="506.76,-51.5 516.76,-48 506.76,-44.5 506.76,-51.5"/>
</g>
</g>
</svg>
