<?xml version="1.0" encoding="UTF-8" standalone="no"?>
<!DOCTYPE svg PUBLIC "-//W3C//DTD SVG 1.1//EN"
 "http://www.w3.org/Graphics/SVG/1.1/DTD/svg11.dtd">
<!-- Generated by graphviz version 2.43.0 (0)
 -->
<!-- Title: MR24FDB1::getFallSensitivity Pages: 1 -->
<!--zoomable 218 -->
<svg id="main" version="1.1" xmlns="http://www.w3.org/2000/svg" xmlns:xlink="http://www.w3.org/1999/xlink" xml:space="preserve" onload="init(evt)">
<style type="text/css"><![CDATA[
.edge:hover path { stroke: red; }
.edge:hover polygon { stroke: red; fill: red; }
]]></style>
<script type="text/javascript"><![CDATA[
var edges = document.getElementsByTagName('g');
if (edges && edges.length) {
  for (var i=0;i<edges.length;i++) {
    if (edges[i].id.substr(0,4)=='edge') {
      edges[i].setAttribute('class','edge');
    }
  }
}
]]></script>
        <defs>
                <circle id="rim" cx="0" cy="0" r="7"/>
                <circle id="rim2" cx="0" cy="0" r="3.5"/>
                <g id="zoomPlus">
                        <use xlink:href="#rim" fill="#404040">
                                <set attributeName="fill" to="#808080" begin="zoomplus.mouseover" end="zoomplus.mouseout"/>
                        </use>
                        <path d="M-4,0h8M0,-4v8" fill="none" stroke="white" stroke-width="1.5" pointer-events="none"/>
                </g>
                <g id="zoomMin">
                        <use xlink:href="#rim" fill="#404040">
                                <set attributeName="fill" to="#808080" begin="zoomminus.mouseover" end="zoomminus.mouseout"/>
                        </use>
                        <path d="M-4,0h8" fill="none" stroke="white" stroke-width="1.5" pointer-events="none"/>
                </g>
                <g id="dirArrow">
                        <path fill="none" stroke="white" stroke-width="1.5" d="M0,-3.0v7 M-2.5,-0.5L0,-3.0L2.5,-0.5"/>
                </g>
               <g id="resetDef">
                       <use xlink:href="#rim2" fill="#404040">
                               <set attributeName="fill" to="#808080" begin="reset.mouseover" end="reset.mouseout"/>
                       </use>
               </g>
        </defs>

<script type="text/javascript">
var viewWidth = 1105;
var viewHeight = 218;
var sectionId = 'dynsection-25';
</script>
<script xlink:href="svgpan.js"/>
<svg id="graph" class="graph">
<g id="viewport">
<title>MR24FDB1::getFallSensitivity</title>
<polygon fill="white" stroke="transparent" points="-4,4 -4,-214 1101,-214 1101,4 -4,4"/>
<!-- Node321 -->
<g id="node1" class="node">
<title>Node321</title>
<g id="a_node1"><a xlink:title="get status of fall sensitivty setting ">
<polygon fill="#bfbfbf" stroke="black" points="0,-114.5 0,-133.5 161,-133.5 161,-114.5 0,-114.5"/>
<text text-anchor="middle" x="80.5" y="-121.5" font-family="Helvetica,sans-Serif" font-size="10.00">MR24FDB1::getFallSensitivity</text>
</a>
</g>
</g>
<!-- Node322 -->
<g id="node2" class="node">
<title>Node322</title>
<g id="a_node2"><a xlink:href="classMR24FDB1.html#a7dfa1c269d0979718203f9202d4e8578" target="_top" xlink:title="send a &quot;GET&quot; packet to the module and wait for responce ">
<polygon fill="white" stroke="black" points="197,-114.5 197,-133.5 355,-133.5 355,-114.5 197,-114.5"/>
<text text-anchor="middle" x="276" y="-121.5" font-family="Helvetica,sans-Serif" font-size="10.00">MR24FDB1::sendGetAndWait</text>
</a>
</g>
</g>
<!-- Node321&#45;&gt;Node322 -->
<g id="edge1" class="edge">
<title>Node321&#45;&gt;Node322</title>
<path fill="none" stroke="midnightblue" d="M161.04,-124C169.42,-124 177.97,-124 186.43,-124"/>
<polygon fill="midnightblue" stroke="midnightblue" points="186.7,-127.5 196.7,-124 186.7,-120.5 186.7,-127.5"/>
</g>
<!-- Node323 -->
<g id="node3" class="node">
<title>Node323</title>
<g id="a_node3"><a xlink:href="classMR24FDB1.html#a4a5275f119bcbd82dd5a0d6a1d8defe5" target="_top" xlink:title="send a &quot;GET&quot; packet to the module ">
<polygon fill="white" stroke="black" points="391,-152.5 391,-171.5 508,-171.5 508,-152.5 391,-152.5"/>
<text text-anchor="middle" x="449.5" y="-159.5" font-family="Helvetica,sans-Serif" font-size="10.00">MR24FDB1::sendGet</text>
</a>
</g>
</g>
<!-- Node322&#45;&gt;Node323 -->
<g id="edge2" class="edge">
<title>Node322&#45;&gt;Node323</title>
<path fill="none" stroke="midnightblue" d="M320.28,-133.59C343.11,-138.65 371.32,-144.9 395.46,-150.25"/>
<polygon fill="midnightblue" stroke="midnightblue" points="395.01,-153.73 405.53,-152.48 396.53,-146.9 395.01,-153.73"/>
</g>
<!-- Node327 -->
<g id="node7" class="node">
<title>Node327</title>
<g id="a_node7"><a xlink:href="classMR24FDB1.html#a944e9bede6552294ea9940ae6fda3b96" target="_top" xlink:title="wait until packet of the specified type is recieved ">
<polygon fill="white" stroke="black" points="393,-95.5 393,-114.5 506,-114.5 506,-95.5 393,-95.5"/>
<text text-anchor="middle" x="449.5" y="-102.5" font-family="Helvetica,sans-Serif" font-size="10.00">MR24FDB1::waitFor</text>
</a>
</g>
</g>
<!-- Node322&#45;&gt;Node327 -->
<g id="edge6" class="edge">
<title>Node322&#45;&gt;Node327</title>
<path fill="none" stroke="midnightblue" d="M355.22,-115.33C364.46,-114.31 373.83,-113.27 382.87,-112.27"/>
<polygon fill="midnightblue" stroke="midnightblue" points="383.37,-115.74 392.92,-111.16 382.6,-108.78 383.37,-115.74"/>
</g>
<!-- Node324 -->
<g id="node4" class="node">
<title>Node324</title>
<g id="a_node4"><a xlink:href="classMR24FDB1.html#af148f4391ab1003e82d4497d8072aaa0" target="_top" xlink:title="calculate and add crc16 at end of buffer ">
<polygon fill="white" stroke="black" points="577,-152.5 577,-171.5 699,-171.5 699,-152.5 577,-152.5"/>
<text text-anchor="middle" x="638" y="-159.5" font-family="Helvetica,sans-Serif" font-size="10.00">MR24FDB1::addCrc16</text>
</a>
</g>
</g>
<!-- Node323&#45;&gt;Node324 -->
<g id="edge3" class="edge">
<title>Node323&#45;&gt;Node324</title>
<path fill="none" stroke="midnightblue" d="M508.23,-162C526.73,-162 547.42,-162 566.72,-162"/>
<polygon fill="midnightblue" stroke="midnightblue" points="566.96,-165.5 576.96,-162 566.96,-158.5 566.96,-165.5"/>
</g>
<!-- Node326 -->
<g id="node6" class="node">
<title>Node326</title>
<g id="a_node6"><a xlink:href="classMR24FDB1.html#a586848e9efe86b47520f92e049c502eb" target="_top" xlink:title="send a packet to the module ">
<polygon fill="white" stroke="black" points="572,-190.5 572,-209.5 704,-209.5 704,-190.5 572,-190.5"/>
<text text-anchor="middle" x="638" y="-197.5" font-family="Helvetica,sans-Serif" font-size="10.00">MR24FDB1::sendPacket</text>
</a>
</g>
</g>
<!-- Node323&#45;&gt;Node326 -->
<g id="edge5" class="edge">
<title>Node323&#45;&gt;Node326</title>
<path fill="none" stroke="midnightblue" d="M497.56,-171.59C522.73,-176.72 553.9,-183.07 580.38,-188.46"/>
<polygon fill="midnightblue" stroke="midnightblue" points="579.78,-191.91 590.28,-190.48 581.18,-185.05 579.78,-191.91"/>
</g>
<!-- Node325 -->
<g id="node5" class="node">
<title>Node325</title>
<g id="a_node5"><a xlink:href="classMR24FDB1.html#af7b82f23ec8f67c955ae413f4a078af0" target="_top" xlink:title="calculate crc16 of current packet ">
<polygon fill="white" stroke="black" points="770,-152.5 770,-171.5 919,-171.5 919,-152.5 770,-152.5"/>
<text text-anchor="middle" x="844.5" y="-159.5" font-family="Helvetica,sans-Serif" font-size="10.00">MR24FDB1::calculateCrc16</text>
</a>
</g>
</g>
<!-- Node324&#45;&gt;Node325 -->
<g id="edge4" class="edge">
<title>Node324&#45;&gt;Node325</title>
<path fill="none" stroke="midnightblue" d="M699.25,-162C718.2,-162 739.48,-162 759.75,-162"/>
<polygon fill="midnightblue" stroke="midnightblue" points="759.92,-165.5 769.92,-162 759.92,-158.5 759.92,-165.5"/>
</g>
<!-- Node328 -->
<g id="node8" class="node">
<title>Node328</title>
<g id="a_node8"><a xlink:href="classMR24FDB1.html#a8a6f5bebfe9e2f9232e58f0ff909042a" target="_top" xlink:title="parse packet ">
<polygon fill="white" stroke="black" points="570,-38.5 570,-57.5 706,-57.5 706,-38.5 570,-38.5"/>
<text text-anchor="middle" x="638" y="-45.5" font-family="Helvetica,sans-Serif" font-size="10.00">MR24FDB1::parsePacket</text>
</a>
</g>
</g>
<!-- Node327&#45;&gt;Node328 -->
<g id="edge7" class="edge">
<title>Node327&#45;&gt;Node328</title>
<path fill="none" stroke="midnightblue" d="M470.9,-95.43C489.58,-86.98 518.17,-74.81 544,-67 552.8,-64.34 562.19,-61.93 571.48,-59.8"/>
<polygon fill="midnightblue" stroke="midnightblue" points="572.49,-63.16 581.5,-57.59 570.98,-56.32 572.49,-63.16"/>
</g>
<!-- Node333 -->
<g id="node13" class="node">
<title>Node333</title>
<g id="a_node13"><a xlink:href="classMR24FDB1.html#a5e44c632274bde4a6e22f35d80a782f0" target="_top" xlink:title="get a packet from the chip ">
<polygon fill="white" stroke="black" points="572.5,-114.5 572.5,-133.5 703.5,-133.5 703.5,-114.5 572.5,-114.5"/>
<text text-anchor="middle" x="638" y="-121.5" font-family="Helvetica,sans-Serif" font-size="10.00">MR24FDB1::readPacket</text>
</a>
</g>
</g>
<!-- Node327&#45;&gt;Node333 -->
<g id="edge13" class="edge">
<title>Node327&#45;&gt;Node333</title>
<path fill="none" stroke="midnightblue" d="M506.2,-110.67C523.85,-112.47 543.66,-114.49 562.41,-116.4"/>
<polygon fill="midnightblue" stroke="midnightblue" points="562.1,-119.89 572.41,-117.42 562.81,-112.92 562.1,-119.89"/>
</g>
<!-- Node335 -->
<g id="node15" class="node">
<title>Node335</title>
<g id="a_node15"><a xlink:href="classMR24FDB1__Exception.html#a695552f5db7be7840c1af8650af0c235" target="_top" xlink:title="decode error from the Result,class,group , function etc... ">
<polygon fill="white" stroke="black" points="544,-76.5 544,-95.5 732,-95.5 732,-76.5 544,-76.5"/>
<text text-anchor="middle" x="638" y="-83.5" font-family="Helvetica,sans-Serif" font-size="10.00">MR24FDB1_Exception::decodeError</text>
</a>
</g>
</g>
<!-- Node327&#45;&gt;Node335 -->
<g id="edge16" class="edge">
<title>Node327&#45;&gt;Node335</title>
<path fill="none" stroke="midnightblue" d="M506.2,-99.33C515.05,-98.42 524.43,-97.47 533.95,-96.5"/>
<polygon fill="midnightblue" stroke="midnightblue" points="534.31,-99.98 543.91,-95.48 533.6,-93.02 534.31,-99.98"/>
</g>
<!-- Node329 -->
<g id="node9" class="node">
<title>Node329</title>
<g id="a_node9"><a xlink:href="classMR24FDB1.html#a2ccfe8221167944b882b5747b07dae22" target="_top" xlink:title="parse fall type packet ">
<polygon fill="white" stroke="black" points="768,-38.5 768,-57.5 921,-57.5 921,-38.5 768,-38.5"/>
<text text-anchor="middle" x="844.5" y="-45.5" font-family="Helvetica,sans-Serif" font-size="10.00">MR24FDB1::parseFallReport</text>
</a>
</g>
</g>
<!-- Node328&#45;&gt;Node329 -->
<g id="edge8" class="edge">
<title>Node328&#45;&gt;Node329</title>
<path fill="none" stroke="midnightblue" d="M706.24,-48C722.69,-48 740.51,-48 757.69,-48"/>
<polygon fill="midnightblue" stroke="midnightblue" points="757.72,-51.5 767.72,-48 757.72,-44.5 757.72,-51.5"/>
</g>
<!-- Node330 -->
<g id="node10" class="node">
<title>Node330</title>
<g id="a_node10"><a xlink:href="classMR24FDB1.html#a1759ec9442c191ee6ddc09137a9c0528" target="_top" xlink:title="parse report type packet ">
<polygon fill="white" stroke="black" points="776.5,-0.5 776.5,-19.5 912.5,-19.5 912.5,-0.5 776.5,-0.5"/>
<text text-anchor="middle" x="844.5" y="-7.5" font-family="Helvetica,sans-Serif" font-size="10.00">MR24FDB1::parseReport</text>
</a>
</g>
</g>
<!-- Node328&#45;&gt;Node330 -->
<g id="edge9" class="edge">
<title>Node328&#45;&gt;Node330</title>
<path fill="none" stroke="midnightblue" d="M690.34,-38.46C718.17,-33.29 752.77,-26.86 782.03,-21.42"/>
<polygon fill="midnightblue" stroke="midnightblue" points="782.95,-24.81 792.14,-19.54 781.67,-17.93 782.95,-24.81"/>
</g>
<!-- Node332 -->
<g id="node12" class="node">
<title>Node332</title>
<g id="a_node12"><a xlink:href="classMR24FDB1.html#a55ecfd4dffd4d04c97dcd6e6e264ad61" target="_top" xlink:title="parse reponce type packet ">
<polygon fill="white" stroke="black" points="769,-76.5 769,-95.5 920,-95.5 920,-76.5 769,-76.5"/>
<text text-anchor="middle" x="844.5" y="-83.5" font-family="Helvetica,sans-Serif" font-size="10.00">MR24FDB1::parseResponce</text>
</a>
</g>
</g>
<!-- Node328&#45;&gt;Node332 -->
<g id="edge11" class="edge">
<title>Node328&#45;&gt;Node332</title>
<path fill="none" stroke="midnightblue" d="M690.34,-57.54C718.17,-62.71 752.77,-69.14 782.03,-74.58"/>
<polygon fill="midnightblue" stroke="midnightblue" points="781.67,-78.07 792.14,-76.46 782.95,-71.19 781.67,-78.07"/>
</g>
<!-- Node331 -->
<g id="node11" class="node">
<title>Node331</title>
<g id="a_node11"><a xlink:href="classMR24FDB1.html#ae444c38bb80decf58cabe5b12005b819" target="_top" xlink:title="parse Radar group responces and reports ">
<polygon fill="white" stroke="black" points="957,-38.5 957,-57.5 1097,-57.5 1097,-38.5 957,-38.5"/>
<text text-anchor="middle" x="1027" y="-45.5" font-family="Helvetica,sans-Serif" font-size="10.00">MR24FDB1::decodeRadar</text>
</a>
</g>
</g>
<!-- Node330&#45;&gt;Node331 -->
<g id="edge10" class="edge">
<title>Node330&#45;&gt;Node331</title>
<path fill="none" stroke="midnightblue" d="M891.05,-19.59C915.3,-24.69 945.3,-31.01 970.86,-36.39"/>
<polygon fill="midnightblue" stroke="midnightblue" points="970.27,-39.84 980.78,-38.48 971.72,-32.99 970.27,-39.84"/>
</g>
<!-- Node332&#45;&gt;Node331 -->
<g id="edge12" class="edge">
<title>Node332&#45;&gt;Node331</title>
<path fill="none" stroke="midnightblue" d="M891.05,-76.41C915.3,-71.31 945.3,-64.99 970.86,-59.61"/>
<polygon fill="midnightblue" stroke="midnightblue" points="971.72,-63.01 980.78,-57.52 970.27,-56.16 971.72,-63.01"/>
</g>
<!-- Node333&#45;&gt;Node325 -->
<g id="edge14" class="edge">
<title>Node333&#45;&gt;Node325</title>
<path fill="none" stroke="midnightblue" d="M690.34,-133.54C718.17,-138.71 752.77,-145.14 782.03,-150.58"/>
<polygon fill="midnightblue" stroke="midnightblue" points="781.67,-154.07 792.14,-152.46 782.95,-147.19 781.67,-154.07"/>
</g>
<!-- Node334 -->
<g id="node14" class="node">
<title>Node334</title>
<g id="a_node14"><a xlink:href="classMR24FDB1.html#a3de11c024f9b20321cce5d98cd534c3e" target="_top" xlink:title="get one byte from serial ">
<polygon fill="white" stroke="black" points="784,-114.5 784,-133.5 905,-133.5 905,-114.5 784,-114.5"/>
<text text-anchor="middle" x="844.5" y="-121.5" font-family="Helvetica,sans-Serif" font-size="10.00">MR24FDB1::readByte</text>
</a>
</g>
</g>
<!-- Node333&#45;&gt;Node334 -->
<g id="edge15" class="edge">
<title>Node333&#45;&gt;Node334</title>
<path fill="none" stroke="midnightblue" d="M703.71,-124C725.93,-124 750.9,-124 773.52,-124"/>
<polygon fill="midnightblue" stroke="midnightblue" points="773.73,-127.5 783.73,-124 773.73,-120.5 773.73,-127.5"/>
</g>
</g>
</svg>
        <g id="navigator" transform="translate(0 0)" fill="#404254">
                <rect fill="#f2f5e9" fill-opacity="0.5" stroke="#606060" stroke-width=".5" x="0" y="0" width="60" height="60"/>
                <use id="zoomplus" xlink:href="#zoomPlus" x="17" y="9" onmousedown="handleZoom(evt,'in')"/>
                <use id="zoomminus" xlink:href="#zoomMin" x="42" y="9" onmousedown="handleZoom(evt,'out')"/>
                <use id="reset" xlink:href="#resetDef" x="30" y="36" onmousedown="handleReset()"/>
                <g id="arrowUp" xlink:href="#dirArrow" transform="translate(30 24)" onmousedown="handlePan(0,-1)">
                  <use xlink:href="#rim" fill="#404040">
                        <set attributeName="fill" to="#808080" begin="arrowUp.mouseover" end="arrowUp.mouseout"/>
                  </use>
                  <path fill="none" stroke="white" stroke-width="1.5" d="M0,-3.0v7 M-2.5,-0.5L0,-3.0L2.5,-0.5"/>
                </g>
                <g id="arrowRight" xlink:href="#dirArrow" transform="rotate(90) translate(36 -43)" onmousedown="handlePan(1,0)">
                  <use xlink:href="#rim" fill="#404040">
                        <set attributeName="fill" to="#808080" begin="arrowRight.mouseover" end="arrowRight.mouseout"/>
                  </use>
                  <path fill="none" stroke="white" stroke-width="1.5" d="M0,-3.0v7 M-2.5,-0.5L0,-3.0L2.5,-0.5"/>
                </g>
                <g id="arrowDown" xlink:href="#dirArrow" transform="rotate(180) translate(-30 -48)" onmousedown="handlePan(0,1)">
                  <use xlink:href="#rim" fill="#404040">
                        <set attributeName="fill" to="#808080" begin="arrowDown.mouseover" end="arrowDown.mouseout"/>
                  </use>
                  <path fill="none" stroke="white" stroke-width="1.5" d="M0,-3.0v7 M-2.5,-0.5L0,-3.0L2.5,-0.5"/>
                </g>
                <g id="arrowLeft" xlink:href="#dirArrow" transform="rotate(270) translate(-36 17)" onmousedown="handlePan(-1,0)">
                  <use xlink:href="#rim" fill="#404040">
                        <set attributeName="fill" to="#808080" begin="arrowLeft.mouseover" end="arrowLeft.mouseout"/>
                  </use>
                  <path fill="none" stroke="white" stroke-width="1.5" d="M0,-3.0v7 M-2.5,-0.5L0,-3.0L2.5,-0.5"/>
                </g>
        </g>
        <svg viewBox="0 0 15 15" width="100%" height="30px" preserveAspectRatio="xMaxYMin meet">
         <g id="arrow_out" transform="scale(0.3 0.3)">
          <a xlink:href="classMR24FDB1_a122352e437a57083aba3823b512e2c31_cgraph_org.svg" target="_base">
           <rect id="button" ry="5" rx="5" y="6" x="6" height="38" width="38"
                fill="#f2f5e9" fill-opacity="0.5" stroke="#606060" stroke-width="1.0"/>
           <path id="arrow"
             d="M 11.500037,31.436501 C 11.940474,20.09759 22.043105,11.32322 32.158766,21.979434 L 37.068811,17.246167 C 37.068811,17.246167 37.088388,32 37.088388,32 L 22.160133,31.978069 C 22.160133,31.978069 26.997745,27.140456 26.997745,27.140456 C 18.528582,18.264221 13.291696,25.230495 11.500037,31.436501 z"
             style="fill:#404040;"/>
          </a>
         </g>
        </svg>
</svg>
