<?xml version="1.0" encoding="UTF-8" standalone="no"?>
<!DOCTYPE svg PUBLIC "-//W3C//DTD SVG 1.1//EN"
 "http://www.w3.org/Graphics/SVG/1.1/DTD/svg11.dtd">
<!-- Generated by graphviz version 2.43.0 (0)
 -->
<!-- Title: MR24FDB1::sendGetAndWait Pages: 1 -->
<svg width="518pt" height="408pt"
 viewBox="0.00 0.00 518.00 408.00" xmlns="http://www.w3.org/2000/svg" xmlns:xlink="http://www.w3.org/1999/xlink">
<g id="graph0" class="graph" transform="scale(1 1) rotate(0) translate(4 404)">
<title>MR24FDB1::sendGetAndWait</title>
<polygon fill="white" stroke="transparent" points="-4,4 -4,-404 514,-404 514,4 -4,4"/>
<!-- Node83 -->
<g id="node1" class="node">
<title>Node83</title>
<g id="a_node1"><a xlink:title="send a &quot;GET&quot; packet to the module and wait for responce ">
<polygon fill="#bfbfbf" stroke="black" points="0,-190.5 0,-209.5 158,-209.5 158,-190.5 0,-190.5"/>
<text text-anchor="middle" x="79" y="-197.5" font-family="Helvetica,sans-Serif" font-size="10.00">MR24FDB1::sendGetAndWait</text>
</a>
</g>
</g>
<!-- Node84 -->
<g id="node2" class="node">
<title>Node84</title>
<g id="a_node2"><a xlink:href="classMR24FDB1.html#a6a61bdca02e1a9ab2c6ab83c3ee2ff21" target="_top" xlink:title="requests Device Id ">
<polygon fill="white" stroke="black" points="207,-380.5 207,-399.5 342,-399.5 342,-380.5 207,-380.5"/>
<text text-anchor="middle" x="274.5" y="-387.5" font-family="Helvetica,sans-Serif" font-size="10.00">MR24FDB1::getDeviceId</text>
</a>
</g>
</g>
<!-- Node83&#45;&gt;Node84 -->
<g id="edge1" class="edge">
<title>Node83&#45;&gt;Node84</title>
<path fill="none" stroke="midnightblue" d="M87.25,-219.3C101.73,-255.13 137.76,-331.8 194,-371 199.59,-374.89 205.88,-378 212.4,-380.47"/>
<polygon fill="midnightblue" stroke="midnightblue" points="90.35,-217.62 83.45,-209.59 83.83,-220.17 90.35,-217.62"/>
</g>
<!-- Node85 -->
<g id="node3" class="node">
<title>Node85</title>
<g id="a_node3"><a xlink:href="classMR24FDB1.html#a10ef6d7b6a0d7819b84361c907604fe0" target="_top" xlink:title="get status of fall enable switch ">
<polygon fill="white" stroke="black" points="203,-342.5 203,-361.5 346,-361.5 346,-342.5 203,-342.5"/>
<text text-anchor="middle" x="274.5" y="-349.5" font-family="Helvetica,sans-Serif" font-size="10.00">MR24FDB1::getFallEnable</text>
</a>
</g>
</g>
<!-- Node83&#45;&gt;Node85 -->
<g id="edge2" class="edge">
<title>Node83&#45;&gt;Node85</title>
<path fill="none" stroke="midnightblue" d="M90.34,-218.21C107.8,-247.23 145.97,-303.66 194,-333 200.3,-336.85 207.32,-339.91 214.5,-342.36"/>
<polygon fill="midnightblue" stroke="midnightblue" points="93.31,-216.35 85.23,-209.5 87.27,-219.9 93.31,-216.35"/>
</g>
<!-- Node86 -->
<g id="node4" class="node">
<title>Node86</title>
<g id="a_node4"><a xlink:href="classMR24FDB1.html#a122352e437a57083aba3823b512e2c31" target="_top" xlink:title="get status of fall sensitivty setting ">
<polygon fill="white" stroke="black" points="194,-304.5 194,-323.5 355,-323.5 355,-304.5 194,-304.5"/>
<text text-anchor="middle" x="274.5" y="-311.5" font-family="Helvetica,sans-Serif" font-size="10.00">MR24FDB1::getFallSensitivity</text>
</a>
</g>
</g>
<!-- Node83&#45;&gt;Node86 -->
<g id="edge3" class="edge">
<title>Node83&#45;&gt;Node86</title>
<path fill="none" stroke="midnightblue" d="M95.65,-217.22C116.14,-238.7 154.18,-275.04 194,-295 201.74,-298.88 210.3,-301.99 218.86,-304.47"/>
<polygon fill="midnightblue" stroke="midnightblue" points="98.07,-214.69 88.68,-209.78 92.96,-219.47 98.07,-214.69"/>
</g>
<!-- Node87 -->
<g id="node5" class="node">
<title>Node87</title>
<g id="a_node5"><a xlink:href="classMR24FDB1.html#a6e729c642bc4f67e6ce076fb0fa2aa3e" target="_top" xlink:title="get status of fall warning time setting ">
<polygon fill="white" stroke="black" points="195,-266.5 195,-285.5 354,-285.5 354,-266.5 195,-266.5"/>
<text text-anchor="middle" x="274.5" y="-273.5" font-family="Helvetica,sans-Serif" font-size="10.00">MR24FDB1::getFallWarnTime</text>
</a>
</g>
</g>
<!-- Node83&#45;&gt;Node87 -->
<g id="edge4" class="edge">
<title>Node83&#45;&gt;Node87</title>
<path fill="none" stroke="midnightblue" d="M105.01,-214.6C127.62,-227.29 162.16,-245.41 194,-257 204,-260.64 214.97,-263.78 225.47,-266.4"/>
<polygon fill="midnightblue" stroke="midnightblue" points="106.51,-211.43 96.09,-209.53 103.05,-217.51 106.51,-211.43"/>
</g>
<!-- Node88 -->
<g id="node6" class="node">
<title>Node88</title>
<g id="a_node6"><a xlink:href="classMR24FDB1.html#a9c858e6eae2bf95de4340b7bb4fe07e7" target="_top" xlink:title="requests Hardware version ">
<polygon fill="white" stroke="black" points="196.5,-228.5 196.5,-247.5 352.5,-247.5 352.5,-228.5 196.5,-228.5"/>
<text text-anchor="middle" x="274.5" y="-235.5" font-family="Helvetica,sans-Serif" font-size="10.00">MR24FDB1::getHardwareVer</text>
</a>
</g>
</g>
<!-- Node83&#45;&gt;Node88 -->
<g id="edge5" class="edge">
<title>Node83&#45;&gt;Node88</title>
<path fill="none" stroke="midnightblue" d="M138.75,-211.54C166.35,-216.96 198.85,-223.34 225.02,-228.48"/>
<polygon fill="midnightblue" stroke="midnightblue" points="139.32,-208.08 128.83,-209.59 137.97,-214.95 139.32,-208.08"/>
</g>
<!-- Node89 -->
<g id="node7" class="node">
<title>Node89</title>
<g id="a_node7"><a xlink:href="classMR24FDB1.html#ab090aa5731fa4e348a33588f682f1a16" target="_top" xlink:title="get movement ">
<polygon fill="white" stroke="black" points="202,-190.5 202,-209.5 347,-209.5 347,-190.5 202,-190.5"/>
<text text-anchor="middle" x="274.5" y="-197.5" font-family="Helvetica,sans-Serif" font-size="10.00">MR24FDB1::getMovement</text>
</a>
</g>
</g>
<!-- Node83&#45;&gt;Node89 -->
<g id="edge6" class="edge">
<title>Node83&#45;&gt;Node89</title>
<path fill="none" stroke="midnightblue" d="M168.4,-200C179.63,-200 191.02,-200 201.94,-200"/>
<polygon fill="midnightblue" stroke="midnightblue" points="168.15,-196.5 158.15,-200 168.15,-203.5 168.15,-196.5"/>
</g>
<!-- Node91 -->
<g id="node9" class="node">
<title>Node91</title>
<g id="a_node9"><a xlink:href="classMR24FDB1.html#af5bcb06d3788fb4743e2f750a6e4a149" target="_top" xlink:title="get presence from module ">
<polygon fill="white" stroke="black" points="206,-152.5 206,-171.5 343,-171.5 343,-152.5 206,-152.5"/>
<text text-anchor="middle" x="274.5" y="-159.5" font-family="Helvetica,sans-Serif" font-size="10.00">MR24FDB1::getPresence</text>
</a>
</g>
</g>
<!-- Node83&#45;&gt;Node91 -->
<g id="edge8" class="edge">
<title>Node83&#45;&gt;Node91</title>
<path fill="none" stroke="midnightblue" d="M138.75,-188.46C166.35,-183.04 198.85,-176.66 225.02,-171.52"/>
<polygon fill="midnightblue" stroke="midnightblue" points="137.97,-185.05 128.83,-190.41 139.32,-191.92 137.97,-185.05"/>
</g>
<!-- Node92 -->
<g id="node10" class="node">
<title>Node92</title>
<g id="a_node10"><a xlink:href="classMR24FDB1.html#a206d007330f0b2f9c76b070e215dbb05" target="_top" xlink:title="request Protocol Version ">
<polygon fill="white" stroke="black" points="200,-114.5 200,-133.5 349,-133.5 349,-114.5 200,-114.5"/>
<text text-anchor="middle" x="274.5" y="-121.5" font-family="Helvetica,sans-Serif" font-size="10.00">MR24FDB1::getProtocolVer</text>
</a>
</g>
</g>
<!-- Node83&#45;&gt;Node92 -->
<g id="edge10" class="edge">
<title>Node83&#45;&gt;Node92</title>
<path fill="none" stroke="midnightblue" d="M105.01,-185.4C127.62,-172.71 162.16,-154.59 194,-143 204,-139.36 214.97,-136.22 225.47,-133.6"/>
<polygon fill="midnightblue" stroke="midnightblue" points="103.05,-182.49 96.09,-190.47 106.51,-188.57 103.05,-182.49"/>
</g>
<!-- Node93 -->
<g id="node11" class="node">
<title>Node93</title>
<g id="a_node11"><a xlink:href="classMR24FDB1.html#adc620372e2ccd4d3dece13bfe8c8424e" target="_top" xlink:title="get scene parameter ">
<polygon fill="white" stroke="black" points="213.5,-76.5 213.5,-95.5 335.5,-95.5 335.5,-76.5 213.5,-76.5"/>
<text text-anchor="middle" x="274.5" y="-83.5" font-family="Helvetica,sans-Serif" font-size="10.00">MR24FDB1::getScene</text>
</a>
</g>
</g>
<!-- Node83&#45;&gt;Node93 -->
<g id="edge11" class="edge">
<title>Node83&#45;&gt;Node93</title>
<path fill="none" stroke="midnightblue" d="M95.65,-182.78C116.14,-161.3 154.18,-124.96 194,-105 201.74,-101.12 210.3,-98.01 218.86,-95.53"/>
<polygon fill="midnightblue" stroke="midnightblue" points="92.96,-180.53 88.68,-190.22 98.07,-185.31 92.96,-180.53"/>
</g>
<!-- Node94 -->
<g id="node12" class="node">
<title>Node94</title>
<g id="a_node12"><a xlink:href="classMR24FDB1.html#a82a44a7291dd7b96de57a2d2cda10251" target="_top" xlink:title="get sensitivity parameter ">
<polygon fill="white" stroke="black" points="202.5,-38.5 202.5,-57.5 346.5,-57.5 346.5,-38.5 202.5,-38.5"/>
<text text-anchor="middle" x="274.5" y="-45.5" font-family="Helvetica,sans-Serif" font-size="10.00">MR24FDB1::getSensitivity</text>
</a>
</g>
</g>
<!-- Node83&#45;&gt;Node94 -->
<g id="edge12" class="edge">
<title>Node83&#45;&gt;Node94</title>
<path fill="none" stroke="midnightblue" d="M90.34,-181.79C107.8,-152.77 145.97,-96.34 194,-67 200.3,-63.15 207.32,-60.09 214.5,-57.64"/>
<polygon fill="midnightblue" stroke="midnightblue" points="87.27,-180.1 85.23,-190.5 93.31,-183.65 87.27,-180.1"/>
</g>
<!-- Node95 -->
<g id="node13" class="node">
<title>Node95</title>
<g id="a_node13"><a xlink:href="classMR24FDB1.html#af9b355c4127c5b937407b3e3b25217c7" target="_top" xlink:title="requests Software verion ">
<polygon fill="white" stroke="black" points="198.5,-0.5 198.5,-19.5 350.5,-19.5 350.5,-0.5 198.5,-0.5"/>
<text text-anchor="middle" x="274.5" y="-7.5" font-family="Helvetica,sans-Serif" font-size="10.00">MR24FDB1::getSoftwareVer</text>
</a>
</g>
</g>
<!-- Node83&#45;&gt;Node95 -->
<g id="edge13" class="edge">
<title>Node83&#45;&gt;Node95</title>
<path fill="none" stroke="midnightblue" d="M87.25,-180.7C101.73,-144.87 137.76,-68.2 194,-29 199.59,-25.11 205.88,-22 212.4,-19.53"/>
<polygon fill="midnightblue" stroke="midnightblue" points="83.83,-179.83 83.45,-190.41 90.35,-182.38 83.83,-179.83"/>
</g>
<!-- Node90 -->
<g id="node8" class="node">
<title>Node90</title>
<g id="a_node8"><a xlink:href="classMR24FDB1.html#a0c0b8071f5d90b32f3c109ff71ff2ec0" target="_top" xlink:title="send test ">
<polygon fill="white" stroke="black" points="391,-171.5 391,-190.5 510,-190.5 510,-171.5 391,-171.5"/>
<text text-anchor="middle" x="450.5" y="-178.5" font-family="Helvetica,sans-Serif" font-size="10.00">MR24FDB1::testSend</text>
</a>
</g>
</g>
<!-- Node89&#45;&gt;Node90 -->
<g id="edge7" class="edge">
<title>Node89&#45;&gt;Node90</title>
<path fill="none" stroke="midnightblue" d="M357.04,-191.1C368.49,-189.85 380.07,-188.58 390.98,-187.39"/>
<polygon fill="midnightblue" stroke="midnightblue" points="356.59,-187.62 347.03,-192.19 357.35,-194.58 356.59,-187.62"/>
</g>
<!-- Node91&#45;&gt;Node90 -->
<g id="edge9" class="edge">
<title>Node91&#45;&gt;Node90</title>
<path fill="none" stroke="midnightblue" d="M353.33,-170.5C365.97,-171.88 378.87,-173.29 390.95,-174.61"/>
<polygon fill="midnightblue" stroke="midnightblue" points="353.59,-167.01 343.27,-169.4 352.83,-173.97 353.59,-167.01"/>
</g>
</g>
</svg>
