<?xml version="1.0" encoding="UTF-8" standalone="no"?>
<!DOCTYPE svg PUBLIC "-//W3C//DTD SVG 1.1//EN"
 "http://www.w3.org/Graphics/SVG/1.1/DTD/svg11.dtd">
<!-- Generated by graphviz version 2.43.0 (0)
 -->
<!-- Title: MR24FDB1::setSensitivity Pages: 1 -->
<svg width="656pt" height="66pt"
 viewBox="0.00 0.00 656.00 66.00" xmlns="http://www.w3.org/2000/svg" xmlns:xlink="http://www.w3.org/1999/xlink">
<g id="graph0" class="graph" transform="scale(1 1) rotate(0) translate(4 62)">
<title>MR24FDB1::setSensitivity</title>
<polygon fill="white" stroke="transparent" points="-4,4 -4,-62 652,-62 652,4 -4,4"/>
<!-- Node349 -->
<g id="node1" class="node">
<title>Node349</title>
<g id="a_node1"><a xlink:title="set sensitivity ">
<polygon fill="#bfbfbf" stroke="black" points="0,-19.5 0,-38.5 143,-38.5 143,-19.5 0,-19.5"/>
<text text-anchor="middle" x="71.5" y="-26.5" font-family="Helvetica,sans-Serif" font-size="10.00">MR24FDB1::setSensitivity</text>
</a>
</g>
</g>
<!-- Node350 -->
<g id="node2" class="node">
<title>Node350</title>
<g id="a_node2"><a xlink:href="classMR24FDB1.html#a465db085a7c6388ad7ba874d2adef8a3" target="_top" xlink:title="send a &quot;GET&quot; packet to the module ">
<polygon fill="white" stroke="black" points="179,-19.5 179,-38.5 295,-38.5 295,-19.5 179,-19.5"/>
<text text-anchor="middle" x="237" y="-26.5" font-family="Helvetica,sans-Serif" font-size="10.00">MR24FDB1::sendSet</text>
</a>
</g>
</g>
<!-- Node349&#45;&gt;Node350 -->
<g id="edge1" class="edge">
<title>Node349&#45;&gt;Node350</title>
<path fill="none" stroke="midnightblue" d="M143.26,-29C151.73,-29 160.36,-29 168.77,-29"/>
<polygon fill="midnightblue" stroke="midnightblue" points="168.91,-32.5 178.91,-29 168.91,-25.5 168.91,-32.5"/>
</g>
<!-- Node351 -->
<g id="node3" class="node">
<title>Node351</title>
<g id="a_node3"><a xlink:href="classMR24FDB1.html#af148f4391ab1003e82d4497d8072aaa0" target="_top" xlink:title="calculate and add crc16 at end of buffer ">
<polygon fill="white" stroke="black" points="336,-38.5 336,-57.5 458,-57.5 458,-38.5 336,-38.5"/>
<text text-anchor="middle" x="397" y="-45.5" font-family="Helvetica,sans-Serif" font-size="10.00">MR24FDB1::addCrc16</text>
</a>
</g>
</g>
<!-- Node350&#45;&gt;Node351 -->
<g id="edge2" class="edge">
<title>Node350&#45;&gt;Node351</title>
<path fill="none" stroke="midnightblue" d="M295.04,-35.86C304.99,-37.06 315.43,-38.31 325.69,-39.54"/>
<polygon fill="midnightblue" stroke="midnightblue" points="325.5,-43.05 335.84,-40.77 326.33,-36.1 325.5,-43.05"/>
</g>
<!-- Node353 -->
<g id="node5" class="node">
<title>Node353</title>
<g id="a_node5"><a xlink:href="classMR24FDB1.html#a586848e9efe86b47520f92e049c502eb" target="_top" xlink:title="send a packet to the module ">
<polygon fill="white" stroke="black" points="331,-0.5 331,-19.5 463,-19.5 463,-0.5 331,-0.5"/>
<text text-anchor="middle" x="397" y="-7.5" font-family="Helvetica,sans-Serif" font-size="10.00">MR24FDB1::sendPacket</text>
</a>
</g>
</g>
<!-- Node350&#45;&gt;Node353 -->
<g id="edge4" class="edge">
<title>Node350&#45;&gt;Node353</title>
<path fill="none" stroke="midnightblue" d="M295.04,-22.14C303.43,-21.13 312.17,-20.08 320.86,-19.04"/>
<polygon fill="midnightblue" stroke="midnightblue" points="321.48,-22.49 330.99,-17.82 320.65,-15.54 321.48,-22.49"/>
</g>
<!-- Node352 -->
<g id="node4" class="node">
<title>Node352</title>
<g id="a_node4"><a xlink:href="classMR24FDB1.html#af7b82f23ec8f67c955ae413f4a078af0" target="_top" xlink:title="calculate crc16 of current packet ">
<polygon fill="white" stroke="black" points="499,-38.5 499,-57.5 648,-57.5 648,-38.5 499,-38.5"/>
<text text-anchor="middle" x="573.5" y="-45.5" font-family="Helvetica,sans-Serif" font-size="10.00">MR24FDB1::calculateCrc16</text>
</a>
</g>
</g>
<!-- Node351&#45;&gt;Node352 -->
<g id="edge3" class="edge">
<title>Node351&#45;&gt;Node352</title>
<path fill="none" stroke="midnightblue" d="M458.05,-48C467.89,-48 478.23,-48 488.52,-48"/>
<polygon fill="midnightblue" stroke="midnightblue" points="488.76,-51.5 498.76,-48 488.76,-44.5 488.76,-51.5"/>
</g>
</g>
</svg>
