<?xml version="1.0" encoding="UTF-8" standalone="no"?>
<!DOCTYPE svg PUBLIC "-//W3C//DTD SVG 1.1//EN"
 "http://www.w3.org/Graphics/SVG/1.1/DTD/svg11.dtd">
<!-- Generated by graphviz version 2.43.0 (0)
 -->
<!-- Title: MR24FDB1::getDeviceId Pages: 1 -->
<!--zoomable 218 -->
<svg id="main" version="1.1" xmlns="http://www.w3.org/2000/svg" xmlns:xlink="http://www.w3.org/1999/xlink" xml:space="preserve" onload="init(evt)">
<style type="text/css"><![CDATA[
.edge:hover path { stroke: red; }
.edge:hover polygon { stroke: red; fill: red; }
]]></style>
<script type="text/javascript"><![CDATA[
var edges = document.getElementsByTagName('g');
if (edges && edges.length) {
  for (var i=0;i<edges.length;i++) {
    if (edges[i].id.substr(0,4)=='edge') {
      edges[i].setAttribute('class','edge');
    }
  }
}
]]></script>
        <defs>
                <circle id="rim" cx="0" cy="0" r="7"/>
                <circle id="rim2" cx="0" cy="0" r="3.5"/>
                <g id="zoomPlus">
                        <use xlink:href="#rim" fill="#404040">
                                <set attributeName="fill" to="#808080" begin="zoomplus.mouseover" end="zoomplus.mouseout"/>
                        </use>
                        <path d="M-4,0h8M0,-4v8" fill="none" stroke="white" stroke-width="1.5" pointer-events="none"/>
                </g>
                <g id="zoomMin">
                        <use xlink:href="#rim" fill="#404040">
                                <set attributeName="fill" to="#808080" begin="zoomminus.mouseover" end="zoomminus.mouseout"/>
                        </use>
                        <path d="M-4,0h8" fill="none" stroke="white" stroke-width="1.5" pointer-events="none"/>
                </g>
                <g id="dirArrow">
                        <path fill="none" stroke="white" stroke-width="1.5" d="M0,-3.0v7 M-2.5,-0.5L0,-3.0L2.5,-0.5"/>
                </g>
               <g id="resetDef">
                       <use xlink:href="#rim2" fill="#404040">
                               <set attributeName="fill" to="#808080" begin="reset.mouseover" end="reset.mouseout"/>
                       </use>
               </g>
        </defs>

<script type="text/javascript">
var viewWidth = 1079;
var viewHeight = 218;
var sectionId = 'dynsection-13';
</script>
<script xlink:href="svgpan.js"/>
<svg id="graph" class="graph">
<g id="viewport">
<title>MR24FDB1::getDeviceId</title>
<polygon fill="white" stroke="transparent" points="-4,4 -4,-214 1075,-214 1075,4 -4,4"/>
<!-- Node139 -->
<g id="node1" class="node">
<title>Node139</title>
<g id="a_node1"><a xlink:title="requests Device Id ">
<polygon fill="#bfbfbf" stroke="black" points="0,-114.5 0,-133.5 135,-133.5 135,-114.5 0,-114.5"/>
<text text-anchor="middle" x="67.5" y="-121.5" font-family="Helvetica,sans-Serif" font-size="10.00">MR24FDB1::getDeviceId</text>
</a>
</g>
</g>
<!-- Node140 -->
<g id="node2" class="node">
<title>Node140</title>
<g id="a_node2"><a xlink:href="classMR24FDB1.html#a7dfa1c269d0979718203f9202d4e8578" target="_top" xlink:title="send a &quot;GET&quot; packet to the module and wait for responce ">
<polygon fill="white" stroke="black" points="171,-114.5 171,-133.5 329,-133.5 329,-114.5 171,-114.5"/>
<text text-anchor="middle" x="250" y="-121.5" font-family="Helvetica,sans-Serif" font-size="10.00">MR24FDB1::sendGetAndWait</text>
</a>
</g>
</g>
<!-- Node139&#45;&gt;Node140 -->
<g id="edge1" class="edge">
<title>Node139&#45;&gt;Node140</title>
<path fill="none" stroke="midnightblue" d="M135.2,-124C143.57,-124 152.24,-124 160.87,-124"/>
<polygon fill="midnightblue" stroke="midnightblue" points="160.98,-127.5 170.98,-124 160.98,-120.5 160.98,-127.5"/>
</g>
<!-- Node141 -->
<g id="node3" class="node">
<title>Node141</title>
<g id="a_node3"><a xlink:href="classMR24FDB1.html#a4a5275f119bcbd82dd5a0d6a1d8defe5" target="_top" xlink:title="send a &quot;GET&quot; packet to the module ">
<polygon fill="white" stroke="black" points="365,-152.5 365,-171.5 482,-171.5 482,-152.5 365,-152.5"/>
<text text-anchor="middle" x="423.5" y="-159.5" font-family="Helvetica,sans-Serif" font-size="10.00">MR24FDB1::sendGet</text>
</a>
</g>
</g>
<!-- Node140&#45;&gt;Node141 -->
<g id="edge2" class="edge">
<title>Node140&#45;&gt;Node141</title>
<path fill="none" stroke="midnightblue" d="M294.28,-133.59C317.11,-138.65 345.32,-144.9 369.46,-150.25"/>
<polygon fill="midnightblue" stroke="midnightblue" points="369.01,-153.73 379.53,-152.48 370.53,-146.9 369.01,-153.73"/>
</g>
<!-- Node145 -->
<g id="node7" class="node">
<title>Node145</title>
<g id="a_node7"><a xlink:href="classMR24FDB1.html#a944e9bede6552294ea9940ae6fda3b96" target="_top" xlink:title="wait until packet of the specified type is recieved ">
<polygon fill="white" stroke="black" points="367,-95.5 367,-114.5 480,-114.5 480,-95.5 367,-95.5"/>
<text text-anchor="middle" x="423.5" y="-102.5" font-family="Helvetica,sans-Serif" font-size="10.00">MR24FDB1::waitFor</text>
</a>
</g>
</g>
<!-- Node140&#45;&gt;Node145 -->
<g id="edge6" class="edge">
<title>Node140&#45;&gt;Node145</title>
<path fill="none" stroke="midnightblue" d="M329.22,-115.33C338.46,-114.31 347.83,-113.27 356.87,-112.27"/>
<polygon fill="midnightblue" stroke="midnightblue" points="357.37,-115.74 366.92,-111.16 356.6,-108.78 357.37,-115.74"/>
</g>
<!-- Node142 -->
<g id="node4" class="node">
<title>Node142</title>
<g id="a_node4"><a xlink:href="classMR24FDB1.html#af148f4391ab1003e82d4497d8072aaa0" target="_top" xlink:title="calculate and add crc16 at end of buffer ">
<polygon fill="white" stroke="black" points="551,-152.5 551,-171.5 673,-171.5 673,-152.5 551,-152.5"/>
<text text-anchor="middle" x="612" y="-159.5" font-family="Helvetica,sans-Serif" font-size="10.00">MR24FDB1::addCrc16</text>
</a>
</g>
</g>
<!-- Node141&#45;&gt;Node142 -->
<g id="edge3" class="edge">
<title>Node141&#45;&gt;Node142</title>
<path fill="none" stroke="midnightblue" d="M482.23,-162C500.73,-162 521.42,-162 540.72,-162"/>
<polygon fill="midnightblue" stroke="midnightblue" points="540.96,-165.5 550.96,-162 540.96,-158.5 540.96,-165.5"/>
</g>
<!-- Node144 -->
<g id="node6" class="node">
<title>Node144</title>
<g id="a_node6"><a xlink:href="classMR24FDB1.html#a586848e9efe86b47520f92e049c502eb" target="_top" xlink:title="send a packet to the module ">
<polygon fill="white" stroke="black" points="546,-190.5 546,-209.5 678,-209.5 678,-190.5 546,-190.5"/>
<text text-anchor="middle" x="612" y="-197.5" font-family="Helvetica,sans-Serif" font-size="10.00">MR24FDB1::sendPacket</text>
</a>
</g>
</g>
<!-- Node141&#45;&gt;Node144 -->
<g id="edge5" class="edge">
<title>Node141&#45;&gt;Node144</title>
<path fill="none" stroke="midnightblue" d="M471.56,-171.59C496.73,-176.72 527.9,-183.07 554.38,-188.46"/>
<polygon fill="midnightblue" stroke="midnightblue" points="553.78,-191.91 564.28,-190.48 555.18,-185.05 553.78,-191.91"/>
</g>
<!-- Node143 -->
<g id="node5" class="node">
<title>Node143</title>
<g id="a_node5"><a xlink:href="classMR24FDB1.html#af7b82f23ec8f67c955ae413f4a078af0" target="_top" xlink:title="calculate crc16 of current packet ">
<polygon fill="white" stroke="black" points="744,-152.5 744,-171.5 893,-171.5 893,-152.5 744,-152.5"/>
<text text-anchor="middle" x="818.5" y="-159.5" font-family="Helvetica,sans-Serif" font-size="10.00">MR24FDB1::calculateCrc16</text>
</a>
</g>
</g>
<!-- Node142&#45;&gt;Node143 -->
<g id="edge4" class="edge">
<title>Node142&#45;&gt;Node143</title>
<path fill="none" stroke="midnightblue" d="M673.25,-162C692.2,-162 713.48,-162 733.75,-162"/>
<polygon fill="midnightblue" stroke="midnightblue" points="733.92,-165.5 743.92,-162 733.92,-158.5 733.92,-165.5"/>
</g>
<!-- Node146 -->
<g id="node8" class="node">
<title>Node146</title>
<g id="a_node8"><a xlink:href="classMR24FDB1.html#a8a6f5bebfe9e2f9232e58f0ff909042a" target="_top" xlink:title="parse packet ">
<polygon fill="white" stroke="black" points="544,-38.5 544,-57.5 680,-57.5 680,-38.5 544,-38.5"/>
<text text-anchor="middle" x="612" y="-45.5" font-family="Helvetica,sans-Serif" font-size="10.00">MR24FDB1::parsePacket</text>
</a>
</g>
</g>
<!-- Node145&#45;&gt;Node146 -->
<g id="edge7" class="edge">
<title>Node145&#45;&gt;Node146</title>
<path fill="none" stroke="midnightblue" d="M444.9,-95.43C463.58,-86.98 492.17,-74.81 518,-67 526.8,-64.34 536.19,-61.93 545.48,-59.8"/>
<polygon fill="midnightblue" stroke="midnightblue" points="546.49,-63.16 555.5,-57.59 544.98,-56.32 546.49,-63.16"/>
</g>
<!-- Node151 -->
<g id="node13" class="node">
<title>Node151</title>
<g id="a_node13"><a xlink:href="classMR24FDB1.html#a5e44c632274bde4a6e22f35d80a782f0" target="_top" xlink:title="get a packet from the chip ">
<polygon fill="white" stroke="black" points="546.5,-114.5 546.5,-133.5 677.5,-133.5 677.5,-114.5 546.5,-114.5"/>
<text text-anchor="middle" x="612" y="-121.5" font-family="Helvetica,sans-Serif" font-size="10.00">MR24FDB1::readPacket</text>
</a>
</g>
</g>
<!-- Node145&#45;&gt;Node151 -->
<g id="edge13" class="edge">
<title>Node145&#45;&gt;Node151</title>
<path fill="none" stroke="midnightblue" d="M480.2,-110.67C497.85,-112.47 517.66,-114.49 536.41,-116.4"/>
<polygon fill="midnightblue" stroke="midnightblue" points="536.1,-119.89 546.41,-117.42 536.81,-112.92 536.1,-119.89"/>
</g>
<!-- Node153 -->
<g id="node15" class="node">
<title>Node153</title>
<g id="a_node15"><a xlink:href="classMR24FDB1__Exception.html#a695552f5db7be7840c1af8650af0c235" target="_top" xlink:title="decode error from the Result,class,group , function etc... ">
<polygon fill="white" stroke="black" points="518,-76.5 518,-95.5 706,-95.5 706,-76.5 518,-76.5"/>
<text text-anchor="middle" x="612" y="-83.5" font-family="Helvetica,sans-Serif" font-size="10.00">MR24FDB1_Exception::decodeError</text>
</a>
</g>
</g>
<!-- Node145&#45;&gt;Node153 -->
<g id="edge16" class="edge">
<title>Node145&#45;&gt;Node153</title>
<path fill="none" stroke="midnightblue" d="M480.2,-99.33C489.05,-98.42 498.43,-97.47 507.95,-96.5"/>
<polygon fill="midnightblue" stroke="midnightblue" points="508.31,-99.98 517.91,-95.48 507.6,-93.02 508.31,-99.98"/>
</g>
<!-- Node147 -->
<g id="node9" class="node">
<title>Node147</title>
<g id="a_node9"><a xlink:href="classMR24FDB1.html#a2ccfe8221167944b882b5747b07dae22" target="_top" xlink:title="parse fall type packet ">
<polygon fill="white" stroke="black" points="742,-38.5 742,-57.5 895,-57.5 895,-38.5 742,-38.5"/>
<text text-anchor="middle" x="818.5" y="-45.5" font-family="Helvetica,sans-Serif" font-size="10.00">MR24FDB1::parseFallReport</text>
</a>
</g>
</g>
<!-- Node146&#45;&gt;Node147 -->
<g id="edge8" class="edge">
<title>Node146&#45;&gt;Node147</title>
<path fill="none" stroke="midnightblue" d="M680.24,-48C696.69,-48 714.51,-48 731.69,-48"/>
<polygon fill="midnightblue" stroke="midnightblue" points="731.72,-51.5 741.72,-48 731.72,-44.5 731.72,-51.5"/>
</g>
<!-- Node148 -->
<g id="node10" class="node">
<title>Node148</title>
<g id="a_node10"><a xlink:href="classMR24FDB1.html#a1759ec9442c191ee6ddc09137a9c0528" target="_top" xlink:title="parse report type packet ">
<polygon fill="white" stroke="black" points="750.5,-0.5 750.5,-19.5 886.5,-19.5 886.5,-0.5 750.5,-0.5"/>
<text text-anchor="middle" x="818.5" y="-7.5" font-family="Helvetica,sans-Serif" font-size="10.00">MR24FDB1::parseReport</text>
</a>
</g>
</g>
<!-- Node146&#45;&gt;Node148 -->
<g id="edge9" class="edge">
<title>Node146&#45;&gt;Node148</title>
<path fill="none" stroke="midnightblue" d="M664.34,-38.46C692.17,-33.29 726.77,-26.86 756.03,-21.42"/>
<polygon fill="midnightblue" stroke="midnightblue" points="756.95,-24.81 766.14,-19.54 755.67,-17.93 756.95,-24.81"/>
</g>
<!-- Node150 -->
<g id="node12" class="node">
<title>Node150</title>
<g id="a_node12"><a xlink:href="classMR24FDB1.html#a55ecfd4dffd4d04c97dcd6e6e264ad61" target="_top" xlink:title="parse reponce type packet ">
<polygon fill="white" stroke="black" points="743,-76.5 743,-95.5 894,-95.5 894,-76.5 743,-76.5"/>
<text text-anchor="middle" x="818.5" y="-83.5" font-family="Helvetica,sans-Serif" font-size="10.00">MR24FDB1::parseResponce</text>
</a>
</g>
</g>
<!-- Node146&#45;&gt;Node150 -->
<g id="edge11" class="edge">
<title>Node146&#45;&gt;Node150</title>
<path fill="none" stroke="midnightblue" d="M664.34,-57.54C692.17,-62.71 726.77,-69.14 756.03,-74.58"/>
<polygon fill="midnightblue" stroke="midnightblue" points="755.67,-78.07 766.14,-76.46 756.95,-71.19 755.67,-78.07"/>
</g>
<!-- Node149 -->
<g id="node11" class="node">
<title>Node149</title>
<g id="a_node11"><a xlink:href="classMR24FDB1.html#ae444c38bb80decf58cabe5b12005b819" target="_top" xlink:title="parse Radar group responces and reports ">
<polygon fill="white" stroke="black" points="931,-38.5 931,-57.5 1071,-57.5 1071,-38.5 931,-38.5"/>
<text text-anchor="middle" x="1001" y="-45.5" font-family="Helvetica,sans-Serif" font-size="10.00">MR24FDB1::decodeRadar</text>
</a>
</g>
</g>
<!-- Node148&#45;&gt;Node149 -->
<g id="edge10" class="edge">
<title>Node148&#45;&gt;Node149</title>
<path fill="none" stroke="midnightblue" d="M865.05,-19.59C889.3,-24.69 919.3,-31.01 944.86,-36.39"/>
<polygon fill="midnightblue" stroke="midnightblue" points="944.27,-39.84 954.78,-38.48 945.72,-32.99 944.27,-39.84"/>
</g>
<!-- Node150&#45;&gt;Node149 -->
<g id="edge12" class="edge">
<title>Node150&#45;&gt;Node149</title>
<path fill="none" stroke="midnightblue" d="M865.05,-76.41C889.3,-71.31 919.3,-64.99 944.86,-59.61"/>
<polygon fill="midnightblue" stroke="midnightblue" points="945.72,-63.01 954.78,-57.52 944.27,-56.16 945.72,-63.01"/>
</g>
<!-- Node151&#45;&gt;Node143 -->
<g id="edge14" class="edge">
<title>Node151&#45;&gt;Node143</title>
<path fill="none" stroke="midnightblue" d="M664.34,-133.54C692.17,-138.71 726.77,-145.14 756.03,-150.58"/>
<polygon fill="midnightblue" stroke="midnightblue" points="755.67,-154.07 766.14,-152.46 756.95,-147.19 755.67,-154.07"/>
</g>
<!-- Node152 -->
<g id="node14" class="node">
<title>Node152</title>
<g id="a_node14"><a xlink:href="classMR24FDB1.html#a3de11c024f9b20321cce5d98cd534c3e" target="_top" xlink:title="get one byte from serial ">
<polygon fill="white" stroke="black" points="758,-114.5 758,-133.5 879,-133.5 879,-114.5 758,-114.5"/>
<text text-anchor="middle" x="818.5" y="-121.5" font-family="Helvetica,sans-Serif" font-size="10.00">MR24FDB1::readByte</text>
</a>
</g>
</g>
<!-- Node151&#45;&gt;Node152 -->
<g id="edge15" class="edge">
<title>Node151&#45;&gt;Node152</title>
<path fill="none" stroke="midnightblue" d="M677.71,-124C699.93,-124 724.9,-124 747.52,-124"/>
<polygon fill="midnightblue" stroke="midnightblue" points="747.73,-127.5 757.73,-124 747.73,-120.5 747.73,-127.5"/>
</g>
</g>
</svg>
        <g id="navigator" transform="translate(0 0)" fill="#404254">
                <rect fill="#f2f5e9" fill-opacity="0.5" stroke="#606060" stroke-width=".5" x="0" y="0" width="60" height="60"/>
                <use id="zoomplus" xlink:href="#zoomPlus" x="17" y="9" onmousedown="handleZoom(evt,'in')"/>
                <use id="zoomminus" xlink:href="#zoomMin" x="42" y="9" onmousedown="handleZoom(evt,'out')"/>
                <use id="reset" xlink:href="#resetDef" x="30" y="36" onmousedown="handleReset()"/>
                <g id="arrowUp" xlink:href="#dirArrow" transform="translate(30 24)" onmousedown="handlePan(0,-1)">
                  <use xlink:href="#rim" fill="#404040">
                        <set attributeName="fill" to="#808080" begin="arrowUp.mouseover" end="arrowUp.mouseout"/>
                  </use>
                  <path fill="none" stroke="white" stroke-width="1.5" d="M0,-3.0v7 M-2.5,-0.5L0,-3.0L2.5,-0.5"/>
                </g>
                <g id="arrowRight" xlink:href="#dirArrow" transform="rotate(90) translate(36 -43)" onmousedown="handlePan(1,0)">
                  <use xlink:href="#rim" fill="#404040">
                        <set attributeName="fill" to="#808080" begin="arrowRight.mouseover" end="arrowRight.mouseout"/>
                  </use>
                  <path fill="none" stroke="white" stroke-width="1.5" d="M0,-3.0v7 M-2.5,-0.5L0,-3.0L2.5,-0.5"/>
                </g>
                <g id="arrowDown" xlink:href="#dirArrow" transform="rotate(180) translate(-30 -48)" onmousedown="handlePan(0,1)">
                  <use xlink:href="#rim" fill="#404040">
                        <set attributeName="fill" to="#808080" begin="arrowDown.mouseover" end="arrowDown.mouseout"/>
                  </use>
                  <path fill="none" stroke="white" stroke-width="1.5" d="M0,-3.0v7 M-2.5,-0.5L0,-3.0L2.5,-0.5"/>
                </g>
                <g id="arrowLeft" xlink:href="#dirArrow" transform="rotate(270) translate(-36 17)" onmousedown="handlePan(-1,0)">
                  <use xlink:href="#rim" fill="#404040">
                        <set attributeName="fill" to="#808080" begin="arrowLeft.mouseover" end="arrowLeft.mouseout"/>
                  </use>
                  <path fill="none" stroke="white" stroke-width="1.5" d="M0,-3.0v7 M-2.5,-0.5L0,-3.0L2.5,-0.5"/>
                </g>
        </g>
        <svg viewBox="0 0 15 15" width="100%" height="30px" preserveAspectRatio="xMaxYMin meet">
         <g id="arrow_out" transform="scale(0.3 0.3)">
          <a xlink:href="classMR24FDB1_a6a61bdca02e1a9ab2c6ab83c3ee2ff21_cgraph_org.svg" target="_base">
           <rect id="button" ry="5" rx="5" y="6" x="6" height="38" width="38"
                fill="#f2f5e9" fill-opacity="0.5" stroke="#606060" stroke-width="1.0"/>
           <path id="arrow"
             d="M 11.500037,31.436501 C 11.940474,20.09759 22.043105,11.32322 32.158766,21.979434 L 37.068811,17.246167 C 37.068811,17.246167 37.088388,32 37.088388,32 L 22.160133,31.978069 C 22.160133,31.978069 26.997745,27.140456 26.997745,27.140456 C 18.528582,18.264221 13.291696,25.230495 11.500037,31.436501 z"
             style="fill:#404040;"/>
          </a>
         </g>
        </svg>
</svg>
