<?xml version="1.0" encoding="UTF-8" standalone="no"?>
<!DOCTYPE svg PUBLIC "-//W3C//DTD SVG 1.1//EN"
 "http://www.w3.org/Graphics/SVG/1.1/DTD/svg11.dtd">
<!-- Generated by graphviz version 2.43.0 (0)
 -->
<!-- Title: MR24FDB1::waitFor Pages: 1 -->
<svg width="710pt" height="180pt"
 viewBox="0.00 0.00 710.00 180.00" xmlns="http://www.w3.org/2000/svg" xmlns:xlink="http://www.w3.org/1999/xlink">
<g id="graph0" class="graph" transform="scale(1 1) rotate(0) translate(4 176)">
<title>MR24FDB1::waitFor</title>
<polygon fill="white" stroke="transparent" points="-4,4 -4,-176 706,-176 706,4 -4,4"/>
<!-- Node114 -->
<g id="node1" class="node">
<title>Node114</title>
<g id="a_node1"><a xlink:title="wait until packet of the specified type is recieved ">
<polygon fill="#bfbfbf" stroke="black" points="0,-38.5 0,-57.5 113,-57.5 113,-38.5 0,-38.5"/>
<text text-anchor="middle" x="56.5" y="-45.5" font-family="Helvetica,sans-Serif" font-size="10.00">MR24FDB1::waitFor</text>
</a>
</g>
</g>
<!-- Node115 -->
<g id="node2" class="node">
<title>Node115</title>
<g id="a_node2"><a xlink:href="classMR24FDB1.html#a8a6f5bebfe9e2f9232e58f0ff909042a" target="_top" xlink:title="parse packet ">
<polygon fill="white" stroke="black" points="175,-95.5 175,-114.5 311,-114.5 311,-95.5 175,-95.5"/>
<text text-anchor="middle" x="243" y="-102.5" font-family="Helvetica,sans-Serif" font-size="10.00">MR24FDB1::parsePacket</text>
</a>
</g>
</g>
<!-- Node114&#45;&gt;Node115 -->
<g id="edge1" class="edge">
<title>Node114&#45;&gt;Node115</title>
<path fill="none" stroke="midnightblue" d="M88.38,-57.54C119.38,-67.12 167.3,-81.92 201.36,-92.45"/>
<polygon fill="midnightblue" stroke="midnightblue" points="200.43,-95.82 211.02,-95.43 202.5,-89.13 200.43,-95.82"/>
</g>
<!-- Node120 -->
<g id="node7" class="node">
<title>Node120</title>
<g id="a_node7"><a xlink:href="classMR24FDB1.html#a5e44c632274bde4a6e22f35d80a782f0" target="_top" xlink:title="get a packet from the chip ">
<polygon fill="white" stroke="black" points="177.5,-38.5 177.5,-57.5 308.5,-57.5 308.5,-38.5 177.5,-38.5"/>
<text text-anchor="middle" x="243" y="-45.5" font-family="Helvetica,sans-Serif" font-size="10.00">MR24FDB1::readPacket</text>
</a>
</g>
</g>
<!-- Node114&#45;&gt;Node120 -->
<g id="edge7" class="edge">
<title>Node114&#45;&gt;Node120</title>
<path fill="none" stroke="midnightblue" d="M113.11,-48C130.13,-48 149.13,-48 167.21,-48"/>
<polygon fill="midnightblue" stroke="midnightblue" points="167.43,-51.5 177.43,-48 167.43,-44.5 167.43,-51.5"/>
</g>
<!-- Node123 -->
<g id="node10" class="node">
<title>Node123</title>
<g id="a_node10"><a xlink:href="classMR24FDB1__Exception.html#a695552f5db7be7840c1af8650af0c235" target="_top" xlink:title="decode error from the Result,class,group , function etc... ">
<polygon fill="white" stroke="black" points="149,-0.5 149,-19.5 337,-19.5 337,-0.5 149,-0.5"/>
<text text-anchor="middle" x="243" y="-7.5" font-family="Helvetica,sans-Serif" font-size="10.00">MR24FDB1_Exception::decodeError</text>
</a>
</g>
</g>
<!-- Node114&#45;&gt;Node123 -->
<g id="edge10" class="edge">
<title>Node114&#45;&gt;Node123</title>
<path fill="none" stroke="midnightblue" d="M103.57,-38.4C118.11,-35.38 134.22,-32.04 149,-29 160.73,-26.58 173.29,-24.01 185.27,-21.56"/>
<polygon fill="midnightblue" stroke="midnightblue" points="186.06,-24.97 195.16,-19.54 184.66,-18.11 186.06,-24.97"/>
</g>
<!-- Node116 -->
<g id="node3" class="node">
<title>Node116</title>
<g id="a_node3"><a xlink:href="classMR24FDB1.html#a2ccfe8221167944b882b5747b07dae22" target="_top" xlink:title="parse fall type packet ">
<polygon fill="white" stroke="black" points="373,-152.5 373,-171.5 526,-171.5 526,-152.5 373,-152.5"/>
<text text-anchor="middle" x="449.5" y="-159.5" font-family="Helvetica,sans-Serif" font-size="10.00">MR24FDB1::parseFallReport</text>
</a>
</g>
</g>
<!-- Node115&#45;&gt;Node116 -->
<g id="edge2" class="edge">
<title>Node115&#45;&gt;Node116</title>
<path fill="none" stroke="midnightblue" d="M275.18,-114.56C301.25,-122.47 339.44,-133.84 373,-143 381.53,-145.33 390.62,-147.71 399.44,-149.96"/>
<polygon fill="midnightblue" stroke="midnightblue" points="398.68,-153.38 409.24,-152.43 400.4,-146.59 398.68,-153.38"/>
</g>
<!-- Node117 -->
<g id="node4" class="node">
<title>Node117</title>
<g id="a_node4"><a xlink:href="classMR24FDB1.html#a1759ec9442c191ee6ddc09137a9c0528" target="_top" xlink:title="parse report type packet ">
<polygon fill="white" stroke="black" points="381.5,-114.5 381.5,-133.5 517.5,-133.5 517.5,-114.5 381.5,-114.5"/>
<text text-anchor="middle" x="449.5" y="-121.5" font-family="Helvetica,sans-Serif" font-size="10.00">MR24FDB1::parseReport</text>
</a>
</g>
</g>
<!-- Node115&#45;&gt;Node117 -->
<g id="edge3" class="edge">
<title>Node115&#45;&gt;Node117</title>
<path fill="none" stroke="midnightblue" d="M311.24,-111.25C330.38,-113.03 351.37,-114.98 371.06,-116.8"/>
<polygon fill="midnightblue" stroke="midnightblue" points="370.93,-120.31 381.22,-117.75 371.58,-113.34 370.93,-120.31"/>
</g>
<!-- Node119 -->
<g id="node6" class="node">
<title>Node119</title>
<g id="a_node6"><a xlink:href="classMR24FDB1.html#a55ecfd4dffd4d04c97dcd6e6e264ad61" target="_top" xlink:title="parse reponce type packet ">
<polygon fill="white" stroke="black" points="374,-76.5 374,-95.5 525,-95.5 525,-76.5 374,-76.5"/>
<text text-anchor="middle" x="449.5" y="-83.5" font-family="Helvetica,sans-Serif" font-size="10.00">MR24FDB1::parseResponce</text>
</a>
</g>
</g>
<!-- Node115&#45;&gt;Node119 -->
<g id="edge5" class="edge">
<title>Node115&#45;&gt;Node119</title>
<path fill="none" stroke="midnightblue" d="M311.24,-98.75C327.98,-97.2 346.14,-95.51 363.61,-93.89"/>
<polygon fill="midnightblue" stroke="midnightblue" points="364.16,-97.35 373.8,-92.94 363.52,-90.38 364.16,-97.35"/>
</g>
<!-- Node118 -->
<g id="node5" class="node">
<title>Node118</title>
<g id="a_node5"><a xlink:href="classMR24FDB1.html#ae444c38bb80decf58cabe5b12005b819" target="_top" xlink:title="parse Radar group responces and reports ">
<polygon fill="white" stroke="black" points="562,-95.5 562,-114.5 702,-114.5 702,-95.5 562,-95.5"/>
<text text-anchor="middle" x="632" y="-102.5" font-family="Helvetica,sans-Serif" font-size="10.00">MR24FDB1::decodeRadar</text>
</a>
</g>
</g>
<!-- Node117&#45;&gt;Node118 -->
<g id="edge4" class="edge">
<title>Node117&#45;&gt;Node118</title>
<path fill="none" stroke="midnightblue" d="M517.71,-116.93C528.87,-115.75 540.54,-114.52 551.97,-113.32"/>
<polygon fill="midnightblue" stroke="midnightblue" points="552.34,-116.8 561.92,-112.27 551.61,-109.84 552.34,-116.8"/>
</g>
<!-- Node119&#45;&gt;Node118 -->
<g id="edge6" class="edge">
<title>Node119&#45;&gt;Node118</title>
<path fill="none" stroke="midnightblue" d="M525.22,-93.87C533.93,-94.78 542.85,-95.72 551.62,-96.64"/>
<polygon fill="midnightblue" stroke="midnightblue" points="551.52,-100.15 561.83,-97.72 552.26,-93.19 551.52,-100.15"/>
</g>
<!-- Node121 -->
<g id="node8" class="node">
<title>Node121</title>
<g id="a_node8"><a xlink:href="classMR24FDB1.html#af7b82f23ec8f67c955ae413f4a078af0" target="_top" xlink:title="calculate crc16 of current packet ">
<polygon fill="white" stroke="black" points="375,-38.5 375,-57.5 524,-57.5 524,-38.5 375,-38.5"/>
<text text-anchor="middle" x="449.5" y="-45.5" font-family="Helvetica,sans-Serif" font-size="10.00">MR24FDB1::calculateCrc16</text>
</a>
</g>
</g>
<!-- Node120&#45;&gt;Node121 -->
<g id="edge8" class="edge">
<title>Node120&#45;&gt;Node121</title>
<path fill="none" stroke="midnightblue" d="M308.71,-48C326.56,-48 346.19,-48 364.95,-48"/>
<polygon fill="midnightblue" stroke="midnightblue" points="364.96,-51.5 374.96,-48 364.96,-44.5 364.96,-51.5"/>
</g>
<!-- Node122 -->
<g id="node9" class="node">
<title>Node122</title>
<g id="a_node9"><a xlink:href="classMR24FDB1.html#a3de11c024f9b20321cce5d98cd534c3e" target="_top" xlink:title="get one byte from serial ">
<polygon fill="white" stroke="black" points="389,-0.5 389,-19.5 510,-19.5 510,-0.5 389,-0.5"/>
<text text-anchor="middle" x="449.5" y="-7.5" font-family="Helvetica,sans-Serif" font-size="10.00">MR24FDB1::readByte</text>
</a>
</g>
</g>
<!-- Node120&#45;&gt;Node122 -->
<g id="edge9" class="edge">
<title>Node120&#45;&gt;Node122</title>
<path fill="none" stroke="midnightblue" d="M295.34,-38.46C323.17,-33.29 357.77,-26.86 387.03,-21.42"/>
<polygon fill="midnightblue" stroke="midnightblue" points="387.95,-24.81 397.14,-19.54 386.67,-17.93 387.95,-24.81"/>
</g>
</g>
</svg>
