<?xml version="1.0" encoding="UTF-8" standalone="no"?>
<!DOCTYPE svg PUBLIC "-//W3C//DTD SVG 1.1//EN"
 "http://www.w3.org/Graphics/SVG/1.1/DTD/svg11.dtd">
<!-- Generated by graphviz version 2.43.0 (0)
 -->
<!-- Title: MR24FDB1::parseFallReport Pages: 1 -->
<svg width="1028pt" height="477pt"
 viewBox="0.00 0.00 1028.00 477.47" xmlns="http://www.w3.org/2000/svg" xmlns:xlink="http://www.w3.org/1999/xlink">
<g id="graph0" class="graph" transform="scale(1 1) rotate(0) translate(4 473.47)">
<title>MR24FDB1::parseFallReport</title>
<polygon fill="white" stroke="transparent" points="-4,4 -4,-473.47 1024,-473.47 1024,4 -4,4"/>
<!-- Node509 -->
<g id="node1" class="node">
<title>Node509</title>
<g id="a_node1"><a xlink:title="parse fall type packet ">
<polygon fill="#bfbfbf" stroke="black" points="0,-380.5 0,-399.5 153,-399.5 153,-380.5 0,-380.5"/>
<text text-anchor="middle" x="76.5" y="-387.5" font-family="Helvetica,sans-Serif" font-size="10.00">MR24FDB1::parseFallReport</text>
</a>
</g>
</g>
<!-- Node510 -->
<g id="node2" class="node">
<title>Node510</title>
<g id="a_node2"><a xlink:href="classMR24FDB1.html#a8a6f5bebfe9e2f9232e58f0ff909042a" target="_top" xlink:title="parse packet ">
<polygon fill="white" stroke="black" points="189,-380.5 189,-399.5 325,-399.5 325,-380.5 189,-380.5"/>
<text text-anchor="middle" x="257" y="-387.5" font-family="Helvetica,sans-Serif" font-size="10.00">MR24FDB1::parsePacket</text>
</a>
</g>
</g>
<!-- Node509&#45;&gt;Node510 -->
<g id="edge1" class="edge">
<title>Node509&#45;&gt;Node510</title>
<path fill="none" stroke="midnightblue" d="M163.28,-390C171.9,-390 180.56,-390 188.95,-390"/>
<polygon fill="midnightblue" stroke="midnightblue" points="163.2,-386.5 153.2,-390 163.2,-393.5 163.2,-386.5"/>
</g>
<!-- Node511 -->
<g id="node3" class="node">
<title>Node511</title>
<g id="a_node3"><a xlink:href="classMR24FDB1.html#a0c0b8071f5d90b32f3c109ff71ff2ec0" target="_top" xlink:title="send test ">
<polygon fill="white" stroke="black" points="901,-190.5 901,-209.5 1020,-209.5 1020,-190.5 901,-190.5"/>
<text text-anchor="middle" x="960.5" y="-197.5" font-family="Helvetica,sans-Serif" font-size="10.00">MR24FDB1::testSend</text>
</a>
</g>
</g>
<!-- Node510&#45;&gt;Node511 -->
<g id="edge2" class="edge">
<title>Node510&#45;&gt;Node511</title>
<path fill="none" stroke="midnightblue" d="M291.64,-403.21C389.5,-439.3 678.9,-529.09 865,-409 937.61,-362.15 955.02,-244.55 958.64,-209.81"/>
<polygon fill="midnightblue" stroke="midnightblue" points="292.58,-399.83 281.98,-399.6 290.12,-406.38 292.58,-399.83"/>
</g>
<!-- Node512 -->
<g id="node4" class="node">
<title>Node512</title>
<g id="a_node4"><a xlink:href="classMR24FDB1.html#a944e9bede6552294ea9940ae6fda3b96" target="_top" xlink:title="wait until packet of the specified type is recieved ">
<polygon fill="white" stroke="black" points="361,-285.5 361,-304.5 474,-304.5 474,-285.5 361,-285.5"/>
<text text-anchor="middle" x="417.5" y="-292.5" font-family="Helvetica,sans-Serif" font-size="10.00">MR24FDB1::waitFor</text>
</a>
</g>
</g>
<!-- Node510&#45;&gt;Node512 -->
<g id="edge3" class="edge">
<title>Node510&#45;&gt;Node512</title>
<path fill="none" stroke="midnightblue" d="M283.06,-374.98C315.94,-355.27 372.71,-321.25 400.39,-304.66"/>
<polygon fill="midnightblue" stroke="midnightblue" points="280.85,-372.23 274.07,-380.37 284.45,-378.23 280.85,-372.23"/>
</g>
<!-- Node513 -->
<g id="node5" class="node">
<title>Node513</title>
<g id="a_node5"><a xlink:href="classMR24FDB1.html#a23542b21cc78944a36d941eb4eaaf29d" target="_top" xlink:title="reboot ">
<polygon fill="white" stroke="black" points="535,-285.5 535,-304.5 643,-304.5 643,-285.5 535,-285.5"/>
<text text-anchor="middle" x="589" y="-292.5" font-family="Helvetica,sans-Serif" font-size="10.00">MR24FDB1::reboot</text>
</a>
</g>
</g>
<!-- Node512&#45;&gt;Node513 -->
<g id="edge4" class="edge">
<title>Node512&#45;&gt;Node513</title>
<path fill="none" stroke="midnightblue" d="M484.29,-295C501.08,-295 518.91,-295 534.97,-295"/>
<polygon fill="midnightblue" stroke="midnightblue" points="484,-291.5 474,-295 484,-298.5 484,-291.5"/>
</g>
<!-- Node514 -->
<g id="node6" class="node">
<title>Node514</title>
<g id="a_node6"><a xlink:href="classMR24FDB1.html#a7dfa1c269d0979718203f9202d4e8578" target="_top" xlink:title="send a &quot;GET&quot; packet to the module and wait for responce ">
<polygon fill="white" stroke="black" points="510,-209.5 510,-228.5 668,-228.5 668,-209.5 510,-209.5"/>
<text text-anchor="middle" x="589" y="-216.5" font-family="Helvetica,sans-Serif" font-size="10.00">MR24FDB1::sendGetAndWait</text>
</a>
</g>
</g>
<!-- Node512&#45;&gt;Node514 -->
<g id="edge5" class="edge">
<title>Node512&#45;&gt;Node514</title>
<path fill="none" stroke="midnightblue" d="M449.42,-281.14C483.41,-265.9 537.13,-241.81 566.71,-228.55"/>
<polygon fill="midnightblue" stroke="midnightblue" points="447.66,-278.09 439.97,-285.37 450.52,-284.48 447.66,-278.09"/>
</g>
<!-- Node515 -->
<g id="node7" class="node">
<title>Node515</title>
<g id="a_node7"><a xlink:href="classMR24FDB1.html#a6a61bdca02e1a9ab2c6ab83c3ee2ff21" target="_top" xlink:title="requests Device Id ">
<polygon fill="white" stroke="black" points="717,-380.5 717,-399.5 852,-399.5 852,-380.5 717,-380.5"/>
<text text-anchor="middle" x="784.5" y="-387.5" font-family="Helvetica,sans-Serif" font-size="10.00">MR24FDB1::getDeviceId</text>
</a>
</g>
</g>
<!-- Node514&#45;&gt;Node515 -->
<g id="edge6" class="edge">
<title>Node514&#45;&gt;Node515</title>
<path fill="none" stroke="midnightblue" d="M617.55,-233.66C634.12,-243.68 654.54,-258.33 668,-276 695.36,-311.92 670.1,-341.17 704,-371 708.37,-374.84 713.38,-377.94 718.71,-380.44"/>
<polygon fill="midnightblue" stroke="midnightblue" points="619.22,-230.58 608.81,-228.58 615.7,-236.63 619.22,-230.58"/>
</g>
<!-- Node516 -->
<g id="node8" class="node">
<title>Node516</title>
<g id="a_node8"><a xlink:href="classMR24FDB1.html#a10ef6d7b6a0d7819b84361c907604fe0" target="_top" xlink:title="get status of fall enable switch ">
<polygon fill="white" stroke="black" points="713,-342.5 713,-361.5 856,-361.5 856,-342.5 713,-342.5"/>
<text text-anchor="middle" x="784.5" y="-349.5" font-family="Helvetica,sans-Serif" font-size="10.00">MR24FDB1::getFallEnable</text>
</a>
</g>
</g>
<!-- Node514&#45;&gt;Node516 -->
<g id="edge7" class="edge">
<title>Node514&#45;&gt;Node516</title>
<path fill="none" stroke="midnightblue" d="M615.14,-233.88C631.43,-244.32 652.44,-259.35 668,-276 688.46,-297.89 679.63,-315.57 704,-333 709.42,-336.88 715.54,-339.98 721.9,-342.45"/>
<polygon fill="midnightblue" stroke="midnightblue" points="616.97,-230.9 606.64,-228.57 613.26,-236.84 616.97,-230.9"/>
</g>
<!-- Node517 -->
<g id="node9" class="node">
<title>Node517</title>
<g id="a_node9"><a xlink:href="classMR24FDB1.html#a122352e437a57083aba3823b512e2c31" target="_top" xlink:title="get status of fall sensitivty setting ">
<polygon fill="white" stroke="black" points="704,-304.5 704,-323.5 865,-323.5 865,-304.5 704,-304.5"/>
<text text-anchor="middle" x="784.5" y="-311.5" font-family="Helvetica,sans-Serif" font-size="10.00">MR24FDB1::getFallSensitivity</text>
</a>
</g>
</g>
<!-- Node514&#45;&gt;Node517 -->
<g id="edge8" class="edge">
<title>Node514&#45;&gt;Node517</title>
<path fill="none" stroke="midnightblue" d="M611.26,-234.49C638.63,-254.2 684.92,-286.68 704,-295 712.71,-298.8 722.31,-301.91 731.74,-304.44"/>
<polygon fill="midnightblue" stroke="midnightblue" points="613.25,-231.62 603.1,-228.59 609.15,-237.29 613.25,-231.62"/>
</g>
<!-- Node518 -->
<g id="node10" class="node">
<title>Node518</title>
<g id="a_node10"><a xlink:href="classMR24FDB1.html#a6e729c642bc4f67e6ce076fb0fa2aa3e" target="_top" xlink:title="get status of fall warning time setting ">
<polygon fill="white" stroke="black" points="705,-266.5 705,-285.5 864,-285.5 864,-266.5 705,-266.5"/>
<text text-anchor="middle" x="784.5" y="-273.5" font-family="Helvetica,sans-Serif" font-size="10.00">MR24FDB1::getFallWarnTime</text>
</a>
</g>
</g>
<!-- Node514&#45;&gt;Node518 -->
<g id="edge9" class="edge">
<title>Node514&#45;&gt;Node518</title>
<path fill="none" stroke="midnightblue" d="M626.23,-231.97C648.51,-239.73 677.73,-249.5 704,-257 715.73,-260.35 728.56,-263.6 740.41,-266.43"/>
<polygon fill="midnightblue" stroke="midnightblue" points="627.11,-228.57 616.51,-228.57 624.79,-235.18 627.11,-228.57"/>
</g>
<!-- Node519 -->
<g id="node11" class="node">
<title>Node519</title>
<g id="a_node11"><a xlink:href="classMR24FDB1.html#a9c858e6eae2bf95de4340b7bb4fe07e7" target="_top" xlink:title="requests Hardware version ">
<polygon fill="white" stroke="black" points="706.5,-228.5 706.5,-247.5 862.5,-247.5 862.5,-228.5 706.5,-228.5"/>
<text text-anchor="middle" x="784.5" y="-235.5" font-family="Helvetica,sans-Serif" font-size="10.00">MR24FDB1::getHardwareVer</text>
</a>
</g>
</g>
<!-- Node514&#45;&gt;Node519 -->
<g id="edge10" class="edge">
<title>Node514&#45;&gt;Node519</title>
<path fill="none" stroke="midnightblue" d="M678.25,-227.67C687.62,-228.59 697.09,-229.52 706.32,-230.42"/>
<polygon fill="midnightblue" stroke="midnightblue" points="678.44,-224.17 668.15,-226.67 677.76,-231.13 678.44,-224.17"/>
</g>
<!-- Node520 -->
<g id="node12" class="node">
<title>Node520</title>
<g id="a_node12"><a xlink:href="classMR24FDB1.html#ab090aa5731fa4e348a33588f682f1a16" target="_top" xlink:title="get movement ">
<polygon fill="white" stroke="black" points="712,-190.5 712,-209.5 857,-209.5 857,-190.5 712,-190.5"/>
<text text-anchor="middle" x="784.5" y="-197.5" font-family="Helvetica,sans-Serif" font-size="10.00">MR24FDB1::getMovement</text>
</a>
</g>
</g>
<!-- Node514&#45;&gt;Node520 -->
<g id="edge11" class="edge">
<title>Node514&#45;&gt;Node520</title>
<path fill="none" stroke="midnightblue" d="M678.4,-210.32C689.63,-209.22 701.02,-208.1 711.94,-207.03"/>
<polygon fill="midnightblue" stroke="midnightblue" points="677.76,-206.87 668.15,-211.33 678.44,-213.83 677.76,-206.87"/>
</g>
<!-- Node521 -->
<g id="node13" class="node">
<title>Node521</title>
<g id="a_node13"><a xlink:href="classMR24FDB1.html#af5bcb06d3788fb4743e2f750a6e4a149" target="_top" xlink:title="get presence from module ">
<polygon fill="white" stroke="black" points="716,-152.5 716,-171.5 853,-171.5 853,-152.5 716,-152.5"/>
<text text-anchor="middle" x="784.5" y="-159.5" font-family="Helvetica,sans-Serif" font-size="10.00">MR24FDB1::getPresence</text>
</a>
</g>
</g>
<!-- Node514&#45;&gt;Node521 -->
<g id="edge13" class="edge">
<title>Node514&#45;&gt;Node521</title>
<path fill="none" stroke="midnightblue" d="M626.23,-206.03C648.51,-198.27 677.73,-188.5 704,-181 715.73,-177.65 728.56,-174.4 740.41,-171.57"/>
<polygon fill="midnightblue" stroke="midnightblue" points="624.79,-202.82 616.51,-209.43 627.11,-209.43 624.79,-202.82"/>
</g>
<!-- Node522 -->
<g id="node14" class="node">
<title>Node522</title>
<g id="a_node14"><a xlink:href="classMR24FDB1.html#a206d007330f0b2f9c76b070e215dbb05" target="_top" xlink:title="request Protocol Version ">
<polygon fill="white" stroke="black" points="710,-114.5 710,-133.5 859,-133.5 859,-114.5 710,-114.5"/>
<text text-anchor="middle" x="784.5" y="-121.5" font-family="Helvetica,sans-Serif" font-size="10.00">MR24FDB1::getProtocolVer</text>
</a>
</g>
</g>
<!-- Node514&#45;&gt;Node522 -->
<g id="edge15" class="edge">
<title>Node514&#45;&gt;Node522</title>
<path fill="none" stroke="midnightblue" d="M609.3,-202.99C631.03,-185.76 668.01,-158.7 704,-143 712.71,-139.2 722.31,-136.09 731.74,-133.56"/>
<polygon fill="midnightblue" stroke="midnightblue" points="607.08,-200.29 601.5,-209.29 611.48,-205.74 607.08,-200.29"/>
</g>
<!-- Node523 -->
<g id="node15" class="node">
<title>Node523</title>
<g id="a_node15"><a xlink:href="classMR24FDB1.html#adc620372e2ccd4d3dece13bfe8c8424e" target="_top" xlink:title="get scene parameter ">
<polygon fill="white" stroke="black" points="723.5,-76.5 723.5,-95.5 845.5,-95.5 845.5,-76.5 723.5,-76.5"/>
<text text-anchor="middle" x="784.5" y="-83.5" font-family="Helvetica,sans-Serif" font-size="10.00">MR24FDB1::getScene</text>
</a>
</g>
</g>
<!-- Node514&#45;&gt;Node523 -->
<g id="edge16" class="edge">
<title>Node514&#45;&gt;Node523</title>
<path fill="none" stroke="midnightblue" d="M602.86,-200.91C621.95,-175.46 660.27,-129.46 704,-105 710.94,-101.12 718.64,-98.03 726.45,-95.57"/>
<polygon fill="midnightblue" stroke="midnightblue" points="599.82,-199.14 596.73,-209.28 605.46,-203.28 599.82,-199.14"/>
</g>
<!-- Node524 -->
<g id="node16" class="node">
<title>Node524</title>
<g id="a_node16"><a xlink:href="classMR24FDB1.html#a82a44a7291dd7b96de57a2d2cda10251" target="_top" xlink:title="get sensitivity parameter ">
<polygon fill="white" stroke="black" points="712.5,-38.5 712.5,-57.5 856.5,-57.5 856.5,-38.5 712.5,-38.5"/>
<text text-anchor="middle" x="784.5" y="-45.5" font-family="Helvetica,sans-Serif" font-size="10.00">MR24FDB1::getSensitivity</text>
</a>
</g>
</g>
<!-- Node514&#45;&gt;Node524 -->
<g id="edge17" class="edge">
<title>Node514&#45;&gt;Node524</title>
<path fill="none" stroke="midnightblue" d="M598.73,-200.03C614.75,-167.47 652,-101.14 704,-67 709.93,-63.11 716.58,-60.01 723.44,-57.54"/>
<polygon fill="midnightblue" stroke="midnightblue" points="595.44,-198.81 594.29,-209.34 601.76,-201.82 595.44,-198.81"/>
</g>
<!-- Node525 -->
<g id="node17" class="node">
<title>Node525</title>
<g id="a_node17"><a xlink:href="classMR24FDB1.html#af9b355c4127c5b937407b3e3b25217c7" target="_top" xlink:title="requests Software verion ">
<polygon fill="white" stroke="black" points="708.5,-0.5 708.5,-19.5 860.5,-19.5 860.5,-0.5 708.5,-0.5"/>
<text text-anchor="middle" x="784.5" y="-7.5" font-family="Helvetica,sans-Serif" font-size="10.00">MR24FDB1::getSoftwareVer</text>
</a>
</g>
</g>
<!-- Node514&#45;&gt;Node525 -->
<g id="edge18" class="edge">
<title>Node514&#45;&gt;Node525</title>
<path fill="none" stroke="midnightblue" d="M595.91,-199.69C608.81,-160.92 643.31,-73.48 704,-29 709.27,-25.14 715.2,-22.06 721.41,-19.59"/>
<polygon fill="midnightblue" stroke="midnightblue" points="592.56,-198.67 592.84,-209.27 599.22,-200.81 592.56,-198.67"/>
</g>
<!-- Node520&#45;&gt;Node511 -->
<g id="edge12" class="edge">
<title>Node520&#45;&gt;Node511</title>
<path fill="none" stroke="midnightblue" d="M867.04,-200C878.49,-200 890.07,-200 900.98,-200"/>
<polygon fill="midnightblue" stroke="midnightblue" points="867.03,-196.5 857.03,-200 867.03,-203.5 867.03,-196.5"/>
</g>
<!-- Node521&#45;&gt;Node511 -->
<g id="edge14" class="edge">
<title>Node521&#45;&gt;Node511</title>
<path fill="none" stroke="midnightblue" d="M839.31,-173.75C863.92,-179.13 892.69,-185.41 915.91,-190.48"/>
<polygon fill="midnightblue" stroke="midnightblue" points="839.92,-170.3 829.41,-171.59 838.43,-177.14 839.92,-170.3"/>
</g>
</g>
</svg>
