<?xml version="1.0" encoding="UTF-8" standalone="no"?>
<!DOCTYPE svg PUBLIC "-//W3C//DTD SVG 1.1//EN"
 "http://www.w3.org/Graphics/SVG/1.1/DTD/svg11.dtd">
<!-- Generated by graphviz version 2.43.0 (0)
 -->
<!-- Title: MR24FDB1::sendGet Pages: 1 -->
<!--zoomable 408 -->
<svg id="main" version="1.1" xmlns="http://www.w3.org/2000/svg" xmlns:xlink="http://www.w3.org/1999/xlink" xml:space="preserve" onload="init(evt)">
<style type="text/css"><![CDATA[
.edge:hover path { stroke: red; }
.edge:hover polygon { stroke: red; fill: red; }
]]></style>
<script type="text/javascript"><![CDATA[
var edges = document.getElementsByTagName('g');
if (edges && edges.length) {
  for (var i=0;i<edges.length;i++) {
    if (edges[i].id.substr(0,4)=='edge') {
      edges[i].setAttribute('class','edge');
    }
  }
}
]]></script>
        <defs>
                <circle id="rim" cx="0" cy="0" r="7"/>
                <circle id="rim2" cx="0" cy="0" r="3.5"/>
                <g id="zoomPlus">
                        <use xlink:href="#rim" fill="#404040">
                                <set attributeName="fill" to="#808080" begin="zoomplus.mouseover" end="zoomplus.mouseout"/>
                        </use>
                        <path d="M-4,0h8M0,-4v8" fill="none" stroke="white" stroke-width="1.5" pointer-events="none"/>
                </g>
                <g id="zoomMin">
                        <use xlink:href="#rim" fill="#404040">
                                <set attributeName="fill" to="#808080" begin="zoomminus.mouseover" end="zoomminus.mouseout"/>
                        </use>
                        <path d="M-4,0h8" fill="none" stroke="white" stroke-width="1.5" pointer-events="none"/>
                </g>
                <g id="dirArrow">
                        <path fill="none" stroke="white" stroke-width="1.5" d="M0,-3.0v7 M-2.5,-0.5L0,-3.0L2.5,-0.5"/>
                </g>
               <g id="resetDef">
                       <use xlink:href="#rim2" fill="#404040">
                               <set attributeName="fill" to="#808080" begin="reset.mouseover" end="reset.mouseout"/>
                       </use>
               </g>
        </defs>

<script type="text/javascript">
var viewWidth = 671;
var viewHeight = 408;
var sectionId = 'dynsection-10';
</script>
<script xlink:href="svgpan.js"/>
<svg id="graph" class="graph">
<g id="viewport">
<title>MR24FDB1::sendGet</title>
<polygon fill="white" stroke="transparent" points="-4,4 -4,-404 667,-404 667,4 -4,4"/>
<!-- Node100 -->
<g id="node1" class="node">
<title>Node100</title>
<g id="a_node1"><a xlink:title="send a &quot;GET&quot; packet to the module ">
<polygon fill="#bfbfbf" stroke="black" points="0,-190.5 0,-209.5 117,-209.5 117,-190.5 0,-190.5"/>
<text text-anchor="middle" x="58.5" y="-197.5" font-family="Helvetica,sans-Serif" font-size="10.00">MR24FDB1::sendGet</text>
</a>
</g>
</g>
<!-- Node101 -->
<g id="node2" class="node">
<title>Node101</title>
<g id="a_node2"><a xlink:href="classMR24FDB1.html#a7dfa1c269d0979718203f9202d4e8578" target="_top" xlink:title="send a &quot;GET&quot; packet to the module and wait for responce ">
<polygon fill="white" stroke="black" points="153,-190.5 153,-209.5 311,-209.5 311,-190.5 153,-190.5"/>
<text text-anchor="middle" x="232" y="-197.5" font-family="Helvetica,sans-Serif" font-size="10.00">MR24FDB1::sendGetAndWait</text>
</a>
</g>
</g>
<!-- Node100&#45;&gt;Node101 -->
<g id="edge1" class="edge">
<title>Node100&#45;&gt;Node101</title>
<path fill="none" stroke="midnightblue" d="M127.21,-200C135.63,-200 144.29,-200 152.85,-200"/>
<polygon fill="midnightblue" stroke="midnightblue" points="127.08,-196.5 117.08,-200 127.08,-203.5 127.08,-196.5"/>
</g>
<!-- Node102 -->
<g id="node3" class="node">
<title>Node102</title>
<g id="a_node3"><a xlink:href="classMR24FDB1.html#a6a61bdca02e1a9ab2c6ab83c3ee2ff21" target="_top" xlink:title="requests Device Id ">
<polygon fill="white" stroke="black" points="360,-380.5 360,-399.5 495,-399.5 495,-380.5 360,-380.5"/>
<text text-anchor="middle" x="427.5" y="-387.5" font-family="Helvetica,sans-Serif" font-size="10.00">MR24FDB1::getDeviceId</text>
</a>
</g>
</g>
<!-- Node101&#45;&gt;Node102 -->
<g id="edge2" class="edge">
<title>Node101&#45;&gt;Node102</title>
<path fill="none" stroke="midnightblue" d="M240.25,-219.3C254.73,-255.13 290.76,-331.8 347,-371 352.59,-374.89 358.88,-378 365.4,-380.47"/>
<polygon fill="midnightblue" stroke="midnightblue" points="243.35,-217.62 236.45,-209.59 236.83,-220.17 243.35,-217.62"/>
</g>
<!-- Node103 -->
<g id="node4" class="node">
<title>Node103</title>
<g id="a_node4"><a xlink:href="classMR24FDB1.html#a10ef6d7b6a0d7819b84361c907604fe0" target="_top" xlink:title="get status of fall enable switch ">
<polygon fill="white" stroke="black" points="356,-342.5 356,-361.5 499,-361.5 499,-342.5 356,-342.5"/>
<text text-anchor="middle" x="427.5" y="-349.5" font-family="Helvetica,sans-Serif" font-size="10.00">MR24FDB1::getFallEnable</text>
</a>
</g>
</g>
<!-- Node101&#45;&gt;Node103 -->
<g id="edge3" class="edge">
<title>Node101&#45;&gt;Node103</title>
<path fill="none" stroke="midnightblue" d="M243.34,-218.21C260.8,-247.23 298.97,-303.66 347,-333 353.3,-336.85 360.32,-339.91 367.5,-342.36"/>
<polygon fill="midnightblue" stroke="midnightblue" points="246.31,-216.35 238.23,-209.5 240.27,-219.9 246.31,-216.35"/>
</g>
<!-- Node104 -->
<g id="node5" class="node">
<title>Node104</title>
<g id="a_node5"><a xlink:href="classMR24FDB1.html#a122352e437a57083aba3823b512e2c31" target="_top" xlink:title="get status of fall sensitivty setting ">
<polygon fill="white" stroke="black" points="347,-304.5 347,-323.5 508,-323.5 508,-304.5 347,-304.5"/>
<text text-anchor="middle" x="427.5" y="-311.5" font-family="Helvetica,sans-Serif" font-size="10.00">MR24FDB1::getFallSensitivity</text>
</a>
</g>
</g>
<!-- Node101&#45;&gt;Node104 -->
<g id="edge4" class="edge">
<title>Node101&#45;&gt;Node104</title>
<path fill="none" stroke="midnightblue" d="M248.65,-217.22C269.14,-238.7 307.18,-275.04 347,-295 354.74,-298.88 363.3,-301.99 371.86,-304.47"/>
<polygon fill="midnightblue" stroke="midnightblue" points="251.07,-214.69 241.68,-209.78 245.96,-219.47 251.07,-214.69"/>
</g>
<!-- Node105 -->
<g id="node6" class="node">
<title>Node105</title>
<g id="a_node6"><a xlink:href="classMR24FDB1.html#a6e729c642bc4f67e6ce076fb0fa2aa3e" target="_top" xlink:title="get status of fall warning time setting ">
<polygon fill="white" stroke="black" points="348,-266.5 348,-285.5 507,-285.5 507,-266.5 348,-266.5"/>
<text text-anchor="middle" x="427.5" y="-273.5" font-family="Helvetica,sans-Serif" font-size="10.00">MR24FDB1::getFallWarnTime</text>
</a>
</g>
</g>
<!-- Node101&#45;&gt;Node105 -->
<g id="edge5" class="edge">
<title>Node101&#45;&gt;Node105</title>
<path fill="none" stroke="midnightblue" d="M258.01,-214.6C280.62,-227.29 315.16,-245.41 347,-257 357,-260.64 367.97,-263.78 378.47,-266.4"/>
<polygon fill="midnightblue" stroke="midnightblue" points="259.51,-211.43 249.09,-209.53 256.05,-217.51 259.51,-211.43"/>
</g>
<!-- Node106 -->
<g id="node7" class="node">
<title>Node106</title>
<g id="a_node7"><a xlink:href="classMR24FDB1.html#a9c858e6eae2bf95de4340b7bb4fe07e7" target="_top" xlink:title="requests Hardware version ">
<polygon fill="white" stroke="black" points="349.5,-228.5 349.5,-247.5 505.5,-247.5 505.5,-228.5 349.5,-228.5"/>
<text text-anchor="middle" x="427.5" y="-235.5" font-family="Helvetica,sans-Serif" font-size="10.00">MR24FDB1::getHardwareVer</text>
</a>
</g>
</g>
<!-- Node101&#45;&gt;Node106 -->
<g id="edge6" class="edge">
<title>Node101&#45;&gt;Node106</title>
<path fill="none" stroke="midnightblue" d="M291.75,-211.54C319.35,-216.96 351.85,-223.34 378.02,-228.48"/>
<polygon fill="midnightblue" stroke="midnightblue" points="292.32,-208.08 281.83,-209.59 290.97,-214.95 292.32,-208.08"/>
</g>
<!-- Node107 -->
<g id="node8" class="node">
<title>Node107</title>
<g id="a_node8"><a xlink:href="classMR24FDB1.html#ab090aa5731fa4e348a33588f682f1a16" target="_top" xlink:title="get movement ">
<polygon fill="white" stroke="black" points="355,-190.5 355,-209.5 500,-209.5 500,-190.5 355,-190.5"/>
<text text-anchor="middle" x="427.5" y="-197.5" font-family="Helvetica,sans-Serif" font-size="10.00">MR24FDB1::getMovement</text>
</a>
</g>
</g>
<!-- Node101&#45;&gt;Node107 -->
<g id="edge7" class="edge">
<title>Node101&#45;&gt;Node107</title>
<path fill="none" stroke="midnightblue" d="M321.4,-200C332.63,-200 344.02,-200 354.94,-200"/>
<polygon fill="midnightblue" stroke="midnightblue" points="321.15,-196.5 311.15,-200 321.15,-203.5 321.15,-196.5"/>
</g>
<!-- Node109 -->
<g id="node10" class="node">
<title>Node109</title>
<g id="a_node10"><a xlink:href="classMR24FDB1.html#af5bcb06d3788fb4743e2f750a6e4a149" target="_top" xlink:title="get presence from module ">
<polygon fill="white" stroke="black" points="359,-152.5 359,-171.5 496,-171.5 496,-152.5 359,-152.5"/>
<text text-anchor="middle" x="427.5" y="-159.5" font-family="Helvetica,sans-Serif" font-size="10.00">MR24FDB1::getPresence</text>
</a>
</g>
</g>
<!-- Node101&#45;&gt;Node109 -->
<g id="edge9" class="edge">
<title>Node101&#45;&gt;Node109</title>
<path fill="none" stroke="midnightblue" d="M291.75,-188.46C319.35,-183.04 351.85,-176.66 378.02,-171.52"/>
<polygon fill="midnightblue" stroke="midnightblue" points="290.97,-185.05 281.83,-190.41 292.32,-191.92 290.97,-185.05"/>
</g>
<!-- Node110 -->
<g id="node11" class="node">
<title>Node110</title>
<g id="a_node11"><a xlink:href="classMR24FDB1.html#a206d007330f0b2f9c76b070e215dbb05" target="_top" xlink:title="request Protocol Version ">
<polygon fill="white" stroke="black" points="353,-114.5 353,-133.5 502,-133.5 502,-114.5 353,-114.5"/>
<text text-anchor="middle" x="427.5" y="-121.5" font-family="Helvetica,sans-Serif" font-size="10.00">MR24FDB1::getProtocolVer</text>
</a>
</g>
</g>
<!-- Node101&#45;&gt;Node110 -->
<g id="edge11" class="edge">
<title>Node101&#45;&gt;Node110</title>
<path fill="none" stroke="midnightblue" d="M258.01,-185.4C280.62,-172.71 315.16,-154.59 347,-143 357,-139.36 367.97,-136.22 378.47,-133.6"/>
<polygon fill="midnightblue" stroke="midnightblue" points="256.05,-182.49 249.09,-190.47 259.51,-188.57 256.05,-182.49"/>
</g>
<!-- Node111 -->
<g id="node12" class="node">
<title>Node111</title>
<g id="a_node12"><a xlink:href="classMR24FDB1.html#adc620372e2ccd4d3dece13bfe8c8424e" target="_top" xlink:title="get scene parameter ">
<polygon fill="white" stroke="black" points="366.5,-76.5 366.5,-95.5 488.5,-95.5 488.5,-76.5 366.5,-76.5"/>
<text text-anchor="middle" x="427.5" y="-83.5" font-family="Helvetica,sans-Serif" font-size="10.00">MR24FDB1::getScene</text>
</a>
</g>
</g>
<!-- Node101&#45;&gt;Node111 -->
<g id="edge12" class="edge">
<title>Node101&#45;&gt;Node111</title>
<path fill="none" stroke="midnightblue" d="M248.65,-182.78C269.14,-161.3 307.18,-124.96 347,-105 354.74,-101.12 363.3,-98.01 371.86,-95.53"/>
<polygon fill="midnightblue" stroke="midnightblue" points="245.96,-180.53 241.68,-190.22 251.07,-185.31 245.96,-180.53"/>
</g>
<!-- Node112 -->
<g id="node13" class="node">
<title>Node112</title>
<g id="a_node13"><a xlink:href="classMR24FDB1.html#a82a44a7291dd7b96de57a2d2cda10251" target="_top" xlink:title="get sensitivity parameter ">
<polygon fill="white" stroke="black" points="355.5,-38.5 355.5,-57.5 499.5,-57.5 499.5,-38.5 355.5,-38.5"/>
<text text-anchor="middle" x="427.5" y="-45.5" font-family="Helvetica,sans-Serif" font-size="10.00">MR24FDB1::getSensitivity</text>
</a>
</g>
</g>
<!-- Node101&#45;&gt;Node112 -->
<g id="edge13" class="edge">
<title>Node101&#45;&gt;Node112</title>
<path fill="none" stroke="midnightblue" d="M243.34,-181.79C260.8,-152.77 298.97,-96.34 347,-67 353.3,-63.15 360.32,-60.09 367.5,-57.64"/>
<polygon fill="midnightblue" stroke="midnightblue" points="240.27,-180.1 238.23,-190.5 246.31,-183.65 240.27,-180.1"/>
</g>
<!-- Node113 -->
<g id="node14" class="node">
<title>Node113</title>
<g id="a_node14"><a xlink:href="classMR24FDB1.html#af9b355c4127c5b937407b3e3b25217c7" target="_top" xlink:title="requests Software verion ">
<polygon fill="white" stroke="black" points="351.5,-0.5 351.5,-19.5 503.5,-19.5 503.5,-0.5 351.5,-0.5"/>
<text text-anchor="middle" x="427.5" y="-7.5" font-family="Helvetica,sans-Serif" font-size="10.00">MR24FDB1::getSoftwareVer</text>
</a>
</g>
</g>
<!-- Node101&#45;&gt;Node113 -->
<g id="edge14" class="edge">
<title>Node101&#45;&gt;Node113</title>
<path fill="none" stroke="midnightblue" d="M240.25,-180.7C254.73,-144.87 290.76,-68.2 347,-29 352.59,-25.11 358.88,-22 365.4,-19.53"/>
<polygon fill="midnightblue" stroke="midnightblue" points="236.83,-179.83 236.45,-190.41 243.35,-182.38 236.83,-179.83"/>
</g>
<!-- Node108 -->
<g id="node9" class="node">
<title>Node108</title>
<g id="a_node9"><a xlink:href="classMR24FDB1.html#a0c0b8071f5d90b32f3c109ff71ff2ec0" target="_top" xlink:title="send test ">
<polygon fill="white" stroke="black" points="544,-171.5 544,-190.5 663,-190.5 663,-171.5 544,-171.5"/>
<text text-anchor="middle" x="603.5" y="-178.5" font-family="Helvetica,sans-Serif" font-size="10.00">MR24FDB1::testSend</text>
</a>
</g>
</g>
<!-- Node107&#45;&gt;Node108 -->
<g id="edge8" class="edge">
<title>Node107&#45;&gt;Node108</title>
<path fill="none" stroke="midnightblue" d="M510.04,-191.1C521.49,-189.85 533.07,-188.58 543.98,-187.39"/>
<polygon fill="midnightblue" stroke="midnightblue" points="509.59,-187.62 500.03,-192.19 510.35,-194.58 509.59,-187.62"/>
</g>
<!-- Node109&#45;&gt;Node108 -->
<g id="edge10" class="edge">
<title>Node109&#45;&gt;Node108</title>
<path fill="none" stroke="midnightblue" d="M506.33,-170.5C518.97,-171.88 531.87,-173.29 543.95,-174.61"/>
<polygon fill="midnightblue" stroke="midnightblue" points="506.59,-167.01 496.27,-169.4 505.83,-173.97 506.59,-167.01"/>
</g>
</g>
</svg>
        <g id="navigator" transform="translate(0 0)" fill="#404254">
                <rect fill="#f2f5e9" fill-opacity="0.5" stroke="#606060" stroke-width=".5" x="0" y="0" width="60" height="60"/>
                <use id="zoomplus" xlink:href="#zoomPlus" x="17" y="9" onmousedown="handleZoom(evt,'in')"/>
                <use id="zoomminus" xlink:href="#zoomMin" x="42" y="9" onmousedown="handleZoom(evt,'out')"/>
                <use id="reset" xlink:href="#resetDef" x="30" y="36" onmousedown="handleReset()"/>
                <g id="arrowUp" xlink:href="#dirArrow" transform="translate(30 24)" onmousedown="handlePan(0,-1)">
                  <use xlink:href="#rim" fill="#404040">
                        <set attributeName="fill" to="#808080" begin="arrowUp.mouseover" end="arrowUp.mouseout"/>
                  </use>
                  <path fill="none" stroke="white" stroke-width="1.5" d="M0,-3.0v7 M-2.5,-0.5L0,-3.0L2.5,-0.5"/>
                </g>
                <g id="arrowRight" xlink:href="#dirArrow" transform="rotate(90) translate(36 -43)" onmousedown="handlePan(1,0)">
                  <use xlink:href="#rim" fill="#404040">
                        <set attributeName="fill" to="#808080" begin="arrowRight.mouseover" end="arrowRight.mouseout"/>
                  </use>
                  <path fill="none" stroke="white" stroke-width="1.5" d="M0,-3.0v7 M-2.5,-0.5L0,-3.0L2.5,-0.5"/>
                </g>
                <g id="arrowDown" xlink:href="#dirArrow" transform="rotate(180) translate(-30 -48)" onmousedown="handlePan(0,1)">
                  <use xlink:href="#rim" fill="#404040">
                        <set attributeName="fill" to="#808080" begin="arrowDown.mouseover" end="arrowDown.mouseout"/>
                  </use>
                  <path fill="none" stroke="white" stroke-width="1.5" d="M0,-3.0v7 M-2.5,-0.5L0,-3.0L2.5,-0.5"/>
                </g>
                <g id="arrowLeft" xlink:href="#dirArrow" transform="rotate(270) translate(-36 17)" onmousedown="handlePan(-1,0)">
                  <use xlink:href="#rim" fill="#404040">
                        <set attributeName="fill" to="#808080" begin="arrowLeft.mouseover" end="arrowLeft.mouseout"/>
                  </use>
                  <path fill="none" stroke="white" stroke-width="1.5" d="M0,-3.0v7 M-2.5,-0.5L0,-3.0L2.5,-0.5"/>
                </g>
        </g>
        <svg viewBox="0 0 15 15" width="100%" height="30px" preserveAspectRatio="xMaxYMin meet">
         <g id="arrow_out" transform="scale(0.3 0.3)">
          <a xlink:href="classMR24FDB1_a4a5275f119bcbd82dd5a0d6a1d8defe5_icgraph_org.svg" target="_base">
           <rect id="button" ry="5" rx="5" y="6" x="6" height="38" width="38"
                fill="#f2f5e9" fill-opacity="0.5" stroke="#606060" stroke-width="1.0"/>
           <path id="arrow"
             d="M 11.500037,31.436501 C 11.940474,20.09759 22.043105,11.32322 32.158766,21.979434 L 37.068811,17.246167 C 37.068811,17.246167 37.088388,32 37.088388,32 L 22.160133,31.978069 C 22.160133,31.978069 26.997745,27.140456 26.997745,27.140456 C 18.528582,18.264221 13.291696,25.230495 11.500037,31.436501 z"
             style="fill:#404040;"/>
          </a>
         </g>
        </svg>
</svg>
