<?xml version="1.0" encoding="UTF-8" standalone="no"?>
<!DOCTYPE svg PUBLIC "-//W3C//DTD SVG 1.1//EN"
 "http://www.w3.org/Graphics/SVG/1.1/DTD/svg11.dtd">
<!-- Generated by graphviz version 2.43.0 (0)
 -->
<!-- Title: MR24FDB1::parseReport Pages: 1 -->
<!--zoomable 477 -->
<svg id="main" version="1.1" xmlns="http://www.w3.org/2000/svg" xmlns:xlink="http://www.w3.org/1999/xlink" xml:space="preserve" onload="init(evt)">
<style type="text/css"><![CDATA[
.edge:hover path { stroke: red; }
.edge:hover polygon { stroke: red; fill: red; }
]]></style>
<script type="text/javascript"><![CDATA[
var edges = document.getElementsByTagName('g');
if (edges && edges.length) {
  for (var i=0;i<edges.length;i++) {
    if (edges[i].id.substr(0,4)=='edge') {
      edges[i].setAttribute('class','edge');
    }
  }
}
]]></script>
        <defs>
                <circle id="rim" cx="0" cy="0" r="7"/>
                <circle id="rim2" cx="0" cy="0" r="3.5"/>
                <g id="zoomPlus">
                        <use xlink:href="#rim" fill="#404040">
                                <set attributeName="fill" to="#808080" begin="zoomplus.mouseover" end="zoomplus.mouseout"/>
                        </use>
                        <path d="M-4,0h8M0,-4v8" fill="none" stroke="white" stroke-width="1.5" pointer-events="none"/>
                </g>
                <g id="zoomMin">
                        <use xlink:href="#rim" fill="#404040">
                                <set attributeName="fill" to="#808080" begin="zoomminus.mouseover" end="zoomminus.mouseout"/>
                        </use>
                        <path d="M-4,0h8" fill="none" stroke="white" stroke-width="1.5" pointer-events="none"/>
                </g>
                <g id="dirArrow">
                        <path fill="none" stroke="white" stroke-width="1.5" d="M0,-3.0v7 M-2.5,-0.5L0,-3.0L2.5,-0.5"/>
                </g>
               <g id="resetDef">
                       <use xlink:href="#rim2" fill="#404040">
                               <set attributeName="fill" to="#808080" begin="reset.mouseover" end="reset.mouseout"/>
                       </use>
               </g>
        </defs>

<script type="text/javascript">
var viewWidth = 1011;
var viewHeight = 477;
var sectionId = 'dynsection-41';
</script>
<script xlink:href="svgpan.js"/>
<svg id="graph" class="graph">
<g id="viewport">
<title>MR24FDB1::parseReport</title>
<polygon fill="white" stroke="transparent" points="-4,4 -4,-473.47 1007,-473.47 1007,4 -4,4"/>
<!-- Node491 -->
<g id="node1" class="node">
<title>Node491</title>
<g id="a_node1"><a xlink:title="parse report type packet ">
<polygon fill="#bfbfbf" stroke="black" points="0,-380.5 0,-399.5 136,-399.5 136,-380.5 0,-380.5"/>
<text text-anchor="middle" x="68" y="-387.5" font-family="Helvetica,sans-Serif" font-size="10.00">MR24FDB1::parseReport</text>
</a>
</g>
</g>
<!-- Node492 -->
<g id="node2" class="node">
<title>Node492</title>
<g id="a_node2"><a xlink:href="classMR24FDB1.html#a8a6f5bebfe9e2f9232e58f0ff909042a" target="_top" xlink:title="parse packet ">
<polygon fill="white" stroke="black" points="172,-380.5 172,-399.5 308,-399.5 308,-380.5 172,-380.5"/>
<text text-anchor="middle" x="240" y="-387.5" font-family="Helvetica,sans-Serif" font-size="10.00">MR24FDB1::parsePacket</text>
</a>
</g>
</g>
<!-- Node491&#45;&gt;Node492 -->
<g id="edge1" class="edge">
<title>Node491&#45;&gt;Node492</title>
<path fill="none" stroke="midnightblue" d="M146.42,-390C154.88,-390 163.43,-390 171.74,-390"/>
<polygon fill="midnightblue" stroke="midnightblue" points="146.19,-386.5 136.19,-390 146.19,-393.5 146.19,-386.5"/>
</g>
<!-- Node493 -->
<g id="node3" class="node">
<title>Node493</title>
<g id="a_node3"><a xlink:href="classMR24FDB1.html#a0c0b8071f5d90b32f3c109ff71ff2ec0" target="_top" xlink:title="send test ">
<polygon fill="white" stroke="black" points="884,-190.5 884,-209.5 1003,-209.5 1003,-190.5 884,-190.5"/>
<text text-anchor="middle" x="943.5" y="-197.5" font-family="Helvetica,sans-Serif" font-size="10.00">MR24FDB1::testSend</text>
</a>
</g>
</g>
<!-- Node492&#45;&gt;Node493 -->
<g id="edge2" class="edge">
<title>Node492&#45;&gt;Node493</title>
<path fill="none" stroke="midnightblue" d="M274.64,-403.21C372.5,-439.3 661.9,-529.09 848,-409 920.61,-362.15 938.02,-244.55 941.64,-209.81"/>
<polygon fill="midnightblue" stroke="midnightblue" points="275.58,-399.83 264.98,-399.6 273.12,-406.38 275.58,-399.83"/>
</g>
<!-- Node494 -->
<g id="node4" class="node">
<title>Node494</title>
<g id="a_node4"><a xlink:href="classMR24FDB1.html#a944e9bede6552294ea9940ae6fda3b96" target="_top" xlink:title="wait until packet of the specified type is recieved ">
<polygon fill="white" stroke="black" points="344,-285.5 344,-304.5 457,-304.5 457,-285.5 344,-285.5"/>
<text text-anchor="middle" x="400.5" y="-292.5" font-family="Helvetica,sans-Serif" font-size="10.00">MR24FDB1::waitFor</text>
</a>
</g>
</g>
<!-- Node492&#45;&gt;Node494 -->
<g id="edge3" class="edge">
<title>Node492&#45;&gt;Node494</title>
<path fill="none" stroke="midnightblue" d="M266.06,-374.98C298.94,-355.27 355.71,-321.25 383.39,-304.66"/>
<polygon fill="midnightblue" stroke="midnightblue" points="263.85,-372.23 257.07,-380.37 267.45,-378.23 263.85,-372.23"/>
</g>
<!-- Node495 -->
<g id="node5" class="node">
<title>Node495</title>
<g id="a_node5"><a xlink:href="classMR24FDB1.html#a23542b21cc78944a36d941eb4eaaf29d" target="_top" xlink:title="reboot ">
<polygon fill="white" stroke="black" points="518,-285.5 518,-304.5 626,-304.5 626,-285.5 518,-285.5"/>
<text text-anchor="middle" x="572" y="-292.5" font-family="Helvetica,sans-Serif" font-size="10.00">MR24FDB1::reboot</text>
</a>
</g>
</g>
<!-- Node494&#45;&gt;Node495 -->
<g id="edge4" class="edge">
<title>Node494&#45;&gt;Node495</title>
<path fill="none" stroke="midnightblue" d="M467.29,-295C484.08,-295 501.91,-295 517.97,-295"/>
<polygon fill="midnightblue" stroke="midnightblue" points="467,-291.5 457,-295 467,-298.5 467,-291.5"/>
</g>
<!-- Node496 -->
<g id="node6" class="node">
<title>Node496</title>
<g id="a_node6"><a xlink:href="classMR24FDB1.html#a7dfa1c269d0979718203f9202d4e8578" target="_top" xlink:title="send a &quot;GET&quot; packet to the module and wait for responce ">
<polygon fill="white" stroke="black" points="493,-209.5 493,-228.5 651,-228.5 651,-209.5 493,-209.5"/>
<text text-anchor="middle" x="572" y="-216.5" font-family="Helvetica,sans-Serif" font-size="10.00">MR24FDB1::sendGetAndWait</text>
</a>
</g>
</g>
<!-- Node494&#45;&gt;Node496 -->
<g id="edge5" class="edge">
<title>Node494&#45;&gt;Node496</title>
<path fill="none" stroke="midnightblue" d="M432.42,-281.14C466.41,-265.9 520.13,-241.81 549.71,-228.55"/>
<polygon fill="midnightblue" stroke="midnightblue" points="430.66,-278.09 422.97,-285.37 433.52,-284.48 430.66,-278.09"/>
</g>
<!-- Node497 -->
<g id="node7" class="node">
<title>Node497</title>
<g id="a_node7"><a xlink:href="classMR24FDB1.html#a6a61bdca02e1a9ab2c6ab83c3ee2ff21" target="_top" xlink:title="requests Device Id ">
<polygon fill="white" stroke="black" points="700,-380.5 700,-399.5 835,-399.5 835,-380.5 700,-380.5"/>
<text text-anchor="middle" x="767.5" y="-387.5" font-family="Helvetica,sans-Serif" font-size="10.00">MR24FDB1::getDeviceId</text>
</a>
</g>
</g>
<!-- Node496&#45;&gt;Node497 -->
<g id="edge6" class="edge">
<title>Node496&#45;&gt;Node497</title>
<path fill="none" stroke="midnightblue" d="M600.55,-233.66C617.12,-243.68 637.54,-258.33 651,-276 678.36,-311.92 653.1,-341.17 687,-371 691.37,-374.84 696.38,-377.94 701.71,-380.44"/>
<polygon fill="midnightblue" stroke="midnightblue" points="602.22,-230.58 591.81,-228.58 598.7,-236.63 602.22,-230.58"/>
</g>
<!-- Node498 -->
<g id="node8" class="node">
<title>Node498</title>
<g id="a_node8"><a xlink:href="classMR24FDB1.html#a10ef6d7b6a0d7819b84361c907604fe0" target="_top" xlink:title="get status of fall enable switch ">
<polygon fill="white" stroke="black" points="696,-342.5 696,-361.5 839,-361.5 839,-342.5 696,-342.5"/>
<text text-anchor="middle" x="767.5" y="-349.5" font-family="Helvetica,sans-Serif" font-size="10.00">MR24FDB1::getFallEnable</text>
</a>
</g>
</g>
<!-- Node496&#45;&gt;Node498 -->
<g id="edge7" class="edge">
<title>Node496&#45;&gt;Node498</title>
<path fill="none" stroke="midnightblue" d="M598.14,-233.88C614.43,-244.32 635.44,-259.35 651,-276 671.46,-297.89 662.63,-315.57 687,-333 692.42,-336.88 698.54,-339.98 704.9,-342.45"/>
<polygon fill="midnightblue" stroke="midnightblue" points="599.97,-230.9 589.64,-228.57 596.26,-236.84 599.97,-230.9"/>
</g>
<!-- Node499 -->
<g id="node9" class="node">
<title>Node499</title>
<g id="a_node9"><a xlink:href="classMR24FDB1.html#a122352e437a57083aba3823b512e2c31" target="_top" xlink:title="get status of fall sensitivty setting ">
<polygon fill="white" stroke="black" points="687,-304.5 687,-323.5 848,-323.5 848,-304.5 687,-304.5"/>
<text text-anchor="middle" x="767.5" y="-311.5" font-family="Helvetica,sans-Serif" font-size="10.00">MR24FDB1::getFallSensitivity</text>
</a>
</g>
</g>
<!-- Node496&#45;&gt;Node499 -->
<g id="edge8" class="edge">
<title>Node496&#45;&gt;Node499</title>
<path fill="none" stroke="midnightblue" d="M594.26,-234.49C621.63,-254.2 667.92,-286.68 687,-295 695.71,-298.8 705.31,-301.91 714.74,-304.44"/>
<polygon fill="midnightblue" stroke="midnightblue" points="596.25,-231.62 586.1,-228.59 592.15,-237.29 596.25,-231.62"/>
</g>
<!-- Node500 -->
<g id="node10" class="node">
<title>Node500</title>
<g id="a_node10"><a xlink:href="classMR24FDB1.html#a6e729c642bc4f67e6ce076fb0fa2aa3e" target="_top" xlink:title="get status of fall warning time setting ">
<polygon fill="white" stroke="black" points="688,-266.5 688,-285.5 847,-285.5 847,-266.5 688,-266.5"/>
<text text-anchor="middle" x="767.5" y="-273.5" font-family="Helvetica,sans-Serif" font-size="10.00">MR24FDB1::getFallWarnTime</text>
</a>
</g>
</g>
<!-- Node496&#45;&gt;Node500 -->
<g id="edge9" class="edge">
<title>Node496&#45;&gt;Node500</title>
<path fill="none" stroke="midnightblue" d="M609.23,-231.97C631.51,-239.73 660.73,-249.5 687,-257 698.73,-260.35 711.56,-263.6 723.41,-266.43"/>
<polygon fill="midnightblue" stroke="midnightblue" points="610.11,-228.57 599.51,-228.57 607.79,-235.18 610.11,-228.57"/>
</g>
<!-- Node501 -->
<g id="node11" class="node">
<title>Node501</title>
<g id="a_node11"><a xlink:href="classMR24FDB1.html#a9c858e6eae2bf95de4340b7bb4fe07e7" target="_top" xlink:title="requests Hardware version ">
<polygon fill="white" stroke="black" points="689.5,-228.5 689.5,-247.5 845.5,-247.5 845.5,-228.5 689.5,-228.5"/>
<text text-anchor="middle" x="767.5" y="-235.5" font-family="Helvetica,sans-Serif" font-size="10.00">MR24FDB1::getHardwareVer</text>
</a>
</g>
</g>
<!-- Node496&#45;&gt;Node501 -->
<g id="edge10" class="edge">
<title>Node496&#45;&gt;Node501</title>
<path fill="none" stroke="midnightblue" d="M661.25,-227.67C670.62,-228.59 680.09,-229.52 689.32,-230.42"/>
<polygon fill="midnightblue" stroke="midnightblue" points="661.44,-224.17 651.15,-226.67 660.76,-231.13 661.44,-224.17"/>
</g>
<!-- Node502 -->
<g id="node12" class="node">
<title>Node502</title>
<g id="a_node12"><a xlink:href="classMR24FDB1.html#ab090aa5731fa4e348a33588f682f1a16" target="_top" xlink:title="get movement ">
<polygon fill="white" stroke="black" points="695,-190.5 695,-209.5 840,-209.5 840,-190.5 695,-190.5"/>
<text text-anchor="middle" x="767.5" y="-197.5" font-family="Helvetica,sans-Serif" font-size="10.00">MR24FDB1::getMovement</text>
</a>
</g>
</g>
<!-- Node496&#45;&gt;Node502 -->
<g id="edge11" class="edge">
<title>Node496&#45;&gt;Node502</title>
<path fill="none" stroke="midnightblue" d="M661.4,-210.32C672.63,-209.22 684.02,-208.1 694.94,-207.03"/>
<polygon fill="midnightblue" stroke="midnightblue" points="660.76,-206.87 651.15,-211.33 661.44,-213.83 660.76,-206.87"/>
</g>
<!-- Node503 -->
<g id="node13" class="node">
<title>Node503</title>
<g id="a_node13"><a xlink:href="classMR24FDB1.html#af5bcb06d3788fb4743e2f750a6e4a149" target="_top" xlink:title="get presence from module ">
<polygon fill="white" stroke="black" points="699,-152.5 699,-171.5 836,-171.5 836,-152.5 699,-152.5"/>
<text text-anchor="middle" x="767.5" y="-159.5" font-family="Helvetica,sans-Serif" font-size="10.00">MR24FDB1::getPresence</text>
</a>
</g>
</g>
<!-- Node496&#45;&gt;Node503 -->
<g id="edge13" class="edge">
<title>Node496&#45;&gt;Node503</title>
<path fill="none" stroke="midnightblue" d="M609.23,-206.03C631.51,-198.27 660.73,-188.5 687,-181 698.73,-177.65 711.56,-174.4 723.41,-171.57"/>
<polygon fill="midnightblue" stroke="midnightblue" points="607.79,-202.82 599.51,-209.43 610.11,-209.43 607.79,-202.82"/>
</g>
<!-- Node504 -->
<g id="node14" class="node">
<title>Node504</title>
<g id="a_node14"><a xlink:href="classMR24FDB1.html#a206d007330f0b2f9c76b070e215dbb05" target="_top" xlink:title="request Protocol Version ">
<polygon fill="white" stroke="black" points="693,-114.5 693,-133.5 842,-133.5 842,-114.5 693,-114.5"/>
<text text-anchor="middle" x="767.5" y="-121.5" font-family="Helvetica,sans-Serif" font-size="10.00">MR24FDB1::getProtocolVer</text>
</a>
</g>
</g>
<!-- Node496&#45;&gt;Node504 -->
<g id="edge15" class="edge">
<title>Node496&#45;&gt;Node504</title>
<path fill="none" stroke="midnightblue" d="M592.3,-202.99C614.03,-185.76 651.01,-158.7 687,-143 695.71,-139.2 705.31,-136.09 714.74,-133.56"/>
<polygon fill="midnightblue" stroke="midnightblue" points="590.08,-200.29 584.5,-209.29 594.48,-205.74 590.08,-200.29"/>
</g>
<!-- Node505 -->
<g id="node15" class="node">
<title>Node505</title>
<g id="a_node15"><a xlink:href="classMR24FDB1.html#adc620372e2ccd4d3dece13bfe8c8424e" target="_top" xlink:title="get scene parameter ">
<polygon fill="white" stroke="black" points="706.5,-76.5 706.5,-95.5 828.5,-95.5 828.5,-76.5 706.5,-76.5"/>
<text text-anchor="middle" x="767.5" y="-83.5" font-family="Helvetica,sans-Serif" font-size="10.00">MR24FDB1::getScene</text>
</a>
</g>
</g>
<!-- Node496&#45;&gt;Node505 -->
<g id="edge16" class="edge">
<title>Node496&#45;&gt;Node505</title>
<path fill="none" stroke="midnightblue" d="M585.86,-200.91C604.95,-175.46 643.27,-129.46 687,-105 693.94,-101.12 701.64,-98.03 709.45,-95.57"/>
<polygon fill="midnightblue" stroke="midnightblue" points="582.82,-199.14 579.73,-209.28 588.46,-203.28 582.82,-199.14"/>
</g>
<!-- Node506 -->
<g id="node16" class="node">
<title>Node506</title>
<g id="a_node16"><a xlink:href="classMR24FDB1.html#a82a44a7291dd7b96de57a2d2cda10251" target="_top" xlink:title="get sensitivity parameter ">
<polygon fill="white" stroke="black" points="695.5,-38.5 695.5,-57.5 839.5,-57.5 839.5,-38.5 695.5,-38.5"/>
<text text-anchor="middle" x="767.5" y="-45.5" font-family="Helvetica,sans-Serif" font-size="10.00">MR24FDB1::getSensitivity</text>
</a>
</g>
</g>
<!-- Node496&#45;&gt;Node506 -->
<g id="edge17" class="edge">
<title>Node496&#45;&gt;Node506</title>
<path fill="none" stroke="midnightblue" d="M581.73,-200.03C597.75,-167.47 635,-101.14 687,-67 692.93,-63.11 699.58,-60.01 706.44,-57.54"/>
<polygon fill="midnightblue" stroke="midnightblue" points="578.44,-198.81 577.29,-209.34 584.76,-201.82 578.44,-198.81"/>
</g>
<!-- Node507 -->
<g id="node17" class="node">
<title>Node507</title>
<g id="a_node17"><a xlink:href="classMR24FDB1.html#af9b355c4127c5b937407b3e3b25217c7" target="_top" xlink:title="requests Software verion ">
<polygon fill="white" stroke="black" points="691.5,-0.5 691.5,-19.5 843.5,-19.5 843.5,-0.5 691.5,-0.5"/>
<text text-anchor="middle" x="767.5" y="-7.5" font-family="Helvetica,sans-Serif" font-size="10.00">MR24FDB1::getSoftwareVer</text>
</a>
</g>
</g>
<!-- Node496&#45;&gt;Node507 -->
<g id="edge18" class="edge">
<title>Node496&#45;&gt;Node507</title>
<path fill="none" stroke="midnightblue" d="M578.91,-199.69C591.81,-160.92 626.31,-73.48 687,-29 692.27,-25.14 698.2,-22.06 704.41,-19.59"/>
<polygon fill="midnightblue" stroke="midnightblue" points="575.56,-198.67 575.84,-209.27 582.22,-200.81 575.56,-198.67"/>
</g>
<!-- Node502&#45;&gt;Node493 -->
<g id="edge12" class="edge">
<title>Node502&#45;&gt;Node493</title>
<path fill="none" stroke="midnightblue" d="M850.04,-200C861.49,-200 873.07,-200 883.98,-200"/>
<polygon fill="midnightblue" stroke="midnightblue" points="850.03,-196.5 840.03,-200 850.03,-203.5 850.03,-196.5"/>
</g>
<!-- Node503&#45;&gt;Node493 -->
<g id="edge14" class="edge">
<title>Node503&#45;&gt;Node493</title>
<path fill="none" stroke="midnightblue" d="M822.31,-173.75C846.92,-179.13 875.69,-185.41 898.91,-190.48"/>
<polygon fill="midnightblue" stroke="midnightblue" points="822.92,-170.3 812.41,-171.59 821.43,-177.14 822.92,-170.3"/>
</g>
</g>
</svg>
        <g id="navigator" transform="translate(0 0)" fill="#404254">
                <rect fill="#f2f5e9" fill-opacity="0.5" stroke="#606060" stroke-width=".5" x="0" y="0" width="60" height="60"/>
                <use id="zoomplus" xlink:href="#zoomPlus" x="17" y="9" onmousedown="handleZoom(evt,'in')"/>
                <use id="zoomminus" xlink:href="#zoomMin" x="42" y="9" onmousedown="handleZoom(evt,'out')"/>
                <use id="reset" xlink:href="#resetDef" x="30" y="36" onmousedown="handleReset()"/>
                <g id="arrowUp" xlink:href="#dirArrow" transform="translate(30 24)" onmousedown="handlePan(0,-1)">
                  <use xlink:href="#rim" fill="#404040">
                        <set attributeName="fill" to="#808080" begin="arrowUp.mouseover" end="arrowUp.mouseout"/>
                  </use>
                  <path fill="none" stroke="white" stroke-width="1.5" d="M0,-3.0v7 M-2.5,-0.5L0,-3.0L2.5,-0.5"/>
                </g>
                <g id="arrowRight" xlink:href="#dirArrow" transform="rotate(90) translate(36 -43)" onmousedown="handlePan(1,0)">
                  <use xlink:href="#rim" fill="#404040">
                        <set attributeName="fill" to="#808080" begin="arrowRight.mouseover" end="arrowRight.mouseout"/>
                  </use>
                  <path fill="none" stroke="white" stroke-width="1.5" d="M0,-3.0v7 M-2.5,-0.5L0,-3.0L2.5,-0.5"/>
                </g>
                <g id="arrowDown" xlink:href="#dirArrow" transform="rotate(180) translate(-30 -48)" onmousedown="handlePan(0,1)">
                  <use xlink:href="#rim" fill="#404040">
                        <set attributeName="fill" to="#808080" begin="arrowDown.mouseover" end="arrowDown.mouseout"/>
                  </use>
                  <path fill="none" stroke="white" stroke-width="1.5" d="M0,-3.0v7 M-2.5,-0.5L0,-3.0L2.5,-0.5"/>
                </g>
                <g id="arrowLeft" xlink:href="#dirArrow" transform="rotate(270) translate(-36 17)" onmousedown="handlePan(-1,0)">
                  <use xlink:href="#rim" fill="#404040">
                        <set attributeName="fill" to="#808080" begin="arrowLeft.mouseover" end="arrowLeft.mouseout"/>
                  </use>
                  <path fill="none" stroke="white" stroke-width="1.5" d="M0,-3.0v7 M-2.5,-0.5L0,-3.0L2.5,-0.5"/>
                </g>
        </g>
        <svg viewBox="0 0 15 15" width="100%" height="30px" preserveAspectRatio="xMaxYMin meet">
         <g id="arrow_out" transform="scale(0.3 0.3)">
          <a xlink:href="classMR24FDB1_a1759ec9442c191ee6ddc09137a9c0528_icgraph_org.svg" target="_base">
           <rect id="button" ry="5" rx="5" y="6" x="6" height="38" width="38"
                fill="#f2f5e9" fill-opacity="0.5" stroke="#606060" stroke-width="1.0"/>
           <path id="arrow"
             d="M 11.500037,31.436501 C 11.940474,20.09759 22.043105,11.32322 32.158766,21.979434 L 37.068811,17.246167 C 37.068811,17.246167 37.088388,32 37.088388,32 L 22.160133,31.978069 C 22.160133,31.978069 26.997745,27.140456 26.997745,27.140456 C 18.528582,18.264221 13.291696,25.230495 11.500037,31.436501 z"
             style="fill:#404040;"/>
          </a>
         </g>
        </svg>
</svg>
