<?xml version="1.0" encoding="UTF-8" standalone="no"?>
<!DOCTYPE svg PUBLIC "-//W3C//DTD SVG 1.1//EN"
 "http://www.w3.org/Graphics/SVG/1.1/DTD/svg11.dtd">
<!-- Generated by graphviz version 2.43.0 (0)
 -->
<!-- Title: MR24FDB1::getHardwareVer Pages: 1 -->
<svg width="1100pt" height="218pt"
 viewBox="0.00 0.00 1100.00 218.00" xmlns="http://www.w3.org/2000/svg" xmlns:xlink="http://www.w3.org/1999/xlink">
<g id="graph0" class="graph" transform="scale(1 1) rotate(0) translate(4 214)">
<title>MR24FDB1::getHardwareVer</title>
<polygon fill="white" stroke="transparent" points="-4,4 -4,-214 1096,-214 1096,4 -4,4"/>
<!-- Node171 -->
<g id="node1" class="node">
<title>Node171</title>
<g id="a_node1"><a xlink:title="requests Hardware version ">
<polygon fill="#bfbfbf" stroke="black" points="0,-114.5 0,-133.5 156,-133.5 156,-114.5 0,-114.5"/>
<text text-anchor="middle" x="78" y="-121.5" font-family="Helvetica,sans-Serif" font-size="10.00">MR24FDB1::getHardwareVer</text>
</a>
</g>
</g>
<!-- Node172 -->
<g id="node2" class="node">
<title>Node172</title>
<g id="a_node2"><a xlink:href="classMR24FDB1.html#a7dfa1c269d0979718203f9202d4e8578" target="_top" xlink:title="send a &quot;GET&quot; packet to the module and wait for responce ">
<polygon fill="white" stroke="black" points="192,-114.5 192,-133.5 350,-133.5 350,-114.5 192,-114.5"/>
<text text-anchor="middle" x="271" y="-121.5" font-family="Helvetica,sans-Serif" font-size="10.00">MR24FDB1::sendGetAndWait</text>
</a>
</g>
</g>
<!-- Node171&#45;&gt;Node172 -->
<g id="edge1" class="edge">
<title>Node171&#45;&gt;Node172</title>
<path fill="none" stroke="midnightblue" d="M156.14,-124C164.62,-124 173.3,-124 181.91,-124"/>
<polygon fill="midnightblue" stroke="midnightblue" points="181.95,-127.5 191.95,-124 181.95,-120.5 181.95,-127.5"/>
</g>
<!-- Node173 -->
<g id="node3" class="node">
<title>Node173</title>
<g id="a_node3"><a xlink:href="classMR24FDB1.html#a4a5275f119bcbd82dd5a0d6a1d8defe5" target="_top" xlink:title="send a &quot;GET&quot; packet to the module ">
<polygon fill="white" stroke="black" points="386,-152.5 386,-171.5 503,-171.5 503,-152.5 386,-152.5"/>
<text text-anchor="middle" x="444.5" y="-159.5" font-family="Helvetica,sans-Serif" font-size="10.00">MR24FDB1::sendGet</text>
</a>
</g>
</g>
<!-- Node172&#45;&gt;Node173 -->
<g id="edge2" class="edge">
<title>Node172&#45;&gt;Node173</title>
<path fill="none" stroke="midnightblue" d="M315.28,-133.59C338.11,-138.65 366.32,-144.9 390.46,-150.25"/>
<polygon fill="midnightblue" stroke="midnightblue" points="390.01,-153.73 400.53,-152.48 391.53,-146.9 390.01,-153.73"/>
</g>
<!-- Node177 -->
<g id="node7" class="node">
<title>Node177</title>
<g id="a_node7"><a xlink:href="classMR24FDB1.html#a944e9bede6552294ea9940ae6fda3b96" target="_top" xlink:title="wait until packet of the specified type is recieved ">
<polygon fill="white" stroke="black" points="388,-95.5 388,-114.5 501,-114.5 501,-95.5 388,-95.5"/>
<text text-anchor="middle" x="444.5" y="-102.5" font-family="Helvetica,sans-Serif" font-size="10.00">MR24FDB1::waitFor</text>
</a>
</g>
</g>
<!-- Node172&#45;&gt;Node177 -->
<g id="edge6" class="edge">
<title>Node172&#45;&gt;Node177</title>
<path fill="none" stroke="midnightblue" d="M350.22,-115.33C359.46,-114.31 368.83,-113.27 377.87,-112.27"/>
<polygon fill="midnightblue" stroke="midnightblue" points="378.37,-115.74 387.92,-111.16 377.6,-108.78 378.37,-115.74"/>
</g>
<!-- Node174 -->
<g id="node4" class="node">
<title>Node174</title>
<g id="a_node4"><a xlink:href="classMR24FDB1.html#af148f4391ab1003e82d4497d8072aaa0" target="_top" xlink:title="calculate and add crc16 at end of buffer ">
<polygon fill="white" stroke="black" points="572,-152.5 572,-171.5 694,-171.5 694,-152.5 572,-152.5"/>
<text text-anchor="middle" x="633" y="-159.5" font-family="Helvetica,sans-Serif" font-size="10.00">MR24FDB1::addCrc16</text>
</a>
</g>
</g>
<!-- Node173&#45;&gt;Node174 -->
<g id="edge3" class="edge">
<title>Node173&#45;&gt;Node174</title>
<path fill="none" stroke="midnightblue" d="M503.23,-162C521.73,-162 542.42,-162 561.72,-162"/>
<polygon fill="midnightblue" stroke="midnightblue" points="561.96,-165.5 571.96,-162 561.96,-158.5 561.96,-165.5"/>
</g>
<!-- Node176 -->
<g id="node6" class="node">
<title>Node176</title>
<g id="a_node6"><a xlink:href="classMR24FDB1.html#a586848e9efe86b47520f92e049c502eb" target="_top" xlink:title="send a packet to the module ">
<polygon fill="white" stroke="black" points="567,-190.5 567,-209.5 699,-209.5 699,-190.5 567,-190.5"/>
<text text-anchor="middle" x="633" y="-197.5" font-family="Helvetica,sans-Serif" font-size="10.00">MR24FDB1::sendPacket</text>
</a>
</g>
</g>
<!-- Node173&#45;&gt;Node176 -->
<g id="edge5" class="edge">
<title>Node173&#45;&gt;Node176</title>
<path fill="none" stroke="midnightblue" d="M492.56,-171.59C517.73,-176.72 548.9,-183.07 575.38,-188.46"/>
<polygon fill="midnightblue" stroke="midnightblue" points="574.78,-191.91 585.28,-190.48 576.18,-185.05 574.78,-191.91"/>
</g>
<!-- Node175 -->
<g id="node5" class="node">
<title>Node175</title>
<g id="a_node5"><a xlink:href="classMR24FDB1.html#af7b82f23ec8f67c955ae413f4a078af0" target="_top" xlink:title="calculate crc16 of current packet ">
<polygon fill="white" stroke="black" points="765,-152.5 765,-171.5 914,-171.5 914,-152.5 765,-152.5"/>
<text text-anchor="middle" x="839.5" y="-159.5" font-family="Helvetica,sans-Serif" font-size="10.00">MR24FDB1::calculateCrc16</text>
</a>
</g>
</g>
<!-- Node174&#45;&gt;Node175 -->
<g id="edge4" class="edge">
<title>Node174&#45;&gt;Node175</title>
<path fill="none" stroke="midnightblue" d="M694.25,-162C713.2,-162 734.48,-162 754.75,-162"/>
<polygon fill="midnightblue" stroke="midnightblue" points="754.92,-165.5 764.92,-162 754.92,-158.5 754.92,-165.5"/>
</g>
<!-- Node178 -->
<g id="node8" class="node">
<title>Node178</title>
<g id="a_node8"><a xlink:href="classMR24FDB1.html#a8a6f5bebfe9e2f9232e58f0ff909042a" target="_top" xlink:title="parse packet ">
<polygon fill="white" stroke="black" points="565,-38.5 565,-57.5 701,-57.5 701,-38.5 565,-38.5"/>
<text text-anchor="middle" x="633" y="-45.5" font-family="Helvetica,sans-Serif" font-size="10.00">MR24FDB1::parsePacket</text>
</a>
</g>
</g>
<!-- Node177&#45;&gt;Node178 -->
<g id="edge7" class="edge">
<title>Node177&#45;&gt;Node178</title>
<path fill="none" stroke="midnightblue" d="M465.9,-95.43C484.58,-86.98 513.17,-74.81 539,-67 547.8,-64.34 557.19,-61.93 566.48,-59.8"/>
<polygon fill="midnightblue" stroke="midnightblue" points="567.49,-63.16 576.5,-57.59 565.98,-56.32 567.49,-63.16"/>
</g>
<!-- Node183 -->
<g id="node13" class="node">
<title>Node183</title>
<g id="a_node13"><a xlink:href="classMR24FDB1.html#a5e44c632274bde4a6e22f35d80a782f0" target="_top" xlink:title="get a packet from the chip ">
<polygon fill="white" stroke="black" points="567.5,-114.5 567.5,-133.5 698.5,-133.5 698.5,-114.5 567.5,-114.5"/>
<text text-anchor="middle" x="633" y="-121.5" font-family="Helvetica,sans-Serif" font-size="10.00">MR24FDB1::readPacket</text>
</a>
</g>
</g>
<!-- Node177&#45;&gt;Node183 -->
<g id="edge13" class="edge">
<title>Node177&#45;&gt;Node183</title>
<path fill="none" stroke="midnightblue" d="M501.2,-110.67C518.85,-112.47 538.66,-114.49 557.41,-116.4"/>
<polygon fill="midnightblue" stroke="midnightblue" points="557.1,-119.89 567.41,-117.42 557.81,-112.92 557.1,-119.89"/>
</g>
<!-- Node185 -->
<g id="node15" class="node">
<title>Node185</title>
<g id="a_node15"><a xlink:href="classMR24FDB1__Exception.html#a695552f5db7be7840c1af8650af0c235" target="_top" xlink:title="decode error from the Result,class,group , function etc... ">
<polygon fill="white" stroke="black" points="539,-76.5 539,-95.5 727,-95.5 727,-76.5 539,-76.5"/>
<text text-anchor="middle" x="633" y="-83.5" font-family="Helvetica,sans-Serif" font-size="10.00">MR24FDB1_Exception::decodeError</text>
</a>
</g>
</g>
<!-- Node177&#45;&gt;Node185 -->
<g id="edge16" class="edge">
<title>Node177&#45;&gt;Node185</title>
<path fill="none" stroke="midnightblue" d="M501.2,-99.33C510.05,-98.42 519.43,-97.47 528.95,-96.5"/>
<polygon fill="midnightblue" stroke="midnightblue" points="529.31,-99.98 538.91,-95.48 528.6,-93.02 529.31,-99.98"/>
</g>
<!-- Node179 -->
<g id="node9" class="node">
<title>Node179</title>
<g id="a_node9"><a xlink:href="classMR24FDB1.html#a2ccfe8221167944b882b5747b07dae22" target="_top" xlink:title="parse fall type packet ">
<polygon fill="white" stroke="black" points="763,-38.5 763,-57.5 916,-57.5 916,-38.5 763,-38.5"/>
<text text-anchor="middle" x="839.5" y="-45.5" font-family="Helvetica,sans-Serif" font-size="10.00">MR24FDB1::parseFallReport</text>
</a>
</g>
</g>
<!-- Node178&#45;&gt;Node179 -->
<g id="edge8" class="edge">
<title>Node178&#45;&gt;Node179</title>
<path fill="none" stroke="midnightblue" d="M701.24,-48C717.69,-48 735.51,-48 752.69,-48"/>
<polygon fill="midnightblue" stroke="midnightblue" points="752.72,-51.5 762.72,-48 752.72,-44.5 752.72,-51.5"/>
</g>
<!-- Node180 -->
<g id="node10" class="node">
<title>Node180</title>
<g id="a_node10"><a xlink:href="classMR24FDB1.html#a1759ec9442c191ee6ddc09137a9c0528" target="_top" xlink:title="parse report type packet ">
<polygon fill="white" stroke="black" points="771.5,-0.5 771.5,-19.5 907.5,-19.5 907.5,-0.5 771.5,-0.5"/>
<text text-anchor="middle" x="839.5" y="-7.5" font-family="Helvetica,sans-Serif" font-size="10.00">MR24FDB1::parseReport</text>
</a>
</g>
</g>
<!-- Node178&#45;&gt;Node180 -->
<g id="edge9" class="edge">
<title>Node178&#45;&gt;Node180</title>
<path fill="none" stroke="midnightblue" d="M685.34,-38.46C713.17,-33.29 747.77,-26.86 777.03,-21.42"/>
<polygon fill="midnightblue" stroke="midnightblue" points="777.95,-24.81 787.14,-19.54 776.67,-17.93 777.95,-24.81"/>
</g>
<!-- Node182 -->
<g id="node12" class="node">
<title>Node182</title>
<g id="a_node12"><a xlink:href="classMR24FDB1.html#a55ecfd4dffd4d04c97dcd6e6e264ad61" target="_top" xlink:title="parse reponce type packet ">
<polygon fill="white" stroke="black" points="764,-76.5 764,-95.5 915,-95.5 915,-76.5 764,-76.5"/>
<text text-anchor="middle" x="839.5" y="-83.5" font-family="Helvetica,sans-Serif" font-size="10.00">MR24FDB1::parseResponce</text>
</a>
</g>
</g>
<!-- Node178&#45;&gt;Node182 -->
<g id="edge11" class="edge">
<title>Node178&#45;&gt;Node182</title>
<path fill="none" stroke="midnightblue" d="M685.34,-57.54C713.17,-62.71 747.77,-69.14 777.03,-74.58"/>
<polygon fill="midnightblue" stroke="midnightblue" points="776.67,-78.07 787.14,-76.46 777.95,-71.19 776.67,-78.07"/>
</g>
<!-- Node181 -->
<g id="node11" class="node">
<title>Node181</title>
<g id="a_node11"><a xlink:href="classMR24FDB1.html#ae444c38bb80decf58cabe5b12005b819" target="_top" xlink:title="parse Radar group responces and reports ">
<polygon fill="white" stroke="black" points="952,-38.5 952,-57.5 1092,-57.5 1092,-38.5 952,-38.5"/>
<text text-anchor="middle" x="1022" y="-45.5" font-family="Helvetica,sans-Serif" font-size="10.00">MR24FDB1::decodeRadar</text>
</a>
</g>
</g>
<!-- Node180&#45;&gt;Node181 -->
<g id="edge10" class="edge">
<title>Node180&#45;&gt;Node181</title>
<path fill="none" stroke="midnightblue" d="M886.05,-19.59C910.3,-24.69 940.3,-31.01 965.86,-36.39"/>
<polygon fill="midnightblue" stroke="midnightblue" points="965.27,-39.84 975.78,-38.48 966.72,-32.99 965.27,-39.84"/>
</g>
<!-- Node182&#45;&gt;Node181 -->
<g id="edge12" class="edge">
<title>Node182&#45;&gt;Node181</title>
<path fill="none" stroke="midnightblue" d="M886.05,-76.41C910.3,-71.31 940.3,-64.99 965.86,-59.61"/>
<polygon fill="midnightblue" stroke="midnightblue" points="966.72,-63.01 975.78,-57.52 965.27,-56.16 966.72,-63.01"/>
</g>
<!-- Node183&#45;&gt;Node175 -->
<g id="edge14" class="edge">
<title>Node183&#45;&gt;Node175</title>
<path fill="none" stroke="midnightblue" d="M685.34,-133.54C713.17,-138.71 747.77,-145.14 777.03,-150.58"/>
<polygon fill="midnightblue" stroke="midnightblue" points="776.67,-154.07 787.14,-152.46 777.95,-147.19 776.67,-154.07"/>
</g>
<!-- Node184 -->
<g id="node14" class="node">
<title>Node184</title>
<g id="a_node14"><a xlink:href="classMR24FDB1.html#a3de11c024f9b20321cce5d98cd534c3e" target="_top" xlink:title="get one byte from serial ">
<polygon fill="white" stroke="black" points="779,-114.5 779,-133.5 900,-133.5 900,-114.5 779,-114.5"/>
<text text-anchor="middle" x="839.5" y="-121.5" font-family="Helvetica,sans-Serif" font-size="10.00">MR24FDB1::readByte</text>
</a>
</g>
</g>
<!-- Node183&#45;&gt;Node184 -->
<g id="edge15" class="edge">
<title>Node183&#45;&gt;Node184</title>
<path fill="none" stroke="midnightblue" d="M698.71,-124C720.93,-124 745.9,-124 768.52,-124"/>
<polygon fill="midnightblue" stroke="midnightblue" points="768.73,-127.5 778.73,-124 768.73,-120.5 768.73,-127.5"/>
</g>
</g>
</svg>
