<?xml version="1.0" encoding="UTF-8" standalone="no"?>
<!DOCTYPE svg PUBLIC "-//W3C//DTD SVG 1.1//EN"
 "http://www.w3.org/Graphics/SVG/1.1/DTD/svg11.dtd">
<!-- Generated by graphviz version 2.43.0 (0)
 -->
<!-- Title: MR24FDB1::setFallWarnTime Pages: 1 -->
<svg width="671pt" height="66pt"
 viewBox="0.00 0.00 671.00 66.00" xmlns="http://www.w3.org/2000/svg" xmlns:xlink="http://www.w3.org/1999/xlink">
<g id="graph0" class="graph" transform="scale(1 1) rotate(0) translate(4 62)">
<title>MR24FDB1::setFallWarnTime</title>
<polygon fill="white" stroke="transparent" points="-4,4 -4,-62 667,-62 667,4 -4,4"/>
<!-- Node394 -->
<g id="node1" class="node">
<title>Node394</title>
<g id="a_node1"><a xlink:title="set fall warn time parameter ">
<polygon fill="#bfbfbf" stroke="black" points="0,-19.5 0,-38.5 158,-38.5 158,-19.5 0,-19.5"/>
<text text-anchor="middle" x="79" y="-26.5" font-family="Helvetica,sans-Serif" font-size="10.00">MR24FDB1::setFallWarnTime</text>
</a>
</g>
</g>
<!-- Node395 -->
<g id="node2" class="node">
<title>Node395</title>
<g id="a_node2"><a xlink:href="classMR24FDB1.html#a465db085a7c6388ad7ba874d2adef8a3" target="_top" xlink:title="send a &quot;GET&quot; packet to the module ">
<polygon fill="white" stroke="black" points="194,-19.5 194,-38.5 310,-38.5 310,-19.5 194,-19.5"/>
<text text-anchor="middle" x="252" y="-26.5" font-family="Helvetica,sans-Serif" font-size="10.00">MR24FDB1::sendSet</text>
</a>
</g>
</g>
<!-- Node394&#45;&gt;Node395 -->
<g id="edge1" class="edge">
<title>Node394&#45;&gt;Node395</title>
<path fill="none" stroke="midnightblue" d="M158.49,-29C166.98,-29 175.56,-29 183.9,-29"/>
<polygon fill="midnightblue" stroke="midnightblue" points="183.93,-32.5 193.93,-29 183.93,-25.5 183.93,-32.5"/>
</g>
<!-- Node396 -->
<g id="node3" class="node">
<title>Node396</title>
<g id="a_node3"><a xlink:href="classMR24FDB1.html#af148f4391ab1003e82d4497d8072aaa0" target="_top" xlink:title="calculate and add crc16 at end of buffer ">
<polygon fill="white" stroke="black" points="351,-38.5 351,-57.5 473,-57.5 473,-38.5 351,-38.5"/>
<text text-anchor="middle" x="412" y="-45.5" font-family="Helvetica,sans-Serif" font-size="10.00">MR24FDB1::addCrc16</text>
</a>
</g>
</g>
<!-- Node395&#45;&gt;Node396 -->
<g id="edge2" class="edge">
<title>Node395&#45;&gt;Node396</title>
<path fill="none" stroke="midnightblue" d="M310.04,-35.86C319.99,-37.06 330.43,-38.31 340.69,-39.54"/>
<polygon fill="midnightblue" stroke="midnightblue" points="340.5,-43.05 350.84,-40.77 341.33,-36.1 340.5,-43.05"/>
</g>
<!-- Node398 -->
<g id="node5" class="node">
<title>Node398</title>
<g id="a_node5"><a xlink:href="classMR24FDB1.html#a586848e9efe86b47520f92e049c502eb" target="_top" xlink:title="send a packet to the module ">
<polygon fill="white" stroke="black" points="346,-0.5 346,-19.5 478,-19.5 478,-0.5 346,-0.5"/>
<text text-anchor="middle" x="412" y="-7.5" font-family="Helvetica,sans-Serif" font-size="10.00">MR24FDB1::sendPacket</text>
</a>
</g>
</g>
<!-- Node395&#45;&gt;Node398 -->
<g id="edge4" class="edge">
<title>Node395&#45;&gt;Node398</title>
<path fill="none" stroke="midnightblue" d="M310.04,-22.14C318.43,-21.13 327.17,-20.08 335.86,-19.04"/>
<polygon fill="midnightblue" stroke="midnightblue" points="336.48,-22.49 345.99,-17.82 335.65,-15.54 336.48,-22.49"/>
</g>
<!-- Node397 -->
<g id="node4" class="node">
<title>Node397</title>
<g id="a_node4"><a xlink:href="classMR24FDB1.html#af7b82f23ec8f67c955ae413f4a078af0" target="_top" xlink:title="calculate crc16 of current packet ">
<polygon fill="white" stroke="black" points="514,-38.5 514,-57.5 663,-57.5 663,-38.5 514,-38.5"/>
<text text-anchor="middle" x="588.5" y="-45.5" font-family="Helvetica,sans-Serif" font-size="10.00">MR24FDB1::calculateCrc16</text>
</a>
</g>
</g>
<!-- Node396&#45;&gt;Node397 -->
<g id="edge3" class="edge">
<title>Node396&#45;&gt;Node397</title>
<path fill="none" stroke="midnightblue" d="M473.05,-48C482.89,-48 493.23,-48 503.52,-48"/>
<polygon fill="midnightblue" stroke="midnightblue" points="503.76,-51.5 513.76,-48 503.76,-44.5 503.76,-51.5"/>
</g>
</g>
</svg>
