<?xml version="1.0" encoding="UTF-8" standalone="no"?>
<!DOCTYPE svg PUBLIC "-//W3C//DTD SVG 1.1//EN"
 "http://www.w3.org/Graphics/SVG/1.1/DTD/svg11.dtd">
<!-- Generated by graphviz version 2.43.0 (0)
 -->
<!-- Title: MR24FDB1::getProtocolVer Pages: 1 -->
<svg width="1093pt" height="218pt"
 viewBox="0.00 0.00 1093.00 218.00" xmlns="http://www.w3.org/2000/svg" xmlns:xlink="http://www.w3.org/1999/xlink">
<g id="graph0" class="graph" transform="scale(1 1) rotate(0) translate(4 214)">
<title>MR24FDB1::getProtocolVer</title>
<polygon fill="white" stroke="transparent" points="-4,4 -4,-214 1089,-214 1089,4 -4,4"/>
<!-- Node187 -->
<g id="node1" class="node">
<title>Node187</title>
<g id="a_node1"><a xlink:title="request Protocol Version ">
<polygon fill="#bfbfbf" stroke="black" points="0,-114.5 0,-133.5 149,-133.5 149,-114.5 0,-114.5"/>
<text text-anchor="middle" x="74.5" y="-121.5" font-family="Helvetica,sans-Serif" font-size="10.00">MR24FDB1::getProtocolVer</text>
</a>
</g>
</g>
<!-- Node188 -->
<g id="node2" class="node">
<title>Node188</title>
<g id="a_node2"><a xlink:href="classMR24FDB1.html#a7dfa1c269d0979718203f9202d4e8578" target="_top" xlink:title="send a &quot;GET&quot; packet to the module and wait for responce ">
<polygon fill="white" stroke="black" points="185,-114.5 185,-133.5 343,-133.5 343,-114.5 185,-114.5"/>
<text text-anchor="middle" x="264" y="-121.5" font-family="Helvetica,sans-Serif" font-size="10.00">MR24FDB1::sendGetAndWait</text>
</a>
</g>
</g>
<!-- Node187&#45;&gt;Node188 -->
<g id="edge1" class="edge">
<title>Node187&#45;&gt;Node188</title>
<path fill="none" stroke="midnightblue" d="M149.07,-124C157.47,-124 166.11,-124 174.68,-124"/>
<polygon fill="midnightblue" stroke="midnightblue" points="174.7,-127.5 184.7,-124 174.7,-120.5 174.7,-127.5"/>
</g>
<!-- Node189 -->
<g id="node3" class="node">
<title>Node189</title>
<g id="a_node3"><a xlink:href="classMR24FDB1.html#a4a5275f119bcbd82dd5a0d6a1d8defe5" target="_top" xlink:title="send a &quot;GET&quot; packet to the module ">
<polygon fill="white" stroke="black" points="379,-152.5 379,-171.5 496,-171.5 496,-152.5 379,-152.5"/>
<text text-anchor="middle" x="437.5" y="-159.5" font-family="Helvetica,sans-Serif" font-size="10.00">MR24FDB1::sendGet</text>
</a>
</g>
</g>
<!-- Node188&#45;&gt;Node189 -->
<g id="edge2" class="edge">
<title>Node188&#45;&gt;Node189</title>
<path fill="none" stroke="midnightblue" d="M308.28,-133.59C331.11,-138.65 359.32,-144.9 383.46,-150.25"/>
<polygon fill="midnightblue" stroke="midnightblue" points="383.01,-153.73 393.53,-152.48 384.53,-146.9 383.01,-153.73"/>
</g>
<!-- Node193 -->
<g id="node7" class="node">
<title>Node193</title>
<g id="a_node7"><a xlink:href="classMR24FDB1.html#a944e9bede6552294ea9940ae6fda3b96" target="_top" xlink:title="wait until packet of the specified type is recieved ">
<polygon fill="white" stroke="black" points="381,-95.5 381,-114.5 494,-114.5 494,-95.5 381,-95.5"/>
<text text-anchor="middle" x="437.5" y="-102.5" font-family="Helvetica,sans-Serif" font-size="10.00">MR24FDB1::waitFor</text>
</a>
</g>
</g>
<!-- Node188&#45;&gt;Node193 -->
<g id="edge6" class="edge">
<title>Node188&#45;&gt;Node193</title>
<path fill="none" stroke="midnightblue" d="M343.22,-115.33C352.46,-114.31 361.83,-113.27 370.87,-112.27"/>
<polygon fill="midnightblue" stroke="midnightblue" points="371.37,-115.74 380.92,-111.16 370.6,-108.78 371.37,-115.74"/>
</g>
<!-- Node190 -->
<g id="node4" class="node">
<title>Node190</title>
<g id="a_node4"><a xlink:href="classMR24FDB1.html#af148f4391ab1003e82d4497d8072aaa0" target="_top" xlink:title="calculate and add crc16 at end of buffer ">
<polygon fill="white" stroke="black" points="565,-152.5 565,-171.5 687,-171.5 687,-152.5 565,-152.5"/>
<text text-anchor="middle" x="626" y="-159.5" font-family="Helvetica,sans-Serif" font-size="10.00">MR24FDB1::addCrc16</text>
</a>
</g>
</g>
<!-- Node189&#45;&gt;Node190 -->
<g id="edge3" class="edge">
<title>Node189&#45;&gt;Node190</title>
<path fill="none" stroke="midnightblue" d="M496.23,-162C514.73,-162 535.42,-162 554.72,-162"/>
<polygon fill="midnightblue" stroke="midnightblue" points="554.96,-165.5 564.96,-162 554.96,-158.5 554.96,-165.5"/>
</g>
<!-- Node192 -->
<g id="node6" class="node">
<title>Node192</title>
<g id="a_node6"><a xlink:href="classMR24FDB1.html#a586848e9efe86b47520f92e049c502eb" target="_top" xlink:title="send a packet to the module ">
<polygon fill="white" stroke="black" points="560,-190.5 560,-209.5 692,-209.5 692,-190.5 560,-190.5"/>
<text text-anchor="middle" x="626" y="-197.5" font-family="Helvetica,sans-Serif" font-size="10.00">MR24FDB1::sendPacket</text>
</a>
</g>
</g>
<!-- Node189&#45;&gt;Node192 -->
<g id="edge5" class="edge">
<title>Node189&#45;&gt;Node192</title>
<path fill="none" stroke="midnightblue" d="M485.56,-171.59C510.73,-176.72 541.9,-183.07 568.38,-188.46"/>
<polygon fill="midnightblue" stroke="midnightblue" points="567.78,-191.91 578.28,-190.48 569.18,-185.05 567.78,-191.91"/>
</g>
<!-- Node191 -->
<g id="node5" class="node">
<title>Node191</title>
<g id="a_node5"><a xlink:href="classMR24FDB1.html#af7b82f23ec8f67c955ae413f4a078af0" target="_top" xlink:title="calculate crc16 of current packet ">
<polygon fill="white" stroke="black" points="758,-152.5 758,-171.5 907,-171.5 907,-152.5 758,-152.5"/>
<text text-anchor="middle" x="832.5" y="-159.5" font-family="Helvetica,sans-Serif" font-size="10.00">MR24FDB1::calculateCrc16</text>
</a>
</g>
</g>
<!-- Node190&#45;&gt;Node191 -->
<g id="edge4" class="edge">
<title>Node190&#45;&gt;Node191</title>
<path fill="none" stroke="midnightblue" d="M687.25,-162C706.2,-162 727.48,-162 747.75,-162"/>
<polygon fill="midnightblue" stroke="midnightblue" points="747.92,-165.5 757.92,-162 747.92,-158.5 747.92,-165.5"/>
</g>
<!-- Node194 -->
<g id="node8" class="node">
<title>Node194</title>
<g id="a_node8"><a xlink:href="classMR24FDB1.html#a8a6f5bebfe9e2f9232e58f0ff909042a" target="_top" xlink:title="parse packet ">
<polygon fill="white" stroke="black" points="558,-38.5 558,-57.5 694,-57.5 694,-38.5 558,-38.5"/>
<text text-anchor="middle" x="626" y="-45.5" font-family="Helvetica,sans-Serif" font-size="10.00">MR24FDB1::parsePacket</text>
</a>
</g>
</g>
<!-- Node193&#45;&gt;Node194 -->
<g id="edge7" class="edge">
<title>Node193&#45;&gt;Node194</title>
<path fill="none" stroke="midnightblue" d="M458.9,-95.43C477.58,-86.98 506.17,-74.81 532,-67 540.8,-64.34 550.19,-61.93 559.48,-59.8"/>
<polygon fill="midnightblue" stroke="midnightblue" points="560.49,-63.16 569.5,-57.59 558.98,-56.32 560.49,-63.16"/>
</g>
<!-- Node199 -->
<g id="node13" class="node">
<title>Node199</title>
<g id="a_node13"><a xlink:href="classMR24FDB1.html#a5e44c632274bde4a6e22f35d80a782f0" target="_top" xlink:title="get a packet from the chip ">
<polygon fill="white" stroke="black" points="560.5,-114.5 560.5,-133.5 691.5,-133.5 691.5,-114.5 560.5,-114.5"/>
<text text-anchor="middle" x="626" y="-121.5" font-family="Helvetica,sans-Serif" font-size="10.00">MR24FDB1::readPacket</text>
</a>
</g>
</g>
<!-- Node193&#45;&gt;Node199 -->
<g id="edge13" class="edge">
<title>Node193&#45;&gt;Node199</title>
<path fill="none" stroke="midnightblue" d="M494.2,-110.67C511.85,-112.47 531.66,-114.49 550.41,-116.4"/>
<polygon fill="midnightblue" stroke="midnightblue" points="550.1,-119.89 560.41,-117.42 550.81,-112.92 550.1,-119.89"/>
</g>
<!-- Node201 -->
<g id="node15" class="node">
<title>Node201</title>
<g id="a_node15"><a xlink:href="classMR24FDB1__Exception.html#a695552f5db7be7840c1af8650af0c235" target="_top" xlink:title="decode error from the Result,class,group , function etc... ">
<polygon fill="white" stroke="black" points="532,-76.5 532,-95.5 720,-95.5 720,-76.5 532,-76.5"/>
<text text-anchor="middle" x="626" y="-83.5" font-family="Helvetica,sans-Serif" font-size="10.00">MR24FDB1_Exception::decodeError</text>
</a>
</g>
</g>
<!-- Node193&#45;&gt;Node201 -->
<g id="edge16" class="edge">
<title>Node193&#45;&gt;Node201</title>
<path fill="none" stroke="midnightblue" d="M494.2,-99.33C503.05,-98.42 512.43,-97.47 521.95,-96.5"/>
<polygon fill="midnightblue" stroke="midnightblue" points="522.31,-99.98 531.91,-95.48 521.6,-93.02 522.31,-99.98"/>
</g>
<!-- Node195 -->
<g id="node9" class="node">
<title>Node195</title>
<g id="a_node9"><a xlink:href="classMR24FDB1.html#a2ccfe8221167944b882b5747b07dae22" target="_top" xlink:title="parse fall type packet ">
<polygon fill="white" stroke="black" points="756,-38.5 756,-57.5 909,-57.5 909,-38.5 756,-38.5"/>
<text text-anchor="middle" x="832.5" y="-45.5" font-family="Helvetica,sans-Serif" font-size="10.00">MR24FDB1::parseFallReport</text>
</a>
</g>
</g>
<!-- Node194&#45;&gt;Node195 -->
<g id="edge8" class="edge">
<title>Node194&#45;&gt;Node195</title>
<path fill="none" stroke="midnightblue" d="M694.24,-48C710.69,-48 728.51,-48 745.69,-48"/>
<polygon fill="midnightblue" stroke="midnightblue" points="745.72,-51.5 755.72,-48 745.72,-44.5 745.72,-51.5"/>
</g>
<!-- Node196 -->
<g id="node10" class="node">
<title>Node196</title>
<g id="a_node10"><a xlink:href="classMR24FDB1.html#a1759ec9442c191ee6ddc09137a9c0528" target="_top" xlink:title="parse report type packet ">
<polygon fill="white" stroke="black" points="764.5,-0.5 764.5,-19.5 900.5,-19.5 900.5,-0.5 764.5,-0.5"/>
<text text-anchor="middle" x="832.5" y="-7.5" font-family="Helvetica,sans-Serif" font-size="10.00">MR24FDB1::parseReport</text>
</a>
</g>
</g>
<!-- Node194&#45;&gt;Node196 -->
<g id="edge9" class="edge">
<title>Node194&#45;&gt;Node196</title>
<path fill="none" stroke="midnightblue" d="M678.34,-38.46C706.17,-33.29 740.77,-26.86 770.03,-21.42"/>
<polygon fill="midnightblue" stroke="midnightblue" points="770.95,-24.81 780.14,-19.54 769.67,-17.93 770.95,-24.81"/>
</g>
<!-- Node198 -->
<g id="node12" class="node">
<title>Node198</title>
<g id="a_node12"><a xlink:href="classMR24FDB1.html#a55ecfd4dffd4d04c97dcd6e6e264ad61" target="_top" xlink:title="parse reponce type packet ">
<polygon fill="white" stroke="black" points="757,-76.5 757,-95.5 908,-95.5 908,-76.5 757,-76.5"/>
<text text-anchor="middle" x="832.5" y="-83.5" font-family="Helvetica,sans-Serif" font-size="10.00">MR24FDB1::parseResponce</text>
</a>
</g>
</g>
<!-- Node194&#45;&gt;Node198 -->
<g id="edge11" class="edge">
<title>Node194&#45;&gt;Node198</title>
<path fill="none" stroke="midnightblue" d="M678.34,-57.54C706.17,-62.71 740.77,-69.14 770.03,-74.58"/>
<polygon fill="midnightblue" stroke="midnightblue" points="769.67,-78.07 780.14,-76.46 770.95,-71.19 769.67,-78.07"/>
</g>
<!-- Node197 -->
<g id="node11" class="node">
<title>Node197</title>
<g id="a_node11"><a xlink:href="classMR24FDB1.html#ae444c38bb80decf58cabe5b12005b819" target="_top" xlink:title="parse Radar group responces and reports ">
<polygon fill="white" stroke="black" points="945,-38.5 945,-57.5 1085,-57.5 1085,-38.5 945,-38.5"/>
<text text-anchor="middle" x="1015" y="-45.5" font-family="Helvetica,sans-Serif" font-size="10.00">MR24FDB1::decodeRadar</text>
</a>
</g>
</g>
<!-- Node196&#45;&gt;Node197 -->
<g id="edge10" class="edge">
<title>Node196&#45;&gt;Node197</title>
<path fill="none" stroke="midnightblue" d="M879.05,-19.59C903.3,-24.69 933.3,-31.01 958.86,-36.39"/>
<polygon fill="midnightblue" stroke="midnightblue" points="958.27,-39.84 968.78,-38.48 959.72,-32.99 958.27,-39.84"/>
</g>
<!-- Node198&#45;&gt;Node197 -->
<g id="edge12" class="edge">
<title>Node198&#45;&gt;Node197</title>
<path fill="none" stroke="midnightblue" d="M879.05,-76.41C903.3,-71.31 933.3,-64.99 958.86,-59.61"/>
<polygon fill="midnightblue" stroke="midnightblue" points="959.72,-63.01 968.78,-57.52 958.27,-56.16 959.72,-63.01"/>
</g>
<!-- Node199&#45;&gt;Node191 -->
<g id="edge14" class="edge">
<title>Node199&#45;&gt;Node191</title>
<path fill="none" stroke="midnightblue" d="M678.34,-133.54C706.17,-138.71 740.77,-145.14 770.03,-150.58"/>
<polygon fill="midnightblue" stroke="midnightblue" points="769.67,-154.07 780.14,-152.46 770.95,-147.19 769.67,-154.07"/>
</g>
<!-- Node200 -->
<g id="node14" class="node">
<title>Node200</title>
<g id="a_node14"><a xlink:href="classMR24FDB1.html#a3de11c024f9b20321cce5d98cd534c3e" target="_top" xlink:title="get one byte from serial ">
<polygon fill="white" stroke="black" points="772,-114.5 772,-133.5 893,-133.5 893,-114.5 772,-114.5"/>
<text text-anchor="middle" x="832.5" y="-121.5" font-family="Helvetica,sans-Serif" font-size="10.00">MR24FDB1::readByte</text>
</a>
</g>
</g>
<!-- Node199&#45;&gt;Node200 -->
<g id="edge15" class="edge">
<title>Node199&#45;&gt;Node200</title>
<path fill="none" stroke="midnightblue" d="M691.71,-124C713.93,-124 738.9,-124 761.52,-124"/>
<polygon fill="midnightblue" stroke="midnightblue" points="761.73,-127.5 771.73,-124 761.73,-120.5 761.73,-127.5"/>
</g>
</g>
</svg>
