<?xml version="1.0" encoding="UTF-8" standalone="no"?>
<!DOCTYPE svg PUBLIC "-//W3C//DTD SVG 1.1//EN"
 "http://www.w3.org/Graphics/SVG/1.1/DTD/svg11.dtd">
<!-- Generated by graphviz version 2.43.0 (0)
 -->
<!-- Title: MR24FDB1::setFallDetect Pages: 1 -->
<svg width="654pt" height="66pt"
 viewBox="0.00 0.00 654.00 66.00" xmlns="http://www.w3.org/2000/svg" xmlns:xlink="http://www.w3.org/1999/xlink">
<g id="graph0" class="graph" transform="scale(1 1) rotate(0) translate(4 62)">
<title>MR24FDB1::setFallDetect</title>
<polygon fill="white" stroke="transparent" points="-4,4 -4,-62 650,-62 650,4 -4,4"/>
<!-- Node388 -->
<g id="node1" class="node">
<title>Node388</title>
<g id="a_node1"><a xlink:title="enable / disable fall detection ">
<polygon fill="#bfbfbf" stroke="black" points="0,-19.5 0,-38.5 141,-38.5 141,-19.5 0,-19.5"/>
<text text-anchor="middle" x="70.5" y="-26.5" font-family="Helvetica,sans-Serif" font-size="10.00">MR24FDB1::setFallDetect</text>
</a>
</g>
</g>
<!-- Node389 -->
<g id="node2" class="node">
<title>Node389</title>
<g id="a_node2"><a xlink:href="classMR24FDB1.html#a465db085a7c6388ad7ba874d2adef8a3" target="_top" xlink:title="send a &quot;GET&quot; packet to the module ">
<polygon fill="white" stroke="black" points="177,-19.5 177,-38.5 293,-38.5 293,-19.5 177,-19.5"/>
<text text-anchor="middle" x="235" y="-26.5" font-family="Helvetica,sans-Serif" font-size="10.00">MR24FDB1::sendSet</text>
</a>
</g>
</g>
<!-- Node388&#45;&gt;Node389 -->
<g id="edge1" class="edge">
<title>Node388&#45;&gt;Node389</title>
<path fill="none" stroke="midnightblue" d="M141.36,-29C149.8,-29 158.4,-29 166.8,-29"/>
<polygon fill="midnightblue" stroke="midnightblue" points="166.92,-32.5 176.92,-29 166.92,-25.5 166.92,-32.5"/>
</g>
<!-- Node390 -->
<g id="node3" class="node">
<title>Node390</title>
<g id="a_node3"><a xlink:href="classMR24FDB1.html#af148f4391ab1003e82d4497d8072aaa0" target="_top" xlink:title="calculate and add crc16 at end of buffer ">
<polygon fill="white" stroke="black" points="334,-38.5 334,-57.5 456,-57.5 456,-38.5 334,-38.5"/>
<text text-anchor="middle" x="395" y="-45.5" font-family="Helvetica,sans-Serif" font-size="10.00">MR24FDB1::addCrc16</text>
</a>
</g>
</g>
<!-- Node389&#45;&gt;Node390 -->
<g id="edge2" class="edge">
<title>Node389&#45;&gt;Node390</title>
<path fill="none" stroke="midnightblue" d="M293.04,-35.86C302.99,-37.06 313.43,-38.31 323.69,-39.54"/>
<polygon fill="midnightblue" stroke="midnightblue" points="323.5,-43.05 333.84,-40.77 324.33,-36.1 323.5,-43.05"/>
</g>
<!-- Node392 -->
<g id="node5" class="node">
<title>Node392</title>
<g id="a_node5"><a xlink:href="classMR24FDB1.html#a586848e9efe86b47520f92e049c502eb" target="_top" xlink:title="send a packet to the module ">
<polygon fill="white" stroke="black" points="329,-0.5 329,-19.5 461,-19.5 461,-0.5 329,-0.5"/>
<text text-anchor="middle" x="395" y="-7.5" font-family="Helvetica,sans-Serif" font-size="10.00">MR24FDB1::sendPacket</text>
</a>
</g>
</g>
<!-- Node389&#45;&gt;Node392 -->
<g id="edge4" class="edge">
<title>Node389&#45;&gt;Node392</title>
<path fill="none" stroke="midnightblue" d="M293.04,-22.14C301.43,-21.13 310.17,-20.08 318.86,-19.04"/>
<polygon fill="midnightblue" stroke="midnightblue" points="319.48,-22.49 328.99,-17.82 318.65,-15.54 319.48,-22.49"/>
</g>
<!-- Node391 -->
<g id="node4" class="node">
<title>Node391</title>
<g id="a_node4"><a xlink:href="classMR24FDB1.html#af7b82f23ec8f67c955ae413f4a078af0" target="_top" xlink:title="calculate crc16 of current packet ">
<polygon fill="white" stroke="black" points="497,-38.5 497,-57.5 646,-57.5 646,-38.5 497,-38.5"/>
<text text-anchor="middle" x="571.5" y="-45.5" font-family="Helvetica,sans-Serif" font-size="10.00">MR24FDB1::calculateCrc16</text>
</a>
</g>
</g>
<!-- Node390&#45;&gt;Node391 -->
<g id="edge3" class="edge">
<title>Node390&#45;&gt;Node391</title>
<path fill="none" stroke="midnightblue" d="M456.05,-48C465.89,-48 476.23,-48 486.52,-48"/>
<polygon fill="midnightblue" stroke="midnightblue" points="486.76,-51.5 496.76,-48 486.76,-44.5 486.76,-51.5"/>
</g>
</g>
</svg>
