<?xml version="1.0" encoding="UTF-8" standalone="no"?>
<!DOCTYPE svg PUBLIC "-//W3C//DTD SVG 1.1//EN"
 "http://www.w3.org/Graphics/SVG/1.1/DTD/svg11.dtd">
<!-- Generated by graphviz version 2.43.0 (0)
 -->
<!-- Title: MR24FDB1::testSend Pages: 1 -->
<!--zoomable 246 -->
<svg id="main" version="1.1" xmlns="http://www.w3.org/2000/svg" xmlns:xlink="http://www.w3.org/1999/xlink" xml:space="preserve" onload="init(evt)">
<style type="text/css"><![CDATA[
.edge:hover path { stroke: red; }
.edge:hover polygon { stroke: red; fill: red; }
]]></style>
<script type="text/javascript"><![CDATA[
var edges = document.getElementsByTagName('g');
if (edges && edges.length) {
  for (var i=0;i<edges.length;i++) {
    if (edges[i].id.substr(0,4)=='edge') {
      edges[i].setAttribute('class','edge');
    }
  }
}
]]></script>
        <defs>
                <circle id="rim" cx="0" cy="0" r="7"/>
                <circle id="rim2" cx="0" cy="0" r="3.5"/>
                <g id="zoomPlus">
                        <use xlink:href="#rim" fill="#404040">
                                <set attributeName="fill" to="#808080" begin="zoomplus.mouseover" end="zoomplus.mouseout"/>
                        </use>
                        <path d="M-4,0h8M0,-4v8" fill="none" stroke="white" stroke-width="1.5" pointer-events="none"/>
                </g>
                <g id="zoomMin">
                        <use xlink:href="#rim" fill="#404040">
                                <set attributeName="fill" to="#808080" begin="zoomminus.mouseover" end="zoomminus.mouseout"/>
                        </use>
                        <path d="M-4,0h8" fill="none" stroke="white" stroke-width="1.5" pointer-events="none"/>
                </g>
                <g id="dirArrow">
                        <path fill="none" stroke="white" stroke-width="1.5" d="M0,-3.0v7 M-2.5,-0.5L0,-3.0L2.5,-0.5"/>
                </g>
               <g id="resetDef">
                       <use xlink:href="#rim2" fill="#404040">
                               <set attributeName="fill" to="#808080" begin="reset.mouseover" end="reset.mouseout"/>
                       </use>
               </g>
        </defs>

<script type="text/javascript">
var viewWidth = 1244;
var viewHeight = 246;
var sectionId = 'dynsection-35';
</script>
<script xlink:href="svgpan.js"/>
<svg id="graph" class="graph">
<g id="viewport">
<title>MR24FDB1::testSend</title>
<polygon fill="white" stroke="transparent" points="-4,4 -4,-242 1240,-242 1240,4 -4,4"/>
<!-- Node408 -->
<g id="node1" class="node">
<title>Node408</title>
<g id="a_node1"><a xlink:title="send test ">
<polygon fill="#bfbfbf" stroke="black" points="0,-123.5 0,-142.5 119,-142.5 119,-123.5 0,-123.5"/>
<text text-anchor="middle" x="59.5" y="-130.5" font-family="Helvetica,sans-Serif" font-size="10.00">MR24FDB1::testSend</text>
</a>
</g>
</g>
<!-- Node409 -->
<g id="node2" class="node">
<title>Node409</title>
<g id="a_node2"><a xlink:href="classMR24FDB1.html#ab090aa5731fa4e348a33588f682f1a16" target="_top" xlink:title="get movement ">
<polygon fill="white" stroke="black" points="155,-180.5 155,-199.5 300,-199.5 300,-180.5 155,-180.5"/>
<text text-anchor="middle" x="227.5" y="-187.5" font-family="Helvetica,sans-Serif" font-size="10.00">MR24FDB1::getMovement</text>
</a>
</g>
</g>
<!-- Node408&#45;&gt;Node409 -->
<g id="edge1" class="edge">
<title>Node408&#45;&gt;Node409</title>
<path fill="none" stroke="midnightblue" d="M81.99,-142.52C100.96,-150.71 129.5,-162.52 155,-171 162.12,-173.37 169.71,-175.64 177.19,-177.75"/>
<polygon fill="midnightblue" stroke="midnightblue" points="176.34,-181.14 186.91,-180.4 178.19,-174.39 176.34,-181.14"/>
</g>
<!-- Node416 -->
<g id="node9" class="node">
<title>Node416</title>
<g id="a_node9"><a xlink:href="classMR24FDB1.html#a8a6f5bebfe9e2f9232e58f0ff909042a" target="_top" xlink:title="parse packet ">
<polygon fill="white" stroke="black" points="709,-66.5 709,-85.5 845,-85.5 845,-66.5 709,-66.5"/>
<text text-anchor="middle" x="777" y="-73.5" font-family="Helvetica,sans-Serif" font-size="10.00">MR24FDB1::parsePacket</text>
</a>
</g>
</g>
<!-- Node408&#45;&gt;Node416 -->
<g id="edge20" class="edge">
<title>Node408&#45;&gt;Node416</title>
<path fill="none" stroke="midnightblue" d="M119.19,-125.78C131.03,-124.43 143.41,-123.1 155,-122 350.55,-103.38 581.36,-88.02 698.86,-80.67"/>
<polygon fill="midnightblue" stroke="midnightblue" points="699.08,-84.16 708.84,-80.05 698.64,-77.18 699.08,-84.16"/>
</g>
<!-- Node421 -->
<g id="node14" class="node">
<title>Node421</title>
<g id="a_node14"><a xlink:href="classMR24FDB1.html#a5e44c632274bde4a6e22f35d80a782f0" target="_top" xlink:title="get a packet from the chip ">
<polygon fill="white" stroke="black" points="711.5,-104.5 711.5,-123.5 842.5,-123.5 842.5,-104.5 711.5,-104.5"/>
<text text-anchor="middle" x="777" y="-111.5" font-family="Helvetica,sans-Serif" font-size="10.00">MR24FDB1::readPacket</text>
</a>
</g>
</g>
<!-- Node408&#45;&gt;Node421 -->
<g id="edge21" class="edge">
<title>Node408&#45;&gt;Node421</title>
<path fill="none" stroke="midnightblue" d="M119.05,-131.45C248.37,-128.01 558.17,-119.78 701.24,-115.99"/>
<polygon fill="midnightblue" stroke="midnightblue" points="701.35,-119.48 711.25,-115.72 701.16,-112.49 701.35,-119.48"/>
</g>
<!-- Node424 -->
<g id="node17" class="node">
<title>Node424</title>
<g id="a_node17"><a xlink:href="classMR24FDB1.html#af5bcb06d3788fb4743e2f750a6e4a149" target="_top" xlink:title="get presence from module ">
<polygon fill="white" stroke="black" points="159,-142.5 159,-161.5 296,-161.5 296,-142.5 159,-142.5"/>
<text text-anchor="middle" x="227.5" y="-149.5" font-family="Helvetica,sans-Serif" font-size="10.00">MR24FDB1::getPresence</text>
</a>
</g>
</g>
<!-- Node408&#45;&gt;Node424 -->
<g id="edge18" class="edge">
<title>Node408&#45;&gt;Node424</title>
<path fill="none" stroke="midnightblue" d="M119.03,-139.7C128.69,-140.8 138.83,-141.97 148.88,-143.12"/>
<polygon fill="midnightblue" stroke="midnightblue" points="148.53,-146.6 158.86,-144.26 149.32,-139.64 148.53,-146.6"/>
</g>
<!-- Node410 -->
<g id="node3" class="node">
<title>Node410</title>
<g id="a_node3"><a xlink:href="classMR24FDB1.html#a7dfa1c269d0979718203f9202d4e8578" target="_top" xlink:title="send a &quot;GET&quot; packet to the module and wait for responce ">
<polygon fill="white" stroke="black" points="336,-161.5 336,-180.5 494,-180.5 494,-161.5 336,-161.5"/>
<text text-anchor="middle" x="415" y="-168.5" font-family="Helvetica,sans-Serif" font-size="10.00">MR24FDB1::sendGetAndWait</text>
</a>
</g>
</g>
<!-- Node409&#45;&gt;Node410 -->
<g id="edge2" class="edge">
<title>Node409&#45;&gt;Node410</title>
<path fill="none" stroke="midnightblue" d="M300.22,-182.65C308.57,-181.8 317.17,-180.92 325.71,-180.04"/>
<polygon fill="midnightblue" stroke="midnightblue" points="326.11,-183.52 335.7,-179.02 325.39,-176.56 326.11,-183.52"/>
</g>
<!-- Node411 -->
<g id="node4" class="node">
<title>Node411</title>
<g id="a_node4"><a xlink:href="classMR24FDB1.html#a4a5275f119bcbd82dd5a0d6a1d8defe5" target="_top" xlink:title="send a &quot;GET&quot; packet to the module ">
<polygon fill="white" stroke="black" points="530,-180.5 530,-199.5 647,-199.5 647,-180.5 530,-180.5"/>
<text text-anchor="middle" x="588.5" y="-187.5" font-family="Helvetica,sans-Serif" font-size="10.00">MR24FDB1::sendGet</text>
</a>
</g>
</g>
<!-- Node410&#45;&gt;Node411 -->
<g id="edge3" class="edge">
<title>Node410&#45;&gt;Node411</title>
<path fill="none" stroke="midnightblue" d="M494.22,-179.67C502.76,-180.61 511.41,-181.57 519.81,-182.5"/>
<polygon fill="midnightblue" stroke="midnightblue" points="519.58,-186 529.91,-183.62 520.35,-179.04 519.58,-186"/>
</g>
<!-- Node415 -->
<g id="node8" class="node">
<title>Node415</title>
<g id="a_node8"><a xlink:href="classMR24FDB1.html#a944e9bede6552294ea9940ae6fda3b96" target="_top" xlink:title="wait until packet of the specified type is recieved ">
<polygon fill="white" stroke="black" points="532,-142.5 532,-161.5 645,-161.5 645,-142.5 532,-142.5"/>
<text text-anchor="middle" x="588.5" y="-149.5" font-family="Helvetica,sans-Serif" font-size="10.00">MR24FDB1::waitFor</text>
</a>
</g>
</g>
<!-- Node410&#45;&gt;Node415 -->
<g id="edge7" class="edge">
<title>Node410&#45;&gt;Node415</title>
<path fill="none" stroke="midnightblue" d="M494.22,-162.33C503.46,-161.31 512.83,-160.27 521.87,-159.27"/>
<polygon fill="midnightblue" stroke="midnightblue" points="522.37,-162.74 531.92,-158.16 521.6,-155.78 522.37,-162.74"/>
</g>
<!-- Node412 -->
<g id="node5" class="node">
<title>Node412</title>
<g id="a_node5"><a xlink:href="classMR24FDB1.html#af148f4391ab1003e82d4497d8072aaa0" target="_top" xlink:title="calculate and add crc16 at end of buffer ">
<polygon fill="white" stroke="black" points="716,-180.5 716,-199.5 838,-199.5 838,-180.5 716,-180.5"/>
<text text-anchor="middle" x="777" y="-187.5" font-family="Helvetica,sans-Serif" font-size="10.00">MR24FDB1::addCrc16</text>
</a>
</g>
</g>
<!-- Node411&#45;&gt;Node412 -->
<g id="edge4" class="edge">
<title>Node411&#45;&gt;Node412</title>
<path fill="none" stroke="midnightblue" d="M647.23,-190C665.73,-190 686.42,-190 705.72,-190"/>
<polygon fill="midnightblue" stroke="midnightblue" points="705.96,-193.5 715.96,-190 705.96,-186.5 705.96,-193.5"/>
</g>
<!-- Node414 -->
<g id="node7" class="node">
<title>Node414</title>
<g id="a_node7"><a xlink:href="classMR24FDB1.html#a586848e9efe86b47520f92e049c502eb" target="_top" xlink:title="send a packet to the module ">
<polygon fill="white" stroke="black" points="711,-218.5 711,-237.5 843,-237.5 843,-218.5 711,-218.5"/>
<text text-anchor="middle" x="777" y="-225.5" font-family="Helvetica,sans-Serif" font-size="10.00">MR24FDB1::sendPacket</text>
</a>
</g>
</g>
<!-- Node411&#45;&gt;Node414 -->
<g id="edge6" class="edge">
<title>Node411&#45;&gt;Node414</title>
<path fill="none" stroke="midnightblue" d="M636.56,-199.59C661.73,-204.72 692.9,-211.07 719.38,-216.46"/>
<polygon fill="midnightblue" stroke="midnightblue" points="718.78,-219.91 729.28,-218.48 720.18,-213.05 718.78,-219.91"/>
</g>
<!-- Node413 -->
<g id="node6" class="node">
<title>Node413</title>
<g id="a_node6"><a xlink:href="classMR24FDB1.html#af7b82f23ec8f67c955ae413f4a078af0" target="_top" xlink:title="calculate crc16 of current packet ">
<polygon fill="white" stroke="black" points="909,-171.5 909,-190.5 1058,-190.5 1058,-171.5 909,-171.5"/>
<text text-anchor="middle" x="983.5" y="-178.5" font-family="Helvetica,sans-Serif" font-size="10.00">MR24FDB1::calculateCrc16</text>
</a>
</g>
</g>
<!-- Node412&#45;&gt;Node413 -->
<g id="edge5" class="edge">
<title>Node412&#45;&gt;Node413</title>
<path fill="none" stroke="midnightblue" d="M838.25,-187.35C857.2,-186.51 878.48,-185.58 898.75,-184.69"/>
<polygon fill="midnightblue" stroke="midnightblue" points="899.09,-188.17 908.92,-184.24 898.78,-181.18 899.09,-188.17"/>
</g>
<!-- Node415&#45;&gt;Node416 -->
<g id="edge8" class="edge">
<title>Node415&#45;&gt;Node416</title>
<path fill="none" stroke="midnightblue" d="M602.06,-142.37C619.34,-129.59 651.86,-107.24 683,-95 689.75,-92.35 696.92,-90.05 704.18,-88.05"/>
<polygon fill="midnightblue" stroke="midnightblue" points="705.27,-91.39 714.1,-85.52 703.54,-84.6 705.27,-91.39"/>
</g>
<!-- Node415&#45;&gt;Node421 -->
<g id="edge14" class="edge">
<title>Node415&#45;&gt;Node421</title>
<path fill="none" stroke="midnightblue" d="M636.56,-142.41C661.73,-137.28 692.9,-130.93 719.38,-125.54"/>
<polygon fill="midnightblue" stroke="midnightblue" points="720.18,-128.95 729.28,-123.52 718.78,-122.09 720.18,-128.95"/>
</g>
<!-- Node423 -->
<g id="node16" class="node">
<title>Node423</title>
<g id="a_node16"><a xlink:href="classMR24FDB1__Exception.html#a695552f5db7be7840c1af8650af0c235" target="_top" xlink:title="decode error from the Result,class,group , function etc... ">
<polygon fill="white" stroke="black" points="683,-142.5 683,-161.5 871,-161.5 871,-142.5 683,-142.5"/>
<text text-anchor="middle" x="777" y="-149.5" font-family="Helvetica,sans-Serif" font-size="10.00">MR24FDB1_Exception::decodeError</text>
</a>
</g>
</g>
<!-- Node415&#45;&gt;Node423 -->
<g id="edge17" class="edge">
<title>Node415&#45;&gt;Node423</title>
<path fill="none" stroke="midnightblue" d="M645.2,-152C653.95,-152 663.23,-152 672.65,-152"/>
<polygon fill="midnightblue" stroke="midnightblue" points="672.91,-155.5 682.91,-152 672.91,-148.5 672.91,-155.5"/>
</g>
<!-- Node417 -->
<g id="node10" class="node">
<title>Node417</title>
<g id="a_node10"><a xlink:href="classMR24FDB1.html#a2ccfe8221167944b882b5747b07dae22" target="_top" xlink:title="parse fall type packet ">
<polygon fill="white" stroke="black" points="907,-76.5 907,-95.5 1060,-95.5 1060,-76.5 907,-76.5"/>
<text text-anchor="middle" x="983.5" y="-83.5" font-family="Helvetica,sans-Serif" font-size="10.00">MR24FDB1::parseFallReport</text>
</a>
</g>
</g>
<!-- Node416&#45;&gt;Node417 -->
<g id="edge9" class="edge">
<title>Node416&#45;&gt;Node417</title>
<path fill="none" stroke="midnightblue" d="M845.24,-79.29C861.69,-80.09 879.51,-80.96 896.69,-81.8"/>
<polygon fill="midnightblue" stroke="midnightblue" points="896.56,-85.3 906.72,-82.29 896.91,-78.31 896.56,-85.3"/>
</g>
<!-- Node418 -->
<g id="node11" class="node">
<title>Node418</title>
<g id="a_node11"><a xlink:href="classMR24FDB1.html#a1759ec9442c191ee6ddc09137a9c0528" target="_top" xlink:title="parse report type packet ">
<polygon fill="white" stroke="black" points="915.5,-0.5 915.5,-19.5 1051.5,-19.5 1051.5,-0.5 915.5,-0.5"/>
<text text-anchor="middle" x="983.5" y="-7.5" font-family="Helvetica,sans-Serif" font-size="10.00">MR24FDB1::parseReport</text>
</a>
</g>
</g>
<!-- Node416&#45;&gt;Node418 -->
<g id="edge10" class="edge">
<title>Node416&#45;&gt;Node418</title>
<path fill="none" stroke="midnightblue" d="M802,-66.41C827.72,-56.34 869.86,-40.41 907,-29 914.81,-26.6 923.14,-24.28 931.31,-22.13"/>
<polygon fill="midnightblue" stroke="midnightblue" points="932.33,-25.48 941.14,-19.59 930.59,-18.7 932.33,-25.48"/>
</g>
<!-- Node420 -->
<g id="node13" class="node">
<title>Node420</title>
<g id="a_node13"><a xlink:href="classMR24FDB1.html#a55ecfd4dffd4d04c97dcd6e6e264ad61" target="_top" xlink:title="parse reponce type packet ">
<polygon fill="white" stroke="black" points="908,-38.5 908,-57.5 1059,-57.5 1059,-38.5 908,-38.5"/>
<text text-anchor="middle" x="983.5" y="-45.5" font-family="Helvetica,sans-Serif" font-size="10.00">MR24FDB1::parseResponce</text>
</a>
</g>
</g>
<!-- Node416&#45;&gt;Node420 -->
<g id="edge12" class="edge">
<title>Node416&#45;&gt;Node420</title>
<path fill="none" stroke="midnightblue" d="M845.24,-66.79C863.7,-64.27 883.88,-61.5 902.95,-58.89"/>
<polygon fill="midnightblue" stroke="midnightblue" points="903.68,-62.32 913.11,-57.5 902.73,-55.39 903.68,-62.32"/>
</g>
<!-- Node419 -->
<g id="node12" class="node">
<title>Node419</title>
<g id="a_node12"><a xlink:href="classMR24FDB1.html#ae444c38bb80decf58cabe5b12005b819" target="_top" xlink:title="parse Radar group responces and reports ">
<polygon fill="white" stroke="black" points="1096,-19.5 1096,-38.5 1236,-38.5 1236,-19.5 1096,-19.5"/>
<text text-anchor="middle" x="1166" y="-26.5" font-family="Helvetica,sans-Serif" font-size="10.00">MR24FDB1::decodeRadar</text>
</a>
</g>
</g>
<!-- Node418&#45;&gt;Node419 -->
<g id="edge11" class="edge">
<title>Node418&#45;&gt;Node419</title>
<path fill="none" stroke="midnightblue" d="M1051.71,-17.07C1062.87,-18.25 1074.54,-19.48 1085.97,-20.68"/>
<polygon fill="midnightblue" stroke="midnightblue" points="1085.61,-24.16 1095.92,-21.73 1086.34,-17.2 1085.61,-24.16"/>
</g>
<!-- Node420&#45;&gt;Node419 -->
<g id="edge13" class="edge">
<title>Node420&#45;&gt;Node419</title>
<path fill="none" stroke="midnightblue" d="M1059.22,-40.13C1067.93,-39.22 1076.85,-38.28 1085.62,-37.36"/>
<polygon fill="midnightblue" stroke="midnightblue" points="1086.26,-40.81 1095.83,-36.28 1085.52,-33.85 1086.26,-40.81"/>
</g>
<!-- Node421&#45;&gt;Node413 -->
<g id="edge15" class="edge">
<title>Node421&#45;&gt;Node413</title>
<path fill="none" stroke="midnightblue" d="M834.05,-123.51C846.34,-126.14 859.21,-129.3 871,-133 900.25,-142.18 932.26,-156.42 954.45,-167.02"/>
<polygon fill="midnightblue" stroke="midnightblue" points="953.09,-170.25 963.62,-171.45 956.14,-163.94 953.09,-170.25"/>
</g>
<!-- Node422 -->
<g id="node15" class="node">
<title>Node422</title>
<g id="a_node15"><a xlink:href="classMR24FDB1.html#a3de11c024f9b20321cce5d98cd534c3e" target="_top" xlink:title="get one byte from serial ">
<polygon fill="white" stroke="black" points="923,-114.5 923,-133.5 1044,-133.5 1044,-114.5 923,-114.5"/>
<text text-anchor="middle" x="983.5" y="-121.5" font-family="Helvetica,sans-Serif" font-size="10.00">MR24FDB1::readByte</text>
</a>
</g>
</g>
<!-- Node421&#45;&gt;Node422 -->
<g id="edge16" class="edge">
<title>Node421&#45;&gt;Node422</title>
<path fill="none" stroke="midnightblue" d="M842.71,-117.16C864.93,-118.25 889.9,-119.47 912.52,-120.58"/>
<polygon fill="midnightblue" stroke="midnightblue" points="912.57,-124.08 922.73,-121.08 912.91,-117.09 912.57,-124.08"/>
</g>
<!-- Node424&#45;&gt;Node410 -->
<g id="edge19" class="edge">
<title>Node424&#45;&gt;Node410</title>
<path fill="none" stroke="midnightblue" d="M296.26,-158.94C305.78,-159.92 315.69,-160.93 325.53,-161.94"/>
<polygon fill="midnightblue" stroke="midnightblue" points="325.44,-165.45 335.74,-162.98 326.15,-158.48 325.44,-165.45"/>
</g>
</g>
</svg>
        <g id="navigator" transform="translate(0 0)" fill="#404254">
                <rect fill="#f2f5e9" fill-opacity="0.5" stroke="#606060" stroke-width=".5" x="0" y="0" width="60" height="60"/>
                <use id="zoomplus" xlink:href="#zoomPlus" x="17" y="9" onmousedown="handleZoom(evt,'in')"/>
                <use id="zoomminus" xlink:href="#zoomMin" x="42" y="9" onmousedown="handleZoom(evt,'out')"/>
                <use id="reset" xlink:href="#resetDef" x="30" y="36" onmousedown="handleReset()"/>
                <g id="arrowUp" xlink:href="#dirArrow" transform="translate(30 24)" onmousedown="handlePan(0,-1)">
                  <use xlink:href="#rim" fill="#404040">
                        <set attributeName="fill" to="#808080" begin="arrowUp.mouseover" end="arrowUp.mouseout"/>
                  </use>
                  <path fill="none" stroke="white" stroke-width="1.5" d="M0,-3.0v7 M-2.5,-0.5L0,-3.0L2.5,-0.5"/>
                </g>
                <g id="arrowRight" xlink:href="#dirArrow" transform="rotate(90) translate(36 -43)" onmousedown="handlePan(1,0)">
                  <use xlink:href="#rim" fill="#404040">
                        <set attributeName="fill" to="#808080" begin="arrowRight.mouseover" end="arrowRight.mouseout"/>
                  </use>
                  <path fill="none" stroke="white" stroke-width="1.5" d="M0,-3.0v7 M-2.5,-0.5L0,-3.0L2.5,-0.5"/>
                </g>
                <g id="arrowDown" xlink:href="#dirArrow" transform="rotate(180) translate(-30 -48)" onmousedown="handlePan(0,1)">
                  <use xlink:href="#rim" fill="#404040">
                        <set attributeName="fill" to="#808080" begin="arrowDown.mouseover" end="arrowDown.mouseout"/>
                  </use>
                  <path fill="none" stroke="white" stroke-width="1.5" d="M0,-3.0v7 M-2.5,-0.5L0,-3.0L2.5,-0.5"/>
                </g>
                <g id="arrowLeft" xlink:href="#dirArrow" transform="rotate(270) translate(-36 17)" onmousedown="handlePan(-1,0)">
                  <use xlink:href="#rim" fill="#404040">
                        <set attributeName="fill" to="#808080" begin="arrowLeft.mouseover" end="arrowLeft.mouseout"/>
                  </use>
                  <path fill="none" stroke="white" stroke-width="1.5" d="M0,-3.0v7 M-2.5,-0.5L0,-3.0L2.5,-0.5"/>
                </g>
        </g>
        <svg viewBox="0 0 15 15" width="100%" height="30px" preserveAspectRatio="xMaxYMin meet">
         <g id="arrow_out" transform="scale(0.3 0.3)">
          <a xlink:href="classMR24FDB1_a0c0b8071f5d90b32f3c109ff71ff2ec0_cgraph_org.svg" target="_base">
           <rect id="button" ry="5" rx="5" y="6" x="6" height="38" width="38"
                fill="#f2f5e9" fill-opacity="0.5" stroke="#606060" stroke-width="1.0"/>
           <path id="arrow"
             d="M 11.500037,31.436501 C 11.940474,20.09759 22.043105,11.32322 32.158766,21.979434 L 37.068811,17.246167 C 37.068811,17.246167 37.088388,32 37.088388,32 L 22.160133,31.978069 C 22.160133,31.978069 26.997745,27.140456 26.997745,27.140456 C 18.528582,18.264221 13.291696,25.230495 11.500037,31.436501 z"
             style="fill:#404040;"/>
          </a>
         </g>
        </svg>
</svg>
