<?xml version="1.0" encoding="UTF-8" standalone="no"?>
<!DOCTYPE svg PUBLIC "-//W3C//DTD SVG 1.1//EN"
 "http://www.w3.org/Graphics/SVG/1.1/DTD/svg11.dtd">
<!-- Generated by graphviz version 2.43.0 (0)
 -->
<!-- Title: MR24FDB1_Exception::decodeError Pages: 1 -->
<svg width="891pt" height="408pt"
 viewBox="0.00 0.00 891.00 408.00" xmlns="http://www.w3.org/2000/svg" xmlns:xlink="http://www.w3.org/1999/xlink">
<g id="graph0" class="graph" transform="scale(1 1) rotate(0) translate(4 404)">
<title>MR24FDB1_Exception::decodeError</title>
<polygon fill="white" stroke="transparent" points="-4,4 -4,-404 887,-404 887,4 -4,4"/>
<!-- Node7 -->
<g id="node1" class="node">
<title>Node7</title>
<g id="a_node1"><a xlink:title="decode error from the Result,class,group , function etc... ">
<polygon fill="#bfbfbf" stroke="black" points="0,-209.5 0,-228.5 188,-228.5 188,-209.5 0,-209.5"/>
<text text-anchor="middle" x="94" y="-216.5" font-family="Helvetica,sans-Serif" font-size="10.00">MR24FDB1_Exception::decodeError</text>
</a>
</g>
</g>
<!-- Node8 -->
<g id="node2" class="node">
<title>Node8</title>
<g id="a_node2"><a xlink:href="classMR24FDB1.html#a944e9bede6552294ea9940ae6fda3b96" target="_top" xlink:title="wait until packet of the specified type is recieved ">
<polygon fill="white" stroke="black" points="224,-209.5 224,-228.5 337,-228.5 337,-209.5 224,-209.5"/>
<text text-anchor="middle" x="280.5" y="-216.5" font-family="Helvetica,sans-Serif" font-size="10.00">MR24FDB1::waitFor</text>
</a>
</g>
</g>
<!-- Node7&#45;&gt;Node8 -->
<g id="edge1" class="edge">
<title>Node7&#45;&gt;Node8</title>
<path fill="none" stroke="midnightblue" d="M198.31,-219C207.01,-219 215.58,-219 223.69,-219"/>
<polygon fill="midnightblue" stroke="midnightblue" points="198.06,-215.5 188.06,-219 198.06,-222.5 198.06,-215.5"/>
</g>
<!-- Node9 -->
<g id="node3" class="node">
<title>Node9</title>
<g id="a_node3"><a xlink:href="classMR24FDB1.html#a23542b21cc78944a36d941eb4eaaf29d" target="_top" xlink:title="reboot ">
<polygon fill="white" stroke="black" points="398,-228.5 398,-247.5 506,-247.5 506,-228.5 398,-228.5"/>
<text text-anchor="middle" x="452" y="-235.5" font-family="Helvetica,sans-Serif" font-size="10.00">MR24FDB1::reboot</text>
</a>
</g>
</g>
<!-- Node8&#45;&gt;Node9 -->
<g id="edge2" class="edge">
<title>Node8&#45;&gt;Node9</title>
<path fill="none" stroke="midnightblue" d="M347.29,-226.37C364.08,-228.26 381.91,-230.26 397.97,-232.06"/>
<polygon fill="midnightblue" stroke="midnightblue" points="347.33,-222.86 337,-225.22 346.55,-229.81 347.33,-222.86"/>
</g>
<!-- Node10 -->
<g id="node4" class="node">
<title>Node10</title>
<g id="a_node4"><a xlink:href="classMR24FDB1.html#a7dfa1c269d0979718203f9202d4e8578" target="_top" xlink:title="send a &quot;GET&quot; packet to the module and wait for responce ">
<polygon fill="white" stroke="black" points="373,-190.5 373,-209.5 531,-209.5 531,-190.5 373,-190.5"/>
<text text-anchor="middle" x="452" y="-197.5" font-family="Helvetica,sans-Serif" font-size="10.00">MR24FDB1::sendGetAndWait</text>
</a>
</g>
</g>
<!-- Node8&#45;&gt;Node10 -->
<g id="edge3" class="edge">
<title>Node8&#45;&gt;Node10</title>
<path fill="none" stroke="midnightblue" d="M347.14,-211.64C355.59,-210.69 364.3,-209.72 372.92,-208.75"/>
<polygon fill="midnightblue" stroke="midnightblue" points="346.55,-208.19 337,-212.78 347.33,-215.14 346.55,-208.19"/>
</g>
<!-- Node11 -->
<g id="node5" class="node">
<title>Node11</title>
<g id="a_node5"><a xlink:href="classMR24FDB1.html#a6a61bdca02e1a9ab2c6ab83c3ee2ff21" target="_top" xlink:title="requests Device Id ">
<polygon fill="white" stroke="black" points="580,-380.5 580,-399.5 715,-399.5 715,-380.5 580,-380.5"/>
<text text-anchor="middle" x="647.5" y="-387.5" font-family="Helvetica,sans-Serif" font-size="10.00">MR24FDB1::getDeviceId</text>
</a>
</g>
</g>
<!-- Node10&#45;&gt;Node11 -->
<g id="edge4" class="edge">
<title>Node10&#45;&gt;Node11</title>
<path fill="none" stroke="midnightblue" d="M526.94,-215.37C528.36,-216.5 529.72,-217.71 531,-219 579.93,-268.25 517.96,-321.86 567,-371 570.81,-374.82 575.24,-377.92 580.02,-380.44"/>
<polygon fill="midnightblue" stroke="midnightblue" points="528.52,-212.22 518.23,-209.7 524.7,-218.08 528.52,-212.22"/>
</g>
<!-- Node12 -->
<g id="node6" class="node">
<title>Node12</title>
<g id="a_node6"><a xlink:href="classMR24FDB1.html#a10ef6d7b6a0d7819b84361c907604fe0" target="_top" xlink:title="get status of fall enable switch ">
<polygon fill="white" stroke="black" points="576,-342.5 576,-361.5 719,-361.5 719,-342.5 576,-342.5"/>
<text text-anchor="middle" x="647.5" y="-349.5" font-family="Helvetica,sans-Serif" font-size="10.00">MR24FDB1::getFallEnable</text>
</a>
</g>
</g>
<!-- Node10&#45;&gt;Node12 -->
<g id="edge5" class="edge">
<title>Node10&#45;&gt;Node12</title>
<path fill="none" stroke="midnightblue" d="M526.17,-215.02C527.86,-216.25 529.47,-217.57 531,-219 569.81,-255.29 528.11,-296.79 567,-333 571.05,-336.77 575.71,-339.83 580.7,-342.32"/>
<polygon fill="midnightblue" stroke="midnightblue" points="527.56,-211.77 517.19,-209.62 523.96,-217.77 527.56,-211.77"/>
</g>
<!-- Node13 -->
<g id="node7" class="node">
<title>Node13</title>
<g id="a_node7"><a xlink:href="classMR24FDB1.html#a122352e437a57083aba3823b512e2c31" target="_top" xlink:title="get status of fall sensitivty setting ">
<polygon fill="white" stroke="black" points="567,-304.5 567,-323.5 728,-323.5 728,-304.5 567,-304.5"/>
<text text-anchor="middle" x="647.5" y="-311.5" font-family="Helvetica,sans-Serif" font-size="10.00">MR24FDB1::getFallSensitivity</text>
</a>
</g>
</g>
<!-- Node10&#45;&gt;Node13 -->
<g id="edge6" class="edge">
<title>Node10&#45;&gt;Node13</title>
<path fill="none" stroke="midnightblue" d="M524.41,-214.35C526.71,-215.76 528.92,-217.31 531,-219 559.98,-242.61 537.97,-271.45 567,-295 571.74,-298.84 577.13,-301.93 582.82,-304.41"/>
<polygon fill="midnightblue" stroke="midnightblue" points="525.59,-211.02 515.1,-209.54 522.38,-217.24 525.59,-211.02"/>
</g>
<!-- Node14 -->
<g id="node8" class="node">
<title>Node14</title>
<g id="a_node8"><a xlink:href="classMR24FDB1.html#a6e729c642bc4f67e6ce076fb0fa2aa3e" target="_top" xlink:title="get status of fall warning time setting ">
<polygon fill="white" stroke="black" points="568,-266.5 568,-285.5 727,-285.5 727,-266.5 568,-266.5"/>
<text text-anchor="middle" x="647.5" y="-273.5" font-family="Helvetica,sans-Serif" font-size="10.00">MR24FDB1::getFallWarnTime</text>
</a>
</g>
</g>
<!-- Node10&#45;&gt;Node14 -->
<g id="edge7" class="edge">
<title>Node10&#45;&gt;Node14</title>
<path fill="none" stroke="midnightblue" d="M519.21,-213.22C523.3,-214.92 527.27,-216.84 531,-219 551.12,-230.67 546.85,-245.37 567,-257 573.76,-260.9 581.28,-264 588.93,-266.47"/>
<polygon fill="midnightblue" stroke="midnightblue" points="520.08,-209.81 509.48,-209.63 517.66,-216.37 520.08,-209.81"/>
</g>
<!-- Node15 -->
<g id="node9" class="node">
<title>Node15</title>
<g id="a_node9"><a xlink:href="classMR24FDB1.html#a9c858e6eae2bf95de4340b7bb4fe07e7" target="_top" xlink:title="requests Hardware version ">
<polygon fill="white" stroke="black" points="569.5,-228.5 569.5,-247.5 725.5,-247.5 725.5,-228.5 569.5,-228.5"/>
<text text-anchor="middle" x="647.5" y="-235.5" font-family="Helvetica,sans-Serif" font-size="10.00">MR24FDB1::getHardwareVer</text>
</a>
</g>
</g>
<!-- Node10&#45;&gt;Node15 -->
<g id="edge8" class="edge">
<title>Node10&#45;&gt;Node15</title>
<path fill="none" stroke="midnightblue" d="M511.75,-211.54C539.35,-216.96 571.85,-223.34 598.02,-228.48"/>
<polygon fill="midnightblue" stroke="midnightblue" points="512.32,-208.08 501.83,-209.59 510.97,-214.95 512.32,-208.08"/>
</g>
<!-- Node16 -->
<g id="node10" class="node">
<title>Node16</title>
<g id="a_node10"><a xlink:href="classMR24FDB1.html#ab090aa5731fa4e348a33588f682f1a16" target="_top" xlink:title="get movement ">
<polygon fill="white" stroke="black" points="575,-190.5 575,-209.5 720,-209.5 720,-190.5 575,-190.5"/>
<text text-anchor="middle" x="647.5" y="-197.5" font-family="Helvetica,sans-Serif" font-size="10.00">MR24FDB1::getMovement</text>
</a>
</g>
</g>
<!-- Node10&#45;&gt;Node16 -->
<g id="edge9" class="edge">
<title>Node10&#45;&gt;Node16</title>
<path fill="none" stroke="midnightblue" d="M541.4,-200C552.63,-200 564.02,-200 574.94,-200"/>
<polygon fill="midnightblue" stroke="midnightblue" points="541.15,-196.5 531.15,-200 541.15,-203.5 541.15,-196.5"/>
</g>
<!-- Node18 -->
<g id="node12" class="node">
<title>Node18</title>
<g id="a_node12"><a xlink:href="classMR24FDB1.html#af5bcb06d3788fb4743e2f750a6e4a149" target="_top" xlink:title="get presence from module ">
<polygon fill="white" stroke="black" points="579,-152.5 579,-171.5 716,-171.5 716,-152.5 579,-152.5"/>
<text text-anchor="middle" x="647.5" y="-159.5" font-family="Helvetica,sans-Serif" font-size="10.00">MR24FDB1::getPresence</text>
</a>
</g>
</g>
<!-- Node10&#45;&gt;Node18 -->
<g id="edge11" class="edge">
<title>Node10&#45;&gt;Node18</title>
<path fill="none" stroke="midnightblue" d="M511.75,-188.46C539.35,-183.04 571.85,-176.66 598.02,-171.52"/>
<polygon fill="midnightblue" stroke="midnightblue" points="510.97,-185.05 501.83,-190.41 512.32,-191.92 510.97,-185.05"/>
</g>
<!-- Node19 -->
<g id="node13" class="node">
<title>Node19</title>
<g id="a_node13"><a xlink:href="classMR24FDB1.html#a206d007330f0b2f9c76b070e215dbb05" target="_top" xlink:title="request Protocol Version ">
<polygon fill="white" stroke="black" points="573,-114.5 573,-133.5 722,-133.5 722,-114.5 573,-114.5"/>
<text text-anchor="middle" x="647.5" y="-121.5" font-family="Helvetica,sans-Serif" font-size="10.00">MR24FDB1::getProtocolVer</text>
</a>
</g>
</g>
<!-- Node10&#45;&gt;Node19 -->
<g id="edge13" class="edge">
<title>Node10&#45;&gt;Node19</title>
<path fill="none" stroke="midnightblue" d="M478.01,-185.4C500.62,-172.71 535.16,-154.59 567,-143 577,-139.36 587.97,-136.22 598.47,-133.6"/>
<polygon fill="midnightblue" stroke="midnightblue" points="476.05,-182.49 469.09,-190.47 479.51,-188.57 476.05,-182.49"/>
</g>
<!-- Node20 -->
<g id="node14" class="node">
<title>Node20</title>
<g id="a_node14"><a xlink:href="classMR24FDB1.html#adc620372e2ccd4d3dece13bfe8c8424e" target="_top" xlink:title="get scene parameter ">
<polygon fill="white" stroke="black" points="586.5,-76.5 586.5,-95.5 708.5,-95.5 708.5,-76.5 586.5,-76.5"/>
<text text-anchor="middle" x="647.5" y="-83.5" font-family="Helvetica,sans-Serif" font-size="10.00">MR24FDB1::getScene</text>
</a>
</g>
</g>
<!-- Node10&#45;&gt;Node20 -->
<g id="edge14" class="edge">
<title>Node10&#45;&gt;Node20</title>
<path fill="none" stroke="midnightblue" d="M468.65,-182.78C489.14,-161.3 527.18,-124.96 567,-105 574.74,-101.12 583.3,-98.01 591.86,-95.53"/>
<polygon fill="midnightblue" stroke="midnightblue" points="465.96,-180.53 461.68,-190.22 471.07,-185.31 465.96,-180.53"/>
</g>
<!-- Node21 -->
<g id="node15" class="node">
<title>Node21</title>
<g id="a_node15"><a xlink:href="classMR24FDB1.html#a82a44a7291dd7b96de57a2d2cda10251" target="_top" xlink:title="get sensitivity parameter ">
<polygon fill="white" stroke="black" points="575.5,-38.5 575.5,-57.5 719.5,-57.5 719.5,-38.5 575.5,-38.5"/>
<text text-anchor="middle" x="647.5" y="-45.5" font-family="Helvetica,sans-Serif" font-size="10.00">MR24FDB1::getSensitivity</text>
</a>
</g>
</g>
<!-- Node10&#45;&gt;Node21 -->
<g id="edge15" class="edge">
<title>Node10&#45;&gt;Node21</title>
<path fill="none" stroke="midnightblue" d="M463.34,-181.79C480.8,-152.77 518.97,-96.34 567,-67 573.3,-63.15 580.32,-60.09 587.5,-57.64"/>
<polygon fill="midnightblue" stroke="midnightblue" points="460.27,-180.1 458.23,-190.5 466.31,-183.65 460.27,-180.1"/>
</g>
<!-- Node22 -->
<g id="node16" class="node">
<title>Node22</title>
<g id="a_node16"><a xlink:href="classMR24FDB1.html#af9b355c4127c5b937407b3e3b25217c7" target="_top" xlink:title="requests Software verion ">
<polygon fill="white" stroke="black" points="571.5,-0.5 571.5,-19.5 723.5,-19.5 723.5,-0.5 571.5,-0.5"/>
<text text-anchor="middle" x="647.5" y="-7.5" font-family="Helvetica,sans-Serif" font-size="10.00">MR24FDB1::getSoftwareVer</text>
</a>
</g>
</g>
<!-- Node10&#45;&gt;Node22 -->
<g id="edge16" class="edge">
<title>Node10&#45;&gt;Node22</title>
<path fill="none" stroke="midnightblue" d="M460.25,-180.7C474.73,-144.87 510.76,-68.2 567,-29 572.59,-25.11 578.88,-22 585.4,-19.53"/>
<polygon fill="midnightblue" stroke="midnightblue" points="456.83,-179.83 456.45,-190.41 463.35,-182.38 456.83,-179.83"/>
</g>
<!-- Node17 -->
<g id="node11" class="node">
<title>Node17</title>
<g id="a_node11"><a xlink:href="classMR24FDB1.html#a0c0b8071f5d90b32f3c109ff71ff2ec0" target="_top" xlink:title="send test ">
<polygon fill="white" stroke="black" points="764,-171.5 764,-190.5 883,-190.5 883,-171.5 764,-171.5"/>
<text text-anchor="middle" x="823.5" y="-178.5" font-family="Helvetica,sans-Serif" font-size="10.00">MR24FDB1::testSend</text>
</a>
</g>
</g>
<!-- Node16&#45;&gt;Node17 -->
<g id="edge10" class="edge">
<title>Node16&#45;&gt;Node17</title>
<path fill="none" stroke="midnightblue" d="M730.04,-191.1C741.49,-189.85 753.07,-188.58 763.98,-187.39"/>
<polygon fill="midnightblue" stroke="midnightblue" points="729.59,-187.62 720.03,-192.19 730.35,-194.58 729.59,-187.62"/>
</g>
<!-- Node18&#45;&gt;Node17 -->
<g id="edge12" class="edge">
<title>Node18&#45;&gt;Node17</title>
<path fill="none" stroke="midnightblue" d="M726.33,-170.5C738.97,-171.88 751.87,-173.29 763.95,-174.61"/>
<polygon fill="midnightblue" stroke="midnightblue" points="726.59,-167.01 716.27,-169.4 725.83,-173.97 726.59,-167.01"/>
</g>
</g>
</svg>
