<?xml version="1.0" encoding="UTF-8" standalone="no"?>
<!DOCTYPE svg PUBLIC "-//W3C//DTD SVG 1.1//EN"
 "http://www.w3.org/Graphics/SVG/1.1/DTD/svg11.dtd">
<!-- Generated by graphviz version 2.43.0 (0)
 -->
<!-- Title: MR24FDB1::getSensitivity Pages: 1 -->
<!--zoomable 218 -->
<svg id="main" version="1.1" xmlns="http://www.w3.org/2000/svg" xmlns:xlink="http://www.w3.org/1999/xlink" xml:space="preserve" onload="init(evt)">
<style type="text/css"><![CDATA[
.edge:hover path { stroke: red; }
.edge:hover polygon { stroke: red; fill: red; }
]]></style>
<script type="text/javascript"><![CDATA[
var edges = document.getElementsByTagName('g');
if (edges && edges.length) {
  for (var i=0;i<edges.length;i++) {
    if (edges[i].id.substr(0,4)=='edge') {
      edges[i].setAttribute('class','edge');
    }
  }
}
]]></script>
        <defs>
                <circle id="rim" cx="0" cy="0" r="7"/>
                <circle id="rim2" cx="0" cy="0" r="3.5"/>
                <g id="zoomPlus">
                        <use xlink:href="#rim" fill="#404040">
                                <set attributeName="fill" to="#808080" begin="zoomplus.mouseover" end="zoomplus.mouseout"/>
                        </use>
                        <path d="M-4,0h8M0,-4v8" fill="none" stroke="white" stroke-width="1.5" pointer-events="none"/>
                </g>
                <g id="zoomMin">
                        <use xlink:href="#rim" fill="#404040">
                                <set attributeName="fill" to="#808080" begin="zoomminus.mouseover" end="zoomminus.mouseout"/>
                        </use>
                        <path d="M-4,0h8" fill="none" stroke="white" stroke-width="1.5" pointer-events="none"/>
                </g>
                <g id="dirArrow">
                        <path fill="none" stroke="white" stroke-width="1.5" d="M0,-3.0v7 M-2.5,-0.5L0,-3.0L2.5,-0.5"/>
                </g>
               <g id="resetDef">
                       <use xlink:href="#rim2" fill="#404040">
                               <set attributeName="fill" to="#808080" begin="reset.mouseover" end="reset.mouseout"/>
                       </use>
               </g>
        </defs>

<script type="text/javascript">
var viewWidth = 1088;
var viewHeight = 218;
var sectionId = 'dynsection-21';
</script>
<script xlink:href="svgpan.js"/>
<svg id="graph" class="graph">
<g id="viewport">
<title>MR24FDB1::getSensitivity</title>
<polygon fill="white" stroke="transparent" points="-4,4 -4,-214 1084,-214 1084,4 -4,4"/>
<!-- Node249 -->
<g id="node1" class="node">
<title>Node249</title>
<g id="a_node1"><a xlink:title="get sensitivity parameter ">
<polygon fill="#bfbfbf" stroke="black" points="0,-114.5 0,-133.5 144,-133.5 144,-114.5 0,-114.5"/>
<text text-anchor="middle" x="72" y="-121.5" font-family="Helvetica,sans-Serif" font-size="10.00">MR24FDB1::getSensitivity</text>
</a>
</g>
</g>
<!-- Node250 -->
<g id="node2" class="node">
<title>Node250</title>
<g id="a_node2"><a xlink:href="classMR24FDB1.html#a7dfa1c269d0979718203f9202d4e8578" target="_top" xlink:title="send a &quot;GET&quot; packet to the module and wait for responce ">
<polygon fill="white" stroke="black" points="180,-114.5 180,-133.5 338,-133.5 338,-114.5 180,-114.5"/>
<text text-anchor="middle" x="259" y="-121.5" font-family="Helvetica,sans-Serif" font-size="10.00">MR24FDB1::sendGetAndWait</text>
</a>
</g>
</g>
<!-- Node249&#45;&gt;Node250 -->
<g id="edge1" class="edge">
<title>Node249&#45;&gt;Node250</title>
<path fill="none" stroke="midnightblue" d="M144.26,-124C152.51,-124 161,-124 169.44,-124"/>
<polygon fill="midnightblue" stroke="midnightblue" points="169.7,-127.5 179.7,-124 169.7,-120.5 169.7,-127.5"/>
</g>
<!-- Node251 -->
<g id="node3" class="node">
<title>Node251</title>
<g id="a_node3"><a xlink:href="classMR24FDB1.html#a4a5275f119bcbd82dd5a0d6a1d8defe5" target="_top" xlink:title="send a &quot;GET&quot; packet to the module ">
<polygon fill="white" stroke="black" points="374,-152.5 374,-171.5 491,-171.5 491,-152.5 374,-152.5"/>
<text text-anchor="middle" x="432.5" y="-159.5" font-family="Helvetica,sans-Serif" font-size="10.00">MR24FDB1::sendGet</text>
</a>
</g>
</g>
<!-- Node250&#45;&gt;Node251 -->
<g id="edge2" class="edge">
<title>Node250&#45;&gt;Node251</title>
<path fill="none" stroke="midnightblue" d="M303.28,-133.59C326.11,-138.65 354.32,-144.9 378.46,-150.25"/>
<polygon fill="midnightblue" stroke="midnightblue" points="378.01,-153.73 388.53,-152.48 379.53,-146.9 378.01,-153.73"/>
</g>
<!-- Node255 -->
<g id="node7" class="node">
<title>Node255</title>
<g id="a_node7"><a xlink:href="classMR24FDB1.html#a944e9bede6552294ea9940ae6fda3b96" target="_top" xlink:title="wait until packet of the specified type is recieved ">
<polygon fill="white" stroke="black" points="376,-95.5 376,-114.5 489,-114.5 489,-95.5 376,-95.5"/>
<text text-anchor="middle" x="432.5" y="-102.5" font-family="Helvetica,sans-Serif" font-size="10.00">MR24FDB1::waitFor</text>
</a>
</g>
</g>
<!-- Node250&#45;&gt;Node255 -->
<g id="edge6" class="edge">
<title>Node250&#45;&gt;Node255</title>
<path fill="none" stroke="midnightblue" d="M338.22,-115.33C347.46,-114.31 356.83,-113.27 365.87,-112.27"/>
<polygon fill="midnightblue" stroke="midnightblue" points="366.37,-115.74 375.92,-111.16 365.6,-108.78 366.37,-115.74"/>
</g>
<!-- Node252 -->
<g id="node4" class="node">
<title>Node252</title>
<g id="a_node4"><a xlink:href="classMR24FDB1.html#af148f4391ab1003e82d4497d8072aaa0" target="_top" xlink:title="calculate and add crc16 at end of buffer ">
<polygon fill="white" stroke="black" points="560,-152.5 560,-171.5 682,-171.5 682,-152.5 560,-152.5"/>
<text text-anchor="middle" x="621" y="-159.5" font-family="Helvetica,sans-Serif" font-size="10.00">MR24FDB1::addCrc16</text>
</a>
</g>
</g>
<!-- Node251&#45;&gt;Node252 -->
<g id="edge3" class="edge">
<title>Node251&#45;&gt;Node252</title>
<path fill="none" stroke="midnightblue" d="M491.23,-162C509.73,-162 530.42,-162 549.72,-162"/>
<polygon fill="midnightblue" stroke="midnightblue" points="549.96,-165.5 559.96,-162 549.96,-158.5 549.96,-165.5"/>
</g>
<!-- Node254 -->
<g id="node6" class="node">
<title>Node254</title>
<g id="a_node6"><a xlink:href="classMR24FDB1.html#a586848e9efe86b47520f92e049c502eb" target="_top" xlink:title="send a packet to the module ">
<polygon fill="white" stroke="black" points="555,-190.5 555,-209.5 687,-209.5 687,-190.5 555,-190.5"/>
<text text-anchor="middle" x="621" y="-197.5" font-family="Helvetica,sans-Serif" font-size="10.00">MR24FDB1::sendPacket</text>
</a>
</g>
</g>
<!-- Node251&#45;&gt;Node254 -->
<g id="edge5" class="edge">
<title>Node251&#45;&gt;Node254</title>
<path fill="none" stroke="midnightblue" d="M480.56,-171.59C505.73,-176.72 536.9,-183.07 563.38,-188.46"/>
<polygon fill="midnightblue" stroke="midnightblue" points="562.78,-191.91 573.28,-190.48 564.18,-185.05 562.78,-191.91"/>
</g>
<!-- Node253 -->
<g id="node5" class="node">
<title>Node253</title>
<g id="a_node5"><a xlink:href="classMR24FDB1.html#af7b82f23ec8f67c955ae413f4a078af0" target="_top" xlink:title="calculate crc16 of current packet ">
<polygon fill="white" stroke="black" points="753,-152.5 753,-171.5 902,-171.5 902,-152.5 753,-152.5"/>
<text text-anchor="middle" x="827.5" y="-159.5" font-family="Helvetica,sans-Serif" font-size="10.00">MR24FDB1::calculateCrc16</text>
</a>
</g>
</g>
<!-- Node252&#45;&gt;Node253 -->
<g id="edge4" class="edge">
<title>Node252&#45;&gt;Node253</title>
<path fill="none" stroke="midnightblue" d="M682.25,-162C701.2,-162 722.48,-162 742.75,-162"/>
<polygon fill="midnightblue" stroke="midnightblue" points="742.92,-165.5 752.92,-162 742.92,-158.5 742.92,-165.5"/>
</g>
<!-- Node256 -->
<g id="node8" class="node">
<title>Node256</title>
<g id="a_node8"><a xlink:href="classMR24FDB1.html#a8a6f5bebfe9e2f9232e58f0ff909042a" target="_top" xlink:title="parse packet ">
<polygon fill="white" stroke="black" points="553,-38.5 553,-57.5 689,-57.5 689,-38.5 553,-38.5"/>
<text text-anchor="middle" x="621" y="-45.5" font-family="Helvetica,sans-Serif" font-size="10.00">MR24FDB1::parsePacket</text>
</a>
</g>
</g>
<!-- Node255&#45;&gt;Node256 -->
<g id="edge7" class="edge">
<title>Node255&#45;&gt;Node256</title>
<path fill="none" stroke="midnightblue" d="M453.9,-95.43C472.58,-86.98 501.17,-74.81 527,-67 535.8,-64.34 545.19,-61.93 554.48,-59.8"/>
<polygon fill="midnightblue" stroke="midnightblue" points="555.49,-63.16 564.5,-57.59 553.98,-56.32 555.49,-63.16"/>
</g>
<!-- Node261 -->
<g id="node13" class="node">
<title>Node261</title>
<g id="a_node13"><a xlink:href="classMR24FDB1.html#a5e44c632274bde4a6e22f35d80a782f0" target="_top" xlink:title="get a packet from the chip ">
<polygon fill="white" stroke="black" points="555.5,-114.5 555.5,-133.5 686.5,-133.5 686.5,-114.5 555.5,-114.5"/>
<text text-anchor="middle" x="621" y="-121.5" font-family="Helvetica,sans-Serif" font-size="10.00">MR24FDB1::readPacket</text>
</a>
</g>
</g>
<!-- Node255&#45;&gt;Node261 -->
<g id="edge13" class="edge">
<title>Node255&#45;&gt;Node261</title>
<path fill="none" stroke="midnightblue" d="M489.2,-110.67C506.85,-112.47 526.66,-114.49 545.41,-116.4"/>
<polygon fill="midnightblue" stroke="midnightblue" points="545.1,-119.89 555.41,-117.42 545.81,-112.92 545.1,-119.89"/>
</g>
<!-- Node263 -->
<g id="node15" class="node">
<title>Node263</title>
<g id="a_node15"><a xlink:href="classMR24FDB1__Exception.html#a695552f5db7be7840c1af8650af0c235" target="_top" xlink:title="decode error from the Result,class,group , function etc... ">
<polygon fill="white" stroke="black" points="527,-76.5 527,-95.5 715,-95.5 715,-76.5 527,-76.5"/>
<text text-anchor="middle" x="621" y="-83.5" font-family="Helvetica,sans-Serif" font-size="10.00">MR24FDB1_Exception::decodeError</text>
</a>
</g>
</g>
<!-- Node255&#45;&gt;Node263 -->
<g id="edge16" class="edge">
<title>Node255&#45;&gt;Node263</title>
<path fill="none" stroke="midnightblue" d="M489.2,-99.33C498.05,-98.42 507.43,-97.47 516.95,-96.5"/>
<polygon fill="midnightblue" stroke="midnightblue" points="517.31,-99.98 526.91,-95.48 516.6,-93.02 517.31,-99.98"/>
</g>
<!-- Node257 -->
<g id="node9" class="node">
<title>Node257</title>
<g id="a_node9"><a xlink:href="classMR24FDB1.html#a2ccfe8221167944b882b5747b07dae22" target="_top" xlink:title="parse fall type packet ">
<polygon fill="white" stroke="black" points="751,-38.5 751,-57.5 904,-57.5 904,-38.5 751,-38.5"/>
<text text-anchor="middle" x="827.5" y="-45.5" font-family="Helvetica,sans-Serif" font-size="10.00">MR24FDB1::parseFallReport</text>
</a>
</g>
</g>
<!-- Node256&#45;&gt;Node257 -->
<g id="edge8" class="edge">
<title>Node256&#45;&gt;Node257</title>
<path fill="none" stroke="midnightblue" d="M689.24,-48C705.69,-48 723.51,-48 740.69,-48"/>
<polygon fill="midnightblue" stroke="midnightblue" points="740.72,-51.5 750.72,-48 740.72,-44.5 740.72,-51.5"/>
</g>
<!-- Node258 -->
<g id="node10" class="node">
<title>Node258</title>
<g id="a_node10"><a xlink:href="classMR24FDB1.html#a1759ec9442c191ee6ddc09137a9c0528" target="_top" xlink:title="parse report type packet ">
<polygon fill="white" stroke="black" points="759.5,-0.5 759.5,-19.5 895.5,-19.5 895.5,-0.5 759.5,-0.5"/>
<text text-anchor="middle" x="827.5" y="-7.5" font-family="Helvetica,sans-Serif" font-size="10.00">MR24FDB1::parseReport</text>
</a>
</g>
</g>
<!-- Node256&#45;&gt;Node258 -->
<g id="edge9" class="edge">
<title>Node256&#45;&gt;Node258</title>
<path fill="none" stroke="midnightblue" d="M673.34,-38.46C701.17,-33.29 735.77,-26.86 765.03,-21.42"/>
<polygon fill="midnightblue" stroke="midnightblue" points="765.95,-24.81 775.14,-19.54 764.67,-17.93 765.95,-24.81"/>
</g>
<!-- Node260 -->
<g id="node12" class="node">
<title>Node260</title>
<g id="a_node12"><a xlink:href="classMR24FDB1.html#a55ecfd4dffd4d04c97dcd6e6e264ad61" target="_top" xlink:title="parse reponce type packet ">
<polygon fill="white" stroke="black" points="752,-76.5 752,-95.5 903,-95.5 903,-76.5 752,-76.5"/>
<text text-anchor="middle" x="827.5" y="-83.5" font-family="Helvetica,sans-Serif" font-size="10.00">MR24FDB1::parseResponce</text>
</a>
</g>
</g>
<!-- Node256&#45;&gt;Node260 -->
<g id="edge11" class="edge">
<title>Node256&#45;&gt;Node260</title>
<path fill="none" stroke="midnightblue" d="M673.34,-57.54C701.17,-62.71 735.77,-69.14 765.03,-74.58"/>
<polygon fill="midnightblue" stroke="midnightblue" points="764.67,-78.07 775.14,-76.46 765.95,-71.19 764.67,-78.07"/>
</g>
<!-- Node259 -->
<g id="node11" class="node">
<title>Node259</title>
<g id="a_node11"><a xlink:href="classMR24FDB1.html#ae444c38bb80decf58cabe5b12005b819" target="_top" xlink:title="parse Radar group responces and reports ">
<polygon fill="white" stroke="black" points="940,-38.5 940,-57.5 1080,-57.5 1080,-38.5 940,-38.5"/>
<text text-anchor="middle" x="1010" y="-45.5" font-family="Helvetica,sans-Serif" font-size="10.00">MR24FDB1::decodeRadar</text>
</a>
</g>
</g>
<!-- Node258&#45;&gt;Node259 -->
<g id="edge10" class="edge">
<title>Node258&#45;&gt;Node259</title>
<path fill="none" stroke="midnightblue" d="M874.05,-19.59C898.3,-24.69 928.3,-31.01 953.86,-36.39"/>
<polygon fill="midnightblue" stroke="midnightblue" points="953.27,-39.84 963.78,-38.48 954.72,-32.99 953.27,-39.84"/>
</g>
<!-- Node260&#45;&gt;Node259 -->
<g id="edge12" class="edge">
<title>Node260&#45;&gt;Node259</title>
<path fill="none" stroke="midnightblue" d="M874.05,-76.41C898.3,-71.31 928.3,-64.99 953.86,-59.61"/>
<polygon fill="midnightblue" stroke="midnightblue" points="954.72,-63.01 963.78,-57.52 953.27,-56.16 954.72,-63.01"/>
</g>
<!-- Node261&#45;&gt;Node253 -->
<g id="edge14" class="edge">
<title>Node261&#45;&gt;Node253</title>
<path fill="none" stroke="midnightblue" d="M673.34,-133.54C701.17,-138.71 735.77,-145.14 765.03,-150.58"/>
<polygon fill="midnightblue" stroke="midnightblue" points="764.67,-154.07 775.14,-152.46 765.95,-147.19 764.67,-154.07"/>
</g>
<!-- Node262 -->
<g id="node14" class="node">
<title>Node262</title>
<g id="a_node14"><a xlink:href="classMR24FDB1.html#a3de11c024f9b20321cce5d98cd534c3e" target="_top" xlink:title="get one byte from serial ">
<polygon fill="white" stroke="black" points="767,-114.5 767,-133.5 888,-133.5 888,-114.5 767,-114.5"/>
<text text-anchor="middle" x="827.5" y="-121.5" font-family="Helvetica,sans-Serif" font-size="10.00">MR24FDB1::readByte</text>
</a>
</g>
</g>
<!-- Node261&#45;&gt;Node262 -->
<g id="edge15" class="edge">
<title>Node261&#45;&gt;Node262</title>
<path fill="none" stroke="midnightblue" d="M686.71,-124C708.93,-124 733.9,-124 756.52,-124"/>
<polygon fill="midnightblue" stroke="midnightblue" points="756.73,-127.5 766.73,-124 756.73,-120.5 756.73,-127.5"/>
</g>
</g>
</svg>
        <g id="navigator" transform="translate(0 0)" fill="#404254">
                <rect fill="#f2f5e9" fill-opacity="0.5" stroke="#606060" stroke-width=".5" x="0" y="0" width="60" height="60"/>
                <use id="zoomplus" xlink:href="#zoomPlus" x="17" y="9" onmousedown="handleZoom(evt,'in')"/>
                <use id="zoomminus" xlink:href="#zoomMin" x="42" y="9" onmousedown="handleZoom(evt,'out')"/>
                <use id="reset" xlink:href="#resetDef" x="30" y="36" onmousedown="handleReset()"/>
                <g id="arrowUp" xlink:href="#dirArrow" transform="translate(30 24)" onmousedown="handlePan(0,-1)">
                  <use xlink:href="#rim" fill="#404040">
                        <set attributeName="fill" to="#808080" begin="arrowUp.mouseover" end="arrowUp.mouseout"/>
                  </use>
                  <path fill="none" stroke="white" stroke-width="1.5" d="M0,-3.0v7 M-2.5,-0.5L0,-3.0L2.5,-0.5"/>
                </g>
                <g id="arrowRight" xlink:href="#dirArrow" transform="rotate(90) translate(36 -43)" onmousedown="handlePan(1,0)">
                  <use xlink:href="#rim" fill="#404040">
                        <set attributeName="fill" to="#808080" begin="arrowRight.mouseover" end="arrowRight.mouseout"/>
                  </use>
                  <path fill="none" stroke="white" stroke-width="1.5" d="M0,-3.0v7 M-2.5,-0.5L0,-3.0L2.5,-0.5"/>
                </g>
                <g id="arrowDown" xlink:href="#dirArrow" transform="rotate(180) translate(-30 -48)" onmousedown="handlePan(0,1)">
                  <use xlink:href="#rim" fill="#404040">
                        <set attributeName="fill" to="#808080" begin="arrowDown.mouseover" end="arrowDown.mouseout"/>
                  </use>
                  <path fill="none" stroke="white" stroke-width="1.5" d="M0,-3.0v7 M-2.5,-0.5L0,-3.0L2.5,-0.5"/>
                </g>
                <g id="arrowLeft" xlink:href="#dirArrow" transform="rotate(270) translate(-36 17)" onmousedown="handlePan(-1,0)">
                  <use xlink:href="#rim" fill="#404040">
                        <set attributeName="fill" to="#808080" begin="arrowLeft.mouseover" end="arrowLeft.mouseout"/>
                  </use>
                  <path fill="none" stroke="white" stroke-width="1.5" d="M0,-3.0v7 M-2.5,-0.5L0,-3.0L2.5,-0.5"/>
                </g>
        </g>
        <svg viewBox="0 0 15 15" width="100%" height="30px" preserveAspectRatio="xMaxYMin meet">
         <g id="arrow_out" transform="scale(0.3 0.3)">
          <a xlink:href="classMR24FDB1_a82a44a7291dd7b96de57a2d2cda10251_cgraph_org.svg" target="_base">
           <rect id="button" ry="5" rx="5" y="6" x="6" height="38" width="38"
                fill="#f2f5e9" fill-opacity="0.5" stroke="#606060" stroke-width="1.0"/>
           <path id="arrow"
             d="M 11.500037,31.436501 C 11.940474,20.09759 22.043105,11.32322 32.158766,21.979434 L 37.068811,17.246167 C 37.068811,17.246167 37.088388,32 37.088388,32 L 22.160133,31.978069 C 22.160133,31.978069 26.997745,27.140456 26.997745,27.140456 C 18.528582,18.264221 13.291696,25.230495 11.500037,31.436501 z"
             style="fill:#404040;"/>
          </a>
         </g>
        </svg>
</svg>
