<?xml version="1.0" encoding="UTF-8" standalone="no"?>
<!DOCTYPE svg PUBLIC "-//W3C//DTD SVG 1.1//EN"
 "http://www.w3.org/Graphics/SVG/1.1/DTD/svg11.dtd">
<!-- Generated by graphviz version 2.43.0 (0)
 -->
<!-- Title: MR24FDB1::parsePacket Pages: 1 -->
<svg width="839pt" height="477pt"
 viewBox="0.00 0.00 839.00 477.47" xmlns="http://www.w3.org/2000/svg" xmlns:xlink="http://www.w3.org/1999/xlink">
<g id="graph0" class="graph" transform="scale(1 1) rotate(0) translate(4 473.47)">
<title>MR24FDB1::parsePacket</title>
<polygon fill="white" stroke="transparent" points="-4,4 -4,-473.47 835,-473.47 835,4 -4,4"/>
<!-- Node53 -->
<g id="node1" class="node">
<title>Node53</title>
<g id="a_node1"><a xlink:title="parse packet ">
<polygon fill="#bfbfbf" stroke="black" points="0,-380.5 0,-399.5 136,-399.5 136,-380.5 0,-380.5"/>
<text text-anchor="middle" x="68" y="-387.5" font-family="Helvetica,sans-Serif" font-size="10.00">MR24FDB1::parsePacket</text>
</a>
</g>
</g>
<!-- Node54 -->
<g id="node2" class="node">
<title>Node54</title>
<g id="a_node2"><a xlink:href="classMR24FDB1.html#a0c0b8071f5d90b32f3c109ff71ff2ec0" target="_top" xlink:title="send test ">
<polygon fill="white" stroke="black" points="712,-190.5 712,-209.5 831,-209.5 831,-190.5 712,-190.5"/>
<text text-anchor="middle" x="771.5" y="-197.5" font-family="Helvetica,sans-Serif" font-size="10.00">MR24FDB1::testSend</text>
</a>
</g>
</g>
<!-- Node53&#45;&gt;Node54 -->
<g id="edge1" class="edge">
<title>Node53&#45;&gt;Node54</title>
<path fill="none" stroke="midnightblue" d="M102.64,-403.21C200.5,-439.3 489.9,-529.09 676,-409 748.61,-362.15 766.02,-244.55 769.64,-209.81"/>
<polygon fill="midnightblue" stroke="midnightblue" points="103.58,-399.83 92.98,-399.6 101.12,-406.38 103.58,-399.83"/>
</g>
<!-- Node55 -->
<g id="node3" class="node">
<title>Node55</title>
<g id="a_node3"><a xlink:href="classMR24FDB1.html#a944e9bede6552294ea9940ae6fda3b96" target="_top" xlink:title="wait until packet of the specified type is recieved ">
<polygon fill="white" stroke="black" points="172,-285.5 172,-304.5 285,-304.5 285,-285.5 172,-285.5"/>
<text text-anchor="middle" x="228.5" y="-292.5" font-family="Helvetica,sans-Serif" font-size="10.00">MR24FDB1::waitFor</text>
</a>
</g>
</g>
<!-- Node53&#45;&gt;Node55 -->
<g id="edge2" class="edge">
<title>Node53&#45;&gt;Node55</title>
<path fill="none" stroke="midnightblue" d="M94.06,-374.98C126.94,-355.27 183.71,-321.25 211.39,-304.66"/>
<polygon fill="midnightblue" stroke="midnightblue" points="91.85,-372.23 85.07,-380.37 95.45,-378.23 91.85,-372.23"/>
</g>
<!-- Node56 -->
<g id="node4" class="node">
<title>Node56</title>
<g id="a_node4"><a xlink:href="classMR24FDB1.html#a23542b21cc78944a36d941eb4eaaf29d" target="_top" xlink:title="reboot ">
<polygon fill="white" stroke="black" points="346,-285.5 346,-304.5 454,-304.5 454,-285.5 346,-285.5"/>
<text text-anchor="middle" x="400" y="-292.5" font-family="Helvetica,sans-Serif" font-size="10.00">MR24FDB1::reboot</text>
</a>
</g>
</g>
<!-- Node55&#45;&gt;Node56 -->
<g id="edge3" class="edge">
<title>Node55&#45;&gt;Node56</title>
<path fill="none" stroke="midnightblue" d="M295.29,-295C312.08,-295 329.91,-295 345.97,-295"/>
<polygon fill="midnightblue" stroke="midnightblue" points="295,-291.5 285,-295 295,-298.5 295,-291.5"/>
</g>
<!-- Node57 -->
<g id="node5" class="node">
<title>Node57</title>
<g id="a_node5"><a xlink:href="classMR24FDB1.html#a7dfa1c269d0979718203f9202d4e8578" target="_top" xlink:title="send a &quot;GET&quot; packet to the module and wait for responce ">
<polygon fill="white" stroke="black" points="321,-209.5 321,-228.5 479,-228.5 479,-209.5 321,-209.5"/>
<text text-anchor="middle" x="400" y="-216.5" font-family="Helvetica,sans-Serif" font-size="10.00">MR24FDB1::sendGetAndWait</text>
</a>
</g>
</g>
<!-- Node55&#45;&gt;Node57 -->
<g id="edge4" class="edge">
<title>Node55&#45;&gt;Node57</title>
<path fill="none" stroke="midnightblue" d="M260.42,-281.14C294.41,-265.9 348.13,-241.81 377.71,-228.55"/>
<polygon fill="midnightblue" stroke="midnightblue" points="258.66,-278.09 250.97,-285.37 261.52,-284.48 258.66,-278.09"/>
</g>
<!-- Node58 -->
<g id="node6" class="node">
<title>Node58</title>
<g id="a_node6"><a xlink:href="classMR24FDB1.html#a6a61bdca02e1a9ab2c6ab83c3ee2ff21" target="_top" xlink:title="requests Device Id ">
<polygon fill="white" stroke="black" points="528,-380.5 528,-399.5 663,-399.5 663,-380.5 528,-380.5"/>
<text text-anchor="middle" x="595.5" y="-387.5" font-family="Helvetica,sans-Serif" font-size="10.00">MR24FDB1::getDeviceId</text>
</a>
</g>
</g>
<!-- Node57&#45;&gt;Node58 -->
<g id="edge5" class="edge">
<title>Node57&#45;&gt;Node58</title>
<path fill="none" stroke="midnightblue" d="M428.55,-233.66C445.12,-243.68 465.54,-258.33 479,-276 506.36,-311.92 481.1,-341.17 515,-371 519.37,-374.84 524.38,-377.94 529.71,-380.44"/>
<polygon fill="midnightblue" stroke="midnightblue" points="430.22,-230.58 419.81,-228.58 426.7,-236.63 430.22,-230.58"/>
</g>
<!-- Node59 -->
<g id="node7" class="node">
<title>Node59</title>
<g id="a_node7"><a xlink:href="classMR24FDB1.html#a10ef6d7b6a0d7819b84361c907604fe0" target="_top" xlink:title="get status of fall enable switch ">
<polygon fill="white" stroke="black" points="524,-342.5 524,-361.5 667,-361.5 667,-342.5 524,-342.5"/>
<text text-anchor="middle" x="595.5" y="-349.5" font-family="Helvetica,sans-Serif" font-size="10.00">MR24FDB1::getFallEnable</text>
</a>
</g>
</g>
<!-- Node57&#45;&gt;Node59 -->
<g id="edge6" class="edge">
<title>Node57&#45;&gt;Node59</title>
<path fill="none" stroke="midnightblue" d="M426.14,-233.88C442.43,-244.32 463.44,-259.35 479,-276 499.46,-297.89 490.63,-315.57 515,-333 520.42,-336.88 526.54,-339.98 532.9,-342.45"/>
<polygon fill="midnightblue" stroke="midnightblue" points="427.97,-230.9 417.64,-228.57 424.26,-236.84 427.97,-230.9"/>
</g>
<!-- Node60 -->
<g id="node8" class="node">
<title>Node60</title>
<g id="a_node8"><a xlink:href="classMR24FDB1.html#a122352e437a57083aba3823b512e2c31" target="_top" xlink:title="get status of fall sensitivty setting ">
<polygon fill="white" stroke="black" points="515,-304.5 515,-323.5 676,-323.5 676,-304.5 515,-304.5"/>
<text text-anchor="middle" x="595.5" y="-311.5" font-family="Helvetica,sans-Serif" font-size="10.00">MR24FDB1::getFallSensitivity</text>
</a>
</g>
</g>
<!-- Node57&#45;&gt;Node60 -->
<g id="edge7" class="edge">
<title>Node57&#45;&gt;Node60</title>
<path fill="none" stroke="midnightblue" d="M422.26,-234.49C449.63,-254.2 495.92,-286.68 515,-295 523.71,-298.8 533.31,-301.91 542.74,-304.44"/>
<polygon fill="midnightblue" stroke="midnightblue" points="424.25,-231.62 414.1,-228.59 420.15,-237.29 424.25,-231.62"/>
</g>
<!-- Node61 -->
<g id="node9" class="node">
<title>Node61</title>
<g id="a_node9"><a xlink:href="classMR24FDB1.html#a6e729c642bc4f67e6ce076fb0fa2aa3e" target="_top" xlink:title="get status of fall warning time setting ">
<polygon fill="white" stroke="black" points="516,-266.5 516,-285.5 675,-285.5 675,-266.5 516,-266.5"/>
<text text-anchor="middle" x="595.5" y="-273.5" font-family="Helvetica,sans-Serif" font-size="10.00">MR24FDB1::getFallWarnTime</text>
</a>
</g>
</g>
<!-- Node57&#45;&gt;Node61 -->
<g id="edge8" class="edge">
<title>Node57&#45;&gt;Node61</title>
<path fill="none" stroke="midnightblue" d="M437.23,-231.97C459.51,-239.73 488.73,-249.5 515,-257 526.73,-260.35 539.56,-263.6 551.41,-266.43"/>
<polygon fill="midnightblue" stroke="midnightblue" points="438.11,-228.57 427.51,-228.57 435.79,-235.18 438.11,-228.57"/>
</g>
<!-- Node62 -->
<g id="node10" class="node">
<title>Node62</title>
<g id="a_node10"><a xlink:href="classMR24FDB1.html#a9c858e6eae2bf95de4340b7bb4fe07e7" target="_top" xlink:title="requests Hardware version ">
<polygon fill="white" stroke="black" points="517.5,-228.5 517.5,-247.5 673.5,-247.5 673.5,-228.5 517.5,-228.5"/>
<text text-anchor="middle" x="595.5" y="-235.5" font-family="Helvetica,sans-Serif" font-size="10.00">MR24FDB1::getHardwareVer</text>
</a>
</g>
</g>
<!-- Node57&#45;&gt;Node62 -->
<g id="edge9" class="edge">
<title>Node57&#45;&gt;Node62</title>
<path fill="none" stroke="midnightblue" d="M489.25,-227.67C498.62,-228.59 508.09,-229.52 517.32,-230.42"/>
<polygon fill="midnightblue" stroke="midnightblue" points="489.44,-224.17 479.15,-226.67 488.76,-231.13 489.44,-224.17"/>
</g>
<!-- Node63 -->
<g id="node11" class="node">
<title>Node63</title>
<g id="a_node11"><a xlink:href="classMR24FDB1.html#ab090aa5731fa4e348a33588f682f1a16" target="_top" xlink:title="get movement ">
<polygon fill="white" stroke="black" points="523,-190.5 523,-209.5 668,-209.5 668,-190.5 523,-190.5"/>
<text text-anchor="middle" x="595.5" y="-197.5" font-family="Helvetica,sans-Serif" font-size="10.00">MR24FDB1::getMovement</text>
</a>
</g>
</g>
<!-- Node57&#45;&gt;Node63 -->
<g id="edge10" class="edge">
<title>Node57&#45;&gt;Node63</title>
<path fill="none" stroke="midnightblue" d="M489.4,-210.32C500.63,-209.22 512.02,-208.1 522.94,-207.03"/>
<polygon fill="midnightblue" stroke="midnightblue" points="488.76,-206.87 479.15,-211.33 489.44,-213.83 488.76,-206.87"/>
</g>
<!-- Node64 -->
<g id="node12" class="node">
<title>Node64</title>
<g id="a_node12"><a xlink:href="classMR24FDB1.html#af5bcb06d3788fb4743e2f750a6e4a149" target="_top" xlink:title="get presence from module ">
<polygon fill="white" stroke="black" points="527,-152.5 527,-171.5 664,-171.5 664,-152.5 527,-152.5"/>
<text text-anchor="middle" x="595.5" y="-159.5" font-family="Helvetica,sans-Serif" font-size="10.00">MR24FDB1::getPresence</text>
</a>
</g>
</g>
<!-- Node57&#45;&gt;Node64 -->
<g id="edge12" class="edge">
<title>Node57&#45;&gt;Node64</title>
<path fill="none" stroke="midnightblue" d="M437.23,-206.03C459.51,-198.27 488.73,-188.5 515,-181 526.73,-177.65 539.56,-174.4 551.41,-171.57"/>
<polygon fill="midnightblue" stroke="midnightblue" points="435.79,-202.82 427.51,-209.43 438.11,-209.43 435.79,-202.82"/>
</g>
<!-- Node65 -->
<g id="node13" class="node">
<title>Node65</title>
<g id="a_node13"><a xlink:href="classMR24FDB1.html#a206d007330f0b2f9c76b070e215dbb05" target="_top" xlink:title="request Protocol Version ">
<polygon fill="white" stroke="black" points="521,-114.5 521,-133.5 670,-133.5 670,-114.5 521,-114.5"/>
<text text-anchor="middle" x="595.5" y="-121.5" font-family="Helvetica,sans-Serif" font-size="10.00">MR24FDB1::getProtocolVer</text>
</a>
</g>
</g>
<!-- Node57&#45;&gt;Node65 -->
<g id="edge14" class="edge">
<title>Node57&#45;&gt;Node65</title>
<path fill="none" stroke="midnightblue" d="M420.3,-202.99C442.03,-185.76 479.01,-158.7 515,-143 523.71,-139.2 533.31,-136.09 542.74,-133.56"/>
<polygon fill="midnightblue" stroke="midnightblue" points="418.08,-200.29 412.5,-209.29 422.48,-205.74 418.08,-200.29"/>
</g>
<!-- Node66 -->
<g id="node14" class="node">
<title>Node66</title>
<g id="a_node14"><a xlink:href="classMR24FDB1.html#adc620372e2ccd4d3dece13bfe8c8424e" target="_top" xlink:title="get scene parameter ">
<polygon fill="white" stroke="black" points="534.5,-76.5 534.5,-95.5 656.5,-95.5 656.5,-76.5 534.5,-76.5"/>
<text text-anchor="middle" x="595.5" y="-83.5" font-family="Helvetica,sans-Serif" font-size="10.00">MR24FDB1::getScene</text>
</a>
</g>
</g>
<!-- Node57&#45;&gt;Node66 -->
<g id="edge15" class="edge">
<title>Node57&#45;&gt;Node66</title>
<path fill="none" stroke="midnightblue" d="M413.86,-200.91C432.95,-175.46 471.27,-129.46 515,-105 521.94,-101.12 529.64,-98.03 537.45,-95.57"/>
<polygon fill="midnightblue" stroke="midnightblue" points="410.82,-199.14 407.73,-209.28 416.46,-203.28 410.82,-199.14"/>
</g>
<!-- Node67 -->
<g id="node15" class="node">
<title>Node67</title>
<g id="a_node15"><a xlink:href="classMR24FDB1.html#a82a44a7291dd7b96de57a2d2cda10251" target="_top" xlink:title="get sensitivity parameter ">
<polygon fill="white" stroke="black" points="523.5,-38.5 523.5,-57.5 667.5,-57.5 667.5,-38.5 523.5,-38.5"/>
<text text-anchor="middle" x="595.5" y="-45.5" font-family="Helvetica,sans-Serif" font-size="10.00">MR24FDB1::getSensitivity</text>
</a>
</g>
</g>
<!-- Node57&#45;&gt;Node67 -->
<g id="edge16" class="edge">
<title>Node57&#45;&gt;Node67</title>
<path fill="none" stroke="midnightblue" d="M409.73,-200.03C425.75,-167.47 463,-101.14 515,-67 520.93,-63.11 527.58,-60.01 534.44,-57.54"/>
<polygon fill="midnightblue" stroke="midnightblue" points="406.44,-198.81 405.29,-209.34 412.76,-201.82 406.44,-198.81"/>
</g>
<!-- Node68 -->
<g id="node16" class="node">
<title>Node68</title>
<g id="a_node16"><a xlink:href="classMR24FDB1.html#af9b355c4127c5b937407b3e3b25217c7" target="_top" xlink:title="requests Software verion ">
<polygon fill="white" stroke="black" points="519.5,-0.5 519.5,-19.5 671.5,-19.5 671.5,-0.5 519.5,-0.5"/>
<text text-anchor="middle" x="595.5" y="-7.5" font-family="Helvetica,sans-Serif" font-size="10.00">MR24FDB1::getSoftwareVer</text>
</a>
</g>
</g>
<!-- Node57&#45;&gt;Node68 -->
<g id="edge17" class="edge">
<title>Node57&#45;&gt;Node68</title>
<path fill="none" stroke="midnightblue" d="M406.91,-199.69C419.81,-160.92 454.31,-73.48 515,-29 520.27,-25.14 526.2,-22.06 532.41,-19.59"/>
<polygon fill="midnightblue" stroke="midnightblue" points="403.56,-198.67 403.84,-209.27 410.22,-200.81 403.56,-198.67"/>
</g>
<!-- Node63&#45;&gt;Node54 -->
<g id="edge11" class="edge">
<title>Node63&#45;&gt;Node54</title>
<path fill="none" stroke="midnightblue" d="M678.04,-200C689.49,-200 701.07,-200 711.98,-200"/>
<polygon fill="midnightblue" stroke="midnightblue" points="678.03,-196.5 668.03,-200 678.03,-203.5 678.03,-196.5"/>
</g>
<!-- Node64&#45;&gt;Node54 -->
<g id="edge13" class="edge">
<title>Node64&#45;&gt;Node54</title>
<path fill="none" stroke="midnightblue" d="M650.31,-173.75C674.92,-179.13 703.69,-185.41 726.91,-190.48"/>
<polygon fill="midnightblue" stroke="midnightblue" points="650.92,-170.3 640.41,-171.59 649.43,-177.14 650.92,-170.3"/>
</g>
</g>
</svg>
