<?xml version="1.0" encoding="UTF-8" standalone="no"?>
<!DOCTYPE svg PUBLIC "-//W3C//DTD SVG 1.1//EN"
 "http://www.w3.org/Graphics/SVG/1.1/DTD/svg11.dtd">
<!-- Generated by graphviz version 2.43.0 (0)
 -->
<!-- Title: MR24FDB1::sendSet Pages: 1 -->
<svg width="333pt" height="256pt"
 viewBox="0.00 0.00 333.00 256.00" xmlns="http://www.w3.org/2000/svg" xmlns:xlink="http://www.w3.org/1999/xlink">
<g id="graph0" class="graph" transform="scale(1 1) rotate(0) translate(4 252)">
<title>MR24FDB1::sendSet</title>
<polygon fill="white" stroke="transparent" points="-4,4 -4,-252 329,-252 329,4 -4,4"/>
<!-- Node341 -->
<g id="node1" class="node">
<title>Node341</title>
<g id="a_node1"><a xlink:title="send a &quot;GET&quot; packet to the module ">
<polygon fill="#bfbfbf" stroke="black" points="0,-114.5 0,-133.5 116,-133.5 116,-114.5 0,-114.5"/>
<text text-anchor="middle" x="58" y="-121.5" font-family="Helvetica,sans-Serif" font-size="10.00">MR24FDB1::sendSet</text>
</a>
</g>
</g>
<!-- Node342 -->
<g id="node2" class="node">
<title>Node342</title>
<g id="a_node2"><a xlink:href="classMR24FDB1.html#a23542b21cc78944a36d941eb4eaaf29d" target="_top" xlink:title="reboot ">
<polygon fill="white" stroke="black" points="184.5,-228.5 184.5,-247.5 292.5,-247.5 292.5,-228.5 184.5,-228.5"/>
<text text-anchor="middle" x="238.5" y="-235.5" font-family="Helvetica,sans-Serif" font-size="10.00">MR24FDB1::reboot</text>
</a>
</g>
</g>
<!-- Node341&#45;&gt;Node342 -->
<g id="edge1" class="edge">
<title>Node341&#45;&gt;Node342</title>
<path fill="none" stroke="midnightblue" d="M71.4,-141.93C87.42,-163.67 117.4,-199.77 152,-219 161.83,-224.47 173.13,-228.36 184.21,-231.13"/>
<polygon fill="midnightblue" stroke="midnightblue" points="74.09,-139.67 65.42,-133.59 68.4,-143.75 74.09,-139.67"/>
</g>
<!-- Node343 -->
<g id="node3" class="node">
<title>Node343</title>
<g id="a_node3"><a xlink:href="classMR24FDB1.html#a1546763c4f1cb5ffca8f9bebd1a01edd" target="_top" xlink:title="enable / disable fall detection ">
<polygon fill="white" stroke="black" points="168,-190.5 168,-209.5 309,-209.5 309,-190.5 168,-190.5"/>
<text text-anchor="middle" x="238.5" y="-197.5" font-family="Helvetica,sans-Serif" font-size="10.00">MR24FDB1::setFallDetect</text>
</a>
</g>
</g>
<!-- Node341&#45;&gt;Node343 -->
<g id="edge2" class="edge">
<title>Node341&#45;&gt;Node343</title>
<path fill="none" stroke="midnightblue" d="M79.63,-139.43C97.81,-152.32 125.45,-170.26 152,-181 161.44,-184.82 171.8,-187.94 181.95,-190.47"/>
<polygon fill="midnightblue" stroke="midnightblue" points="81.67,-136.58 71.52,-133.56 77.57,-142.26 81.67,-136.58"/>
</g>
<!-- Node344 -->
<g id="node4" class="node">
<title>Node344</title>
<g id="a_node4"><a xlink:href="classMR24FDB1.html#a58a9040e025d0546198d2255fe06ac95" target="_top" xlink:title="set fall detection sensitivity ">
<polygon fill="white" stroke="black" points="158,-152.5 158,-171.5 319,-171.5 319,-152.5 158,-152.5"/>
<text text-anchor="middle" x="238.5" y="-159.5" font-family="Helvetica,sans-Serif" font-size="10.00">MR24FDB1::setFallSensitivity</text>
</a>
</g>
</g>
<!-- Node341&#45;&gt;Node344 -->
<g id="edge3" class="edge">
<title>Node341&#45;&gt;Node344</title>
<path fill="none" stroke="midnightblue" d="M113.87,-135.68C139.18,-141.07 168.85,-147.39 192.78,-152.48"/>
<polygon fill="midnightblue" stroke="midnightblue" points="114.55,-132.25 104.04,-133.59 113.1,-139.09 114.55,-132.25"/>
</g>
<!-- Node345 -->
<g id="node5" class="node">
<title>Node345</title>
<g id="a_node5"><a xlink:href="classMR24FDB1.html#a4b764eab220a44327e80f7a5a8dd93ed" target="_top" xlink:title="set fall warn time parameter ">
<polygon fill="white" stroke="black" points="159.5,-114.5 159.5,-133.5 317.5,-133.5 317.5,-114.5 159.5,-114.5"/>
<text text-anchor="middle" x="238.5" y="-121.5" font-family="Helvetica,sans-Serif" font-size="10.00">MR24FDB1::setFallWarnTime</text>
</a>
</g>
</g>
<!-- Node341&#45;&gt;Node345 -->
<g id="edge4" class="edge">
<title>Node341&#45;&gt;Node345</title>
<path fill="none" stroke="midnightblue" d="M126.56,-124C137.26,-124 148.41,-124 159.32,-124"/>
<polygon fill="midnightblue" stroke="midnightblue" points="126.46,-120.5 116.46,-124 126.46,-127.5 126.46,-120.5"/>
</g>
<!-- Node346 -->
<g id="node6" class="node">
<title>Node346</title>
<g id="a_node6"><a xlink:href="classMR24FDB1.html#a00c0a4485d6cc500242439acd036db97" target="_top" xlink:title="set scene ">
<polygon fill="white" stroke="black" points="178,-76.5 178,-95.5 299,-95.5 299,-76.5 178,-76.5"/>
<text text-anchor="middle" x="238.5" y="-83.5" font-family="Helvetica,sans-Serif" font-size="10.00">MR24FDB1::setScene</text>
</a>
</g>
</g>
<!-- Node341&#45;&gt;Node346 -->
<g id="edge5" class="edge">
<title>Node341&#45;&gt;Node346</title>
<path fill="none" stroke="midnightblue" d="M113.87,-112.32C139.18,-106.93 168.85,-100.61 192.78,-95.52"/>
<polygon fill="midnightblue" stroke="midnightblue" points="113.1,-108.91 104.04,-114.41 114.55,-115.75 113.1,-108.91"/>
</g>
<!-- Node347 -->
<g id="node7" class="node">
<title>Node347</title>
<g id="a_node7"><a xlink:href="classMR24FDB1.html#aebffae5417dedbcc48b35e34b2d2ab13" target="_top" xlink:title="set sensitivity ">
<polygon fill="white" stroke="black" points="167,-38.5 167,-57.5 310,-57.5 310,-38.5 167,-38.5"/>
<text text-anchor="middle" x="238.5" y="-45.5" font-family="Helvetica,sans-Serif" font-size="10.00">MR24FDB1::setSensitivity</text>
</a>
</g>
</g>
<!-- Node341&#45;&gt;Node347 -->
<g id="edge6" class="edge">
<title>Node341&#45;&gt;Node347</title>
<path fill="none" stroke="midnightblue" d="M79.63,-108.57C97.81,-95.68 125.45,-77.74 152,-67 161.44,-63.18 171.8,-60.06 181.95,-57.53"/>
<polygon fill="midnightblue" stroke="midnightblue" points="77.57,-105.74 71.52,-114.44 81.67,-111.42 77.57,-105.74"/>
</g>
<!-- Node348 -->
<g id="node8" class="node">
<title>Node348</title>
<g id="a_node8"><a xlink:href="classMR24FDB1.html#a2c1248a5844a078916d833e9a868fb75" target="_top" xlink:title="set unoccupied timeut ">
<polygon fill="white" stroke="black" points="152,-0.5 152,-19.5 325,-19.5 325,-0.5 152,-0.5"/>
<text text-anchor="middle" x="238.5" y="-7.5" font-family="Helvetica,sans-Serif" font-size="10.00">MR24FDB1::setUnoccupiedTime</text>
</a>
</g>
</g>
<!-- Node341&#45;&gt;Node348 -->
<g id="edge7" class="edge">
<title>Node341&#45;&gt;Node348</title>
<path fill="none" stroke="midnightblue" d="M71.4,-106.07C87.42,-84.33 117.4,-48.23 152,-29 159.04,-25.08 166.84,-21.98 174.76,-19.51"/>
<polygon fill="midnightblue" stroke="midnightblue" points="68.4,-104.25 65.42,-114.41 74.09,-108.33 68.4,-104.25"/>
</g>
</g>
</svg>
