<?xml version="1.0" encoding="UTF-8" standalone="no"?>
<!DOCTYPE svg PUBLIC "-//W3C//DTD SVG 1.1//EN"
 "http://www.w3.org/Graphics/SVG/1.1/DTD/svg11.dtd">
<!-- Generated by graphviz version 2.43.0 (0)
 -->
<!-- Title: MR24FDB1::decodeRadar Pages: 1 -->
<!--zoomable 469 -->
<svg id="main" version="1.1" xmlns="http://www.w3.org/2000/svg" xmlns:xlink="http://www.w3.org/1999/xlink" xml:space="preserve" onload="init(evt)">
<style type="text/css"><![CDATA[
.edge:hover path { stroke: red; }
.edge:hover polygon { stroke: red; fill: red; }
]]></style>
<script type="text/javascript"><![CDATA[
var edges = document.getElementsByTagName('g');
if (edges && edges.length) {
  for (var i=0;i<edges.length;i++) {
    if (edges[i].id.substr(0,4)=='edge') {
      edges[i].setAttribute('class','edge');
    }
  }
}
]]></script>
        <defs>
                <circle id="rim" cx="0" cy="0" r="7"/>
                <circle id="rim2" cx="0" cy="0" r="3.5"/>
                <g id="zoomPlus">
                        <use xlink:href="#rim" fill="#404040">
                                <set attributeName="fill" to="#808080" begin="zoomplus.mouseover" end="zoomplus.mouseout"/>
                        </use>
                        <path d="M-4,0h8M0,-4v8" fill="none" stroke="white" stroke-width="1.5" pointer-events="none"/>
                </g>
                <g id="zoomMin">
                        <use xlink:href="#rim" fill="#404040">
                                <set attributeName="fill" to="#808080" begin="zoomminus.mouseover" end="zoomminus.mouseout"/>
                        </use>
                        <path d="M-4,0h8" fill="none" stroke="white" stroke-width="1.5" pointer-events="none"/>
                </g>
                <g id="dirArrow">
                        <path fill="none" stroke="white" stroke-width="1.5" d="M0,-3.0v7 M-2.5,-0.5L0,-3.0L2.5,-0.5"/>
                </g>
               <g id="resetDef">
                       <use xlink:href="#rim2" fill="#404040">
                               <set attributeName="fill" to="#808080" begin="reset.mouseover" end="reset.mouseout"/>
                       </use>
               </g>
        </defs>

<script type="text/javascript">
var viewWidth = 1202;
var viewHeight = 469;
var sectionId = 'dynsection-36';
</script>
<script xlink:href="svgpan.js"/>
<svg id="graph" class="graph">
<g id="viewport">
<title>MR24FDB1::decodeRadar</title>
<polygon fill="white" stroke="transparent" points="-4,4 -4,-464.9 1198,-464.9 1198,4 -4,4"/>
<!-- Node427 -->
<g id="node1" class="node">
<title>Node427</title>
<g id="a_node1"><a xlink:title="parse Radar group responces and reports ">
<polygon fill="#bfbfbf" stroke="black" points="0,-333.5 0,-352.5 140,-352.5 140,-333.5 0,-333.5"/>
<text text-anchor="middle" x="70" y="-340.5" font-family="Helvetica,sans-Serif" font-size="10.00">MR24FDB1::decodeRadar</text>
</a>
</g>
</g>
<!-- Node428 -->
<g id="node2" class="node">
<title>Node428</title>
<g id="a_node2"><a xlink:href="classMR24FDB1.html#a1759ec9442c191ee6ddc09137a9c0528" target="_top" xlink:title="parse report type packet ">
<polygon fill="white" stroke="black" points="183.5,-352.5 183.5,-371.5 319.5,-371.5 319.5,-352.5 183.5,-352.5"/>
<text text-anchor="middle" x="251.5" y="-359.5" font-family="Helvetica,sans-Serif" font-size="10.00">MR24FDB1::parseReport</text>
</a>
</g>
</g>
<!-- Node427&#45;&gt;Node428 -->
<g id="edge1" class="edge">
<title>Node427&#45;&gt;Node428</title>
<path fill="none" stroke="midnightblue" d="M150.24,-351.39C161.33,-352.56 172.63,-353.76 183.46,-354.9"/>
<polygon fill="midnightblue" stroke="midnightblue" points="150.46,-347.89 140.14,-350.32 149.72,-354.85 150.46,-347.89"/>
</g>
<!-- Node445 -->
<g id="node19" class="node">
<title>Node445</title>
<g id="a_node19"><a xlink:href="classMR24FDB1.html#a55ecfd4dffd4d04c97dcd6e6e264ad61" target="_top" xlink:title="parse reponce type packet ">
<polygon fill="white" stroke="black" points="176,-314.5 176,-333.5 327,-333.5 327,-314.5 176,-314.5"/>
<text text-anchor="middle" x="251.5" y="-321.5" font-family="Helvetica,sans-Serif" font-size="10.00">MR24FDB1::parseResponce</text>
</a>
</g>
</g>
<!-- Node427&#45;&gt;Node445 -->
<g id="edge20" class="edge">
<title>Node427&#45;&gt;Node445</title>
<path fill="none" stroke="midnightblue" d="M150.35,-334.6C158.79,-333.71 167.35,-332.8 175.73,-331.91"/>
<polygon fill="midnightblue" stroke="midnightblue" points="149.72,-331.15 140.14,-335.68 150.46,-338.11 149.72,-331.15"/>
</g>
<!-- Node429 -->
<g id="node3" class="node">
<title>Node429</title>
<g id="a_node3"><a xlink:href="classMR24FDB1.html#a8a6f5bebfe9e2f9232e58f0ff909042a" target="_top" xlink:title="parse packet ">
<polygon fill="white" stroke="black" points="363,-333.5 363,-352.5 499,-352.5 499,-333.5 363,-333.5"/>
<text text-anchor="middle" x="431" y="-340.5" font-family="Helvetica,sans-Serif" font-size="10.00">MR24FDB1::parsePacket</text>
</a>
</g>
</g>
<!-- Node428&#45;&gt;Node429 -->
<g id="edge2" class="edge">
<title>Node428&#45;&gt;Node429</title>
<path fill="none" stroke="midnightblue" d="M329.65,-353.74C340.69,-352.56 351.97,-351.35 362.8,-350.19"/>
<polygon fill="midnightblue" stroke="midnightblue" points="329.18,-350.27 319.61,-354.82 329.92,-357.23 329.18,-350.27"/>
</g>
<!-- Node430 -->
<g id="node4" class="node">
<title>Node430</title>
<g id="a_node4"><a xlink:href="classMR24FDB1.html#a0c0b8071f5d90b32f3c109ff71ff2ec0" target="_top" xlink:title="send test ">
<polygon fill="white" stroke="black" points="1075,-190.5 1075,-209.5 1194,-209.5 1194,-190.5 1075,-190.5"/>
<text text-anchor="middle" x="1134.5" y="-197.5" font-family="Helvetica,sans-Serif" font-size="10.00">MR24FDB1::testSend</text>
</a>
</g>
</g>
<!-- Node429&#45;&gt;Node430 -->
<g id="edge3" class="edge">
<title>Node429&#45;&gt;Node430</title>
<path fill="none" stroke="midnightblue" d="M459.09,-357.1C549.75,-402.13 847.58,-532.53 1039,-409 1111.61,-362.15 1129.02,-244.55 1132.64,-209.81"/>
<polygon fill="midnightblue" stroke="midnightblue" points="460.52,-353.9 450.02,-352.53 457.38,-360.15 460.52,-353.9"/>
</g>
<!-- Node431 -->
<g id="node5" class="node">
<title>Node431</title>
<g id="a_node5"><a xlink:href="classMR24FDB1.html#a944e9bede6552294ea9940ae6fda3b96" target="_top" xlink:title="wait until packet of the specified type is recieved ">
<polygon fill="white" stroke="black" points="535,-314.5 535,-333.5 648,-333.5 648,-314.5 535,-314.5"/>
<text text-anchor="middle" x="591.5" y="-321.5" font-family="Helvetica,sans-Serif" font-size="10.00">MR24FDB1::waitFor</text>
</a>
</g>
</g>
<!-- Node429&#45;&gt;Node431 -->
<g id="edge4" class="edge">
<title>Node429&#45;&gt;Node431</title>
<path fill="none" stroke="midnightblue" d="M509.25,-333.74C517.82,-332.71 526.43,-331.68 534.67,-330.69"/>
<polygon fill="midnightblue" stroke="midnightblue" points="508.73,-330.28 499.22,-334.94 509.56,-337.23 508.73,-330.28"/>
</g>
<!-- Node432 -->
<g id="node6" class="node">
<title>Node432</title>
<g id="a_node6"><a xlink:href="classMR24FDB1.html#a23542b21cc78944a36d941eb4eaaf29d" target="_top" xlink:title="reboot ">
<polygon fill="white" stroke="black" points="709,-314.5 709,-333.5 817,-333.5 817,-314.5 709,-314.5"/>
<text text-anchor="middle" x="763" y="-321.5" font-family="Helvetica,sans-Serif" font-size="10.00">MR24FDB1::reboot</text>
</a>
</g>
</g>
<!-- Node431&#45;&gt;Node432 -->
<g id="edge5" class="edge">
<title>Node431&#45;&gt;Node432</title>
<path fill="none" stroke="midnightblue" d="M658.29,-324C675.08,-324 692.91,-324 708.97,-324"/>
<polygon fill="midnightblue" stroke="midnightblue" points="658,-320.5 648,-324 658,-327.5 658,-320.5"/>
</g>
<!-- Node433 -->
<g id="node7" class="node">
<title>Node433</title>
<g id="a_node7"><a xlink:href="classMR24FDB1.html#a7dfa1c269d0979718203f9202d4e8578" target="_top" xlink:title="send a &quot;GET&quot; packet to the module and wait for responce ">
<polygon fill="white" stroke="black" points="684,-209.5 684,-228.5 842,-228.5 842,-209.5 684,-209.5"/>
<text text-anchor="middle" x="763" y="-216.5" font-family="Helvetica,sans-Serif" font-size="10.00">MR24FDB1::sendGetAndWait</text>
</a>
</g>
</g>
<!-- Node431&#45;&gt;Node433 -->
<g id="edge6" class="edge">
<title>Node431&#45;&gt;Node433</title>
<path fill="none" stroke="midnightblue" d="M616.54,-309.11C651.81,-287.26 716.59,-247.13 746.33,-228.71"/>
<polygon fill="midnightblue" stroke="midnightblue" points="614.5,-306.26 607.84,-314.5 618.19,-312.21 614.5,-306.26"/>
</g>
<!-- Node434 -->
<g id="node8" class="node">
<title>Node434</title>
<g id="a_node8"><a xlink:href="classMR24FDB1.html#a6a61bdca02e1a9ab2c6ab83c3ee2ff21" target="_top" xlink:title="requests Device Id ">
<polygon fill="white" stroke="black" points="891,-380.5 891,-399.5 1026,-399.5 1026,-380.5 891,-380.5"/>
<text text-anchor="middle" x="958.5" y="-387.5" font-family="Helvetica,sans-Serif" font-size="10.00">MR24FDB1::getDeviceId</text>
</a>
</g>
</g>
<!-- Node433&#45;&gt;Node434 -->
<g id="edge7" class="edge">
<title>Node433&#45;&gt;Node434</title>
<path fill="none" stroke="midnightblue" d="M781.66,-235.98C798.4,-252.62 823.63,-279.16 842,-305 861.36,-332.23 851.46,-350.7 878,-371 883.07,-374.88 888.82,-377.98 894.84,-380.46"/>
<polygon fill="midnightblue" stroke="midnightblue" points="783.79,-233.16 774.2,-228.66 778.88,-238.16 783.79,-233.16"/>
</g>
<!-- Node435 -->
<g id="node9" class="node">
<title>Node435</title>
<g id="a_node9"><a xlink:href="classMR24FDB1.html#a10ef6d7b6a0d7819b84361c907604fe0" target="_top" xlink:title="get status of fall enable switch ">
<polygon fill="white" stroke="black" points="887,-342.5 887,-361.5 1030,-361.5 1030,-342.5 887,-342.5"/>
<text text-anchor="middle" x="958.5" y="-349.5" font-family="Helvetica,sans-Serif" font-size="10.00">MR24FDB1::getFallEnable</text>
</a>
</g>
</g>
<!-- Node433&#45;&gt;Node435 -->
<g id="edge8" class="edge">
<title>Node433&#45;&gt;Node435</title>
<path fill="none" stroke="midnightblue" d="M779.2,-236.37C804.59,-264.99 855.1,-320.19 878,-333 884.94,-336.88 892.64,-339.97 900.45,-342.43"/>
<polygon fill="midnightblue" stroke="midnightblue" points="781.71,-233.92 772.47,-228.74 776.46,-238.55 781.71,-233.92"/>
</g>
<!-- Node436 -->
<g id="node10" class="node">
<title>Node436</title>
<g id="a_node10"><a xlink:href="classMR24FDB1.html#a122352e437a57083aba3823b512e2c31" target="_top" xlink:title="get status of fall sensitivty setting ">
<polygon fill="white" stroke="black" points="878,-304.5 878,-323.5 1039,-323.5 1039,-304.5 878,-304.5"/>
<text text-anchor="middle" x="958.5" y="-311.5" font-family="Helvetica,sans-Serif" font-size="10.00">MR24FDB1::getFallSensitivity</text>
</a>
</g>
</g>
<!-- Node433&#45;&gt;Node436 -->
<g id="edge9" class="edge">
<title>Node433&#45;&gt;Node436</title>
<path fill="none" stroke="midnightblue" d="M783.3,-235.01C805.03,-252.24 842.01,-279.3 878,-295 886.71,-298.8 896.31,-301.91 905.74,-304.44"/>
<polygon fill="midnightblue" stroke="midnightblue" points="785.48,-232.26 775.5,-228.71 781.08,-237.71 785.48,-232.26"/>
</g>
<!-- Node437 -->
<g id="node11" class="node">
<title>Node437</title>
<g id="a_node11"><a xlink:href="classMR24FDB1.html#a6e729c642bc4f67e6ce076fb0fa2aa3e" target="_top" xlink:title="get status of fall warning time setting ">
<polygon fill="white" stroke="black" points="879,-266.5 879,-285.5 1038,-285.5 1038,-266.5 879,-266.5"/>
<text text-anchor="middle" x="958.5" y="-273.5" font-family="Helvetica,sans-Serif" font-size="10.00">MR24FDB1::getFallWarnTime</text>
</a>
</g>
</g>
<!-- Node433&#45;&gt;Node437 -->
<g id="edge10" class="edge">
<title>Node433&#45;&gt;Node437</title>
<path fill="none" stroke="midnightblue" d="M800.23,-231.97C822.51,-239.73 851.73,-249.5 878,-257 889.73,-260.35 902.56,-263.6 914.41,-266.43"/>
<polygon fill="midnightblue" stroke="midnightblue" points="801.11,-228.57 790.51,-228.57 798.79,-235.18 801.11,-228.57"/>
</g>
<!-- Node438 -->
<g id="node12" class="node">
<title>Node438</title>
<g id="a_node12"><a xlink:href="classMR24FDB1.html#a9c858e6eae2bf95de4340b7bb4fe07e7" target="_top" xlink:title="requests Hardware version ">
<polygon fill="white" stroke="black" points="880.5,-228.5 880.5,-247.5 1036.5,-247.5 1036.5,-228.5 880.5,-228.5"/>
<text text-anchor="middle" x="958.5" y="-235.5" font-family="Helvetica,sans-Serif" font-size="10.00">MR24FDB1::getHardwareVer</text>
</a>
</g>
</g>
<!-- Node433&#45;&gt;Node438 -->
<g id="edge11" class="edge">
<title>Node433&#45;&gt;Node438</title>
<path fill="none" stroke="midnightblue" d="M852.25,-227.67C861.62,-228.59 871.09,-229.52 880.32,-230.42"/>
<polygon fill="midnightblue" stroke="midnightblue" points="852.44,-224.17 842.15,-226.67 851.76,-231.13 852.44,-224.17"/>
</g>
<!-- Node439 -->
<g id="node13" class="node">
<title>Node439</title>
<g id="a_node13"><a xlink:href="classMR24FDB1.html#ab090aa5731fa4e348a33588f682f1a16" target="_top" xlink:title="get movement ">
<polygon fill="white" stroke="black" points="886,-190.5 886,-209.5 1031,-209.5 1031,-190.5 886,-190.5"/>
<text text-anchor="middle" x="958.5" y="-197.5" font-family="Helvetica,sans-Serif" font-size="10.00">MR24FDB1::getMovement</text>
</a>
</g>
</g>
<!-- Node433&#45;&gt;Node439 -->
<g id="edge12" class="edge">
<title>Node433&#45;&gt;Node439</title>
<path fill="none" stroke="midnightblue" d="M852.4,-210.32C863.63,-209.22 875.02,-208.1 885.94,-207.03"/>
<polygon fill="midnightblue" stroke="midnightblue" points="851.76,-206.87 842.15,-211.33 852.44,-213.83 851.76,-206.87"/>
</g>
<!-- Node440 -->
<g id="node14" class="node">
<title>Node440</title>
<g id="a_node14"><a xlink:href="classMR24FDB1.html#af5bcb06d3788fb4743e2f750a6e4a149" target="_top" xlink:title="get presence from module ">
<polygon fill="white" stroke="black" points="890,-152.5 890,-171.5 1027,-171.5 1027,-152.5 890,-152.5"/>
<text text-anchor="middle" x="958.5" y="-159.5" font-family="Helvetica,sans-Serif" font-size="10.00">MR24FDB1::getPresence</text>
</a>
</g>
</g>
<!-- Node433&#45;&gt;Node440 -->
<g id="edge14" class="edge">
<title>Node433&#45;&gt;Node440</title>
<path fill="none" stroke="midnightblue" d="M800.23,-206.03C822.51,-198.27 851.73,-188.5 878,-181 889.73,-177.65 902.56,-174.4 914.41,-171.57"/>
<polygon fill="midnightblue" stroke="midnightblue" points="798.79,-202.82 790.51,-209.43 801.11,-209.43 798.79,-202.82"/>
</g>
<!-- Node441 -->
<g id="node15" class="node">
<title>Node441</title>
<g id="a_node15"><a xlink:href="classMR24FDB1.html#a206d007330f0b2f9c76b070e215dbb05" target="_top" xlink:title="request Protocol Version ">
<polygon fill="white" stroke="black" points="884,-114.5 884,-133.5 1033,-133.5 1033,-114.5 884,-114.5"/>
<text text-anchor="middle" x="958.5" y="-121.5" font-family="Helvetica,sans-Serif" font-size="10.00">MR24FDB1::getProtocolVer</text>
</a>
</g>
</g>
<!-- Node433&#45;&gt;Node441 -->
<g id="edge16" class="edge">
<title>Node433&#45;&gt;Node441</title>
<path fill="none" stroke="midnightblue" d="M783.3,-202.99C805.03,-185.76 842.01,-158.7 878,-143 886.71,-139.2 896.31,-136.09 905.74,-133.56"/>
<polygon fill="midnightblue" stroke="midnightblue" points="781.08,-200.29 775.5,-209.29 785.48,-205.74 781.08,-200.29"/>
</g>
<!-- Node442 -->
<g id="node16" class="node">
<title>Node442</title>
<g id="a_node16"><a xlink:href="classMR24FDB1.html#adc620372e2ccd4d3dece13bfe8c8424e" target="_top" xlink:title="get scene parameter ">
<polygon fill="white" stroke="black" points="897.5,-76.5 897.5,-95.5 1019.5,-95.5 1019.5,-76.5 897.5,-76.5"/>
<text text-anchor="middle" x="958.5" y="-83.5" font-family="Helvetica,sans-Serif" font-size="10.00">MR24FDB1::getScene</text>
</a>
</g>
</g>
<!-- Node433&#45;&gt;Node442 -->
<g id="edge17" class="edge">
<title>Node433&#45;&gt;Node442</title>
<path fill="none" stroke="midnightblue" d="M776.86,-200.91C795.95,-175.46 834.27,-129.46 878,-105 884.94,-101.12 892.64,-98.03 900.45,-95.57"/>
<polygon fill="midnightblue" stroke="midnightblue" points="773.82,-199.14 770.73,-209.28 779.46,-203.28 773.82,-199.14"/>
</g>
<!-- Node443 -->
<g id="node17" class="node">
<title>Node443</title>
<g id="a_node17"><a xlink:href="classMR24FDB1.html#a82a44a7291dd7b96de57a2d2cda10251" target="_top" xlink:title="get sensitivity parameter ">
<polygon fill="white" stroke="black" points="886.5,-38.5 886.5,-57.5 1030.5,-57.5 1030.5,-38.5 886.5,-38.5"/>
<text text-anchor="middle" x="958.5" y="-45.5" font-family="Helvetica,sans-Serif" font-size="10.00">MR24FDB1::getSensitivity</text>
</a>
</g>
</g>
<!-- Node433&#45;&gt;Node443 -->
<g id="edge18" class="edge">
<title>Node433&#45;&gt;Node443</title>
<path fill="none" stroke="midnightblue" d="M772.73,-200.03C788.75,-167.47 826,-101.14 878,-67 883.93,-63.11 890.58,-60.01 897.44,-57.54"/>
<polygon fill="midnightblue" stroke="midnightblue" points="769.44,-198.81 768.29,-209.34 775.76,-201.82 769.44,-198.81"/>
</g>
<!-- Node444 -->
<g id="node18" class="node">
<title>Node444</title>
<g id="a_node18"><a xlink:href="classMR24FDB1.html#af9b355c4127c5b937407b3e3b25217c7" target="_top" xlink:title="requests Software verion ">
<polygon fill="white" stroke="black" points="882.5,-0.5 882.5,-19.5 1034.5,-19.5 1034.5,-0.5 882.5,-0.5"/>
<text text-anchor="middle" x="958.5" y="-7.5" font-family="Helvetica,sans-Serif" font-size="10.00">MR24FDB1::getSoftwareVer</text>
</a>
</g>
</g>
<!-- Node433&#45;&gt;Node444 -->
<g id="edge19" class="edge">
<title>Node433&#45;&gt;Node444</title>
<path fill="none" stroke="midnightblue" d="M769.91,-199.69C782.81,-160.92 817.31,-73.48 878,-29 883.27,-25.14 889.2,-22.06 895.41,-19.59"/>
<polygon fill="midnightblue" stroke="midnightblue" points="766.56,-198.67 766.84,-209.27 773.22,-200.81 766.56,-198.67"/>
</g>
<!-- Node439&#45;&gt;Node430 -->
<g id="edge13" class="edge">
<title>Node439&#45;&gt;Node430</title>
<path fill="none" stroke="midnightblue" d="M1041.04,-200C1052.49,-200 1064.07,-200 1074.98,-200"/>
<polygon fill="midnightblue" stroke="midnightblue" points="1041.03,-196.5 1031.03,-200 1041.03,-203.5 1041.03,-196.5"/>
</g>
<!-- Node440&#45;&gt;Node430 -->
<g id="edge15" class="edge">
<title>Node440&#45;&gt;Node430</title>
<path fill="none" stroke="midnightblue" d="M1013.31,-173.75C1037.92,-179.13 1066.69,-185.41 1089.91,-190.48"/>
<polygon fill="midnightblue" stroke="midnightblue" points="1013.92,-170.3 1003.41,-171.59 1012.43,-177.14 1013.92,-170.3"/>
</g>
<!-- Node445&#45;&gt;Node429 -->
<g id="edge21" class="edge">
<title>Node445&#45;&gt;Node429</title>
<path fill="none" stroke="midnightblue" d="M337.07,-333.05C345.69,-333.98 354.36,-334.9 362.75,-335.8"/>
<polygon fill="midnightblue" stroke="midnightblue" points="337.32,-329.56 327,-331.98 336.58,-336.52 337.32,-329.56"/>
</g>
</g>
</svg>
        <g id="navigator" transform="translate(0 0)" fill="#404254">
                <rect fill="#f2f5e9" fill-opacity="0.5" stroke="#606060" stroke-width=".5" x="0" y="0" width="60" height="60"/>
                <use id="zoomplus" xlink:href="#zoomPlus" x="17" y="9" onmousedown="handleZoom(evt,'in')"/>
                <use id="zoomminus" xlink:href="#zoomMin" x="42" y="9" onmousedown="handleZoom(evt,'out')"/>
                <use id="reset" xlink:href="#resetDef" x="30" y="36" onmousedown="handleReset()"/>
                <g id="arrowUp" xlink:href="#dirArrow" transform="translate(30 24)" onmousedown="handlePan(0,-1)">
                  <use xlink:href="#rim" fill="#404040">
                        <set attributeName="fill" to="#808080" begin="arrowUp.mouseover" end="arrowUp.mouseout"/>
                  </use>
                  <path fill="none" stroke="white" stroke-width="1.5" d="M0,-3.0v7 M-2.5,-0.5L0,-3.0L2.5,-0.5"/>
                </g>
                <g id="arrowRight" xlink:href="#dirArrow" transform="rotate(90) translate(36 -43)" onmousedown="handlePan(1,0)">
                  <use xlink:href="#rim" fill="#404040">
                        <set attributeName="fill" to="#808080" begin="arrowRight.mouseover" end="arrowRight.mouseout"/>
                  </use>
                  <path fill="none" stroke="white" stroke-width="1.5" d="M0,-3.0v7 M-2.5,-0.5L0,-3.0L2.5,-0.5"/>
                </g>
                <g id="arrowDown" xlink:href="#dirArrow" transform="rotate(180) translate(-30 -48)" onmousedown="handlePan(0,1)">
                  <use xlink:href="#rim" fill="#404040">
                        <set attributeName="fill" to="#808080" begin="arrowDown.mouseover" end="arrowDown.mouseout"/>
                  </use>
                  <path fill="none" stroke="white" stroke-width="1.5" d="M0,-3.0v7 M-2.5,-0.5L0,-3.0L2.5,-0.5"/>
                </g>
                <g id="arrowLeft" xlink:href="#dirArrow" transform="rotate(270) translate(-36 17)" onmousedown="handlePan(-1,0)">
                  <use xlink:href="#rim" fill="#404040">
                        <set attributeName="fill" to="#808080" begin="arrowLeft.mouseover" end="arrowLeft.mouseout"/>
                  </use>
                  <path fill="none" stroke="white" stroke-width="1.5" d="M0,-3.0v7 M-2.5,-0.5L0,-3.0L2.5,-0.5"/>
                </g>
        </g>
        <svg viewBox="0 0 15 15" width="100%" height="30px" preserveAspectRatio="xMaxYMin meet">
         <g id="arrow_out" transform="scale(0.3 0.3)">
          <a xlink:href="classMR24FDB1_ae444c38bb80decf58cabe5b12005b819_icgraph_org.svg" target="_base">
           <rect id="button" ry="5" rx="5" y="6" x="6" height="38" width="38"
                fill="#f2f5e9" fill-opacity="0.5" stroke="#606060" stroke-width="1.0"/>
           <path id="arrow"
             d="M 11.500037,31.436501 C 11.940474,20.09759 22.043105,11.32322 32.158766,21.979434 L 37.068811,17.246167 C 37.068811,17.246167 37.088388,32 37.088388,32 L 22.160133,31.978069 C 22.160133,31.978069 26.997745,27.140456 26.997745,27.140456 C 18.528582,18.264221 13.291696,25.230495 11.500037,31.436501 z"
             style="fill:#404040;"/>
          </a>
         </g>
        </svg>
</svg>
