<?xml version="1.0" encoding="UTF-8" standalone="no"?>
<!DOCTYPE svg PUBLIC "-//W3C//DTD SVG 1.1//EN"
 "http://www.w3.org/Graphics/SVG/1.1/DTD/svg11.dtd">
<!-- Generated by graphviz version 2.43.0 (0)
 -->
<!-- Title: MR24FDB1::readPacket Pages: 1 -->
<svg width="324pt" height="66pt"
 viewBox="0.00 0.00 324.00 66.00" xmlns="http://www.w3.org/2000/svg" xmlns:xlink="http://www.w3.org/1999/xlink">
<g id="graph0" class="graph" transform="scale(1 1) rotate(0) translate(4 62)">
<title>MR24FDB1::readPacket</title>
<polygon fill="white" stroke="transparent" points="-4,4 -4,-62 320,-62 320,4 -4,4"/>
<!-- Node28 -->
<g id="node1" class="node">
<title>Node28</title>
<g id="a_node1"><a xlink:title="get a packet from the chip ">
<polygon fill="#bfbfbf" stroke="black" points="0,-19.5 0,-38.5 131,-38.5 131,-19.5 0,-19.5"/>
<text text-anchor="middle" x="65.5" y="-26.5" font-family="Helvetica,sans-Serif" font-size="10.00">MR24FDB1::readPacket</text>
</a>
</g>
</g>
<!-- Node29 -->
<g id="node2" class="node">
<title>Node29</title>
<g id="a_node2"><a xlink:href="classMR24FDB1.html#af7b82f23ec8f67c955ae413f4a078af0" target="_top" xlink:title="calculate crc16 of current packet ">
<polygon fill="white" stroke="black" points="167,-38.5 167,-57.5 316,-57.5 316,-38.5 167,-38.5"/>
<text text-anchor="middle" x="241.5" y="-45.5" font-family="Helvetica,sans-Serif" font-size="10.00">MR24FDB1::calculateCrc16</text>
</a>
</g>
</g>
<!-- Node28&#45;&gt;Node29 -->
<g id="edge1" class="edge">
<title>Node28&#45;&gt;Node29</title>
<path fill="none" stroke="midnightblue" d="M131.29,-36.07C139.62,-36.98 148.25,-37.93 156.83,-38.86"/>
<polygon fill="midnightblue" stroke="midnightblue" points="156.55,-42.35 166.87,-39.96 157.31,-35.39 156.55,-42.35"/>
</g>
<!-- Node30 -->
<g id="node3" class="node">
<title>Node30</title>
<g id="a_node3"><a xlink:href="classMR24FDB1.html#a3de11c024f9b20321cce5d98cd534c3e" target="_top" xlink:title="get one byte from serial ">
<polygon fill="white" stroke="black" points="181,-0.5 181,-19.5 302,-19.5 302,-0.5 181,-0.5"/>
<text text-anchor="middle" x="241.5" y="-7.5" font-family="Helvetica,sans-Serif" font-size="10.00">MR24FDB1::readByte</text>
</a>
</g>
</g>
<!-- Node28&#45;&gt;Node30 -->
<g id="edge2" class="edge">
<title>Node28&#45;&gt;Node30</title>
<path fill="none" stroke="midnightblue" d="M131.29,-21.93C144.1,-20.53 157.6,-19.05 170.57,-17.64"/>
<polygon fill="midnightblue" stroke="midnightblue" points="171.27,-21.08 180.83,-16.52 170.51,-14.12 171.27,-21.08"/>
</g>
</g>
</svg>
