<?xml version="1.0" encoding="UTF-8" standalone="no"?>
<!DOCTYPE svg PUBLIC "-//W3C//DTD SVG 1.1//EN"
 "http://www.w3.org/Graphics/SVG/1.1/DTD/svg11.dtd">
<!-- Generated by graphviz version 2.43.0 (0)
 -->
<!-- Title: MR24FDB1::getFallEnable Pages: 1 -->
<svg width="1087pt" height="218pt"
 viewBox="0.00 0.00 1087.00 218.00" xmlns="http://www.w3.org/2000/svg" xmlns:xlink="http://www.w3.org/1999/xlink">
<g id="graph0" class="graph" transform="scale(1 1) rotate(0) translate(4 214)">
<title>MR24FDB1::getFallEnable</title>
<polygon fill="white" stroke="transparent" points="-4,4 -4,-214 1083,-214 1083,4 -4,4"/>
<!-- Node289 -->
<g id="node1" class="node">
<title>Node289</title>
<g id="a_node1"><a xlink:title="get status of fall enable switch ">
<polygon fill="#bfbfbf" stroke="black" points="0,-114.5 0,-133.5 143,-133.5 143,-114.5 0,-114.5"/>
<text text-anchor="middle" x="71.5" y="-121.5" font-family="Helvetica,sans-Serif" font-size="10.00">MR24FDB1::getFallEnable</text>
</a>
</g>
</g>
<!-- Node290 -->
<g id="node2" class="node">
<title>Node290</title>
<g id="a_node2"><a xlink:href="classMR24FDB1.html#a7dfa1c269d0979718203f9202d4e8578" target="_top" xlink:title="send a &quot;GET&quot; packet to the module and wait for responce ">
<polygon fill="white" stroke="black" points="179,-114.5 179,-133.5 337,-133.5 337,-114.5 179,-114.5"/>
<text text-anchor="middle" x="258" y="-121.5" font-family="Helvetica,sans-Serif" font-size="10.00">MR24FDB1::sendGetAndWait</text>
</a>
</g>
</g>
<!-- Node289&#45;&gt;Node290 -->
<g id="edge1" class="edge">
<title>Node289&#45;&gt;Node290</title>
<path fill="none" stroke="midnightblue" d="M143.04,-124C151.45,-124 160.11,-124 168.73,-124"/>
<polygon fill="midnightblue" stroke="midnightblue" points="168.81,-127.5 178.81,-124 168.81,-120.5 168.81,-127.5"/>
</g>
<!-- Node291 -->
<g id="node3" class="node">
<title>Node291</title>
<g id="a_node3"><a xlink:href="classMR24FDB1.html#a4a5275f119bcbd82dd5a0d6a1d8defe5" target="_top" xlink:title="send a &quot;GET&quot; packet to the module ">
<polygon fill="white" stroke="black" points="373,-152.5 373,-171.5 490,-171.5 490,-152.5 373,-152.5"/>
<text text-anchor="middle" x="431.5" y="-159.5" font-family="Helvetica,sans-Serif" font-size="10.00">MR24FDB1::sendGet</text>
</a>
</g>
</g>
<!-- Node290&#45;&gt;Node291 -->
<g id="edge2" class="edge">
<title>Node290&#45;&gt;Node291</title>
<path fill="none" stroke="midnightblue" d="M302.28,-133.59C325.11,-138.65 353.32,-144.9 377.46,-150.25"/>
<polygon fill="midnightblue" stroke="midnightblue" points="377.01,-153.73 387.53,-152.48 378.53,-146.9 377.01,-153.73"/>
</g>
<!-- Node295 -->
<g id="node7" class="node">
<title>Node295</title>
<g id="a_node7"><a xlink:href="classMR24FDB1.html#a944e9bede6552294ea9940ae6fda3b96" target="_top" xlink:title="wait until packet of the specified type is recieved ">
<polygon fill="white" stroke="black" points="375,-95.5 375,-114.5 488,-114.5 488,-95.5 375,-95.5"/>
<text text-anchor="middle" x="431.5" y="-102.5" font-family="Helvetica,sans-Serif" font-size="10.00">MR24FDB1::waitFor</text>
</a>
</g>
</g>
<!-- Node290&#45;&gt;Node295 -->
<g id="edge6" class="edge">
<title>Node290&#45;&gt;Node295</title>
<path fill="none" stroke="midnightblue" d="M337.22,-115.33C346.46,-114.31 355.83,-113.27 364.87,-112.27"/>
<polygon fill="midnightblue" stroke="midnightblue" points="365.37,-115.74 374.92,-111.16 364.6,-108.78 365.37,-115.74"/>
</g>
<!-- Node292 -->
<g id="node4" class="node">
<title>Node292</title>
<g id="a_node4"><a xlink:href="classMR24FDB1.html#af148f4391ab1003e82d4497d8072aaa0" target="_top" xlink:title="calculate and add crc16 at end of buffer ">
<polygon fill="white" stroke="black" points="559,-152.5 559,-171.5 681,-171.5 681,-152.5 559,-152.5"/>
<text text-anchor="middle" x="620" y="-159.5" font-family="Helvetica,sans-Serif" font-size="10.00">MR24FDB1::addCrc16</text>
</a>
</g>
</g>
<!-- Node291&#45;&gt;Node292 -->
<g id="edge3" class="edge">
<title>Node291&#45;&gt;Node292</title>
<path fill="none" stroke="midnightblue" d="M490.23,-162C508.73,-162 529.42,-162 548.72,-162"/>
<polygon fill="midnightblue" stroke="midnightblue" points="548.96,-165.5 558.96,-162 548.96,-158.5 548.96,-165.5"/>
</g>
<!-- Node294 -->
<g id="node6" class="node">
<title>Node294</title>
<g id="a_node6"><a xlink:href="classMR24FDB1.html#a586848e9efe86b47520f92e049c502eb" target="_top" xlink:title="send a packet to the module ">
<polygon fill="white" stroke="black" points="554,-190.5 554,-209.5 686,-209.5 686,-190.5 554,-190.5"/>
<text text-anchor="middle" x="620" y="-197.5" font-family="Helvetica,sans-Serif" font-size="10.00">MR24FDB1::sendPacket</text>
</a>
</g>
</g>
<!-- Node291&#45;&gt;Node294 -->
<g id="edge5" class="edge">
<title>Node291&#45;&gt;Node294</title>
<path fill="none" stroke="midnightblue" d="M479.56,-171.59C504.73,-176.72 535.9,-183.07 562.38,-188.46"/>
<polygon fill="midnightblue" stroke="midnightblue" points="561.78,-191.91 572.28,-190.48 563.18,-185.05 561.78,-191.91"/>
</g>
<!-- Node293 -->
<g id="node5" class="node">
<title>Node293</title>
<g id="a_node5"><a xlink:href="classMR24FDB1.html#af7b82f23ec8f67c955ae413f4a078af0" target="_top" xlink:title="calculate crc16 of current packet ">
<polygon fill="white" stroke="black" points="752,-152.5 752,-171.5 901,-171.5 901,-152.5 752,-152.5"/>
<text text-anchor="middle" x="826.5" y="-159.5" font-family="Helvetica,sans-Serif" font-size="10.00">MR24FDB1::calculateCrc16</text>
</a>
</g>
</g>
<!-- Node292&#45;&gt;Node293 -->
<g id="edge4" class="edge">
<title>Node292&#45;&gt;Node293</title>
<path fill="none" stroke="midnightblue" d="M681.25,-162C700.2,-162 721.48,-162 741.75,-162"/>
<polygon fill="midnightblue" stroke="midnightblue" points="741.92,-165.5 751.92,-162 741.92,-158.5 741.92,-165.5"/>
</g>
<!-- Node296 -->
<g id="node8" class="node">
<title>Node296</title>
<g id="a_node8"><a xlink:href="classMR24FDB1.html#a8a6f5bebfe9e2f9232e58f0ff909042a" target="_top" xlink:title="parse packet ">
<polygon fill="white" stroke="black" points="552,-38.5 552,-57.5 688,-57.5 688,-38.5 552,-38.5"/>
<text text-anchor="middle" x="620" y="-45.5" font-family="Helvetica,sans-Serif" font-size="10.00">MR24FDB1::parsePacket</text>
</a>
</g>
</g>
<!-- Node295&#45;&gt;Node296 -->
<g id="edge7" class="edge">
<title>Node295&#45;&gt;Node296</title>
<path fill="none" stroke="midnightblue" d="M452.9,-95.43C471.58,-86.98 500.17,-74.81 526,-67 534.8,-64.34 544.19,-61.93 553.48,-59.8"/>
<polygon fill="midnightblue" stroke="midnightblue" points="554.49,-63.16 563.5,-57.59 552.98,-56.32 554.49,-63.16"/>
</g>
<!-- Node301 -->
<g id="node13" class="node">
<title>Node301</title>
<g id="a_node13"><a xlink:href="classMR24FDB1.html#a5e44c632274bde4a6e22f35d80a782f0" target="_top" xlink:title="get a packet from the chip ">
<polygon fill="white" stroke="black" points="554.5,-114.5 554.5,-133.5 685.5,-133.5 685.5,-114.5 554.5,-114.5"/>
<text text-anchor="middle" x="620" y="-121.5" font-family="Helvetica,sans-Serif" font-size="10.00">MR24FDB1::readPacket</text>
</a>
</g>
</g>
<!-- Node295&#45;&gt;Node301 -->
<g id="edge13" class="edge">
<title>Node295&#45;&gt;Node301</title>
<path fill="none" stroke="midnightblue" d="M488.2,-110.67C505.85,-112.47 525.66,-114.49 544.41,-116.4"/>
<polygon fill="midnightblue" stroke="midnightblue" points="544.1,-119.89 554.41,-117.42 544.81,-112.92 544.1,-119.89"/>
</g>
<!-- Node303 -->
<g id="node15" class="node">
<title>Node303</title>
<g id="a_node15"><a xlink:href="classMR24FDB1__Exception.html#a695552f5db7be7840c1af8650af0c235" target="_top" xlink:title="decode error from the Result,class,group , function etc... ">
<polygon fill="white" stroke="black" points="526,-76.5 526,-95.5 714,-95.5 714,-76.5 526,-76.5"/>
<text text-anchor="middle" x="620" y="-83.5" font-family="Helvetica,sans-Serif" font-size="10.00">MR24FDB1_Exception::decodeError</text>
</a>
</g>
</g>
<!-- Node295&#45;&gt;Node303 -->
<g id="edge16" class="edge">
<title>Node295&#45;&gt;Node303</title>
<path fill="none" stroke="midnightblue" d="M488.2,-99.33C497.05,-98.42 506.43,-97.47 515.95,-96.5"/>
<polygon fill="midnightblue" stroke="midnightblue" points="516.31,-99.98 525.91,-95.48 515.6,-93.02 516.31,-99.98"/>
</g>
<!-- Node297 -->
<g id="node9" class="node">
<title>Node297</title>
<g id="a_node9"><a xlink:href="classMR24FDB1.html#a2ccfe8221167944b882b5747b07dae22" target="_top" xlink:title="parse fall type packet ">
<polygon fill="white" stroke="black" points="750,-38.5 750,-57.5 903,-57.5 903,-38.5 750,-38.5"/>
<text text-anchor="middle" x="826.5" y="-45.5" font-family="Helvetica,sans-Serif" font-size="10.00">MR24FDB1::parseFallReport</text>
</a>
</g>
</g>
<!-- Node296&#45;&gt;Node297 -->
<g id="edge8" class="edge">
<title>Node296&#45;&gt;Node297</title>
<path fill="none" stroke="midnightblue" d="M688.24,-48C704.69,-48 722.51,-48 739.69,-48"/>
<polygon fill="midnightblue" stroke="midnightblue" points="739.72,-51.5 749.72,-48 739.72,-44.5 739.72,-51.5"/>
</g>
<!-- Node298 -->
<g id="node10" class="node">
<title>Node298</title>
<g id="a_node10"><a xlink:href="classMR24FDB1.html#a1759ec9442c191ee6ddc09137a9c0528" target="_top" xlink:title="parse report type packet ">
<polygon fill="white" stroke="black" points="758.5,-0.5 758.5,-19.5 894.5,-19.5 894.5,-0.5 758.5,-0.5"/>
<text text-anchor="middle" x="826.5" y="-7.5" font-family="Helvetica,sans-Serif" font-size="10.00">MR24FDB1::parseReport</text>
</a>
</g>
</g>
<!-- Node296&#45;&gt;Node298 -->
<g id="edge9" class="edge">
<title>Node296&#45;&gt;Node298</title>
<path fill="none" stroke="midnightblue" d="M672.34,-38.46C700.17,-33.29 734.77,-26.86 764.03,-21.42"/>
<polygon fill="midnightblue" stroke="midnightblue" points="764.95,-24.81 774.14,-19.54 763.67,-17.93 764.95,-24.81"/>
</g>
<!-- Node300 -->
<g id="node12" class="node">
<title>Node300</title>
<g id="a_node12"><a xlink:href="classMR24FDB1.html#a55ecfd4dffd4d04c97dcd6e6e264ad61" target="_top" xlink:title="parse reponce type packet ">
<polygon fill="white" stroke="black" points="751,-76.5 751,-95.5 902,-95.5 902,-76.5 751,-76.5"/>
<text text-anchor="middle" x="826.5" y="-83.5" font-family="Helvetica,sans-Serif" font-size="10.00">MR24FDB1::parseResponce</text>
</a>
</g>
</g>
<!-- Node296&#45;&gt;Node300 -->
<g id="edge11" class="edge">
<title>Node296&#45;&gt;Node300</title>
<path fill="none" stroke="midnightblue" d="M672.34,-57.54C700.17,-62.71 734.77,-69.14 764.03,-74.58"/>
<polygon fill="midnightblue" stroke="midnightblue" points="763.67,-78.07 774.14,-76.46 764.95,-71.19 763.67,-78.07"/>
</g>
<!-- Node299 -->
<g id="node11" class="node">
<title>Node299</title>
<g id="a_node11"><a xlink:href="classMR24FDB1.html#ae444c38bb80decf58cabe5b12005b819" target="_top" xlink:title="parse Radar group responces and reports ">
<polygon fill="white" stroke="black" points="939,-38.5 939,-57.5 1079,-57.5 1079,-38.5 939,-38.5"/>
<text text-anchor="middle" x="1009" y="-45.5" font-family="Helvetica,sans-Serif" font-size="10.00">MR24FDB1::decodeRadar</text>
</a>
</g>
</g>
<!-- Node298&#45;&gt;Node299 -->
<g id="edge10" class="edge">
<title>Node298&#45;&gt;Node299</title>
<path fill="none" stroke="midnightblue" d="M873.05,-19.59C897.3,-24.69 927.3,-31.01 952.86,-36.39"/>
<polygon fill="midnightblue" stroke="midnightblue" points="952.27,-39.84 962.78,-38.48 953.72,-32.99 952.27,-39.84"/>
</g>
<!-- Node300&#45;&gt;Node299 -->
<g id="edge12" class="edge">
<title>Node300&#45;&gt;Node299</title>
<path fill="none" stroke="midnightblue" d="M873.05,-76.41C897.3,-71.31 927.3,-64.99 952.86,-59.61"/>
<polygon fill="midnightblue" stroke="midnightblue" points="953.72,-63.01 962.78,-57.52 952.27,-56.16 953.72,-63.01"/>
</g>
<!-- Node301&#45;&gt;Node293 -->
<g id="edge14" class="edge">
<title>Node301&#45;&gt;Node293</title>
<path fill="none" stroke="midnightblue" d="M672.34,-133.54C700.17,-138.71 734.77,-145.14 764.03,-150.58"/>
<polygon fill="midnightblue" stroke="midnightblue" points="763.67,-154.07 774.14,-152.46 764.95,-147.19 763.67,-154.07"/>
</g>
<!-- Node302 -->
<g id="node14" class="node">
<title>Node302</title>
<g id="a_node14"><a xlink:href="classMR24FDB1.html#a3de11c024f9b20321cce5d98cd534c3e" target="_top" xlink:title="get one byte from serial ">
<polygon fill="white" stroke="black" points="766,-114.5 766,-133.5 887,-133.5 887,-114.5 766,-114.5"/>
<text text-anchor="middle" x="826.5" y="-121.5" font-family="Helvetica,sans-Serif" font-size="10.00">MR24FDB1::readByte</text>
</a>
</g>
</g>
<!-- Node301&#45;&gt;Node302 -->
<g id="edge15" class="edge">
<title>Node301&#45;&gt;Node302</title>
<path fill="none" stroke="midnightblue" d="M685.71,-124C707.93,-124 732.9,-124 755.52,-124"/>
<polygon fill="midnightblue" stroke="midnightblue" points="755.73,-127.5 765.73,-124 755.73,-120.5 755.73,-127.5"/>
</g>
</g>
</svg>
