<?xml version="1.0" encoding="UTF-8" standalone="no"?>
<!DOCTYPE svg PUBLIC "-//W3C//DTD SVG 1.1//EN"
 "http://www.w3.org/Graphics/SVG/1.1/DTD/svg11.dtd">
<!-- Generated by graphviz version 2.43.0 (0)
 -->
<!-- Title: MR24FDB1::sendPacket Pages: 1 -->
<svg width="854pt" height="484pt"
 viewBox="0.00 0.00 854.00 484.00" xmlns="http://www.w3.org/2000/svg" xmlns:xlink="http://www.w3.org/1999/xlink">
<g id="graph0" class="graph" transform="scale(1 1) rotate(0) translate(4 480)">
<title>MR24FDB1::sendPacket</title>
<polygon fill="white" stroke="transparent" points="-4,4 -4,-480 850,-480 850,4 -4,4"/>
<!-- Node447 -->
<g id="node1" class="node">
<title>Node447</title>
<g id="a_node1"><a xlink:title="send a packet to the module ">
<polygon fill="#bfbfbf" stroke="black" points="0,-152.5 0,-171.5 132,-171.5 132,-152.5 0,-152.5"/>
<text text-anchor="middle" x="66" y="-159.5" font-family="Helvetica,sans-Serif" font-size="10.00">MR24FDB1::sendPacket</text>
</a>
</g>
</g>
<!-- Node448 -->
<g id="node2" class="node">
<title>Node448</title>
<g id="a_node2"><a xlink:href="classMR24FDB1.html#a4a5275f119bcbd82dd5a0d6a1d8defe5" target="_top" xlink:title="send a &quot;GET&quot; packet to the module ">
<polygon fill="white" stroke="black" points="168,-218.5 168,-237.5 285,-237.5 285,-218.5 168,-218.5"/>
<text text-anchor="middle" x="226.5" y="-225.5" font-family="Helvetica,sans-Serif" font-size="10.00">MR24FDB1::sendGet</text>
</a>
</g>
</g>
<!-- Node447&#45;&gt;Node448 -->
<g id="edge1" class="edge">
<title>Node447&#45;&gt;Node448</title>
<path fill="none" stroke="midnightblue" d="M99.47,-175.52C130.22,-188.32 175.59,-207.22 202.68,-218.5"/>
<polygon fill="midnightblue" stroke="midnightblue" points="100.62,-172.21 90.05,-171.6 97.93,-178.67 100.62,-172.21"/>
</g>
<!-- Node462 -->
<g id="node16" class="node">
<title>Node462</title>
<g id="a_node16"><a xlink:href="classMR24FDB1.html#a465db085a7c6388ad7ba874d2adef8a3" target="_top" xlink:title="send a &quot;GET&quot; packet to the module ">
<polygon fill="white" stroke="black" points="168.5,-133.5 168.5,-152.5 284.5,-152.5 284.5,-133.5 168.5,-133.5"/>
<text text-anchor="middle" x="226.5" y="-140.5" font-family="Helvetica,sans-Serif" font-size="10.00">MR24FDB1::sendSet</text>
</a>
</g>
</g>
<!-- Node447&#45;&gt;Node462 -->
<g id="edge16" class="edge">
<title>Node447&#45;&gt;Node462</title>
<path fill="none" stroke="midnightblue" d="M142.53,-152.95C151.23,-151.9 159.98,-150.85 168.37,-149.85"/>
<polygon fill="midnightblue" stroke="midnightblue" points="141.9,-149.5 132.38,-154.16 142.73,-156.45 141.9,-149.5"/>
</g>
<!-- Node449 -->
<g id="node3" class="node">
<title>Node449</title>
<g id="a_node3"><a xlink:href="classMR24FDB1.html#a7dfa1c269d0979718203f9202d4e8578" target="_top" xlink:title="send a &quot;GET&quot; packet to the module and wait for responce ">
<polygon fill="white" stroke="black" points="328.5,-266.5 328.5,-285.5 486.5,-285.5 486.5,-266.5 328.5,-266.5"/>
<text text-anchor="middle" x="407.5" y="-273.5" font-family="Helvetica,sans-Serif" font-size="10.00">MR24FDB1::sendGetAndWait</text>
</a>
</g>
</g>
<!-- Node448&#45;&gt;Node449 -->
<g id="edge2" class="edge">
<title>Node448&#45;&gt;Node449</title>
<path fill="none" stroke="midnightblue" d="M266.35,-240.83C283.08,-246.15 302.91,-252.19 321,-257 333.64,-260.36 347.43,-263.6 360.18,-266.43"/>
<polygon fill="midnightblue" stroke="midnightblue" points="266.97,-237.36 256.38,-237.63 264.83,-244.02 266.97,-237.36"/>
</g>
<!-- Node450 -->
<g id="node4" class="node">
<title>Node450</title>
<g id="a_node4"><a xlink:href="classMR24FDB1.html#a6a61bdca02e1a9ab2c6ab83c3ee2ff21" target="_top" xlink:title="requests Device Id ">
<polygon fill="white" stroke="black" points="543,-456.5 543,-475.5 678,-475.5 678,-456.5 543,-456.5"/>
<text text-anchor="middle" x="610.5" y="-463.5" font-family="Helvetica,sans-Serif" font-size="10.00">MR24FDB1::getDeviceId</text>
</a>
</g>
</g>
<!-- Node449&#45;&gt;Node450 -->
<g id="edge3" class="edge">
<title>Node449&#45;&gt;Node450</title>
<path fill="none" stroke="midnightblue" d="M416.38,-294.85C432.29,-330.49 471.76,-407.68 530,-447 535.76,-450.89 542.23,-453.99 548.93,-456.45"/>
<polygon fill="midnightblue" stroke="midnightblue" points="419.55,-293.37 412.36,-285.59 413.13,-296.16 419.55,-293.37"/>
</g>
<!-- Node451 -->
<g id="node5" class="node">
<title>Node451</title>
<g id="a_node5"><a xlink:href="classMR24FDB1.html#a10ef6d7b6a0d7819b84361c907604fe0" target="_top" xlink:title="get status of fall enable switch ">
<polygon fill="white" stroke="black" points="539,-418.5 539,-437.5 682,-437.5 682,-418.5 539,-418.5"/>
<text text-anchor="middle" x="610.5" y="-425.5" font-family="Helvetica,sans-Serif" font-size="10.00">MR24FDB1::getFallEnable</text>
</a>
</g>
</g>
<!-- Node449&#45;&gt;Node451 -->
<g id="edge4" class="edge">
<title>Node449&#45;&gt;Node451</title>
<path fill="none" stroke="midnightblue" d="M420.11,-294.62C439.27,-323.75 480.38,-379.75 530,-409 536.6,-412.89 543.96,-415.99 551.45,-418.45"/>
<polygon fill="midnightblue" stroke="midnightblue" points="422.82,-292.38 414.47,-285.86 416.93,-296.16 422.82,-292.38"/>
</g>
<!-- Node452 -->
<g id="node6" class="node">
<title>Node452</title>
<g id="a_node6"><a xlink:href="classMR24FDB1.html#a122352e437a57083aba3823b512e2c31" target="_top" xlink:title="get status of fall sensitivty setting ">
<polygon fill="white" stroke="black" points="530,-380.5 530,-399.5 691,-399.5 691,-380.5 530,-380.5"/>
<text text-anchor="middle" x="610.5" y="-387.5" font-family="Helvetica,sans-Serif" font-size="10.00">MR24FDB1::getFallSensitivity</text>
</a>
</g>
</g>
<!-- Node449&#45;&gt;Node452 -->
<g id="edge5" class="edge">
<title>Node449&#45;&gt;Node452</title>
<path fill="none" stroke="midnightblue" d="M425.12,-292.89C447.14,-314.29 488.11,-350.81 530,-371 537.93,-374.82 546.68,-377.9 555.39,-380.38"/>
<polygon fill="midnightblue" stroke="midnightblue" points="427.47,-290.29 417.9,-285.75 422.55,-295.27 427.47,-290.29"/>
</g>
<!-- Node453 -->
<g id="node7" class="node">
<title>Node453</title>
<g id="a_node7"><a xlink:href="classMR24FDB1.html#a6e729c642bc4f67e6ce076fb0fa2aa3e" target="_top" xlink:title="get status of fall warning time setting ">
<polygon fill="white" stroke="black" points="531,-342.5 531,-361.5 690,-361.5 690,-342.5 531,-342.5"/>
<text text-anchor="middle" x="610.5" y="-349.5" font-family="Helvetica,sans-Serif" font-size="10.00">MR24FDB1::getFallWarnTime</text>
</a>
</g>
</g>
<!-- Node449&#45;&gt;Node453 -->
<g id="edge6" class="edge">
<title>Node449&#45;&gt;Node453</title>
<path fill="none" stroke="midnightblue" d="M435.05,-290.39C459.23,-303.02 496.22,-321.18 530,-333 540.31,-336.61 551.62,-339.77 562.38,-342.42"/>
<polygon fill="midnightblue" stroke="midnightblue" points="436.61,-287.25 426.13,-285.68 433.34,-293.44 436.61,-287.25"/>
</g>
<!-- Node454 -->
<g id="node8" class="node">
<title>Node454</title>
<g id="a_node8"><a xlink:href="classMR24FDB1.html#a9c858e6eae2bf95de4340b7bb4fe07e7" target="_top" xlink:title="requests Hardware version ">
<polygon fill="white" stroke="black" points="532.5,-304.5 532.5,-323.5 688.5,-323.5 688.5,-304.5 532.5,-304.5"/>
<text text-anchor="middle" x="610.5" y="-311.5" font-family="Helvetica,sans-Serif" font-size="10.00">MR24FDB1::getHardwareVer</text>
</a>
</g>
</g>
<!-- Node449&#45;&gt;Node454 -->
<g id="edge7" class="edge">
<title>Node449&#45;&gt;Node454</title>
<path fill="none" stroke="midnightblue" d="M468.9,-287.42C497.66,-292.86 531.66,-299.28 559.02,-304.46"/>
<polygon fill="midnightblue" stroke="midnightblue" points="469.44,-283.96 458.96,-285.54 468.14,-290.84 469.44,-283.96"/>
</g>
<!-- Node455 -->
<g id="node9" class="node">
<title>Node455</title>
<g id="a_node9"><a xlink:href="classMR24FDB1.html#ab090aa5731fa4e348a33588f682f1a16" target="_top" xlink:title="get movement ">
<polygon fill="white" stroke="black" points="538,-266.5 538,-285.5 683,-285.5 683,-266.5 538,-266.5"/>
<text text-anchor="middle" x="610.5" y="-273.5" font-family="Helvetica,sans-Serif" font-size="10.00">MR24FDB1::getMovement</text>
</a>
</g>
</g>
<!-- Node449&#45;&gt;Node455 -->
<g id="edge8" class="edge">
<title>Node449&#45;&gt;Node455</title>
<path fill="none" stroke="midnightblue" d="M497.16,-276C510.81,-276 524.77,-276 537.99,-276"/>
<polygon fill="midnightblue" stroke="midnightblue" points="496.79,-272.5 486.79,-276 496.79,-279.5 496.79,-272.5"/>
</g>
<!-- Node457 -->
<g id="node11" class="node">
<title>Node457</title>
<g id="a_node11"><a xlink:href="classMR24FDB1.html#af5bcb06d3788fb4743e2f750a6e4a149" target="_top" xlink:title="get presence from module ">
<polygon fill="white" stroke="black" points="542,-228.5 542,-247.5 679,-247.5 679,-228.5 542,-228.5"/>
<text text-anchor="middle" x="610.5" y="-235.5" font-family="Helvetica,sans-Serif" font-size="10.00">MR24FDB1::getPresence</text>
</a>
</g>
</g>
<!-- Node449&#45;&gt;Node457 -->
<g id="edge10" class="edge">
<title>Node449&#45;&gt;Node457</title>
<path fill="none" stroke="midnightblue" d="M468.9,-264.58C497.66,-259.14 531.66,-252.72 559.02,-247.54"/>
<polygon fill="midnightblue" stroke="midnightblue" points="468.14,-261.16 458.96,-266.46 469.44,-268.04 468.14,-261.16"/>
</g>
<!-- Node458 -->
<g id="node12" class="node">
<title>Node458</title>
<g id="a_node12"><a xlink:href="classMR24FDB1.html#a206d007330f0b2f9c76b070e215dbb05" target="_top" xlink:title="request Protocol Version ">
<polygon fill="white" stroke="black" points="536,-190.5 536,-209.5 685,-209.5 685,-190.5 536,-190.5"/>
<text text-anchor="middle" x="610.5" y="-197.5" font-family="Helvetica,sans-Serif" font-size="10.00">MR24FDB1::getProtocolVer</text>
</a>
</g>
</g>
<!-- Node449&#45;&gt;Node458 -->
<g id="edge12" class="edge">
<title>Node449&#45;&gt;Node458</title>
<path fill="none" stroke="midnightblue" d="M481.45,-262.99C485.8,-261.24 490.02,-259.25 494,-257 514.24,-245.53 509.85,-230.63 530,-219 536.76,-215.1 544.28,-212 551.93,-209.53"/>
<polygon fill="midnightblue" stroke="midnightblue" points="479.98,-259.8 471.74,-266.46 482.34,-266.39 479.98,-259.8"/>
</g>
<!-- Node459 -->
<g id="node13" class="node">
<title>Node459</title>
<g id="a_node13"><a xlink:href="classMR24FDB1.html#adc620372e2ccd4d3dece13bfe8c8424e" target="_top" xlink:title="get scene parameter ">
<polygon fill="white" stroke="black" points="549.5,-152.5 549.5,-171.5 671.5,-171.5 671.5,-152.5 549.5,-152.5"/>
<text text-anchor="middle" x="610.5" y="-159.5" font-family="Helvetica,sans-Serif" font-size="10.00">MR24FDB1::getScene</text>
</a>
</g>
</g>
<!-- Node449&#45;&gt;Node459 -->
<g id="edge13" class="edge">
<title>Node449&#45;&gt;Node459</title>
<path fill="none" stroke="midnightblue" d="M487.44,-261.58C489.73,-260.18 491.92,-258.66 494,-257 523.21,-233.69 500.97,-204.55 530,-181 535.73,-176.35 542.41,-172.81 549.43,-170.11"/>
<polygon fill="midnightblue" stroke="midnightblue" points="485.5,-258.64 478.24,-266.35 488.73,-264.85 485.5,-258.64"/>
</g>
<!-- Node460 -->
<g id="node14" class="node">
<title>Node460</title>
<g id="a_node14"><a xlink:href="classMR24FDB1.html#a82a44a7291dd7b96de57a2d2cda10251" target="_top" xlink:title="get sensitivity parameter ">
<polygon fill="white" stroke="black" points="538.5,-114.5 538.5,-133.5 682.5,-133.5 682.5,-114.5 538.5,-114.5"/>
<text text-anchor="middle" x="610.5" y="-121.5" font-family="Helvetica,sans-Serif" font-size="10.00">MR24FDB1::getSensitivity</text>
</a>
</g>
</g>
<!-- Node449&#45;&gt;Node460 -->
<g id="edge14" class="edge">
<title>Node449&#45;&gt;Node460</title>
<path fill="none" stroke="midnightblue" d="M488.67,-261.29C490.53,-259.97 492.31,-258.54 494,-257 533.17,-221.1 491.11,-179.21 530,-143 534.05,-139.23 538.71,-136.17 543.7,-133.68"/>
<polygon fill="midnightblue" stroke="midnightblue" points="486.86,-258.3 480.05,-266.42 490.44,-264.32 486.86,-258.3"/>
</g>
<!-- Node461 -->
<g id="node15" class="node">
<title>Node461</title>
<g id="a_node15"><a xlink:href="classMR24FDB1.html#af9b355c4127c5b937407b3e3b25217c7" target="_top" xlink:title="requests Software verion ">
<polygon fill="white" stroke="black" points="534.5,-76.5 534.5,-95.5 686.5,-95.5 686.5,-76.5 534.5,-76.5"/>
<text text-anchor="middle" x="610.5" y="-83.5" font-family="Helvetica,sans-Serif" font-size="10.00">MR24FDB1::getSoftwareVer</text>
</a>
</g>
</g>
<!-- Node449&#45;&gt;Node461 -->
<g id="edge15" class="edge">
<title>Node449&#45;&gt;Node461</title>
<path fill="none" stroke="midnightblue" d="M489.9,-260.62C491.33,-259.49 492.7,-258.28 494,-257 543.43,-208.25 480.96,-154.14 530,-105 533.81,-101.18 538.24,-98.08 543.02,-95.56"/>
<polygon fill="midnightblue" stroke="midnightblue" points="487.63,-257.93 481.17,-266.32 491.46,-263.79 487.63,-257.93"/>
</g>
<!-- Node456 -->
<g id="node10" class="node">
<title>Node456</title>
<g id="a_node10"><a xlink:href="classMR24FDB1.html#a0c0b8071f5d90b32f3c109ff71ff2ec0" target="_top" xlink:title="send test ">
<polygon fill="white" stroke="black" points="727,-247.5 727,-266.5 846,-266.5 846,-247.5 727,-247.5"/>
<text text-anchor="middle" x="786.5" y="-254.5" font-family="Helvetica,sans-Serif" font-size="10.00">MR24FDB1::testSend</text>
</a>
</g>
</g>
<!-- Node455&#45;&gt;Node456 -->
<g id="edge9" class="edge">
<title>Node455&#45;&gt;Node456</title>
<path fill="none" stroke="midnightblue" d="M693.04,-267.1C704.49,-265.85 716.07,-264.58 726.98,-263.39"/>
<polygon fill="midnightblue" stroke="midnightblue" points="692.59,-263.62 683.03,-268.19 693.35,-270.58 692.59,-263.62"/>
</g>
<!-- Node457&#45;&gt;Node456 -->
<g id="edge11" class="edge">
<title>Node457&#45;&gt;Node456</title>
<path fill="none" stroke="midnightblue" d="M689.33,-246.5C701.97,-247.88 714.87,-249.29 726.95,-250.61"/>
<polygon fill="midnightblue" stroke="midnightblue" points="689.59,-243.01 679.27,-245.4 688.83,-249.97 689.59,-243.01"/>
</g>
<!-- Node463 -->
<g id="node17" class="node">
<title>Node463</title>
<g id="a_node17"><a xlink:href="classMR24FDB1.html#a23542b21cc78944a36d941eb4eaaf29d" target="_top" xlink:title="reboot ">
<polygon fill="white" stroke="black" points="353.5,-228.5 353.5,-247.5 461.5,-247.5 461.5,-228.5 353.5,-228.5"/>
<text text-anchor="middle" x="407.5" y="-235.5" font-family="Helvetica,sans-Serif" font-size="10.00">MR24FDB1::reboot</text>
</a>
</g>
</g>
<!-- Node462&#45;&gt;Node463 -->
<g id="edge17" class="edge">
<title>Node462&#45;&gt;Node463</title>
<path fill="none" stroke="midnightblue" d="M243.39,-159.91C260.78,-177.39 290.3,-204.15 321,-219 330.99,-223.83 342.24,-227.46 353.21,-230.16"/>
<polygon fill="midnightblue" stroke="midnightblue" points="245.77,-157.34 236.29,-152.61 240.75,-162.22 245.77,-157.34"/>
</g>
<!-- Node464 -->
<g id="node18" class="node">
<title>Node464</title>
<g id="a_node18"><a xlink:href="classMR24FDB1.html#a1546763c4f1cb5ffca8f9bebd1a01edd" target="_top" xlink:title="enable / disable fall detection ">
<polygon fill="white" stroke="black" points="337,-190.5 337,-209.5 478,-209.5 478,-190.5 337,-190.5"/>
<text text-anchor="middle" x="407.5" y="-197.5" font-family="Helvetica,sans-Serif" font-size="10.00">MR24FDB1::setFallDetect</text>
</a>
</g>
</g>
<!-- Node462&#45;&gt;Node464 -->
<g id="edge18" class="edge">
<title>Node462&#45;&gt;Node464</title>
<path fill="none" stroke="midnightblue" d="M257.73,-156.79C275.81,-164.66 299.41,-174.26 321,-181 332.47,-184.58 345,-187.76 356.85,-190.44"/>
<polygon fill="midnightblue" stroke="midnightblue" points="258.86,-153.46 248.3,-152.63 256.03,-159.87 258.86,-153.46"/>
</g>
<!-- Node465 -->
<g id="node19" class="node">
<title>Node465</title>
<g id="a_node19"><a xlink:href="classMR24FDB1.html#a58a9040e025d0546198d2255fe06ac95" target="_top" xlink:title="set fall detection sensitivity ">
<polygon fill="white" stroke="black" points="327,-152.5 327,-171.5 488,-171.5 488,-152.5 327,-152.5"/>
<text text-anchor="middle" x="407.5" y="-159.5" font-family="Helvetica,sans-Serif" font-size="10.00">MR24FDB1::setFallSensitivity</text>
</a>
</g>
</g>
<!-- Node462&#45;&gt;Node465 -->
<g id="edge19" class="edge">
<title>Node462&#45;&gt;Node465</title>
<path fill="none" stroke="midnightblue" d="M294.87,-150.15C305.27,-151.26 316.1,-152.4 326.75,-153.53"/>
<polygon fill="midnightblue" stroke="midnightblue" points="294.94,-146.64 284.63,-149.06 294.2,-153.6 294.94,-146.64"/>
</g>
<!-- Node466 -->
<g id="node20" class="node">
<title>Node466</title>
<g id="a_node20"><a xlink:href="classMR24FDB1.html#a4b764eab220a44327e80f7a5a8dd93ed" target="_top" xlink:title="set fall warn time parameter ">
<polygon fill="white" stroke="black" points="328.5,-114.5 328.5,-133.5 486.5,-133.5 486.5,-114.5 328.5,-114.5"/>
<text text-anchor="middle" x="407.5" y="-121.5" font-family="Helvetica,sans-Serif" font-size="10.00">MR24FDB1::setFallWarnTime</text>
</a>
</g>
</g>
<!-- Node462&#45;&gt;Node466 -->
<g id="edge20" class="edge">
<title>Node462&#45;&gt;Node466</title>
<path fill="none" stroke="midnightblue" d="M294.59,-135.88C305.61,-134.71 317.11,-133.49 328.37,-132.29"/>
<polygon fill="midnightblue" stroke="midnightblue" points="294.2,-132.4 284.63,-136.94 294.94,-139.36 294.2,-132.4"/>
</g>
<!-- Node467 -->
<g id="node21" class="node">
<title>Node467</title>
<g id="a_node21"><a xlink:href="classMR24FDB1.html#a00c0a4485d6cc500242439acd036db97" target="_top" xlink:title="set scene ">
<polygon fill="white" stroke="black" points="347,-76.5 347,-95.5 468,-95.5 468,-76.5 347,-76.5"/>
<text text-anchor="middle" x="407.5" y="-83.5" font-family="Helvetica,sans-Serif" font-size="10.00">MR24FDB1::setScene</text>
</a>
</g>
</g>
<!-- Node462&#45;&gt;Node467 -->
<g id="edge21" class="edge">
<title>Node462&#45;&gt;Node467</title>
<path fill="none" stroke="midnightblue" d="M257.73,-129.21C275.81,-121.34 299.41,-111.74 321,-105 332.47,-101.42 345,-98.24 356.85,-95.56"/>
<polygon fill="midnightblue" stroke="midnightblue" points="256.03,-126.13 248.3,-133.37 258.86,-132.54 256.03,-126.13"/>
</g>
<!-- Node468 -->
<g id="node22" class="node">
<title>Node468</title>
<g id="a_node22"><a xlink:href="classMR24FDB1.html#aebffae5417dedbcc48b35e34b2d2ab13" target="_top" xlink:title="set sensitivity ">
<polygon fill="white" stroke="black" points="336,-38.5 336,-57.5 479,-57.5 479,-38.5 336,-38.5"/>
<text text-anchor="middle" x="407.5" y="-45.5" font-family="Helvetica,sans-Serif" font-size="10.00">MR24FDB1::setSensitivity</text>
</a>
</g>
</g>
<!-- Node462&#45;&gt;Node468 -->
<g id="edge22" class="edge">
<title>Node462&#45;&gt;Node468</title>
<path fill="none" stroke="midnightblue" d="M243.39,-126.09C260.78,-108.61 290.3,-81.85 321,-67 328.94,-63.16 337.67,-60.08 346.43,-57.62"/>
<polygon fill="midnightblue" stroke="midnightblue" points="240.75,-123.78 236.29,-133.39 245.77,-128.66 240.75,-123.78"/>
</g>
<!-- Node469 -->
<g id="node23" class="node">
<title>Node469</title>
<g id="a_node23"><a xlink:href="classMR24FDB1.html#a2c1248a5844a078916d833e9a868fb75" target="_top" xlink:title="set unoccupied timeut ">
<polygon fill="white" stroke="black" points="321,-0.5 321,-19.5 494,-19.5 494,-0.5 321,-0.5"/>
<text text-anchor="middle" x="407.5" y="-7.5" font-family="Helvetica,sans-Serif" font-size="10.00">MR24FDB1::setUnoccupiedTime</text>
</a>
</g>
</g>
<!-- Node462&#45;&gt;Node469 -->
<g id="edge23" class="edge">
<title>Node462&#45;&gt;Node469</title>
<path fill="none" stroke="midnightblue" d="M237.38,-124.45C252.07,-98.78 282.14,-52.9 321,-29 327.35,-25.1 334.4,-21.99 341.65,-19.52"/>
<polygon fill="midnightblue" stroke="midnightblue" points="234.31,-122.76 232.52,-133.21 240.44,-126.16 234.31,-122.76"/>
</g>
</g>
</svg>
