<?xml version="1.0" encoding="UTF-8" standalone="no"?>
<!DOCTYPE svg PUBLIC "-//W3C//DTD SVG 1.1//EN"
 "http://www.w3.org/Graphics/SVG/1.1/DTD/svg11.dtd">
<!-- Generated by graphviz version 2.43.0 (0)
 -->
<!-- Title: MR24FDB1::reboot Pages: 1 -->
<!--zoomable 218 -->
<svg id="main" version="1.1" xmlns="http://www.w3.org/2000/svg" xmlns:xlink="http://www.w3.org/1999/xlink" xml:space="preserve" onload="init(evt)">
<style type="text/css"><![CDATA[
.edge:hover path { stroke: red; }
.edge:hover polygon { stroke: red; fill: red; }
]]></style>
<script type="text/javascript"><![CDATA[
var edges = document.getElementsByTagName('g');
if (edges && edges.length) {
  for (var i=0;i<edges.length;i++) {
    if (edges[i].id.substr(0,4)=='edge') {
      edges[i].setAttribute('class','edge');
    }
  }
}
]]></script>
        <defs>
                <circle id="rim" cx="0" cy="0" r="7"/>
                <circle id="rim2" cx="0" cy="0" r="3.5"/>
                <g id="zoomPlus">
                        <use xlink:href="#rim" fill="#404040">
                                <set attributeName="fill" to="#808080" begin="zoomplus.mouseover" end="zoomplus.mouseout"/>
                        </use>
                        <path d="M-4,0h8M0,-4v8" fill="none" stroke="white" stroke-width="1.5" pointer-events="none"/>
                </g>
                <g id="zoomMin">
                        <use xlink:href="#rim" fill="#404040">
                                <set attributeName="fill" to="#808080" begin="zoomminus.mouseover" end="zoomminus.mouseout"/>
                        </use>
                        <path d="M-4,0h8" fill="none" stroke="white" stroke-width="1.5" pointer-events="none"/>
                </g>
                <g id="dirArrow">
                        <path fill="none" stroke="white" stroke-width="1.5" d="M0,-3.0v7 M-2.5,-0.5L0,-3.0L2.5,-0.5"/>
                </g>
               <g id="resetDef">
                       <use xlink:href="#rim2" fill="#404040">
                               <set attributeName="fill" to="#808080" begin="reset.mouseover" end="reset.mouseout"/>
                       </use>
               </g>
        </defs>

<script type="text/javascript">
var viewWidth = 857;
var viewHeight = 218;
var sectionId = 'dynsection-31';
</script>
<script xlink:href="svgpan.js"/>
<svg id="graph" class="graph">
<g id="viewport">
<title>MR24FDB1::reboot</title>
<polygon fill="white" stroke="transparent" points="-4,4 -4,-214 853,-214 853,4 -4,4"/>
<!-- Node367 -->
<g id="node1" class="node">
<title>Node367</title>
<g id="a_node1"><a xlink:title="reboot ">
<polygon fill="#bfbfbf" stroke="black" points="0,-114.5 0,-133.5 108,-133.5 108,-114.5 0,-114.5"/>
<text text-anchor="middle" x="54" y="-121.5" font-family="Helvetica,sans-Serif" font-size="10.00">MR24FDB1::reboot</text>
</a>
</g>
</g>
<!-- Node368 -->
<g id="node2" class="node">
<title>Node368</title>
<g id="a_node2"><a xlink:href="classMR24FDB1.html#a465db085a7c6388ad7ba874d2adef8a3" target="_top" xlink:title="send a &quot;GET&quot; packet to the module ">
<polygon fill="white" stroke="black" points="144,-152.5 144,-171.5 260,-171.5 260,-152.5 144,-152.5"/>
<text text-anchor="middle" x="202" y="-159.5" font-family="Helvetica,sans-Serif" font-size="10.00">MR24FDB1::sendSet</text>
</a>
</g>
</g>
<!-- Node367&#45;&gt;Node368 -->
<g id="edge1" class="edge">
<title>Node367&#45;&gt;Node368</title>
<path fill="none" stroke="midnightblue" d="M91.84,-133.59C110.85,-138.54 134.23,-144.62 154.47,-149.89"/>
<polygon fill="midnightblue" stroke="midnightblue" points="153.86,-153.35 164.42,-152.48 155.63,-146.57 153.86,-153.35"/>
</g>
<!-- Node372 -->
<g id="node6" class="node">
<title>Node372</title>
<g id="a_node6"><a xlink:href="classMR24FDB1.html#a944e9bede6552294ea9940ae6fda3b96" target="_top" xlink:title="wait until packet of the specified type is recieved ">
<polygon fill="white" stroke="black" points="145.5,-95.5 145.5,-114.5 258.5,-114.5 258.5,-95.5 145.5,-95.5"/>
<text text-anchor="middle" x="202" y="-102.5" font-family="Helvetica,sans-Serif" font-size="10.00">MR24FDB1::waitFor</text>
</a>
</g>
</g>
<!-- Node367&#45;&gt;Node372 -->
<g id="edge5" class="edge">
<title>Node367&#45;&gt;Node372</title>
<path fill="none" stroke="midnightblue" d="M108.12,-117.09C116.89,-115.95 126.07,-114.75 135.11,-113.58"/>
<polygon fill="midnightblue" stroke="midnightblue" points="135.75,-117.02 145.21,-112.26 134.85,-110.08 135.75,-117.02"/>
</g>
<!-- Node369 -->
<g id="node3" class="node">
<title>Node369</title>
<g id="a_node3"><a xlink:href="classMR24FDB1.html#af148f4391ab1003e82d4497d8072aaa0" target="_top" xlink:title="calculate and add crc16 at end of buffer ">
<polygon fill="white" stroke="black" points="329,-152.5 329,-171.5 451,-171.5 451,-152.5 329,-152.5"/>
<text text-anchor="middle" x="390" y="-159.5" font-family="Helvetica,sans-Serif" font-size="10.00">MR24FDB1::addCrc16</text>
</a>
</g>
</g>
<!-- Node368&#45;&gt;Node369 -->
<g id="edge2" class="edge">
<title>Node368&#45;&gt;Node369</title>
<path fill="none" stroke="midnightblue" d="M260.07,-162C278.54,-162 299.24,-162 318.55,-162"/>
<polygon fill="midnightblue" stroke="midnightblue" points="318.81,-165.5 328.81,-162 318.81,-158.5 318.81,-165.5"/>
</g>
<!-- Node371 -->
<g id="node5" class="node">
<title>Node371</title>
<g id="a_node5"><a xlink:href="classMR24FDB1.html#a586848e9efe86b47520f92e049c502eb" target="_top" xlink:title="send a packet to the module ">
<polygon fill="white" stroke="black" points="324,-190.5 324,-209.5 456,-209.5 456,-190.5 324,-190.5"/>
<text text-anchor="middle" x="390" y="-197.5" font-family="Helvetica,sans-Serif" font-size="10.00">MR24FDB1::sendPacket</text>
</a>
</g>
</g>
<!-- Node368&#45;&gt;Node371 -->
<g id="edge4" class="edge">
<title>Node368&#45;&gt;Node371</title>
<path fill="none" stroke="midnightblue" d="M249.94,-171.59C275.03,-176.72 306.12,-183.07 332.53,-188.46"/>
<polygon fill="midnightblue" stroke="midnightblue" points="331.9,-191.91 342.4,-190.48 333.3,-185.05 331.9,-191.91"/>
</g>
<!-- Node370 -->
<g id="node4" class="node">
<title>Node370</title>
<g id="a_node4"><a xlink:href="classMR24FDB1.html#af7b82f23ec8f67c955ae413f4a078af0" target="_top" xlink:title="calculate crc16 of current packet ">
<polygon fill="white" stroke="black" points="522,-152.5 522,-171.5 671,-171.5 671,-152.5 522,-152.5"/>
<text text-anchor="middle" x="596.5" y="-159.5" font-family="Helvetica,sans-Serif" font-size="10.00">MR24FDB1::calculateCrc16</text>
</a>
</g>
</g>
<!-- Node369&#45;&gt;Node370 -->
<g id="edge3" class="edge">
<title>Node369&#45;&gt;Node370</title>
<path fill="none" stroke="midnightblue" d="M451.25,-162C470.2,-162 491.48,-162 511.75,-162"/>
<polygon fill="midnightblue" stroke="midnightblue" points="511.92,-165.5 521.92,-162 511.92,-158.5 511.92,-165.5"/>
</g>
<!-- Node373 -->
<g id="node7" class="node">
<title>Node373</title>
<g id="a_node7"><a xlink:href="classMR24FDB1.html#a8a6f5bebfe9e2f9232e58f0ff909042a" target="_top" xlink:title="parse packet ">
<polygon fill="white" stroke="black" points="322,-38.5 322,-57.5 458,-57.5 458,-38.5 322,-38.5"/>
<text text-anchor="middle" x="390" y="-45.5" font-family="Helvetica,sans-Serif" font-size="10.00">MR24FDB1::parsePacket</text>
</a>
</g>
</g>
<!-- Node372&#45;&gt;Node373 -->
<g id="edge6" class="edge">
<title>Node372&#45;&gt;Node373</title>
<path fill="none" stroke="midnightblue" d="M223.29,-95.43C241.86,-86.97 270.3,-74.8 296,-67 304.8,-64.33 314.18,-61.92 323.48,-59.78"/>
<polygon fill="midnightblue" stroke="midnightblue" points="324.49,-63.15 333.5,-57.58 322.98,-56.31 324.49,-63.15"/>
</g>
<!-- Node378 -->
<g id="node12" class="node">
<title>Node378</title>
<g id="a_node12"><a xlink:href="classMR24FDB1.html#a5e44c632274bde4a6e22f35d80a782f0" target="_top" xlink:title="get a packet from the chip ">
<polygon fill="white" stroke="black" points="324.5,-114.5 324.5,-133.5 455.5,-133.5 455.5,-114.5 324.5,-114.5"/>
<text text-anchor="middle" x="390" y="-121.5" font-family="Helvetica,sans-Serif" font-size="10.00">MR24FDB1::readPacket</text>
</a>
</g>
</g>
<!-- Node372&#45;&gt;Node378 -->
<g id="edge12" class="edge">
<title>Node372&#45;&gt;Node378</title>
<path fill="none" stroke="midnightblue" d="M258.55,-110.67C275.99,-112.46 295.53,-114.45 314.07,-116.35"/>
<polygon fill="midnightblue" stroke="midnightblue" points="313.94,-119.85 324.25,-117.39 314.65,-112.89 313.94,-119.85"/>
</g>
<!-- Node380 -->
<g id="node14" class="node">
<title>Node380</title>
<g id="a_node14"><a xlink:href="classMR24FDB1__Exception.html#a695552f5db7be7840c1af8650af0c235" target="_top" xlink:title="decode error from the Result,class,group , function etc... ">
<polygon fill="white" stroke="black" points="296,-76.5 296,-95.5 484,-95.5 484,-76.5 296,-76.5"/>
<text text-anchor="middle" x="390" y="-83.5" font-family="Helvetica,sans-Serif" font-size="10.00">MR24FDB1_Exception::decodeError</text>
</a>
</g>
</g>
<!-- Node372&#45;&gt;Node380 -->
<g id="edge15" class="edge">
<title>Node372&#45;&gt;Node380</title>
<path fill="none" stroke="midnightblue" d="M258.55,-99.33C267.2,-98.44 276.37,-97.51 285.67,-96.55"/>
<polygon fill="midnightblue" stroke="midnightblue" points="286.21,-100.02 295.81,-95.52 285.5,-93.05 286.21,-100.02"/>
</g>
<!-- Node374 -->
<g id="node8" class="node">
<title>Node374</title>
<g id="a_node8"><a xlink:href="classMR24FDB1.html#a2ccfe8221167944b882b5747b07dae22" target="_top" xlink:title="parse fall type packet ">
<polygon fill="white" stroke="black" points="520,-38.5 520,-57.5 673,-57.5 673,-38.5 520,-38.5"/>
<text text-anchor="middle" x="596.5" y="-45.5" font-family="Helvetica,sans-Serif" font-size="10.00">MR24FDB1::parseFallReport</text>
</a>
</g>
</g>
<!-- Node373&#45;&gt;Node374 -->
<g id="edge7" class="edge">
<title>Node373&#45;&gt;Node374</title>
<path fill="none" stroke="midnightblue" d="M458.24,-48C474.69,-48 492.51,-48 509.69,-48"/>
<polygon fill="midnightblue" stroke="midnightblue" points="509.72,-51.5 519.72,-48 509.72,-44.5 509.72,-51.5"/>
</g>
<!-- Node375 -->
<g id="node9" class="node">
<title>Node375</title>
<g id="a_node9"><a xlink:href="classMR24FDB1.html#a1759ec9442c191ee6ddc09137a9c0528" target="_top" xlink:title="parse report type packet ">
<polygon fill="white" stroke="black" points="528.5,-0.5 528.5,-19.5 664.5,-19.5 664.5,-0.5 528.5,-0.5"/>
<text text-anchor="middle" x="596.5" y="-7.5" font-family="Helvetica,sans-Serif" font-size="10.00">MR24FDB1::parseReport</text>
</a>
</g>
</g>
<!-- Node373&#45;&gt;Node375 -->
<g id="edge8" class="edge">
<title>Node373&#45;&gt;Node375</title>
<path fill="none" stroke="midnightblue" d="M442.34,-38.46C470.17,-33.29 504.77,-26.86 534.03,-21.42"/>
<polygon fill="midnightblue" stroke="midnightblue" points="534.95,-24.81 544.14,-19.54 533.67,-17.93 534.95,-24.81"/>
</g>
<!-- Node377 -->
<g id="node11" class="node">
<title>Node377</title>
<g id="a_node11"><a xlink:href="classMR24FDB1.html#a55ecfd4dffd4d04c97dcd6e6e264ad61" target="_top" xlink:title="parse reponce type packet ">
<polygon fill="white" stroke="black" points="521,-76.5 521,-95.5 672,-95.5 672,-76.5 521,-76.5"/>
<text text-anchor="middle" x="596.5" y="-83.5" font-family="Helvetica,sans-Serif" font-size="10.00">MR24FDB1::parseResponce</text>
</a>
</g>
</g>
<!-- Node373&#45;&gt;Node377 -->
<g id="edge10" class="edge">
<title>Node373&#45;&gt;Node377</title>
<path fill="none" stroke="midnightblue" d="M442.34,-57.54C470.17,-62.71 504.77,-69.14 534.03,-74.58"/>
<polygon fill="midnightblue" stroke="midnightblue" points="533.67,-78.07 544.14,-76.46 534.95,-71.19 533.67,-78.07"/>
</g>
<!-- Node376 -->
<g id="node10" class="node">
<title>Node376</title>
<g id="a_node10"><a xlink:href="classMR24FDB1.html#ae444c38bb80decf58cabe5b12005b819" target="_top" xlink:title="parse Radar group responces and reports ">
<polygon fill="white" stroke="black" points="709,-38.5 709,-57.5 849,-57.5 849,-38.5 709,-38.5"/>
<text text-anchor="middle" x="779" y="-45.5" font-family="Helvetica,sans-Serif" font-size="10.00">MR24FDB1::decodeRadar</text>
</a>
</g>
</g>
<!-- Node375&#45;&gt;Node376 -->
<g id="edge9" class="edge">
<title>Node375&#45;&gt;Node376</title>
<path fill="none" stroke="midnightblue" d="M643.05,-19.59C667.3,-24.69 697.3,-31.01 722.86,-36.39"/>
<polygon fill="midnightblue" stroke="midnightblue" points="722.27,-39.84 732.78,-38.48 723.72,-32.99 722.27,-39.84"/>
</g>
<!-- Node377&#45;&gt;Node376 -->
<g id="edge11" class="edge">
<title>Node377&#45;&gt;Node376</title>
<path fill="none" stroke="midnightblue" d="M643.05,-76.41C667.3,-71.31 697.3,-64.99 722.86,-59.61"/>
<polygon fill="midnightblue" stroke="midnightblue" points="723.72,-63.01 732.78,-57.52 722.27,-56.16 723.72,-63.01"/>
</g>
<!-- Node378&#45;&gt;Node370 -->
<g id="edge13" class="edge">
<title>Node378&#45;&gt;Node370</title>
<path fill="none" stroke="midnightblue" d="M442.34,-133.54C470.17,-138.71 504.77,-145.14 534.03,-150.58"/>
<polygon fill="midnightblue" stroke="midnightblue" points="533.67,-154.07 544.14,-152.46 534.95,-147.19 533.67,-154.07"/>
</g>
<!-- Node379 -->
<g id="node13" class="node">
<title>Node379</title>
<g id="a_node13"><a xlink:href="classMR24FDB1.html#a3de11c024f9b20321cce5d98cd534c3e" target="_top" xlink:title="get one byte from serial ">
<polygon fill="white" stroke="black" points="536,-114.5 536,-133.5 657,-133.5 657,-114.5 536,-114.5"/>
<text text-anchor="middle" x="596.5" y="-121.5" font-family="Helvetica,sans-Serif" font-size="10.00">MR24FDB1::readByte</text>
</a>
</g>
</g>
<!-- Node378&#45;&gt;Node379 -->
<g id="edge14" class="edge">
<title>Node378&#45;&gt;Node379</title>
<path fill="none" stroke="midnightblue" d="M455.71,-124C477.93,-124 502.9,-124 525.52,-124"/>
<polygon fill="midnightblue" stroke="midnightblue" points="525.73,-127.5 535.73,-124 525.73,-120.5 525.73,-127.5"/>
</g>
</g>
</svg>
        <g id="navigator" transform="translate(0 0)" fill="#404254">
                <rect fill="#f2f5e9" fill-opacity="0.5" stroke="#606060" stroke-width=".5" x="0" y="0" width="60" height="60"/>
                <use id="zoomplus" xlink:href="#zoomPlus" x="17" y="9" onmousedown="handleZoom(evt,'in')"/>
                <use id="zoomminus" xlink:href="#zoomMin" x="42" y="9" onmousedown="handleZoom(evt,'out')"/>
                <use id="reset" xlink:href="#resetDef" x="30" y="36" onmousedown="handleReset()"/>
                <g id="arrowUp" xlink:href="#dirArrow" transform="translate(30 24)" onmousedown="handlePan(0,-1)">
                  <use xlink:href="#rim" fill="#404040">
                        <set attributeName="fill" to="#808080" begin="arrowUp.mouseover" end="arrowUp.mouseout"/>
                  </use>
                  <path fill="none" stroke="white" stroke-width="1.5" d="M0,-3.0v7 M-2.5,-0.5L0,-3.0L2.5,-0.5"/>
                </g>
                <g id="arrowRight" xlink:href="#dirArrow" transform="rotate(90) translate(36 -43)" onmousedown="handlePan(1,0)">
                  <use xlink:href="#rim" fill="#404040">
                        <set attributeName="fill" to="#808080" begin="arrowRight.mouseover" end="arrowRight.mouseout"/>
                  </use>
                  <path fill="none" stroke="white" stroke-width="1.5" d="M0,-3.0v7 M-2.5,-0.5L0,-3.0L2.5,-0.5"/>
                </g>
                <g id="arrowDown" xlink:href="#dirArrow" transform="rotate(180) translate(-30 -48)" onmousedown="handlePan(0,1)">
                  <use xlink:href="#rim" fill="#404040">
                        <set attributeName="fill" to="#808080" begin="arrowDown.mouseover" end="arrowDown.mouseout"/>
                  </use>
                  <path fill="none" stroke="white" stroke-width="1.5" d="M0,-3.0v7 M-2.5,-0.5L0,-3.0L2.5,-0.5"/>
                </g>
                <g id="arrowLeft" xlink:href="#dirArrow" transform="rotate(270) translate(-36 17)" onmousedown="handlePan(-1,0)">
                  <use xlink:href="#rim" fill="#404040">
                        <set attributeName="fill" to="#808080" begin="arrowLeft.mouseover" end="arrowLeft.mouseout"/>
                  </use>
                  <path fill="none" stroke="white" stroke-width="1.5" d="M0,-3.0v7 M-2.5,-0.5L0,-3.0L2.5,-0.5"/>
                </g>
        </g>
        <svg viewBox="0 0 15 15" width="100%" height="30px" preserveAspectRatio="xMaxYMin meet">
         <g id="arrow_out" transform="scale(0.3 0.3)">
          <a xlink:href="classMR24FDB1_a23542b21cc78944a36d941eb4eaaf29d_cgraph_org.svg" target="_base">
           <rect id="button" ry="5" rx="5" y="6" x="6" height="38" width="38"
                fill="#f2f5e9" fill-opacity="0.5" stroke="#606060" stroke-width="1.0"/>
           <path id="arrow"
             d="M 11.500037,31.436501 C 11.940474,20.09759 22.043105,11.32322 32.158766,21.979434 L 37.068811,17.246167 C 37.068811,17.246167 37.088388,32 37.088388,32 L 22.160133,31.978069 C 22.160133,31.978069 26.997745,27.140456 26.997745,27.140456 C 18.528582,18.264221 13.291696,25.230495 11.500037,31.436501 z"
             style="fill:#404040;"/>
          </a>
         </g>
        </svg>
</svg>
