<?xml version="1.0" encoding="UTF-8" standalone="no"?>
<!DOCTYPE svg PUBLIC "-//W3C//DTD SVG 1.1//EN"
 "http://www.w3.org/Graphics/SVG/1.1/DTD/svg11.dtd">
<!-- Generated by graphviz version 2.43.0 (0)
 -->
<!-- Title: MR24FDB1::readPacket Pages: 1 -->
<!--zoomable 484 -->
<svg id="main" version="1.1" xmlns="http://www.w3.org/2000/svg" xmlns:xlink="http://www.w3.org/1999/xlink" xml:space="preserve" onload="init(evt)">
<style type="text/css"><![CDATA[
.edge:hover path { stroke: red; }
.edge:hover polygon { stroke: red; fill: red; }
]]></style>
<script type="text/javascript"><![CDATA[
var edges = document.getElementsByTagName('g');
if (edges && edges.length) {
  for (var i=0;i<edges.length;i++) {
    if (edges[i].id.substr(0,4)=='edge') {
      edges[i].setAttribute('class','edge');
    }
  }
}
]]></script>
        <defs>
                <circle id="rim" cx="0" cy="0" r="7"/>
                <circle id="rim2" cx="0" cy="0" r="3.5"/>
                <g id="zoomPlus">
                        <use xlink:href="#rim" fill="#404040">
                                <set attributeName="fill" to="#808080" begin="zoomplus.mouseover" end="zoomplus.mouseout"/>
                        </use>
                        <path d="M-4,0h8M0,-4v8" fill="none" stroke="white" stroke-width="1.5" pointer-events="none"/>
                </g>
                <g id="zoomMin">
                        <use xlink:href="#rim" fill="#404040">
                                <set attributeName="fill" to="#808080" begin="zoomminus.mouseover" end="zoomminus.mouseout"/>
                        </use>
                        <path d="M-4,0h8" fill="none" stroke="white" stroke-width="1.5" pointer-events="none"/>
                </g>
                <g id="dirArrow">
                        <path fill="none" stroke="white" stroke-width="1.5" d="M0,-3.0v7 M-2.5,-0.5L0,-3.0L2.5,-0.5"/>
                </g>
               <g id="resetDef">
                       <use xlink:href="#rim2" fill="#404040">
                               <set attributeName="fill" to="#808080" begin="reset.mouseover" end="reset.mouseout"/>
                       </use>
               </g>
        </defs>

<script type="text/javascript">
var viewWidth = 834;
var viewHeight = 484;
var sectionId = 'dynsection-4';
</script>
<script xlink:href="svgpan.js"/>
<svg id="graph" class="graph">
<g id="viewport">
<title>MR24FDB1::readPacket</title>
<polygon fill="white" stroke="transparent" points="-4,4 -4,-480 830,-480 830,4 -4,4"/>
<!-- Node31 -->
<g id="node1" class="node">
<title>Node31</title>
<g id="a_node1"><a xlink:title="get a packet from the chip ">
<polygon fill="#bfbfbf" stroke="black" points="0,-418.5 0,-437.5 131,-437.5 131,-418.5 0,-418.5"/>
<text text-anchor="middle" x="65.5" y="-425.5" font-family="Helvetica,sans-Serif" font-size="10.00">MR24FDB1::readPacket</text>
</a>
</g>
</g>
<!-- Node32 -->
<g id="node2" class="node">
<title>Node32</title>
<g id="a_node2"><a xlink:href="classMR24FDB1.html#a667ee611da9f14e82c86cfd7b1d159b9" target="_top" xlink:title="initalize radar ">
<polygon fill="white" stroke="black" points="177.5,-456.5 177.5,-475.5 269.5,-475.5 269.5,-456.5 177.5,-456.5"/>
<text text-anchor="middle" x="223.5" y="-463.5" font-family="Helvetica,sans-Serif" font-size="10.00">MR24FDB1::init</text>
</a>
</g>
</g>
<!-- Node31&#45;&gt;Node32 -->
<g id="edge1" class="edge">
<title>Node31&#45;&gt;Node32</title>
<path fill="none" stroke="midnightblue" d="M115.63,-439.97C137.49,-445.29 162.88,-451.48 183.42,-456.48"/>
<polygon fill="midnightblue" stroke="midnightblue" points="116.41,-436.56 105.87,-437.59 114.75,-443.36 116.41,-436.56"/>
</g>
<!-- Node33 -->
<g id="node3" class="node">
<title>Node33</title>
<g id="a_node3"><a xlink:href="classMR24FDB1.html#a0c0b8071f5d90b32f3c109ff71ff2ec0" target="_top" xlink:title="send test ">
<polygon fill="white" stroke="black" points="707,-190.5 707,-209.5 826,-209.5 826,-190.5 707,-190.5"/>
<text text-anchor="middle" x="766.5" y="-197.5" font-family="Helvetica,sans-Serif" font-size="10.00">MR24FDB1::testSend</text>
</a>
</g>
</g>
<!-- Node31&#45;&gt;Node33 -->
<g id="edge2" class="edge">
<title>Node31&#45;&gt;Node33</title>
<path fill="none" stroke="midnightblue" d="M141.55,-435.21C283.9,-447.37 586.45,-465.46 671,-409 742.86,-361.01 760.8,-244.21 764.59,-209.73"/>
<polygon fill="midnightblue" stroke="midnightblue" points="141.44,-431.69 131.17,-434.31 140.83,-438.67 141.44,-431.69"/>
</g>
<!-- Node34 -->
<g id="node4" class="node">
<title>Node34</title>
<g id="a_node4"><a xlink:href="classMR24FDB1.html#a944e9bede6552294ea9940ae6fda3b96" target="_top" xlink:title="wait until packet of the specified type is recieved ">
<polygon fill="white" stroke="black" points="167,-323.5 167,-342.5 280,-342.5 280,-323.5 167,-323.5"/>
<text text-anchor="middle" x="223.5" y="-330.5" font-family="Helvetica,sans-Serif" font-size="10.00">MR24FDB1::waitFor</text>
</a>
</g>
</g>
<!-- Node31&#45;&gt;Node34 -->
<g id="edge3" class="edge">
<title>Node31&#45;&gt;Node34</title>
<path fill="none" stroke="midnightblue" d="M91.16,-412.98C123.53,-393.27 179.4,-359.25 206.64,-342.66"/>
<polygon fill="midnightblue" stroke="midnightblue" points="89.04,-410.18 82.32,-418.37 92.68,-416.16 89.04,-410.18"/>
</g>
<!-- Node35 -->
<g id="node5" class="node">
<title>Node35</title>
<g id="a_node5"><a xlink:href="classMR24FDB1.html#a23542b21cc78944a36d941eb4eaaf29d" target="_top" xlink:title="reboot ">
<polygon fill="white" stroke="black" points="341,-323.5 341,-342.5 449,-342.5 449,-323.5 341,-323.5"/>
<text text-anchor="middle" x="395" y="-330.5" font-family="Helvetica,sans-Serif" font-size="10.00">MR24FDB1::reboot</text>
</a>
</g>
</g>
<!-- Node34&#45;&gt;Node35 -->
<g id="edge4" class="edge">
<title>Node34&#45;&gt;Node35</title>
<path fill="none" stroke="midnightblue" d="M290.29,-333C307.08,-333 324.91,-333 340.97,-333"/>
<polygon fill="midnightblue" stroke="midnightblue" points="290,-329.5 280,-333 290,-336.5 290,-329.5"/>
</g>
<!-- Node36 -->
<g id="node6" class="node">
<title>Node36</title>
<g id="a_node6"><a xlink:href="classMR24FDB1.html#a7dfa1c269d0979718203f9202d4e8578" target="_top" xlink:title="send a &quot;GET&quot; packet to the module and wait for responce ">
<polygon fill="white" stroke="black" points="316,-209.5 316,-228.5 474,-228.5 474,-209.5 316,-209.5"/>
<text text-anchor="middle" x="395" y="-216.5" font-family="Helvetica,sans-Serif" font-size="10.00">MR24FDB1::sendGetAndWait</text>
</a>
</g>
</g>
<!-- Node34&#45;&gt;Node36 -->
<g id="edge5" class="edge">
<title>Node34&#45;&gt;Node36</title>
<path fill="none" stroke="midnightblue" d="M247.35,-317.63C282.8,-293.79 350.03,-248.57 379.52,-228.74"/>
<polygon fill="midnightblue" stroke="midnightblue" points="245,-314.99 238.66,-323.48 248.91,-320.8 245,-314.99"/>
</g>
<!-- Node37 -->
<g id="node7" class="node">
<title>Node37</title>
<g id="a_node7"><a xlink:href="classMR24FDB1.html#a6a61bdca02e1a9ab2c6ab83c3ee2ff21" target="_top" xlink:title="requests Device Id ">
<polygon fill="white" stroke="black" points="523,-380.5 523,-399.5 658,-399.5 658,-380.5 523,-380.5"/>
<text text-anchor="middle" x="590.5" y="-387.5" font-family="Helvetica,sans-Serif" font-size="10.00">MR24FDB1::getDeviceId</text>
</a>
</g>
</g>
<!-- Node36&#45;&gt;Node37 -->
<g id="edge6" class="edge">
<title>Node36&#45;&gt;Node37</title>
<path fill="none" stroke="midnightblue" d="M411.33,-236.33C427.57,-254.98 453.63,-285.79 474,-314 491.54,-338.29 485.63,-353.57 510,-371 515.42,-374.88 521.54,-377.98 527.9,-380.45"/>
<polygon fill="midnightblue" stroke="midnightblue" points="413.84,-233.88 404.62,-228.66 408.57,-238.49 413.84,-233.88"/>
</g>
<!-- Node38 -->
<g id="node8" class="node">
<title>Node38</title>
<g id="a_node8"><a xlink:href="classMR24FDB1.html#a10ef6d7b6a0d7819b84361c907604fe0" target="_top" xlink:title="get status of fall enable switch ">
<polygon fill="white" stroke="black" points="519,-342.5 519,-361.5 662,-361.5 662,-342.5 519,-342.5"/>
<text text-anchor="middle" x="590.5" y="-349.5" font-family="Helvetica,sans-Serif" font-size="10.00">MR24FDB1::getFallEnable</text>
</a>
</g>
</g>
<!-- Node36&#45;&gt;Node38 -->
<g id="edge7" class="edge">
<title>Node36&#45;&gt;Node38</title>
<path fill="none" stroke="midnightblue" d="M408.86,-237.09C427.95,-262.54 466.27,-308.54 510,-333 516.94,-336.88 524.64,-339.97 532.45,-342.43"/>
<polygon fill="midnightblue" stroke="midnightblue" points="411.46,-234.72 402.73,-228.72 405.82,-238.86 411.46,-234.72"/>
</g>
<!-- Node39 -->
<g id="node9" class="node">
<title>Node39</title>
<g id="a_node9"><a xlink:href="classMR24FDB1.html#a122352e437a57083aba3823b512e2c31" target="_top" xlink:title="get status of fall sensitivty setting ">
<polygon fill="white" stroke="black" points="510,-304.5 510,-323.5 671,-323.5 671,-304.5 510,-304.5"/>
<text text-anchor="middle" x="590.5" y="-311.5" font-family="Helvetica,sans-Serif" font-size="10.00">MR24FDB1::getFallSensitivity</text>
</a>
</g>
</g>
<!-- Node36&#45;&gt;Node39 -->
<g id="edge8" class="edge">
<title>Node36&#45;&gt;Node39</title>
<path fill="none" stroke="midnightblue" d="M415.3,-235.01C437.03,-252.24 474.01,-279.3 510,-295 518.71,-298.8 528.31,-301.91 537.74,-304.44"/>
<polygon fill="midnightblue" stroke="midnightblue" points="417.48,-232.26 407.5,-228.71 413.08,-237.71 417.48,-232.26"/>
</g>
<!-- Node40 -->
<g id="node10" class="node">
<title>Node40</title>
<g id="a_node10"><a xlink:href="classMR24FDB1.html#a6e729c642bc4f67e6ce076fb0fa2aa3e" target="_top" xlink:title="get status of fall warning time setting ">
<polygon fill="white" stroke="black" points="511,-266.5 511,-285.5 670,-285.5 670,-266.5 511,-266.5"/>
<text text-anchor="middle" x="590.5" y="-273.5" font-family="Helvetica,sans-Serif" font-size="10.00">MR24FDB1::getFallWarnTime</text>
</a>
</g>
</g>
<!-- Node36&#45;&gt;Node40 -->
<g id="edge9" class="edge">
<title>Node36&#45;&gt;Node40</title>
<path fill="none" stroke="midnightblue" d="M432.23,-231.97C454.51,-239.73 483.73,-249.5 510,-257 521.73,-260.35 534.56,-263.6 546.41,-266.43"/>
<polygon fill="midnightblue" stroke="midnightblue" points="433.11,-228.57 422.51,-228.57 430.79,-235.18 433.11,-228.57"/>
</g>
<!-- Node41 -->
<g id="node11" class="node">
<title>Node41</title>
<g id="a_node11"><a xlink:href="classMR24FDB1.html#a9c858e6eae2bf95de4340b7bb4fe07e7" target="_top" xlink:title="requests Hardware version ">
<polygon fill="white" stroke="black" points="512.5,-228.5 512.5,-247.5 668.5,-247.5 668.5,-228.5 512.5,-228.5"/>
<text text-anchor="middle" x="590.5" y="-235.5" font-family="Helvetica,sans-Serif" font-size="10.00">MR24FDB1::getHardwareVer</text>
</a>
</g>
</g>
<!-- Node36&#45;&gt;Node41 -->
<g id="edge10" class="edge">
<title>Node36&#45;&gt;Node41</title>
<path fill="none" stroke="midnightblue" d="M484.25,-227.67C493.62,-228.59 503.09,-229.52 512.32,-230.42"/>
<polygon fill="midnightblue" stroke="midnightblue" points="484.44,-224.17 474.15,-226.67 483.76,-231.13 484.44,-224.17"/>
</g>
<!-- Node42 -->
<g id="node12" class="node">
<title>Node42</title>
<g id="a_node12"><a xlink:href="classMR24FDB1.html#ab090aa5731fa4e348a33588f682f1a16" target="_top" xlink:title="get movement ">
<polygon fill="white" stroke="black" points="518,-190.5 518,-209.5 663,-209.5 663,-190.5 518,-190.5"/>
<text text-anchor="middle" x="590.5" y="-197.5" font-family="Helvetica,sans-Serif" font-size="10.00">MR24FDB1::getMovement</text>
</a>
</g>
</g>
<!-- Node36&#45;&gt;Node42 -->
<g id="edge11" class="edge">
<title>Node36&#45;&gt;Node42</title>
<path fill="none" stroke="midnightblue" d="M484.4,-210.32C495.63,-209.22 507.02,-208.1 517.94,-207.03"/>
<polygon fill="midnightblue" stroke="midnightblue" points="483.76,-206.87 474.15,-211.33 484.44,-213.83 483.76,-206.87"/>
</g>
<!-- Node43 -->
<g id="node13" class="node">
<title>Node43</title>
<g id="a_node13"><a xlink:href="classMR24FDB1.html#af5bcb06d3788fb4743e2f750a6e4a149" target="_top" xlink:title="get presence from module ">
<polygon fill="white" stroke="black" points="522,-152.5 522,-171.5 659,-171.5 659,-152.5 522,-152.5"/>
<text text-anchor="middle" x="590.5" y="-159.5" font-family="Helvetica,sans-Serif" font-size="10.00">MR24FDB1::getPresence</text>
</a>
</g>
</g>
<!-- Node36&#45;&gt;Node43 -->
<g id="edge13" class="edge">
<title>Node36&#45;&gt;Node43</title>
<path fill="none" stroke="midnightblue" d="M432.23,-206.03C454.51,-198.27 483.73,-188.5 510,-181 521.73,-177.65 534.56,-174.4 546.41,-171.57"/>
<polygon fill="midnightblue" stroke="midnightblue" points="430.79,-202.82 422.51,-209.43 433.11,-209.43 430.79,-202.82"/>
</g>
<!-- Node44 -->
<g id="node14" class="node">
<title>Node44</title>
<g id="a_node14"><a xlink:href="classMR24FDB1.html#a206d007330f0b2f9c76b070e215dbb05" target="_top" xlink:title="request Protocol Version ">
<polygon fill="white" stroke="black" points="516,-114.5 516,-133.5 665,-133.5 665,-114.5 516,-114.5"/>
<text text-anchor="middle" x="590.5" y="-121.5" font-family="Helvetica,sans-Serif" font-size="10.00">MR24FDB1::getProtocolVer</text>
</a>
</g>
</g>
<!-- Node36&#45;&gt;Node44 -->
<g id="edge15" class="edge">
<title>Node36&#45;&gt;Node44</title>
<path fill="none" stroke="midnightblue" d="M415.3,-202.99C437.03,-185.76 474.01,-158.7 510,-143 518.71,-139.2 528.31,-136.09 537.74,-133.56"/>
<polygon fill="midnightblue" stroke="midnightblue" points="413.08,-200.29 407.5,-209.29 417.48,-205.74 413.08,-200.29"/>
</g>
<!-- Node45 -->
<g id="node15" class="node">
<title>Node45</title>
<g id="a_node15"><a xlink:href="classMR24FDB1.html#adc620372e2ccd4d3dece13bfe8c8424e" target="_top" xlink:title="get scene parameter ">
<polygon fill="white" stroke="black" points="529.5,-76.5 529.5,-95.5 651.5,-95.5 651.5,-76.5 529.5,-76.5"/>
<text text-anchor="middle" x="590.5" y="-83.5" font-family="Helvetica,sans-Serif" font-size="10.00">MR24FDB1::getScene</text>
</a>
</g>
</g>
<!-- Node36&#45;&gt;Node45 -->
<g id="edge16" class="edge">
<title>Node36&#45;&gt;Node45</title>
<path fill="none" stroke="midnightblue" d="M408.86,-200.91C427.95,-175.46 466.27,-129.46 510,-105 516.94,-101.12 524.64,-98.03 532.45,-95.57"/>
<polygon fill="midnightblue" stroke="midnightblue" points="405.82,-199.14 402.73,-209.28 411.46,-203.28 405.82,-199.14"/>
</g>
<!-- Node46 -->
<g id="node16" class="node">
<title>Node46</title>
<g id="a_node16"><a xlink:href="classMR24FDB1.html#a82a44a7291dd7b96de57a2d2cda10251" target="_top" xlink:title="get sensitivity parameter ">
<polygon fill="white" stroke="black" points="518.5,-38.5 518.5,-57.5 662.5,-57.5 662.5,-38.5 518.5,-38.5"/>
<text text-anchor="middle" x="590.5" y="-45.5" font-family="Helvetica,sans-Serif" font-size="10.00">MR24FDB1::getSensitivity</text>
</a>
</g>
</g>
<!-- Node36&#45;&gt;Node46 -->
<g id="edge17" class="edge">
<title>Node36&#45;&gt;Node46</title>
<path fill="none" stroke="midnightblue" d="M404.73,-200.03C420.75,-167.47 458,-101.14 510,-67 515.93,-63.11 522.58,-60.01 529.44,-57.54"/>
<polygon fill="midnightblue" stroke="midnightblue" points="401.44,-198.81 400.29,-209.34 407.76,-201.82 401.44,-198.81"/>
</g>
<!-- Node47 -->
<g id="node17" class="node">
<title>Node47</title>
<g id="a_node17"><a xlink:href="classMR24FDB1.html#af9b355c4127c5b937407b3e3b25217c7" target="_top" xlink:title="requests Software verion ">
<polygon fill="white" stroke="black" points="514.5,-0.5 514.5,-19.5 666.5,-19.5 666.5,-0.5 514.5,-0.5"/>
<text text-anchor="middle" x="590.5" y="-7.5" font-family="Helvetica,sans-Serif" font-size="10.00">MR24FDB1::getSoftwareVer</text>
</a>
</g>
</g>
<!-- Node36&#45;&gt;Node47 -->
<g id="edge18" class="edge">
<title>Node36&#45;&gt;Node47</title>
<path fill="none" stroke="midnightblue" d="M401.91,-199.69C414.81,-160.92 449.31,-73.48 510,-29 515.27,-25.14 521.2,-22.06 527.41,-19.59"/>
<polygon fill="midnightblue" stroke="midnightblue" points="398.56,-198.67 398.84,-209.27 405.22,-200.81 398.56,-198.67"/>
</g>
<!-- Node42&#45;&gt;Node33 -->
<g id="edge12" class="edge">
<title>Node42&#45;&gt;Node33</title>
<path fill="none" stroke="midnightblue" d="M673.04,-200C684.49,-200 696.07,-200 706.98,-200"/>
<polygon fill="midnightblue" stroke="midnightblue" points="673.03,-196.5 663.03,-200 673.03,-203.5 673.03,-196.5"/>
</g>
<!-- Node43&#45;&gt;Node33 -->
<g id="edge14" class="edge">
<title>Node43&#45;&gt;Node33</title>
<path fill="none" stroke="midnightblue" d="M645.31,-173.75C669.92,-179.13 698.69,-185.41 721.91,-190.48"/>
<polygon fill="midnightblue" stroke="midnightblue" points="645.92,-170.3 635.41,-171.59 644.43,-177.14 645.92,-170.3"/>
</g>
</g>
</svg>
        <g id="navigator" transform="translate(0 0)" fill="#404254">
                <rect fill="#f2f5e9" fill-opacity="0.5" stroke="#606060" stroke-width=".5" x="0" y="0" width="60" height="60"/>
                <use id="zoomplus" xlink:href="#zoomPlus" x="17" y="9" onmousedown="handleZoom(evt,'in')"/>
                <use id="zoomminus" xlink:href="#zoomMin" x="42" y="9" onmousedown="handleZoom(evt,'out')"/>
                <use id="reset" xlink:href="#resetDef" x="30" y="36" onmousedown="handleReset()"/>
                <g id="arrowUp" xlink:href="#dirArrow" transform="translate(30 24)" onmousedown="handlePan(0,-1)">
                  <use xlink:href="#rim" fill="#404040">
                        <set attributeName="fill" to="#808080" begin="arrowUp.mouseover" end="arrowUp.mouseout"/>
                  </use>
                  <path fill="none" stroke="white" stroke-width="1.5" d="M0,-3.0v7 M-2.5,-0.5L0,-3.0L2.5,-0.5"/>
                </g>
                <g id="arrowRight" xlink:href="#dirArrow" transform="rotate(90) translate(36 -43)" onmousedown="handlePan(1,0)">
                  <use xlink:href="#rim" fill="#404040">
                        <set attributeName="fill" to="#808080" begin="arrowRight.mouseover" end="arrowRight.mouseout"/>
                  </use>
                  <path fill="none" stroke="white" stroke-width="1.5" d="M0,-3.0v7 M-2.5,-0.5L0,-3.0L2.5,-0.5"/>
                </g>
                <g id="arrowDown" xlink:href="#dirArrow" transform="rotate(180) translate(-30 -48)" onmousedown="handlePan(0,1)">
                  <use xlink:href="#rim" fill="#404040">
                        <set attributeName="fill" to="#808080" begin="arrowDown.mouseover" end="arrowDown.mouseout"/>
                  </use>
                  <path fill="none" stroke="white" stroke-width="1.5" d="M0,-3.0v7 M-2.5,-0.5L0,-3.0L2.5,-0.5"/>
                </g>
                <g id="arrowLeft" xlink:href="#dirArrow" transform="rotate(270) translate(-36 17)" onmousedown="handlePan(-1,0)">
                  <use xlink:href="#rim" fill="#404040">
                        <set attributeName="fill" to="#808080" begin="arrowLeft.mouseover" end="arrowLeft.mouseout"/>
                  </use>
                  <path fill="none" stroke="white" stroke-width="1.5" d="M0,-3.0v7 M-2.5,-0.5L0,-3.0L2.5,-0.5"/>
                </g>
        </g>
        <svg viewBox="0 0 15 15" width="100%" height="30px" preserveAspectRatio="xMaxYMin meet">
         <g id="arrow_out" transform="scale(0.3 0.3)">
          <a xlink:href="classMR24FDB1_a5e44c632274bde4a6e22f35d80a782f0_icgraph_org.svg" target="_base">
           <rect id="button" ry="5" rx="5" y="6" x="6" height="38" width="38"
                fill="#f2f5e9" fill-opacity="0.5" stroke="#606060" stroke-width="1.0"/>
           <path id="arrow"
             d="M 11.500037,31.436501 C 11.940474,20.09759 22.043105,11.32322 32.158766,21.979434 L 37.068811,17.246167 C 37.068811,17.246167 37.088388,32 37.088388,32 L 22.160133,31.978069 C 22.160133,31.978069 26.997745,27.140456 26.997745,27.140456 C 18.528582,18.264221 13.291696,25.230495 11.500037,31.436501 z"
             style="fill:#404040;"/>
          </a>
         </g>
        </svg>
</svg>
