<?xml version="1.0" encoding="UTF-8" standalone="no"?>
<!DOCTYPE svg PUBLIC "-//W3C//DTD SVG 1.1//EN"
 "http://www.w3.org/Graphics/SVG/1.1/DTD/svg11.dtd">
<!-- Generated by graphviz version 2.43.0 (0)
 -->
<!-- Title: MR24FDB1::setUnoccupiedTime Pages: 1 -->
<svg width="686pt" height="66pt"
 viewBox="0.00 0.00 686.00 66.00" xmlns="http://www.w3.org/2000/svg" xmlns:xlink="http://www.w3.org/1999/xlink">
<g id="graph0" class="graph" transform="scale(1 1) rotate(0) translate(4 62)">
<title>MR24FDB1::setUnoccupiedTime</title>
<polygon fill="white" stroke="transparent" points="-4,4 -4,-62 682,-62 682,4 -4,4"/>
<!-- Node361 -->
<g id="node1" class="node">
<title>Node361</title>
<g id="a_node1"><a xlink:title="set unoccupied timeut ">
<polygon fill="#bfbfbf" stroke="black" points="0,-19.5 0,-38.5 173,-38.5 173,-19.5 0,-19.5"/>
<text text-anchor="middle" x="86.5" y="-26.5" font-family="Helvetica,sans-Serif" font-size="10.00">MR24FDB1::setUnoccupiedTime</text>
</a>
</g>
</g>
<!-- Node362 -->
<g id="node2" class="node">
<title>Node362</title>
<g id="a_node2"><a xlink:href="classMR24FDB1.html#a465db085a7c6388ad7ba874d2adef8a3" target="_top" xlink:title="send a &quot;GET&quot; packet to the module ">
<polygon fill="white" stroke="black" points="209,-19.5 209,-38.5 325,-38.5 325,-19.5 209,-19.5"/>
<text text-anchor="middle" x="267" y="-26.5" font-family="Helvetica,sans-Serif" font-size="10.00">MR24FDB1::sendSet</text>
</a>
</g>
</g>
<!-- Node361&#45;&gt;Node362 -->
<g id="edge1" class="edge">
<title>Node361&#45;&gt;Node362</title>
<path fill="none" stroke="midnightblue" d="M173.09,-29C181.74,-29 190.44,-29 198.86,-29"/>
<polygon fill="midnightblue" stroke="midnightblue" points="198.96,-32.5 208.96,-29 198.96,-25.5 198.96,-32.5"/>
</g>
<!-- Node363 -->
<g id="node3" class="node">
<title>Node363</title>
<g id="a_node3"><a xlink:href="classMR24FDB1.html#af148f4391ab1003e82d4497d8072aaa0" target="_top" xlink:title="calculate and add crc16 at end of buffer ">
<polygon fill="white" stroke="black" points="366,-38.5 366,-57.5 488,-57.5 488,-38.5 366,-38.5"/>
<text text-anchor="middle" x="427" y="-45.5" font-family="Helvetica,sans-Serif" font-size="10.00">MR24FDB1::addCrc16</text>
</a>
</g>
</g>
<!-- Node362&#45;&gt;Node363 -->
<g id="edge2" class="edge">
<title>Node362&#45;&gt;Node363</title>
<path fill="none" stroke="midnightblue" d="M325.04,-35.86C334.99,-37.06 345.43,-38.31 355.69,-39.54"/>
<polygon fill="midnightblue" stroke="midnightblue" points="355.5,-43.05 365.84,-40.77 356.33,-36.1 355.5,-43.05"/>
</g>
<!-- Node365 -->
<g id="node5" class="node">
<title>Node365</title>
<g id="a_node5"><a xlink:href="classMR24FDB1.html#a586848e9efe86b47520f92e049c502eb" target="_top" xlink:title="send a packet to the module ">
<polygon fill="white" stroke="black" points="361,-0.5 361,-19.5 493,-19.5 493,-0.5 361,-0.5"/>
<text text-anchor="middle" x="427" y="-7.5" font-family="Helvetica,sans-Serif" font-size="10.00">MR24FDB1::sendPacket</text>
</a>
</g>
</g>
<!-- Node362&#45;&gt;Node365 -->
<g id="edge4" class="edge">
<title>Node362&#45;&gt;Node365</title>
<path fill="none" stroke="midnightblue" d="M325.04,-22.14C333.43,-21.13 342.17,-20.08 350.86,-19.04"/>
<polygon fill="midnightblue" stroke="midnightblue" points="351.48,-22.49 360.99,-17.82 350.65,-15.54 351.48,-22.49"/>
</g>
<!-- Node364 -->
<g id="node4" class="node">
<title>Node364</title>
<g id="a_node4"><a xlink:href="classMR24FDB1.html#af7b82f23ec8f67c955ae413f4a078af0" target="_top" xlink:title="calculate crc16 of current packet ">
<polygon fill="white" stroke="black" points="529,-38.5 529,-57.5 678,-57.5 678,-38.5 529,-38.5"/>
<text text-anchor="middle" x="603.5" y="-45.5" font-family="Helvetica,sans-Serif" font-size="10.00">MR24FDB1::calculateCrc16</text>
</a>
</g>
</g>
<!-- Node363&#45;&gt;Node364 -->
<g id="edge3" class="edge">
<title>Node363&#45;&gt;Node364</title>
<path fill="none" stroke="midnightblue" d="M488.05,-48C497.89,-48 508.23,-48 518.52,-48"/>
<polygon fill="midnightblue" stroke="midnightblue" points="518.76,-51.5 528.76,-48 518.76,-44.5 518.76,-51.5"/>
</g>
</g>
</svg>
