<?xml version="1.0" encoding="UTF-8" standalone="no"?>
<!DOCTYPE svg PUBLIC "-//W3C//DTD SVG 1.1//EN"
 "http://www.w3.org/Graphics/SVG/1.1/DTD/svg11.dtd">
<!-- Generated by graphviz version 2.43.0 (0)
 -->
<!-- Title: MR24FDB1::init Pages: 1 -->
<svg width="452pt" height="66pt"
 viewBox="0.00 0.00 452.00 66.00" xmlns="http://www.w3.org/2000/svg" xmlns:xlink="http://www.w3.org/1999/xlink">
<g id="graph0" class="graph" transform="scale(1 1) rotate(0) translate(4 62)">
<title>MR24FDB1::init</title>
<polygon fill="white" stroke="transparent" points="-4,4 -4,-62 448,-62 448,4 -4,4"/>
<!-- Node4 -->
<g id="node1" class="node">
<title>Node4</title>
<g id="a_node1"><a xlink:title="initalize radar ">
<polygon fill="#bfbfbf" stroke="black" points="0,-19.5 0,-38.5 92,-38.5 92,-19.5 0,-19.5"/>
<text text-anchor="middle" x="46" y="-26.5" font-family="Helvetica,sans-Serif" font-size="10.00">MR24FDB1::init</text>
</a>
</g>
</g>
<!-- Node5 -->
<g id="node2" class="node">
<title>Node5</title>
<g id="a_node2"><a xlink:href="classMR24FDB1.html#a5e44c632274bde4a6e22f35d80a782f0" target="_top" xlink:title="get a packet from the chip ">
<polygon fill="white" stroke="black" points="128,-19.5 128,-38.5 259,-38.5 259,-19.5 128,-19.5"/>
<text text-anchor="middle" x="193.5" y="-26.5" font-family="Helvetica,sans-Serif" font-size="10.00">MR24FDB1::readPacket</text>
</a>
</g>
</g>
<!-- Node4&#45;&gt;Node5 -->
<g id="edge1" class="edge">
<title>Node4&#45;&gt;Node5</title>
<path fill="none" stroke="midnightblue" d="M92.24,-29C100.33,-29 108.96,-29 117.63,-29"/>
<polygon fill="midnightblue" stroke="midnightblue" points="117.79,-32.5 127.79,-29 117.79,-25.5 117.79,-32.5"/>
</g>
<!-- Node6 -->
<g id="node3" class="node">
<title>Node6</title>
<g id="a_node3"><a xlink:href="classMR24FDB1.html#af7b82f23ec8f67c955ae413f4a078af0" target="_top" xlink:title="calculate crc16 of current packet ">
<polygon fill="white" stroke="black" points="295,-38.5 295,-57.5 444,-57.5 444,-38.5 295,-38.5"/>
<text text-anchor="middle" x="369.5" y="-45.5" font-family="Helvetica,sans-Serif" font-size="10.00">MR24FDB1::calculateCrc16</text>
</a>
</g>
</g>
<!-- Node5&#45;&gt;Node6 -->
<g id="edge2" class="edge">
<title>Node5&#45;&gt;Node6</title>
<path fill="none" stroke="midnightblue" d="M259.29,-36.07C267.62,-36.98 276.25,-37.93 284.83,-38.86"/>
<polygon fill="midnightblue" stroke="midnightblue" points="284.55,-42.35 294.87,-39.96 285.31,-35.39 284.55,-42.35"/>
</g>
<!-- Node7 -->
<g id="node4" class="node">
<title>Node7</title>
<g id="a_node4"><a xlink:href="classMR24FDB1.html#a3de11c024f9b20321cce5d98cd534c3e" target="_top" xlink:title="get one byte from serial ">
<polygon fill="white" stroke="black" points="309,-0.5 309,-19.5 430,-19.5 430,-0.5 309,-0.5"/>
<text text-anchor="middle" x="369.5" y="-7.5" font-family="Helvetica,sans-Serif" font-size="10.00">MR24FDB1::readByte</text>
</a>
</g>
</g>
<!-- Node5&#45;&gt;Node7 -->
<g id="edge3" class="edge">
<title>Node5&#45;&gt;Node7</title>
<path fill="none" stroke="midnightblue" d="M259.29,-21.93C272.1,-20.53 285.6,-19.05 298.57,-17.64"/>
<polygon fill="midnightblue" stroke="midnightblue" points="299.27,-21.08 308.83,-16.52 298.51,-14.12 299.27,-21.08"/>
</g>
</g>
</svg>
