<?xml version="1.0" encoding="UTF-8" standalone="no"?>
<!DOCTYPE svg PUBLIC "-//W3C//DTD SVG 1.1//EN"
 "http://www.w3.org/Graphics/SVG/1.1/DTD/svg11.dtd">
<!-- Generated by graphviz version 2.43.0 (0)
 -->
<!-- Title: MR24FDB1::waitFor Pages: 1 -->
<!--zoomable 408 -->
<svg id="main" version="1.1" xmlns="http://www.w3.org/2000/svg" xmlns:xlink="http://www.w3.org/1999/xlink" xml:space="preserve" onload="init(evt)">
<style type="text/css"><![CDATA[
.edge:hover path { stroke: red; }
.edge:hover polygon { stroke: red; fill: red; }
]]></style>
<script type="text/javascript"><![CDATA[
var edges = document.getElementsByTagName('g');
if (edges && edges.length) {
  for (var i=0;i<edges.length;i++) {
    if (edges[i].id.substr(0,4)=='edge') {
      edges[i].setAttribute('class','edge');
    }
  }
}
]]></script>
        <defs>
                <circle id="rim" cx="0" cy="0" r="7"/>
                <circle id="rim2" cx="0" cy="0" r="3.5"/>
                <g id="zoomPlus">
                        <use xlink:href="#rim" fill="#404040">
                                <set attributeName="fill" to="#808080" begin="zoomplus.mouseover" end="zoomplus.mouseout"/>
                        </use>
                        <path d="M-4,0h8M0,-4v8" fill="none" stroke="white" stroke-width="1.5" pointer-events="none"/>
                </g>
                <g id="zoomMin">
                        <use xlink:href="#rim" fill="#404040">
                                <set attributeName="fill" to="#808080" begin="zoomminus.mouseover" end="zoomminus.mouseout"/>
                        </use>
                        <path d="M-4,0h8" fill="none" stroke="white" stroke-width="1.5" pointer-events="none"/>
                </g>
                <g id="dirArrow">
                        <path fill="none" stroke="white" stroke-width="1.5" d="M0,-3.0v7 M-2.5,-0.5L0,-3.0L2.5,-0.5"/>
                </g>
               <g id="resetDef">
                       <use xlink:href="#rim2" fill="#404040">
                               <set attributeName="fill" to="#808080" begin="reset.mouseover" end="reset.mouseout"/>
                       </use>
               </g>
        </defs>

<script type="text/javascript">
var viewWidth = 667;
var viewHeight = 408;
var sectionId = 'dynsection-12';
</script>
<script xlink:href="svgpan.js"/>
<svg id="graph" class="graph">
<g id="viewport">
<title>MR24FDB1::waitFor</title>
<polygon fill="white" stroke="transparent" points="-4,4 -4,-404 663,-404 663,4 -4,4"/>
<!-- Node124 -->
<g id="node1" class="node">
<title>Node124</title>
<g id="a_node1"><a xlink:title="wait until packet of the specified type is recieved ">
<polygon fill="#bfbfbf" stroke="black" points="0,-209.5 0,-228.5 113,-228.5 113,-209.5 0,-209.5"/>
<text text-anchor="middle" x="56.5" y="-216.5" font-family="Helvetica,sans-Serif" font-size="10.00">MR24FDB1::waitFor</text>
</a>
</g>
</g>
<!-- Node125 -->
<g id="node2" class="node">
<title>Node125</title>
<g id="a_node2"><a xlink:href="classMR24FDB1.html#a23542b21cc78944a36d941eb4eaaf29d" target="_top" xlink:title="reboot ">
<polygon fill="white" stroke="black" points="174,-228.5 174,-247.5 282,-247.5 282,-228.5 174,-228.5"/>
<text text-anchor="middle" x="228" y="-235.5" font-family="Helvetica,sans-Serif" font-size="10.00">MR24FDB1::reboot</text>
</a>
</g>
</g>
<!-- Node124&#45;&gt;Node125 -->
<g id="edge1" class="edge">
<title>Node124&#45;&gt;Node125</title>
<path fill="none" stroke="midnightblue" d="M123.29,-226.37C140.08,-228.26 157.91,-230.26 173.97,-232.06"/>
<polygon fill="midnightblue" stroke="midnightblue" points="123.33,-222.86 113,-225.22 122.55,-229.81 123.33,-222.86"/>
</g>
<!-- Node126 -->
<g id="node3" class="node">
<title>Node126</title>
<g id="a_node3"><a xlink:href="classMR24FDB1.html#a7dfa1c269d0979718203f9202d4e8578" target="_top" xlink:title="send a &quot;GET&quot; packet to the module and wait for responce ">
<polygon fill="white" stroke="black" points="149,-190.5 149,-209.5 307,-209.5 307,-190.5 149,-190.5"/>
<text text-anchor="middle" x="228" y="-197.5" font-family="Helvetica,sans-Serif" font-size="10.00">MR24FDB1::sendGetAndWait</text>
</a>
</g>
</g>
<!-- Node124&#45;&gt;Node126 -->
<g id="edge2" class="edge">
<title>Node124&#45;&gt;Node126</title>
<path fill="none" stroke="midnightblue" d="M123.14,-211.64C131.59,-210.69 140.3,-209.72 148.92,-208.75"/>
<polygon fill="midnightblue" stroke="midnightblue" points="122.55,-208.19 113,-212.78 123.33,-215.14 122.55,-208.19"/>
</g>
<!-- Node127 -->
<g id="node4" class="node">
<title>Node127</title>
<g id="a_node4"><a xlink:href="classMR24FDB1.html#a6a61bdca02e1a9ab2c6ab83c3ee2ff21" target="_top" xlink:title="requests Device Id ">
<polygon fill="white" stroke="black" points="356,-380.5 356,-399.5 491,-399.5 491,-380.5 356,-380.5"/>
<text text-anchor="middle" x="423.5" y="-387.5" font-family="Helvetica,sans-Serif" font-size="10.00">MR24FDB1::getDeviceId</text>
</a>
</g>
</g>
<!-- Node126&#45;&gt;Node127 -->
<g id="edge3" class="edge">
<title>Node126&#45;&gt;Node127</title>
<path fill="none" stroke="midnightblue" d="M302.94,-215.37C304.36,-216.5 305.72,-217.71 307,-219 355.93,-268.25 293.96,-321.86 343,-371 346.81,-374.82 351.24,-377.92 356.02,-380.44"/>
<polygon fill="midnightblue" stroke="midnightblue" points="304.52,-212.22 294.23,-209.7 300.7,-218.08 304.52,-212.22"/>
</g>
<!-- Node128 -->
<g id="node5" class="node">
<title>Node128</title>
<g id="a_node5"><a xlink:href="classMR24FDB1.html#a10ef6d7b6a0d7819b84361c907604fe0" target="_top" xlink:title="get status of fall enable switch ">
<polygon fill="white" stroke="black" points="352,-342.5 352,-361.5 495,-361.5 495,-342.5 352,-342.5"/>
<text text-anchor="middle" x="423.5" y="-349.5" font-family="Helvetica,sans-Serif" font-size="10.00">MR24FDB1::getFallEnable</text>
</a>
</g>
</g>
<!-- Node126&#45;&gt;Node128 -->
<g id="edge4" class="edge">
<title>Node126&#45;&gt;Node128</title>
<path fill="none" stroke="midnightblue" d="M302.17,-215.02C303.86,-216.25 305.47,-217.57 307,-219 345.81,-255.29 304.11,-296.79 343,-333 347.05,-336.77 351.71,-339.83 356.7,-342.32"/>
<polygon fill="midnightblue" stroke="midnightblue" points="303.56,-211.77 293.19,-209.62 299.96,-217.77 303.56,-211.77"/>
</g>
<!-- Node129 -->
<g id="node6" class="node">
<title>Node129</title>
<g id="a_node6"><a xlink:href="classMR24FDB1.html#a122352e437a57083aba3823b512e2c31" target="_top" xlink:title="get status of fall sensitivty setting ">
<polygon fill="white" stroke="black" points="343,-304.5 343,-323.5 504,-323.5 504,-304.5 343,-304.5"/>
<text text-anchor="middle" x="423.5" y="-311.5" font-family="Helvetica,sans-Serif" font-size="10.00">MR24FDB1::getFallSensitivity</text>
</a>
</g>
</g>
<!-- Node126&#45;&gt;Node129 -->
<g id="edge5" class="edge">
<title>Node126&#45;&gt;Node129</title>
<path fill="none" stroke="midnightblue" d="M300.41,-214.35C302.71,-215.76 304.92,-217.31 307,-219 335.98,-242.61 313.97,-271.45 343,-295 347.74,-298.84 353.13,-301.93 358.82,-304.41"/>
<polygon fill="midnightblue" stroke="midnightblue" points="301.59,-211.02 291.1,-209.54 298.38,-217.24 301.59,-211.02"/>
</g>
<!-- Node130 -->
<g id="node7" class="node">
<title>Node130</title>
<g id="a_node7"><a xlink:href="classMR24FDB1.html#a6e729c642bc4f67e6ce076fb0fa2aa3e" target="_top" xlink:title="get status of fall warning time setting ">
<polygon fill="white" stroke="black" points="344,-266.5 344,-285.5 503,-285.5 503,-266.5 344,-266.5"/>
<text text-anchor="middle" x="423.5" y="-273.5" font-family="Helvetica,sans-Serif" font-size="10.00">MR24FDB1::getFallWarnTime</text>
</a>
</g>
</g>
<!-- Node126&#45;&gt;Node130 -->
<g id="edge6" class="edge">
<title>Node126&#45;&gt;Node130</title>
<path fill="none" stroke="midnightblue" d="M295.21,-213.22C299.3,-214.92 303.27,-216.84 307,-219 327.12,-230.67 322.85,-245.37 343,-257 349.76,-260.9 357.28,-264 364.93,-266.47"/>
<polygon fill="midnightblue" stroke="midnightblue" points="296.08,-209.81 285.48,-209.63 293.66,-216.37 296.08,-209.81"/>
</g>
<!-- Node131 -->
<g id="node8" class="node">
<title>Node131</title>
<g id="a_node8"><a xlink:href="classMR24FDB1.html#a9c858e6eae2bf95de4340b7bb4fe07e7" target="_top" xlink:title="requests Hardware version ">
<polygon fill="white" stroke="black" points="345.5,-228.5 345.5,-247.5 501.5,-247.5 501.5,-228.5 345.5,-228.5"/>
<text text-anchor="middle" x="423.5" y="-235.5" font-family="Helvetica,sans-Serif" font-size="10.00">MR24FDB1::getHardwareVer</text>
</a>
</g>
</g>
<!-- Node126&#45;&gt;Node131 -->
<g id="edge7" class="edge">
<title>Node126&#45;&gt;Node131</title>
<path fill="none" stroke="midnightblue" d="M287.75,-211.54C315.35,-216.96 347.85,-223.34 374.02,-228.48"/>
<polygon fill="midnightblue" stroke="midnightblue" points="288.32,-208.08 277.83,-209.59 286.97,-214.95 288.32,-208.08"/>
</g>
<!-- Node132 -->
<g id="node9" class="node">
<title>Node132</title>
<g id="a_node9"><a xlink:href="classMR24FDB1.html#ab090aa5731fa4e348a33588f682f1a16" target="_top" xlink:title="get movement ">
<polygon fill="white" stroke="black" points="351,-190.5 351,-209.5 496,-209.5 496,-190.5 351,-190.5"/>
<text text-anchor="middle" x="423.5" y="-197.5" font-family="Helvetica,sans-Serif" font-size="10.00">MR24FDB1::getMovement</text>
</a>
</g>
</g>
<!-- Node126&#45;&gt;Node132 -->
<g id="edge8" class="edge">
<title>Node126&#45;&gt;Node132</title>
<path fill="none" stroke="midnightblue" d="M317.4,-200C328.63,-200 340.02,-200 350.94,-200"/>
<polygon fill="midnightblue" stroke="midnightblue" points="317.15,-196.5 307.15,-200 317.15,-203.5 317.15,-196.5"/>
</g>
<!-- Node134 -->
<g id="node11" class="node">
<title>Node134</title>
<g id="a_node11"><a xlink:href="classMR24FDB1.html#af5bcb06d3788fb4743e2f750a6e4a149" target="_top" xlink:title="get presence from module ">
<polygon fill="white" stroke="black" points="355,-152.5 355,-171.5 492,-171.5 492,-152.5 355,-152.5"/>
<text text-anchor="middle" x="423.5" y="-159.5" font-family="Helvetica,sans-Serif" font-size="10.00">MR24FDB1::getPresence</text>
</a>
</g>
</g>
<!-- Node126&#45;&gt;Node134 -->
<g id="edge10" class="edge">
<title>Node126&#45;&gt;Node134</title>
<path fill="none" stroke="midnightblue" d="M287.75,-188.46C315.35,-183.04 347.85,-176.66 374.02,-171.52"/>
<polygon fill="midnightblue" stroke="midnightblue" points="286.97,-185.05 277.83,-190.41 288.32,-191.92 286.97,-185.05"/>
</g>
<!-- Node135 -->
<g id="node12" class="node">
<title>Node135</title>
<g id="a_node12"><a xlink:href="classMR24FDB1.html#a206d007330f0b2f9c76b070e215dbb05" target="_top" xlink:title="request Protocol Version ">
<polygon fill="white" stroke="black" points="349,-114.5 349,-133.5 498,-133.5 498,-114.5 349,-114.5"/>
<text text-anchor="middle" x="423.5" y="-121.5" font-family="Helvetica,sans-Serif" font-size="10.00">MR24FDB1::getProtocolVer</text>
</a>
</g>
</g>
<!-- Node126&#45;&gt;Node135 -->
<g id="edge12" class="edge">
<title>Node126&#45;&gt;Node135</title>
<path fill="none" stroke="midnightblue" d="M254.01,-185.4C276.62,-172.71 311.16,-154.59 343,-143 353,-139.36 363.97,-136.22 374.47,-133.6"/>
<polygon fill="midnightblue" stroke="midnightblue" points="252.05,-182.49 245.09,-190.47 255.51,-188.57 252.05,-182.49"/>
</g>
<!-- Node136 -->
<g id="node13" class="node">
<title>Node136</title>
<g id="a_node13"><a xlink:href="classMR24FDB1.html#adc620372e2ccd4d3dece13bfe8c8424e" target="_top" xlink:title="get scene parameter ">
<polygon fill="white" stroke="black" points="362.5,-76.5 362.5,-95.5 484.5,-95.5 484.5,-76.5 362.5,-76.5"/>
<text text-anchor="middle" x="423.5" y="-83.5" font-family="Helvetica,sans-Serif" font-size="10.00">MR24FDB1::getScene</text>
</a>
</g>
</g>
<!-- Node126&#45;&gt;Node136 -->
<g id="edge13" class="edge">
<title>Node126&#45;&gt;Node136</title>
<path fill="none" stroke="midnightblue" d="M244.65,-182.78C265.14,-161.3 303.18,-124.96 343,-105 350.74,-101.12 359.3,-98.01 367.86,-95.53"/>
<polygon fill="midnightblue" stroke="midnightblue" points="241.96,-180.53 237.68,-190.22 247.07,-185.31 241.96,-180.53"/>
</g>
<!-- Node137 -->
<g id="node14" class="node">
<title>Node137</title>
<g id="a_node14"><a xlink:href="classMR24FDB1.html#a82a44a7291dd7b96de57a2d2cda10251" target="_top" xlink:title="get sensitivity parameter ">
<polygon fill="white" stroke="black" points="351.5,-38.5 351.5,-57.5 495.5,-57.5 495.5,-38.5 351.5,-38.5"/>
<text text-anchor="middle" x="423.5" y="-45.5" font-family="Helvetica,sans-Serif" font-size="10.00">MR24FDB1::getSensitivity</text>
</a>
</g>
</g>
<!-- Node126&#45;&gt;Node137 -->
<g id="edge14" class="edge">
<title>Node126&#45;&gt;Node137</title>
<path fill="none" stroke="midnightblue" d="M239.34,-181.79C256.8,-152.77 294.97,-96.34 343,-67 349.3,-63.15 356.32,-60.09 363.5,-57.64"/>
<polygon fill="midnightblue" stroke="midnightblue" points="236.27,-180.1 234.23,-190.5 242.31,-183.65 236.27,-180.1"/>
</g>
<!-- Node138 -->
<g id="node15" class="node">
<title>Node138</title>
<g id="a_node15"><a xlink:href="classMR24FDB1.html#af9b355c4127c5b937407b3e3b25217c7" target="_top" xlink:title="requests Software verion ">
<polygon fill="white" stroke="black" points="347.5,-0.5 347.5,-19.5 499.5,-19.5 499.5,-0.5 347.5,-0.5"/>
<text text-anchor="middle" x="423.5" y="-7.5" font-family="Helvetica,sans-Serif" font-size="10.00">MR24FDB1::getSoftwareVer</text>
</a>
</g>
</g>
<!-- Node126&#45;&gt;Node138 -->
<g id="edge15" class="edge">
<title>Node126&#45;&gt;Node138</title>
<path fill="none" stroke="midnightblue" d="M236.25,-180.7C250.73,-144.87 286.76,-68.2 343,-29 348.59,-25.11 354.88,-22 361.4,-19.53"/>
<polygon fill="midnightblue" stroke="midnightblue" points="232.83,-179.83 232.45,-190.41 239.35,-182.38 232.83,-179.83"/>
</g>
<!-- Node133 -->
<g id="node10" class="node">
<title>Node133</title>
<g id="a_node10"><a xlink:href="classMR24FDB1.html#a0c0b8071f5d90b32f3c109ff71ff2ec0" target="_top" xlink:title="send test ">
<polygon fill="white" stroke="black" points="540,-171.5 540,-190.5 659,-190.5 659,-171.5 540,-171.5"/>
<text text-anchor="middle" x="599.5" y="-178.5" font-family="Helvetica,sans-Serif" font-size="10.00">MR24FDB1::testSend</text>
</a>
</g>
</g>
<!-- Node132&#45;&gt;Node133 -->
<g id="edge9" class="edge">
<title>Node132&#45;&gt;Node133</title>
<path fill="none" stroke="midnightblue" d="M506.04,-191.1C517.49,-189.85 529.07,-188.58 539.98,-187.39"/>
<polygon fill="midnightblue" stroke="midnightblue" points="505.59,-187.62 496.03,-192.19 506.35,-194.58 505.59,-187.62"/>
</g>
<!-- Node134&#45;&gt;Node133 -->
<g id="edge11" class="edge">
<title>Node134&#45;&gt;Node133</title>
<path fill="none" stroke="midnightblue" d="M502.33,-170.5C514.97,-171.88 527.87,-173.29 539.95,-174.61"/>
<polygon fill="midnightblue" stroke="midnightblue" points="502.59,-167.01 492.27,-169.4 501.83,-173.97 502.59,-167.01"/>
</g>
</g>
</svg>
        <g id="navigator" transform="translate(0 0)" fill="#404254">
                <rect fill="#f2f5e9" fill-opacity="0.5" stroke="#606060" stroke-width=".5" x="0" y="0" width="60" height="60"/>
                <use id="zoomplus" xlink:href="#zoomPlus" x="17" y="9" onmousedown="handleZoom(evt,'in')"/>
                <use id="zoomminus" xlink:href="#zoomMin" x="42" y="9" onmousedown="handleZoom(evt,'out')"/>
                <use id="reset" xlink:href="#resetDef" x="30" y="36" onmousedown="handleReset()"/>
                <g id="arrowUp" xlink:href="#dirArrow" transform="translate(30 24)" onmousedown="handlePan(0,-1)">
                  <use xlink:href="#rim" fill="#404040">
                        <set attributeName="fill" to="#808080" begin="arrowUp.mouseover" end="arrowUp.mouseout"/>
                  </use>
                  <path fill="none" stroke="white" stroke-width="1.5" d="M0,-3.0v7 M-2.5,-0.5L0,-3.0L2.5,-0.5"/>
                </g>
                <g id="arrowRight" xlink:href="#dirArrow" transform="rotate(90) translate(36 -43)" onmousedown="handlePan(1,0)">
                  <use xlink:href="#rim" fill="#404040">
                        <set attributeName="fill" to="#808080" begin="arrowRight.mouseover" end="arrowRight.mouseout"/>
                  </use>
                  <path fill="none" stroke="white" stroke-width="1.5" d="M0,-3.0v7 M-2.5,-0.5L0,-3.0L2.5,-0.5"/>
                </g>
                <g id="arrowDown" xlink:href="#dirArrow" transform="rotate(180) translate(-30 -48)" onmousedown="handlePan(0,1)">
                  <use xlink:href="#rim" fill="#404040">
                        <set attributeName="fill" to="#808080" begin="arrowDown.mouseover" end="arrowDown.mouseout"/>
                  </use>
                  <path fill="none" stroke="white" stroke-width="1.5" d="M0,-3.0v7 M-2.5,-0.5L0,-3.0L2.5,-0.5"/>
                </g>
                <g id="arrowLeft" xlink:href="#dirArrow" transform="rotate(270) translate(-36 17)" onmousedown="handlePan(-1,0)">
                  <use xlink:href="#rim" fill="#404040">
                        <set attributeName="fill" to="#808080" begin="arrowLeft.mouseover" end="arrowLeft.mouseout"/>
                  </use>
                  <path fill="none" stroke="white" stroke-width="1.5" d="M0,-3.0v7 M-2.5,-0.5L0,-3.0L2.5,-0.5"/>
                </g>
        </g>
        <svg viewBox="0 0 15 15" width="100%" height="30px" preserveAspectRatio="xMaxYMin meet">
         <g id="arrow_out" transform="scale(0.3 0.3)">
          <a xlink:href="classMR24FDB1_a944e9bede6552294ea9940ae6fda3b96_icgraph_org.svg" target="_base">
           <rect id="button" ry="5" rx="5" y="6" x="6" height="38" width="38"
                fill="#f2f5e9" fill-opacity="0.5" stroke="#606060" stroke-width="1.0"/>
           <path id="arrow"
             d="M 11.500037,31.436501 C 11.940474,20.09759 22.043105,11.32322 32.158766,21.979434 L 37.068811,17.246167 C 37.068811,17.246167 37.088388,32 37.088388,32 L 22.160133,31.978069 C 22.160133,31.978069 26.997745,27.140456 26.997745,27.140456 C 18.528582,18.264221 13.291696,25.230495 11.500037,31.436501 z"
             style="fill:#404040;"/>
          </a>
         </g>
        </svg>
</svg>
