<?xml version="1.0" encoding="UTF-8" standalone="no"?>
<!DOCTYPE svg PUBLIC "-//W3C//DTD SVG 1.1//EN"
 "http://www.w3.org/Graphics/SVG/1.1/DTD/svg11.dtd">
<!-- Generated by graphviz version 2.43.0 (0)
 -->
<!-- Title: MR24FDB1::getSoftwareVer Pages: 1 -->
<!--zoomable 218 -->
<svg id="main" version="1.1" xmlns="http://www.w3.org/2000/svg" xmlns:xlink="http://www.w3.org/1999/xlink" xml:space="preserve" onload="init(evt)">
<style type="text/css"><![CDATA[
.edge:hover path { stroke: red; }
.edge:hover polygon { stroke: red; fill: red; }
]]></style>
<script type="text/javascript"><![CDATA[
var edges = document.getElementsByTagName('g');
if (edges && edges.length) {
  for (var i=0;i<edges.length;i++) {
    if (edges[i].id.substr(0,4)=='edge') {
      edges[i].setAttribute('class','edge');
    }
  }
}
]]></script>
        <defs>
                <circle id="rim" cx="0" cy="0" r="7"/>
                <circle id="rim2" cx="0" cy="0" r="3.5"/>
                <g id="zoomPlus">
                        <use xlink:href="#rim" fill="#404040">
                                <set attributeName="fill" to="#808080" begin="zoomplus.mouseover" end="zoomplus.mouseout"/>
                        </use>
                        <path d="M-4,0h8M0,-4v8" fill="none" stroke="white" stroke-width="1.5" pointer-events="none"/>
                </g>
                <g id="zoomMin">
                        <use xlink:href="#rim" fill="#404040">
                                <set attributeName="fill" to="#808080" begin="zoomminus.mouseover" end="zoomminus.mouseout"/>
                        </use>
                        <path d="M-4,0h8" fill="none" stroke="white" stroke-width="1.5" pointer-events="none"/>
                </g>
                <g id="dirArrow">
                        <path fill="none" stroke="white" stroke-width="1.5" d="M0,-3.0v7 M-2.5,-0.5L0,-3.0L2.5,-0.5"/>
                </g>
               <g id="resetDef">
                       <use xlink:href="#rim2" fill="#404040">
                               <set attributeName="fill" to="#808080" begin="reset.mouseover" end="reset.mouseout"/>
                       </use>
               </g>
        </defs>

<script type="text/javascript">
var viewWidth = 1096;
var viewHeight = 218;
var sectionId = 'dynsection-14';
</script>
<script xlink:href="svgpan.js"/>
<svg id="graph" class="graph">
<g id="viewport">
<title>MR24FDB1::getSoftwareVer</title>
<polygon fill="white" stroke="transparent" points="-4,4 -4,-214 1092,-214 1092,4 -4,4"/>
<!-- Node155 -->
<g id="node1" class="node">
<title>Node155</title>
<g id="a_node1"><a xlink:title="requests Software verion ">
<polygon fill="#bfbfbf" stroke="black" points="0,-114.5 0,-133.5 152,-133.5 152,-114.5 0,-114.5"/>
<text text-anchor="middle" x="76" y="-121.5" font-family="Helvetica,sans-Serif" font-size="10.00">MR24FDB1::getSoftwareVer</text>
</a>
</g>
</g>
<!-- Node156 -->
<g id="node2" class="node">
<title>Node156</title>
<g id="a_node2"><a xlink:href="classMR24FDB1.html#a7dfa1c269d0979718203f9202d4e8578" target="_top" xlink:title="send a &quot;GET&quot; packet to the module and wait for responce ">
<polygon fill="white" stroke="black" points="188,-114.5 188,-133.5 346,-133.5 346,-114.5 188,-114.5"/>
<text text-anchor="middle" x="267" y="-121.5" font-family="Helvetica,sans-Serif" font-size="10.00">MR24FDB1::sendGetAndWait</text>
</a>
</g>
</g>
<!-- Node155&#45;&gt;Node156 -->
<g id="edge1" class="edge">
<title>Node155&#45;&gt;Node156</title>
<path fill="none" stroke="midnightblue" d="M152.24,-124C160.68,-124 169.32,-124 177.9,-124"/>
<polygon fill="midnightblue" stroke="midnightblue" points="177.92,-127.5 187.92,-124 177.92,-120.5 177.92,-127.5"/>
</g>
<!-- Node157 -->
<g id="node3" class="node">
<title>Node157</title>
<g id="a_node3"><a xlink:href="classMR24FDB1.html#a4a5275f119bcbd82dd5a0d6a1d8defe5" target="_top" xlink:title="send a &quot;GET&quot; packet to the module ">
<polygon fill="white" stroke="black" points="382,-152.5 382,-171.5 499,-171.5 499,-152.5 382,-152.5"/>
<text text-anchor="middle" x="440.5" y="-159.5" font-family="Helvetica,sans-Serif" font-size="10.00">MR24FDB1::sendGet</text>
</a>
</g>
</g>
<!-- Node156&#45;&gt;Node157 -->
<g id="edge2" class="edge">
<title>Node156&#45;&gt;Node157</title>
<path fill="none" stroke="midnightblue" d="M311.28,-133.59C334.11,-138.65 362.32,-144.9 386.46,-150.25"/>
<polygon fill="midnightblue" stroke="midnightblue" points="386.01,-153.73 396.53,-152.48 387.53,-146.9 386.01,-153.73"/>
</g>
<!-- Node161 -->
<g id="node7" class="node">
<title>Node161</title>
<g id="a_node7"><a xlink:href="classMR24FDB1.html#a944e9bede6552294ea9940ae6fda3b96" target="_top" xlink:title="wait until packet of the specified type is recieved ">
<polygon fill="white" stroke="black" points="384,-95.5 384,-114.5 497,-114.5 497,-95.5 384,-95.5"/>
<text text-anchor="middle" x="440.5" y="-102.5" font-family="Helvetica,sans-Serif" font-size="10.00">MR24FDB1::waitFor</text>
</a>
</g>
</g>
<!-- Node156&#45;&gt;Node161 -->
<g id="edge6" class="edge">
<title>Node156&#45;&gt;Node161</title>
<path fill="none" stroke="midnightblue" d="M346.22,-115.33C355.46,-114.31 364.83,-113.27 373.87,-112.27"/>
<polygon fill="midnightblue" stroke="midnightblue" points="374.37,-115.74 383.92,-111.16 373.6,-108.78 374.37,-115.74"/>
</g>
<!-- Node158 -->
<g id="node4" class="node">
<title>Node158</title>
<g id="a_node4"><a xlink:href="classMR24FDB1.html#af148f4391ab1003e82d4497d8072aaa0" target="_top" xlink:title="calculate and add crc16 at end of buffer ">
<polygon fill="white" stroke="black" points="568,-152.5 568,-171.5 690,-171.5 690,-152.5 568,-152.5"/>
<text text-anchor="middle" x="629" y="-159.5" font-family="Helvetica,sans-Serif" font-size="10.00">MR24FDB1::addCrc16</text>
</a>
</g>
</g>
<!-- Node157&#45;&gt;Node158 -->
<g id="edge3" class="edge">
<title>Node157&#45;&gt;Node158</title>
<path fill="none" stroke="midnightblue" d="M499.23,-162C517.73,-162 538.42,-162 557.72,-162"/>
<polygon fill="midnightblue" stroke="midnightblue" points="557.96,-165.5 567.96,-162 557.96,-158.5 557.96,-165.5"/>
</g>
<!-- Node160 -->
<g id="node6" class="node">
<title>Node160</title>
<g id="a_node6"><a xlink:href="classMR24FDB1.html#a586848e9efe86b47520f92e049c502eb" target="_top" xlink:title="send a packet to the module ">
<polygon fill="white" stroke="black" points="563,-190.5 563,-209.5 695,-209.5 695,-190.5 563,-190.5"/>
<text text-anchor="middle" x="629" y="-197.5" font-family="Helvetica,sans-Serif" font-size="10.00">MR24FDB1::sendPacket</text>
</a>
</g>
</g>
<!-- Node157&#45;&gt;Node160 -->
<g id="edge5" class="edge">
<title>Node157&#45;&gt;Node160</title>
<path fill="none" stroke="midnightblue" d="M488.56,-171.59C513.73,-176.72 544.9,-183.07 571.38,-188.46"/>
<polygon fill="midnightblue" stroke="midnightblue" points="570.78,-191.91 581.28,-190.48 572.18,-185.05 570.78,-191.91"/>
</g>
<!-- Node159 -->
<g id="node5" class="node">
<title>Node159</title>
<g id="a_node5"><a xlink:href="classMR24FDB1.html#af7b82f23ec8f67c955ae413f4a078af0" target="_top" xlink:title="calculate crc16 of current packet ">
<polygon fill="white" stroke="black" points="761,-152.5 761,-171.5 910,-171.5 910,-152.5 761,-152.5"/>
<text text-anchor="middle" x="835.5" y="-159.5" font-family="Helvetica,sans-Serif" font-size="10.00">MR24FDB1::calculateCrc16</text>
</a>
</g>
</g>
<!-- Node158&#45;&gt;Node159 -->
<g id="edge4" class="edge">
<title>Node158&#45;&gt;Node159</title>
<path fill="none" stroke="midnightblue" d="M690.25,-162C709.2,-162 730.48,-162 750.75,-162"/>
<polygon fill="midnightblue" stroke="midnightblue" points="750.92,-165.5 760.92,-162 750.92,-158.5 750.92,-165.5"/>
</g>
<!-- Node162 -->
<g id="node8" class="node">
<title>Node162</title>
<g id="a_node8"><a xlink:href="classMR24FDB1.html#a8a6f5bebfe9e2f9232e58f0ff909042a" target="_top" xlink:title="parse packet ">
<polygon fill="white" stroke="black" points="561,-38.5 561,-57.5 697,-57.5 697,-38.5 561,-38.5"/>
<text text-anchor="middle" x="629" y="-45.5" font-family="Helvetica,sans-Serif" font-size="10.00">MR24FDB1::parsePacket</text>
</a>
</g>
</g>
<!-- Node161&#45;&gt;Node162 -->
<g id="edge7" class="edge">
<title>Node161&#45;&gt;Node162</title>
<path fill="none" stroke="midnightblue" d="M461.9,-95.43C480.58,-86.98 509.17,-74.81 535,-67 543.8,-64.34 553.19,-61.93 562.48,-59.8"/>
<polygon fill="midnightblue" stroke="midnightblue" points="563.49,-63.16 572.5,-57.59 561.98,-56.32 563.49,-63.16"/>
</g>
<!-- Node167 -->
<g id="node13" class="node">
<title>Node167</title>
<g id="a_node13"><a xlink:href="classMR24FDB1.html#a5e44c632274bde4a6e22f35d80a782f0" target="_top" xlink:title="get a packet from the chip ">
<polygon fill="white" stroke="black" points="563.5,-114.5 563.5,-133.5 694.5,-133.5 694.5,-114.5 563.5,-114.5"/>
<text text-anchor="middle" x="629" y="-121.5" font-family="Helvetica,sans-Serif" font-size="10.00">MR24FDB1::readPacket</text>
</a>
</g>
</g>
<!-- Node161&#45;&gt;Node167 -->
<g id="edge13" class="edge">
<title>Node161&#45;&gt;Node167</title>
<path fill="none" stroke="midnightblue" d="M497.2,-110.67C514.85,-112.47 534.66,-114.49 553.41,-116.4"/>
<polygon fill="midnightblue" stroke="midnightblue" points="553.1,-119.89 563.41,-117.42 553.81,-112.92 553.1,-119.89"/>
</g>
<!-- Node169 -->
<g id="node15" class="node">
<title>Node169</title>
<g id="a_node15"><a xlink:href="classMR24FDB1__Exception.html#a695552f5db7be7840c1af8650af0c235" target="_top" xlink:title="decode error from the Result,class,group , function etc... ">
<polygon fill="white" stroke="black" points="535,-76.5 535,-95.5 723,-95.5 723,-76.5 535,-76.5"/>
<text text-anchor="middle" x="629" y="-83.5" font-family="Helvetica,sans-Serif" font-size="10.00">MR24FDB1_Exception::decodeError</text>
</a>
</g>
</g>
<!-- Node161&#45;&gt;Node169 -->
<g id="edge16" class="edge">
<title>Node161&#45;&gt;Node169</title>
<path fill="none" stroke="midnightblue" d="M497.2,-99.33C506.05,-98.42 515.43,-97.47 524.95,-96.5"/>
<polygon fill="midnightblue" stroke="midnightblue" points="525.31,-99.98 534.91,-95.48 524.6,-93.02 525.31,-99.98"/>
</g>
<!-- Node163 -->
<g id="node9" class="node">
<title>Node163</title>
<g id="a_node9"><a xlink:href="classMR24FDB1.html#a2ccfe8221167944b882b5747b07dae22" target="_top" xlink:title="parse fall type packet ">
<polygon fill="white" stroke="black" points="759,-38.5 759,-57.5 912,-57.5 912,-38.5 759,-38.5"/>
<text text-anchor="middle" x="835.5" y="-45.5" font-family="Helvetica,sans-Serif" font-size="10.00">MR24FDB1::parseFallReport</text>
</a>
</g>
</g>
<!-- Node162&#45;&gt;Node163 -->
<g id="edge8" class="edge">
<title>Node162&#45;&gt;Node163</title>
<path fill="none" stroke="midnightblue" d="M697.24,-48C713.69,-48 731.51,-48 748.69,-48"/>
<polygon fill="midnightblue" stroke="midnightblue" points="748.72,-51.5 758.72,-48 748.72,-44.5 748.72,-51.5"/>
</g>
<!-- Node164 -->
<g id="node10" class="node">
<title>Node164</title>
<g id="a_node10"><a xlink:href="classMR24FDB1.html#a1759ec9442c191ee6ddc09137a9c0528" target="_top" xlink:title="parse report type packet ">
<polygon fill="white" stroke="black" points="767.5,-0.5 767.5,-19.5 903.5,-19.5 903.5,-0.5 767.5,-0.5"/>
<text text-anchor="middle" x="835.5" y="-7.5" font-family="Helvetica,sans-Serif" font-size="10.00">MR24FDB1::parseReport</text>
</a>
</g>
</g>
<!-- Node162&#45;&gt;Node164 -->
<g id="edge9" class="edge">
<title>Node162&#45;&gt;Node164</title>
<path fill="none" stroke="midnightblue" d="M681.34,-38.46C709.17,-33.29 743.77,-26.86 773.03,-21.42"/>
<polygon fill="midnightblue" stroke="midnightblue" points="773.95,-24.81 783.14,-19.54 772.67,-17.93 773.95,-24.81"/>
</g>
<!-- Node166 -->
<g id="node12" class="node">
<title>Node166</title>
<g id="a_node12"><a xlink:href="classMR24FDB1.html#a55ecfd4dffd4d04c97dcd6e6e264ad61" target="_top" xlink:title="parse reponce type packet ">
<polygon fill="white" stroke="black" points="760,-76.5 760,-95.5 911,-95.5 911,-76.5 760,-76.5"/>
<text text-anchor="middle" x="835.5" y="-83.5" font-family="Helvetica,sans-Serif" font-size="10.00">MR24FDB1::parseResponce</text>
</a>
</g>
</g>
<!-- Node162&#45;&gt;Node166 -->
<g id="edge11" class="edge">
<title>Node162&#45;&gt;Node166</title>
<path fill="none" stroke="midnightblue" d="M681.34,-57.54C709.17,-62.71 743.77,-69.14 773.03,-74.58"/>
<polygon fill="midnightblue" stroke="midnightblue" points="772.67,-78.07 783.14,-76.46 773.95,-71.19 772.67,-78.07"/>
</g>
<!-- Node165 -->
<g id="node11" class="node">
<title>Node165</title>
<g id="a_node11"><a xlink:href="classMR24FDB1.html#ae444c38bb80decf58cabe5b12005b819" target="_top" xlink:title="parse Radar group responces and reports ">
<polygon fill="white" stroke="black" points="948,-38.5 948,-57.5 1088,-57.5 1088,-38.5 948,-38.5"/>
<text text-anchor="middle" x="1018" y="-45.5" font-family="Helvetica,sans-Serif" font-size="10.00">MR24FDB1::decodeRadar</text>
</a>
</g>
</g>
<!-- Node164&#45;&gt;Node165 -->
<g id="edge10" class="edge">
<title>Node164&#45;&gt;Node165</title>
<path fill="none" stroke="midnightblue" d="M882.05,-19.59C906.3,-24.69 936.3,-31.01 961.86,-36.39"/>
<polygon fill="midnightblue" stroke="midnightblue" points="961.27,-39.84 971.78,-38.48 962.72,-32.99 961.27,-39.84"/>
</g>
<!-- Node166&#45;&gt;Node165 -->
<g id="edge12" class="edge">
<title>Node166&#45;&gt;Node165</title>
<path fill="none" stroke="midnightblue" d="M882.05,-76.41C906.3,-71.31 936.3,-64.99 961.86,-59.61"/>
<polygon fill="midnightblue" stroke="midnightblue" points="962.72,-63.01 971.78,-57.52 961.27,-56.16 962.72,-63.01"/>
</g>
<!-- Node167&#45;&gt;Node159 -->
<g id="edge14" class="edge">
<title>Node167&#45;&gt;Node159</title>
<path fill="none" stroke="midnightblue" d="M681.34,-133.54C709.17,-138.71 743.77,-145.14 773.03,-150.58"/>
<polygon fill="midnightblue" stroke="midnightblue" points="772.67,-154.07 783.14,-152.46 773.95,-147.19 772.67,-154.07"/>
</g>
<!-- Node168 -->
<g id="node14" class="node">
<title>Node168</title>
<g id="a_node14"><a xlink:href="classMR24FDB1.html#a3de11c024f9b20321cce5d98cd534c3e" target="_top" xlink:title="get one byte from serial ">
<polygon fill="white" stroke="black" points="775,-114.5 775,-133.5 896,-133.5 896,-114.5 775,-114.5"/>
<text text-anchor="middle" x="835.5" y="-121.5" font-family="Helvetica,sans-Serif" font-size="10.00">MR24FDB1::readByte</text>
</a>
</g>
</g>
<!-- Node167&#45;&gt;Node168 -->
<g id="edge15" class="edge">
<title>Node167&#45;&gt;Node168</title>
<path fill="none" stroke="midnightblue" d="M694.71,-124C716.93,-124 741.9,-124 764.52,-124"/>
<polygon fill="midnightblue" stroke="midnightblue" points="764.73,-127.5 774.73,-124 764.73,-120.5 764.73,-127.5"/>
</g>
</g>
</svg>
        <g id="navigator" transform="translate(0 0)" fill="#404254">
                <rect fill="#f2f5e9" fill-opacity="0.5" stroke="#606060" stroke-width=".5" x="0" y="0" width="60" height="60"/>
                <use id="zoomplus" xlink:href="#zoomPlus" x="17" y="9" onmousedown="handleZoom(evt,'in')"/>
                <use id="zoomminus" xlink:href="#zoomMin" x="42" y="9" onmousedown="handleZoom(evt,'out')"/>
                <use id="reset" xlink:href="#resetDef" x="30" y="36" onmousedown="handleReset()"/>
                <g id="arrowUp" xlink:href="#dirArrow" transform="translate(30 24)" onmousedown="handlePan(0,-1)">
                  <use xlink:href="#rim" fill="#404040">
                        <set attributeName="fill" to="#808080" begin="arrowUp.mouseover" end="arrowUp.mouseout"/>
                  </use>
                  <path fill="none" stroke="white" stroke-width="1.5" d="M0,-3.0v7 M-2.5,-0.5L0,-3.0L2.5,-0.5"/>
                </g>
                <g id="arrowRight" xlink:href="#dirArrow" transform="rotate(90) translate(36 -43)" onmousedown="handlePan(1,0)">
                  <use xlink:href="#rim" fill="#404040">
                        <set attributeName="fill" to="#808080" begin="arrowRight.mouseover" end="arrowRight.mouseout"/>
                  </use>
                  <path fill="none" stroke="white" stroke-width="1.5" d="M0,-3.0v7 M-2.5,-0.5L0,-3.0L2.5,-0.5"/>
                </g>
                <g id="arrowDown" xlink:href="#dirArrow" transform="rotate(180) translate(-30 -48)" onmousedown="handlePan(0,1)">
                  <use xlink:href="#rim" fill="#404040">
                        <set attributeName="fill" to="#808080" begin="arrowDown.mouseover" end="arrowDown.mouseout"/>
                  </use>
                  <path fill="none" stroke="white" stroke-width="1.5" d="M0,-3.0v7 M-2.5,-0.5L0,-3.0L2.5,-0.5"/>
                </g>
                <g id="arrowLeft" xlink:href="#dirArrow" transform="rotate(270) translate(-36 17)" onmousedown="handlePan(-1,0)">
                  <use xlink:href="#rim" fill="#404040">
                        <set attributeName="fill" to="#808080" begin="arrowLeft.mouseover" end="arrowLeft.mouseout"/>
                  </use>
                  <path fill="none" stroke="white" stroke-width="1.5" d="M0,-3.0v7 M-2.5,-0.5L0,-3.0L2.5,-0.5"/>
                </g>
        </g>
        <svg viewBox="0 0 15 15" width="100%" height="30px" preserveAspectRatio="xMaxYMin meet">
         <g id="arrow_out" transform="scale(0.3 0.3)">
          <a xlink:href="classMR24FDB1_af9b355c4127c5b937407b3e3b25217c7_cgraph_org.svg" target="_base">
           <rect id="button" ry="5" rx="5" y="6" x="6" height="38" width="38"
                fill="#f2f5e9" fill-opacity="0.5" stroke="#606060" stroke-width="1.0"/>
           <path id="arrow"
             d="M 11.500037,31.436501 C 11.940474,20.09759 22.043105,11.32322 32.158766,21.979434 L 37.068811,17.246167 C 37.068811,17.246167 37.088388,32 37.088388,32 L 22.160133,31.978069 C 22.160133,31.978069 26.997745,27.140456 26.997745,27.140456 C 18.528582,18.264221 13.291696,25.230495 11.500037,31.436501 z"
             style="fill:#404040;"/>
          </a>
         </g>
        </svg>
</svg>
