<?xml version="1.0" encoding="UTF-8" standalone="no"?>
<!DOCTYPE svg PUBLIC "-//W3C//DTD SVG 1.1//EN"
 "http://www.w3.org/Graphics/SVG/1.1/DTD/svg11.dtd">
<!-- Generated by graphviz version 2.43.0 (0)
 -->
<!-- Title: MR24FDB1::parseResponce Pages: 1 -->
<svg width="1026pt" height="477pt"
 viewBox="0.00 0.00 1026.00 477.47" xmlns="http://www.w3.org/2000/svg" xmlns:xlink="http://www.w3.org/1999/xlink">
<g id="graph0" class="graph" transform="scale(1 1) rotate(0) translate(4 473.47)">
<title>MR24FDB1::parseResponce</title>
<polygon fill="white" stroke="transparent" points="-4,4 -4,-473.47 1022,-473.47 1022,4 -4,4"/>
<!-- Node472 -->
<g id="node1" class="node">
<title>Node472</title>
<g id="a_node1"><a xlink:title="parse reponce type packet ">
<polygon fill="#bfbfbf" stroke="black" points="0,-380.5 0,-399.5 151,-399.5 151,-380.5 0,-380.5"/>
<text text-anchor="middle" x="75.5" y="-387.5" font-family="Helvetica,sans-Serif" font-size="10.00">MR24FDB1::parseResponce</text>
</a>
</g>
</g>
<!-- Node473 -->
<g id="node2" class="node">
<title>Node473</title>
<g id="a_node2"><a xlink:href="classMR24FDB1.html#a8a6f5bebfe9e2f9232e58f0ff909042a" target="_top" xlink:title="parse packet ">
<polygon fill="white" stroke="black" points="187,-380.5 187,-399.5 323,-399.5 323,-380.5 187,-380.5"/>
<text text-anchor="middle" x="255" y="-387.5" font-family="Helvetica,sans-Serif" font-size="10.00">MR24FDB1::parsePacket</text>
</a>
</g>
</g>
<!-- Node472&#45;&gt;Node473 -->
<g id="edge1" class="edge">
<title>Node472&#45;&gt;Node473</title>
<path fill="none" stroke="midnightblue" d="M161.07,-390C169.69,-390 178.36,-390 186.75,-390"/>
<polygon fill="midnightblue" stroke="midnightblue" points="161,-386.5 151,-390 161,-393.5 161,-386.5"/>
</g>
<!-- Node474 -->
<g id="node3" class="node">
<title>Node474</title>
<g id="a_node3"><a xlink:href="classMR24FDB1.html#a0c0b8071f5d90b32f3c109ff71ff2ec0" target="_top" xlink:title="send test ">
<polygon fill="white" stroke="black" points="899,-190.5 899,-209.5 1018,-209.5 1018,-190.5 899,-190.5"/>
<text text-anchor="middle" x="958.5" y="-197.5" font-family="Helvetica,sans-Serif" font-size="10.00">MR24FDB1::testSend</text>
</a>
</g>
</g>
<!-- Node473&#45;&gt;Node474 -->
<g id="edge2" class="edge">
<title>Node473&#45;&gt;Node474</title>
<path fill="none" stroke="midnightblue" d="M289.64,-403.21C387.5,-439.3 676.9,-529.09 863,-409 935.61,-362.15 953.02,-244.55 956.64,-209.81"/>
<polygon fill="midnightblue" stroke="midnightblue" points="290.58,-399.83 279.98,-399.6 288.12,-406.38 290.58,-399.83"/>
</g>
<!-- Node475 -->
<g id="node4" class="node">
<title>Node475</title>
<g id="a_node4"><a xlink:href="classMR24FDB1.html#a944e9bede6552294ea9940ae6fda3b96" target="_top" xlink:title="wait until packet of the specified type is recieved ">
<polygon fill="white" stroke="black" points="359,-285.5 359,-304.5 472,-304.5 472,-285.5 359,-285.5"/>
<text text-anchor="middle" x="415.5" y="-292.5" font-family="Helvetica,sans-Serif" font-size="10.00">MR24FDB1::waitFor</text>
</a>
</g>
</g>
<!-- Node473&#45;&gt;Node475 -->
<g id="edge3" class="edge">
<title>Node473&#45;&gt;Node475</title>
<path fill="none" stroke="midnightblue" d="M281.06,-374.98C313.94,-355.27 370.71,-321.25 398.39,-304.66"/>
<polygon fill="midnightblue" stroke="midnightblue" points="278.85,-372.23 272.07,-380.37 282.45,-378.23 278.85,-372.23"/>
</g>
<!-- Node476 -->
<g id="node5" class="node">
<title>Node476</title>
<g id="a_node5"><a xlink:href="classMR24FDB1.html#a23542b21cc78944a36d941eb4eaaf29d" target="_top" xlink:title="reboot ">
<polygon fill="white" stroke="black" points="533,-285.5 533,-304.5 641,-304.5 641,-285.5 533,-285.5"/>
<text text-anchor="middle" x="587" y="-292.5" font-family="Helvetica,sans-Serif" font-size="10.00">MR24FDB1::reboot</text>
</a>
</g>
</g>
<!-- Node475&#45;&gt;Node476 -->
<g id="edge4" class="edge">
<title>Node475&#45;&gt;Node476</title>
<path fill="none" stroke="midnightblue" d="M482.29,-295C499.08,-295 516.91,-295 532.97,-295"/>
<polygon fill="midnightblue" stroke="midnightblue" points="482,-291.5 472,-295 482,-298.5 482,-291.5"/>
</g>
<!-- Node477 -->
<g id="node6" class="node">
<title>Node477</title>
<g id="a_node6"><a xlink:href="classMR24FDB1.html#a7dfa1c269d0979718203f9202d4e8578" target="_top" xlink:title="send a &quot;GET&quot; packet to the module and wait for responce ">
<polygon fill="white" stroke="black" points="508,-209.5 508,-228.5 666,-228.5 666,-209.5 508,-209.5"/>
<text text-anchor="middle" x="587" y="-216.5" font-family="Helvetica,sans-Serif" font-size="10.00">MR24FDB1::sendGetAndWait</text>
</a>
</g>
</g>
<!-- Node475&#45;&gt;Node477 -->
<g id="edge5" class="edge">
<title>Node475&#45;&gt;Node477</title>
<path fill="none" stroke="midnightblue" d="M447.42,-281.14C481.41,-265.9 535.13,-241.81 564.71,-228.55"/>
<polygon fill="midnightblue" stroke="midnightblue" points="445.66,-278.09 437.97,-285.37 448.52,-284.48 445.66,-278.09"/>
</g>
<!-- Node478 -->
<g id="node7" class="node">
<title>Node478</title>
<g id="a_node7"><a xlink:href="classMR24FDB1.html#a6a61bdca02e1a9ab2c6ab83c3ee2ff21" target="_top" xlink:title="requests Device Id ">
<polygon fill="white" stroke="black" points="715,-380.5 715,-399.5 850,-399.5 850,-380.5 715,-380.5"/>
<text text-anchor="middle" x="782.5" y="-387.5" font-family="Helvetica,sans-Serif" font-size="10.00">MR24FDB1::getDeviceId</text>
</a>
</g>
</g>
<!-- Node477&#45;&gt;Node478 -->
<g id="edge6" class="edge">
<title>Node477&#45;&gt;Node478</title>
<path fill="none" stroke="midnightblue" d="M615.55,-233.66C632.12,-243.68 652.54,-258.33 666,-276 693.36,-311.92 668.1,-341.17 702,-371 706.37,-374.84 711.38,-377.94 716.71,-380.44"/>
<polygon fill="midnightblue" stroke="midnightblue" points="617.22,-230.58 606.81,-228.58 613.7,-236.63 617.22,-230.58"/>
</g>
<!-- Node479 -->
<g id="node8" class="node">
<title>Node479</title>
<g id="a_node8"><a xlink:href="classMR24FDB1.html#a10ef6d7b6a0d7819b84361c907604fe0" target="_top" xlink:title="get status of fall enable switch ">
<polygon fill="white" stroke="black" points="711,-342.5 711,-361.5 854,-361.5 854,-342.5 711,-342.5"/>
<text text-anchor="middle" x="782.5" y="-349.5" font-family="Helvetica,sans-Serif" font-size="10.00">MR24FDB1::getFallEnable</text>
</a>
</g>
</g>
<!-- Node477&#45;&gt;Node479 -->
<g id="edge7" class="edge">
<title>Node477&#45;&gt;Node479</title>
<path fill="none" stroke="midnightblue" d="M613.14,-233.88C629.43,-244.32 650.44,-259.35 666,-276 686.46,-297.89 677.63,-315.57 702,-333 707.42,-336.88 713.54,-339.98 719.9,-342.45"/>
<polygon fill="midnightblue" stroke="midnightblue" points="614.97,-230.9 604.64,-228.57 611.26,-236.84 614.97,-230.9"/>
</g>
<!-- Node480 -->
<g id="node9" class="node">
<title>Node480</title>
<g id="a_node9"><a xlink:href="classMR24FDB1.html#a122352e437a57083aba3823b512e2c31" target="_top" xlink:title="get status of fall sensitivty setting ">
<polygon fill="white" stroke="black" points="702,-304.5 702,-323.5 863,-323.5 863,-304.5 702,-304.5"/>
<text text-anchor="middle" x="782.5" y="-311.5" font-family="Helvetica,sans-Serif" font-size="10.00">MR24FDB1::getFallSensitivity</text>
</a>
</g>
</g>
<!-- Node477&#45;&gt;Node480 -->
<g id="edge8" class="edge">
<title>Node477&#45;&gt;Node480</title>
<path fill="none" stroke="midnightblue" d="M609.26,-234.49C636.63,-254.2 682.92,-286.68 702,-295 710.71,-298.8 720.31,-301.91 729.74,-304.44"/>
<polygon fill="midnightblue" stroke="midnightblue" points="611.25,-231.62 601.1,-228.59 607.15,-237.29 611.25,-231.62"/>
</g>
<!-- Node481 -->
<g id="node10" class="node">
<title>Node481</title>
<g id="a_node10"><a xlink:href="classMR24FDB1.html#a6e729c642bc4f67e6ce076fb0fa2aa3e" target="_top" xlink:title="get status of fall warning time setting ">
<polygon fill="white" stroke="black" points="703,-266.5 703,-285.5 862,-285.5 862,-266.5 703,-266.5"/>
<text text-anchor="middle" x="782.5" y="-273.5" font-family="Helvetica,sans-Serif" font-size="10.00">MR24FDB1::getFallWarnTime</text>
</a>
</g>
</g>
<!-- Node477&#45;&gt;Node481 -->
<g id="edge9" class="edge">
<title>Node477&#45;&gt;Node481</title>
<path fill="none" stroke="midnightblue" d="M624.23,-231.97C646.51,-239.73 675.73,-249.5 702,-257 713.73,-260.35 726.56,-263.6 738.41,-266.43"/>
<polygon fill="midnightblue" stroke="midnightblue" points="625.11,-228.57 614.51,-228.57 622.79,-235.18 625.11,-228.57"/>
</g>
<!-- Node482 -->
<g id="node11" class="node">
<title>Node482</title>
<g id="a_node11"><a xlink:href="classMR24FDB1.html#a9c858e6eae2bf95de4340b7bb4fe07e7" target="_top" xlink:title="requests Hardware version ">
<polygon fill="white" stroke="black" points="704.5,-228.5 704.5,-247.5 860.5,-247.5 860.5,-228.5 704.5,-228.5"/>
<text text-anchor="middle" x="782.5" y="-235.5" font-family="Helvetica,sans-Serif" font-size="10.00">MR24FDB1::getHardwareVer</text>
</a>
</g>
</g>
<!-- Node477&#45;&gt;Node482 -->
<g id="edge10" class="edge">
<title>Node477&#45;&gt;Node482</title>
<path fill="none" stroke="midnightblue" d="M676.25,-227.67C685.62,-228.59 695.09,-229.52 704.32,-230.42"/>
<polygon fill="midnightblue" stroke="midnightblue" points="676.44,-224.17 666.15,-226.67 675.76,-231.13 676.44,-224.17"/>
</g>
<!-- Node483 -->
<g id="node12" class="node">
<title>Node483</title>
<g id="a_node12"><a xlink:href="classMR24FDB1.html#ab090aa5731fa4e348a33588f682f1a16" target="_top" xlink:title="get movement ">
<polygon fill="white" stroke="black" points="710,-190.5 710,-209.5 855,-209.5 855,-190.5 710,-190.5"/>
<text text-anchor="middle" x="782.5" y="-197.5" font-family="Helvetica,sans-Serif" font-size="10.00">MR24FDB1::getMovement</text>
</a>
</g>
</g>
<!-- Node477&#45;&gt;Node483 -->
<g id="edge11" class="edge">
<title>Node477&#45;&gt;Node483</title>
<path fill="none" stroke="midnightblue" d="M676.4,-210.32C687.63,-209.22 699.02,-208.1 709.94,-207.03"/>
<polygon fill="midnightblue" stroke="midnightblue" points="675.76,-206.87 666.15,-211.33 676.44,-213.83 675.76,-206.87"/>
</g>
<!-- Node484 -->
<g id="node13" class="node">
<title>Node484</title>
<g id="a_node13"><a xlink:href="classMR24FDB1.html#af5bcb06d3788fb4743e2f750a6e4a149" target="_top" xlink:title="get presence from module ">
<polygon fill="white" stroke="black" points="714,-152.5 714,-171.5 851,-171.5 851,-152.5 714,-152.5"/>
<text text-anchor="middle" x="782.5" y="-159.5" font-family="Helvetica,sans-Serif" font-size="10.00">MR24FDB1::getPresence</text>
</a>
</g>
</g>
<!-- Node477&#45;&gt;Node484 -->
<g id="edge13" class="edge">
<title>Node477&#45;&gt;Node484</title>
<path fill="none" stroke="midnightblue" d="M624.23,-206.03C646.51,-198.27 675.73,-188.5 702,-181 713.73,-177.65 726.56,-174.4 738.41,-171.57"/>
<polygon fill="midnightblue" stroke="midnightblue" points="622.79,-202.82 614.51,-209.43 625.11,-209.43 622.79,-202.82"/>
</g>
<!-- Node485 -->
<g id="node14" class="node">
<title>Node485</title>
<g id="a_node14"><a xlink:href="classMR24FDB1.html#a206d007330f0b2f9c76b070e215dbb05" target="_top" xlink:title="request Protocol Version ">
<polygon fill="white" stroke="black" points="708,-114.5 708,-133.5 857,-133.5 857,-114.5 708,-114.5"/>
<text text-anchor="middle" x="782.5" y="-121.5" font-family="Helvetica,sans-Serif" font-size="10.00">MR24FDB1::getProtocolVer</text>
</a>
</g>
</g>
<!-- Node477&#45;&gt;Node485 -->
<g id="edge15" class="edge">
<title>Node477&#45;&gt;Node485</title>
<path fill="none" stroke="midnightblue" d="M607.3,-202.99C629.03,-185.76 666.01,-158.7 702,-143 710.71,-139.2 720.31,-136.09 729.74,-133.56"/>
<polygon fill="midnightblue" stroke="midnightblue" points="605.08,-200.29 599.5,-209.29 609.48,-205.74 605.08,-200.29"/>
</g>
<!-- Node486 -->
<g id="node15" class="node">
<title>Node486</title>
<g id="a_node15"><a xlink:href="classMR24FDB1.html#adc620372e2ccd4d3dece13bfe8c8424e" target="_top" xlink:title="get scene parameter ">
<polygon fill="white" stroke="black" points="721.5,-76.5 721.5,-95.5 843.5,-95.5 843.5,-76.5 721.5,-76.5"/>
<text text-anchor="middle" x="782.5" y="-83.5" font-family="Helvetica,sans-Serif" font-size="10.00">MR24FDB1::getScene</text>
</a>
</g>
</g>
<!-- Node477&#45;&gt;Node486 -->
<g id="edge16" class="edge">
<title>Node477&#45;&gt;Node486</title>
<path fill="none" stroke="midnightblue" d="M600.86,-200.91C619.95,-175.46 658.27,-129.46 702,-105 708.94,-101.12 716.64,-98.03 724.45,-95.57"/>
<polygon fill="midnightblue" stroke="midnightblue" points="597.82,-199.14 594.73,-209.28 603.46,-203.28 597.82,-199.14"/>
</g>
<!-- Node487 -->
<g id="node16" class="node">
<title>Node487</title>
<g id="a_node16"><a xlink:href="classMR24FDB1.html#a82a44a7291dd7b96de57a2d2cda10251" target="_top" xlink:title="get sensitivity parameter ">
<polygon fill="white" stroke="black" points="710.5,-38.5 710.5,-57.5 854.5,-57.5 854.5,-38.5 710.5,-38.5"/>
<text text-anchor="middle" x="782.5" y="-45.5" font-family="Helvetica,sans-Serif" font-size="10.00">MR24FDB1::getSensitivity</text>
</a>
</g>
</g>
<!-- Node477&#45;&gt;Node487 -->
<g id="edge17" class="edge">
<title>Node477&#45;&gt;Node487</title>
<path fill="none" stroke="midnightblue" d="M596.73,-200.03C612.75,-167.47 650,-101.14 702,-67 707.93,-63.11 714.58,-60.01 721.44,-57.54"/>
<polygon fill="midnightblue" stroke="midnightblue" points="593.44,-198.81 592.29,-209.34 599.76,-201.82 593.44,-198.81"/>
</g>
<!-- Node488 -->
<g id="node17" class="node">
<title>Node488</title>
<g id="a_node17"><a xlink:href="classMR24FDB1.html#af9b355c4127c5b937407b3e3b25217c7" target="_top" xlink:title="requests Software verion ">
<polygon fill="white" stroke="black" points="706.5,-0.5 706.5,-19.5 858.5,-19.5 858.5,-0.5 706.5,-0.5"/>
<text text-anchor="middle" x="782.5" y="-7.5" font-family="Helvetica,sans-Serif" font-size="10.00">MR24FDB1::getSoftwareVer</text>
</a>
</g>
</g>
<!-- Node477&#45;&gt;Node488 -->
<g id="edge18" class="edge">
<title>Node477&#45;&gt;Node488</title>
<path fill="none" stroke="midnightblue" d="M593.91,-199.69C606.81,-160.92 641.31,-73.48 702,-29 707.27,-25.14 713.2,-22.06 719.41,-19.59"/>
<polygon fill="midnightblue" stroke="midnightblue" points="590.56,-198.67 590.84,-209.27 597.22,-200.81 590.56,-198.67"/>
</g>
<!-- Node483&#45;&gt;Node474 -->
<g id="edge12" class="edge">
<title>Node483&#45;&gt;Node474</title>
<path fill="none" stroke="midnightblue" d="M865.04,-200C876.49,-200 888.07,-200 898.98,-200"/>
<polygon fill="midnightblue" stroke="midnightblue" points="865.03,-196.5 855.03,-200 865.03,-203.5 865.03,-196.5"/>
</g>
<!-- Node484&#45;&gt;Node474 -->
<g id="edge14" class="edge">
<title>Node484&#45;&gt;Node474</title>
<path fill="none" stroke="midnightblue" d="M837.31,-173.75C861.92,-179.13 890.69,-185.41 913.91,-190.48"/>
<polygon fill="midnightblue" stroke="midnightblue" points="837.92,-170.3 827.41,-171.59 836.43,-177.14 837.92,-170.3"/>
</g>
</g>
</svg>
