<?xml version="1.0" encoding="UTF-8" standalone="no"?>
<!DOCTYPE svg PUBLIC "-//W3C//DTD SVG 1.1//EN"
 "http://www.w3.org/Graphics/SVG/1.1/DTD/svg11.dtd">
<!-- Generated by graphviz version 2.43.0 (0)
 -->
<!-- Title: MR24FDB1::sendGetAndWait Pages: 1 -->
<svg width="908pt" height="218pt"
 viewBox="0.00 0.00 908.00 218.00" xmlns="http://www.w3.org/2000/svg" xmlns:xlink="http://www.w3.org/1999/xlink">
<g id="graph0" class="graph" transform="scale(1 1) rotate(0) translate(4 214)">
<title>MR24FDB1::sendGetAndWait</title>
<polygon fill="white" stroke="transparent" points="-4,4 -4,-214 904,-214 904,4 -4,4"/>
<!-- Node69 -->
<g id="node1" class="node">
<title>Node69</title>
<g id="a_node1"><a xlink:title="send a &quot;GET&quot; packet to the module and wait for responce ">
<polygon fill="#bfbfbf" stroke="black" points="0,-114.5 0,-133.5 158,-133.5 158,-114.5 0,-114.5"/>
<text text-anchor="middle" x="79" y="-121.5" font-family="Helvetica,sans-Serif" font-size="10.00">MR24FDB1::sendGetAndWait</text>
</a>
</g>
</g>
<!-- Node70 -->
<g id="node2" class="node">
<title>Node70</title>
<g id="a_node2"><a xlink:href="classMR24FDB1.html#a4a5275f119bcbd82dd5a0d6a1d8defe5" target="_top" xlink:title="send a &quot;GET&quot; packet to the module ">
<polygon fill="white" stroke="black" points="194,-152.5 194,-171.5 311,-171.5 311,-152.5 194,-152.5"/>
<text text-anchor="middle" x="252.5" y="-159.5" font-family="Helvetica,sans-Serif" font-size="10.00">MR24FDB1::sendGet</text>
</a>
</g>
</g>
<!-- Node69&#45;&gt;Node70 -->
<g id="edge1" class="edge">
<title>Node69&#45;&gt;Node70</title>
<path fill="none" stroke="midnightblue" d="M123.28,-133.59C146.11,-138.65 174.32,-144.9 198.46,-150.25"/>
<polygon fill="midnightblue" stroke="midnightblue" points="198.01,-153.73 208.53,-152.48 199.53,-146.9 198.01,-153.73"/>
</g>
<!-- Node74 -->
<g id="node6" class="node">
<title>Node74</title>
<g id="a_node6"><a xlink:href="classMR24FDB1.html#a944e9bede6552294ea9940ae6fda3b96" target="_top" xlink:title="wait until packet of the specified type is recieved ">
<polygon fill="white" stroke="black" points="196,-95.5 196,-114.5 309,-114.5 309,-95.5 196,-95.5"/>
<text text-anchor="middle" x="252.5" y="-102.5" font-family="Helvetica,sans-Serif" font-size="10.00">MR24FDB1::waitFor</text>
</a>
</g>
</g>
<!-- Node69&#45;&gt;Node74 -->
<g id="edge5" class="edge">
<title>Node69&#45;&gt;Node74</title>
<path fill="none" stroke="midnightblue" d="M158.22,-115.33C167.46,-114.31 176.83,-113.27 185.87,-112.27"/>
<polygon fill="midnightblue" stroke="midnightblue" points="186.37,-115.74 195.92,-111.16 185.6,-108.78 186.37,-115.74"/>
</g>
<!-- Node71 -->
<g id="node3" class="node">
<title>Node71</title>
<g id="a_node3"><a xlink:href="classMR24FDB1.html#af148f4391ab1003e82d4497d8072aaa0" target="_top" xlink:title="calculate and add crc16 at end of buffer ">
<polygon fill="white" stroke="black" points="380,-152.5 380,-171.5 502,-171.5 502,-152.5 380,-152.5"/>
<text text-anchor="middle" x="441" y="-159.5" font-family="Helvetica,sans-Serif" font-size="10.00">MR24FDB1::addCrc16</text>
</a>
</g>
</g>
<!-- Node70&#45;&gt;Node71 -->
<g id="edge2" class="edge">
<title>Node70&#45;&gt;Node71</title>
<path fill="none" stroke="midnightblue" d="M311.23,-162C329.73,-162 350.42,-162 369.72,-162"/>
<polygon fill="midnightblue" stroke="midnightblue" points="369.96,-165.5 379.96,-162 369.96,-158.5 369.96,-165.5"/>
</g>
<!-- Node73 -->
<g id="node5" class="node">
<title>Node73</title>
<g id="a_node5"><a xlink:href="classMR24FDB1.html#a586848e9efe86b47520f92e049c502eb" target="_top" xlink:title="send a packet to the module ">
<polygon fill="white" stroke="black" points="375,-190.5 375,-209.5 507,-209.5 507,-190.5 375,-190.5"/>
<text text-anchor="middle" x="441" y="-197.5" font-family="Helvetica,sans-Serif" font-size="10.00">MR24FDB1::sendPacket</text>
</a>
</g>
</g>
<!-- Node70&#45;&gt;Node73 -->
<g id="edge4" class="edge">
<title>Node70&#45;&gt;Node73</title>
<path fill="none" stroke="midnightblue" d="M300.56,-171.59C325.73,-176.72 356.9,-183.07 383.38,-188.46"/>
<polygon fill="midnightblue" stroke="midnightblue" points="382.78,-191.91 393.28,-190.48 384.18,-185.05 382.78,-191.91"/>
</g>
<!-- Node72 -->
<g id="node4" class="node">
<title>Node72</title>
<g id="a_node4"><a xlink:href="classMR24FDB1.html#af7b82f23ec8f67c955ae413f4a078af0" target="_top" xlink:title="calculate crc16 of current packet ">
<polygon fill="white" stroke="black" points="573,-152.5 573,-171.5 722,-171.5 722,-152.5 573,-152.5"/>
<text text-anchor="middle" x="647.5" y="-159.5" font-family="Helvetica,sans-Serif" font-size="10.00">MR24FDB1::calculateCrc16</text>
</a>
</g>
</g>
<!-- Node71&#45;&gt;Node72 -->
<g id="edge3" class="edge">
<title>Node71&#45;&gt;Node72</title>
<path fill="none" stroke="midnightblue" d="M502.25,-162C521.2,-162 542.48,-162 562.75,-162"/>
<polygon fill="midnightblue" stroke="midnightblue" points="562.92,-165.5 572.92,-162 562.92,-158.5 562.92,-165.5"/>
</g>
<!-- Node75 -->
<g id="node7" class="node">
<title>Node75</title>
<g id="a_node7"><a xlink:href="classMR24FDB1.html#a8a6f5bebfe9e2f9232e58f0ff909042a" target="_top" xlink:title="parse packet ">
<polygon fill="white" stroke="black" points="373,-38.5 373,-57.5 509,-57.5 509,-38.5 373,-38.5"/>
<text text-anchor="middle" x="441" y="-45.5" font-family="Helvetica,sans-Serif" font-size="10.00">MR24FDB1::parsePacket</text>
</a>
</g>
</g>
<!-- Node74&#45;&gt;Node75 -->
<g id="edge6" class="edge">
<title>Node74&#45;&gt;Node75</title>
<path fill="none" stroke="midnightblue" d="M273.9,-95.43C292.58,-86.98 321.17,-74.81 347,-67 355.8,-64.34 365.19,-61.93 374.48,-59.8"/>
<polygon fill="midnightblue" stroke="midnightblue" points="375.49,-63.16 384.5,-57.59 373.98,-56.32 375.49,-63.16"/>
</g>
<!-- Node80 -->
<g id="node12" class="node">
<title>Node80</title>
<g id="a_node12"><a xlink:href="classMR24FDB1.html#a5e44c632274bde4a6e22f35d80a782f0" target="_top" xlink:title="get a packet from the chip ">
<polygon fill="white" stroke="black" points="375.5,-114.5 375.5,-133.5 506.5,-133.5 506.5,-114.5 375.5,-114.5"/>
<text text-anchor="middle" x="441" y="-121.5" font-family="Helvetica,sans-Serif" font-size="10.00">MR24FDB1::readPacket</text>
</a>
</g>
</g>
<!-- Node74&#45;&gt;Node80 -->
<g id="edge12" class="edge">
<title>Node74&#45;&gt;Node80</title>
<path fill="none" stroke="midnightblue" d="M309.2,-110.67C326.85,-112.47 346.66,-114.49 365.41,-116.4"/>
<polygon fill="midnightblue" stroke="midnightblue" points="365.1,-119.89 375.41,-117.42 365.81,-112.92 365.1,-119.89"/>
</g>
<!-- Node82 -->
<g id="node14" class="node">
<title>Node82</title>
<g id="a_node14"><a xlink:href="classMR24FDB1__Exception.html#a695552f5db7be7840c1af8650af0c235" target="_top" xlink:title="decode error from the Result,class,group , function etc... ">
<polygon fill="white" stroke="black" points="347,-76.5 347,-95.5 535,-95.5 535,-76.5 347,-76.5"/>
<text text-anchor="middle" x="441" y="-83.5" font-family="Helvetica,sans-Serif" font-size="10.00">MR24FDB1_Exception::decodeError</text>
</a>
</g>
</g>
<!-- Node74&#45;&gt;Node82 -->
<g id="edge15" class="edge">
<title>Node74&#45;&gt;Node82</title>
<path fill="none" stroke="midnightblue" d="M309.2,-99.33C318.05,-98.42 327.43,-97.47 336.95,-96.5"/>
<polygon fill="midnightblue" stroke="midnightblue" points="337.31,-99.98 346.91,-95.48 336.6,-93.02 337.31,-99.98"/>
</g>
<!-- Node76 -->
<g id="node8" class="node">
<title>Node76</title>
<g id="a_node8"><a xlink:href="classMR24FDB1.html#a2ccfe8221167944b882b5747b07dae22" target="_top" xlink:title="parse fall type packet ">
<polygon fill="white" stroke="black" points="571,-38.5 571,-57.5 724,-57.5 724,-38.5 571,-38.5"/>
<text text-anchor="middle" x="647.5" y="-45.5" font-family="Helvetica,sans-Serif" font-size="10.00">MR24FDB1::parseFallReport</text>
</a>
</g>
</g>
<!-- Node75&#45;&gt;Node76 -->
<g id="edge7" class="edge">
<title>Node75&#45;&gt;Node76</title>
<path fill="none" stroke="midnightblue" d="M509.24,-48C525.69,-48 543.51,-48 560.69,-48"/>
<polygon fill="midnightblue" stroke="midnightblue" points="560.72,-51.5 570.72,-48 560.72,-44.5 560.72,-51.5"/>
</g>
<!-- Node77 -->
<g id="node9" class="node">
<title>Node77</title>
<g id="a_node9"><a xlink:href="classMR24FDB1.html#a1759ec9442c191ee6ddc09137a9c0528" target="_top" xlink:title="parse report type packet ">
<polygon fill="white" stroke="black" points="579.5,-0.5 579.5,-19.5 715.5,-19.5 715.5,-0.5 579.5,-0.5"/>
<text text-anchor="middle" x="647.5" y="-7.5" font-family="Helvetica,sans-Serif" font-size="10.00">MR24FDB1::parseReport</text>
</a>
</g>
</g>
<!-- Node75&#45;&gt;Node77 -->
<g id="edge8" class="edge">
<title>Node75&#45;&gt;Node77</title>
<path fill="none" stroke="midnightblue" d="M493.34,-38.46C521.17,-33.29 555.77,-26.86 585.03,-21.42"/>
<polygon fill="midnightblue" stroke="midnightblue" points="585.95,-24.81 595.14,-19.54 584.67,-17.93 585.95,-24.81"/>
</g>
<!-- Node79 -->
<g id="node11" class="node">
<title>Node79</title>
<g id="a_node11"><a xlink:href="classMR24FDB1.html#a55ecfd4dffd4d04c97dcd6e6e264ad61" target="_top" xlink:title="parse reponce type packet ">
<polygon fill="white" stroke="black" points="572,-76.5 572,-95.5 723,-95.5 723,-76.5 572,-76.5"/>
<text text-anchor="middle" x="647.5" y="-83.5" font-family="Helvetica,sans-Serif" font-size="10.00">MR24FDB1::parseResponce</text>
</a>
</g>
</g>
<!-- Node75&#45;&gt;Node79 -->
<g id="edge10" class="edge">
<title>Node75&#45;&gt;Node79</title>
<path fill="none" stroke="midnightblue" d="M493.34,-57.54C521.17,-62.71 555.77,-69.14 585.03,-74.58"/>
<polygon fill="midnightblue" stroke="midnightblue" points="584.67,-78.07 595.14,-76.46 585.95,-71.19 584.67,-78.07"/>
</g>
<!-- Node78 -->
<g id="node10" class="node">
<title>Node78</title>
<g id="a_node10"><a xlink:href="classMR24FDB1.html#ae444c38bb80decf58cabe5b12005b819" target="_top" xlink:title="parse Radar group responces and reports ">
<polygon fill="white" stroke="black" points="760,-38.5 760,-57.5 900,-57.5 900,-38.5 760,-38.5"/>
<text text-anchor="middle" x="830" y="-45.5" font-family="Helvetica,sans-Serif" font-size="10.00">MR24FDB1::decodeRadar</text>
</a>
</g>
</g>
<!-- Node77&#45;&gt;Node78 -->
<g id="edge9" class="edge">
<title>Node77&#45;&gt;Node78</title>
<path fill="none" stroke="midnightblue" d="M694.05,-19.59C718.3,-24.69 748.3,-31.01 773.86,-36.39"/>
<polygon fill="midnightblue" stroke="midnightblue" points="773.27,-39.84 783.78,-38.48 774.72,-32.99 773.27,-39.84"/>
</g>
<!-- Node79&#45;&gt;Node78 -->
<g id="edge11" class="edge">
<title>Node79&#45;&gt;Node78</title>
<path fill="none" stroke="midnightblue" d="M694.05,-76.41C718.3,-71.31 748.3,-64.99 773.86,-59.61"/>
<polygon fill="midnightblue" stroke="midnightblue" points="774.72,-63.01 783.78,-57.52 773.27,-56.16 774.72,-63.01"/>
</g>
<!-- Node80&#45;&gt;Node72 -->
<g id="edge13" class="edge">
<title>Node80&#45;&gt;Node72</title>
<path fill="none" stroke="midnightblue" d="M493.34,-133.54C521.17,-138.71 555.77,-145.14 585.03,-150.58"/>
<polygon fill="midnightblue" stroke="midnightblue" points="584.67,-154.07 595.14,-152.46 585.95,-147.19 584.67,-154.07"/>
</g>
<!-- Node81 -->
<g id="node13" class="node">
<title>Node81</title>
<g id="a_node13"><a xlink:href="classMR24FDB1.html#a3de11c024f9b20321cce5d98cd534c3e" target="_top" xlink:title="get one byte from serial ">
<polygon fill="white" stroke="black" points="587,-114.5 587,-133.5 708,-133.5 708,-114.5 587,-114.5"/>
<text text-anchor="middle" x="647.5" y="-121.5" font-family="Helvetica,sans-Serif" font-size="10.00">MR24FDB1::readByte</text>
</a>
</g>
</g>
<!-- Node80&#45;&gt;Node81 -->
<g id="edge14" class="edge">
<title>Node80&#45;&gt;Node81</title>
<path fill="none" stroke="midnightblue" d="M506.71,-124C528.93,-124 553.9,-124 576.52,-124"/>
<polygon fill="midnightblue" stroke="midnightblue" points="576.73,-127.5 586.73,-124 576.73,-120.5 576.73,-127.5"/>
</g>
</g>
</svg>
