<?xml version="1.0" encoding="UTF-8" standalone="no"?>
<!DOCTYPE svg PUBLIC "-//W3C//DTD SVG 1.1//EN"
 "http://www.w3.org/Graphics/SVG/1.1/DTD/svg11.dtd">
<!-- Generated by graphviz version 2.43.0 (0)
 -->
<!-- Title: MR24FDB1::getFallWarnTime Pages: 1 -->
<!--zoomable 218 -->
<svg id="main" version="1.1" xmlns="http://www.w3.org/2000/svg" xmlns:xlink="http://www.w3.org/1999/xlink" xml:space="preserve" onload="init(evt)">
<style type="text/css"><![CDATA[
.edge:hover path { stroke: red; }
.edge:hover polygon { stroke: red; fill: red; }
]]></style>
<script type="text/javascript"><![CDATA[
var edges = document.getElementsByTagName('g');
if (edges && edges.length) {
  for (var i=0;i<edges.length;i++) {
    if (edges[i].id.substr(0,4)=='edge') {
      edges[i].setAttribute('class','edge');
    }
  }
}
]]></script>
        <defs>
                <circle id="rim" cx="0" cy="0" r="7"/>
                <circle id="rim2" cx="0" cy="0" r="3.5"/>
                <g id="zoomPlus">
                        <use xlink:href="#rim" fill="#404040">
                                <set attributeName="fill" to="#808080" begin="zoomplus.mouseover" end="zoomplus.mouseout"/>
                        </use>
                        <path d="M-4,0h8M0,-4v8" fill="none" stroke="white" stroke-width="1.5" pointer-events="none"/>
                </g>
                <g id="zoomMin">
                        <use xlink:href="#rim" fill="#404040">
                                <set attributeName="fill" to="#808080" begin="zoomminus.mouseover" end="zoomminus.mouseout"/>
                        </use>
                        <path d="M-4,0h8" fill="none" stroke="white" stroke-width="1.5" pointer-events="none"/>
                </g>
                <g id="dirArrow">
                        <path fill="none" stroke="white" stroke-width="1.5" d="M0,-3.0v7 M-2.5,-0.5L0,-3.0L2.5,-0.5"/>
                </g>
               <g id="resetDef">
                       <use xlink:href="#rim2" fill="#404040">
                               <set attributeName="fill" to="#808080" begin="reset.mouseover" end="reset.mouseout"/>
                       </use>
               </g>
        </defs>

<script type="text/javascript">
var viewWidth = 1103;
var viewHeight = 218;
var sectionId = 'dynsection-24';
</script>
<script xlink:href="svgpan.js"/>
<svg id="graph" class="graph">
<g id="viewport">
<title>MR24FDB1::getFallWarnTime</title>
<polygon fill="white" stroke="transparent" points="-4,4 -4,-214 1099,-214 1099,4 -4,4"/>
<!-- Node305 -->
<g id="node1" class="node">
<title>Node305</title>
<g id="a_node1"><a xlink:title="get status of fall warning time setting ">
<polygon fill="#bfbfbf" stroke="black" points="0,-114.5 0,-133.5 159,-133.5 159,-114.5 0,-114.5"/>
<text text-anchor="middle" x="79.5" y="-121.5" font-family="Helvetica,sans-Serif" font-size="10.00">MR24FDB1::getFallWarnTime</text>
</a>
</g>
</g>
<!-- Node306 -->
<g id="node2" class="node">
<title>Node306</title>
<g id="a_node2"><a xlink:href="classMR24FDB1.html#a7dfa1c269d0979718203f9202d4e8578" target="_top" xlink:title="send a &quot;GET&quot; packet to the module and wait for responce ">
<polygon fill="white" stroke="black" points="195,-114.5 195,-133.5 353,-133.5 353,-114.5 195,-114.5"/>
<text text-anchor="middle" x="274" y="-121.5" font-family="Helvetica,sans-Serif" font-size="10.00">MR24FDB1::sendGetAndWait</text>
</a>
</g>
</g>
<!-- Node305&#45;&gt;Node306 -->
<g id="edge1" class="edge">
<title>Node305&#45;&gt;Node306</title>
<path fill="none" stroke="midnightblue" d="M159.07,-124C167.59,-124 176.3,-124 184.92,-124"/>
<polygon fill="midnightblue" stroke="midnightblue" points="184.99,-127.5 194.99,-124 184.99,-120.5 184.99,-127.5"/>
</g>
<!-- Node307 -->
<g id="node3" class="node">
<title>Node307</title>
<g id="a_node3"><a xlink:href="classMR24FDB1.html#a4a5275f119bcbd82dd5a0d6a1d8defe5" target="_top" xlink:title="send a &quot;GET&quot; packet to the module ">
<polygon fill="white" stroke="black" points="389,-152.5 389,-171.5 506,-171.5 506,-152.5 389,-152.5"/>
<text text-anchor="middle" x="447.5" y="-159.5" font-family="Helvetica,sans-Serif" font-size="10.00">MR24FDB1::sendGet</text>
</a>
</g>
</g>
<!-- Node306&#45;&gt;Node307 -->
<g id="edge2" class="edge">
<title>Node306&#45;&gt;Node307</title>
<path fill="none" stroke="midnightblue" d="M318.28,-133.59C341.11,-138.65 369.32,-144.9 393.46,-150.25"/>
<polygon fill="midnightblue" stroke="midnightblue" points="393.01,-153.73 403.53,-152.48 394.53,-146.9 393.01,-153.73"/>
</g>
<!-- Node311 -->
<g id="node7" class="node">
<title>Node311</title>
<g id="a_node7"><a xlink:href="classMR24FDB1.html#a944e9bede6552294ea9940ae6fda3b96" target="_top" xlink:title="wait until packet of the specified type is recieved ">
<polygon fill="white" stroke="black" points="391,-95.5 391,-114.5 504,-114.5 504,-95.5 391,-95.5"/>
<text text-anchor="middle" x="447.5" y="-102.5" font-family="Helvetica,sans-Serif" font-size="10.00">MR24FDB1::waitFor</text>
</a>
</g>
</g>
<!-- Node306&#45;&gt;Node311 -->
<g id="edge6" class="edge">
<title>Node306&#45;&gt;Node311</title>
<path fill="none" stroke="midnightblue" d="M353.22,-115.33C362.46,-114.31 371.83,-113.27 380.87,-112.27"/>
<polygon fill="midnightblue" stroke="midnightblue" points="381.37,-115.74 390.92,-111.16 380.6,-108.78 381.37,-115.74"/>
</g>
<!-- Node308 -->
<g id="node4" class="node">
<title>Node308</title>
<g id="a_node4"><a xlink:href="classMR24FDB1.html#af148f4391ab1003e82d4497d8072aaa0" target="_top" xlink:title="calculate and add crc16 at end of buffer ">
<polygon fill="white" stroke="black" points="575,-152.5 575,-171.5 697,-171.5 697,-152.5 575,-152.5"/>
<text text-anchor="middle" x="636" y="-159.5" font-family="Helvetica,sans-Serif" font-size="10.00">MR24FDB1::addCrc16</text>
</a>
</g>
</g>
<!-- Node307&#45;&gt;Node308 -->
<g id="edge3" class="edge">
<title>Node307&#45;&gt;Node308</title>
<path fill="none" stroke="midnightblue" d="M506.23,-162C524.73,-162 545.42,-162 564.72,-162"/>
<polygon fill="midnightblue" stroke="midnightblue" points="564.96,-165.5 574.96,-162 564.96,-158.5 564.96,-165.5"/>
</g>
<!-- Node310 -->
<g id="node6" class="node">
<title>Node310</title>
<g id="a_node6"><a xlink:href="classMR24FDB1.html#a586848e9efe86b47520f92e049c502eb" target="_top" xlink:title="send a packet to the module ">
<polygon fill="white" stroke="black" points="570,-190.5 570,-209.5 702,-209.5 702,-190.5 570,-190.5"/>
<text text-anchor="middle" x="636" y="-197.5" font-family="Helvetica,sans-Serif" font-size="10.00">MR24FDB1::sendPacket</text>
</a>
</g>
</g>
<!-- Node307&#45;&gt;Node310 -->
<g id="edge5" class="edge">
<title>Node307&#45;&gt;Node310</title>
<path fill="none" stroke="midnightblue" d="M495.56,-171.59C520.73,-176.72 551.9,-183.07 578.38,-188.46"/>
<polygon fill="midnightblue" stroke="midnightblue" points="577.78,-191.91 588.28,-190.48 579.18,-185.05 577.78,-191.91"/>
</g>
<!-- Node309 -->
<g id="node5" class="node">
<title>Node309</title>
<g id="a_node5"><a xlink:href="classMR24FDB1.html#af7b82f23ec8f67c955ae413f4a078af0" target="_top" xlink:title="calculate crc16 of current packet ">
<polygon fill="white" stroke="black" points="768,-152.5 768,-171.5 917,-171.5 917,-152.5 768,-152.5"/>
<text text-anchor="middle" x="842.5" y="-159.5" font-family="Helvetica,sans-Serif" font-size="10.00">MR24FDB1::calculateCrc16</text>
</a>
</g>
</g>
<!-- Node308&#45;&gt;Node309 -->
<g id="edge4" class="edge">
<title>Node308&#45;&gt;Node309</title>
<path fill="none" stroke="midnightblue" d="M697.25,-162C716.2,-162 737.48,-162 757.75,-162"/>
<polygon fill="midnightblue" stroke="midnightblue" points="757.92,-165.5 767.92,-162 757.92,-158.5 757.92,-165.5"/>
</g>
<!-- Node312 -->
<g id="node8" class="node">
<title>Node312</title>
<g id="a_node8"><a xlink:href="classMR24FDB1.html#a8a6f5bebfe9e2f9232e58f0ff909042a" target="_top" xlink:title="parse packet ">
<polygon fill="white" stroke="black" points="568,-38.5 568,-57.5 704,-57.5 704,-38.5 568,-38.5"/>
<text text-anchor="middle" x="636" y="-45.5" font-family="Helvetica,sans-Serif" font-size="10.00">MR24FDB1::parsePacket</text>
</a>
</g>
</g>
<!-- Node311&#45;&gt;Node312 -->
<g id="edge7" class="edge">
<title>Node311&#45;&gt;Node312</title>
<path fill="none" stroke="midnightblue" d="M468.9,-95.43C487.58,-86.98 516.17,-74.81 542,-67 550.8,-64.34 560.19,-61.93 569.48,-59.8"/>
<polygon fill="midnightblue" stroke="midnightblue" points="570.49,-63.16 579.5,-57.59 568.98,-56.32 570.49,-63.16"/>
</g>
<!-- Node317 -->
<g id="node13" class="node">
<title>Node317</title>
<g id="a_node13"><a xlink:href="classMR24FDB1.html#a5e44c632274bde4a6e22f35d80a782f0" target="_top" xlink:title="get a packet from the chip ">
<polygon fill="white" stroke="black" points="570.5,-114.5 570.5,-133.5 701.5,-133.5 701.5,-114.5 570.5,-114.5"/>
<text text-anchor="middle" x="636" y="-121.5" font-family="Helvetica,sans-Serif" font-size="10.00">MR24FDB1::readPacket</text>
</a>
</g>
</g>
<!-- Node311&#45;&gt;Node317 -->
<g id="edge13" class="edge">
<title>Node311&#45;&gt;Node317</title>
<path fill="none" stroke="midnightblue" d="M504.2,-110.67C521.85,-112.47 541.66,-114.49 560.41,-116.4"/>
<polygon fill="midnightblue" stroke="midnightblue" points="560.1,-119.89 570.41,-117.42 560.81,-112.92 560.1,-119.89"/>
</g>
<!-- Node319 -->
<g id="node15" class="node">
<title>Node319</title>
<g id="a_node15"><a xlink:href="classMR24FDB1__Exception.html#a695552f5db7be7840c1af8650af0c235" target="_top" xlink:title="decode error from the Result,class,group , function etc... ">
<polygon fill="white" stroke="black" points="542,-76.5 542,-95.5 730,-95.5 730,-76.5 542,-76.5"/>
<text text-anchor="middle" x="636" y="-83.5" font-family="Helvetica,sans-Serif" font-size="10.00">MR24FDB1_Exception::decodeError</text>
</a>
</g>
</g>
<!-- Node311&#45;&gt;Node319 -->
<g id="edge16" class="edge">
<title>Node311&#45;&gt;Node319</title>
<path fill="none" stroke="midnightblue" d="M504.2,-99.33C513.05,-98.42 522.43,-97.47 531.95,-96.5"/>
<polygon fill="midnightblue" stroke="midnightblue" points="532.31,-99.98 541.91,-95.48 531.6,-93.02 532.31,-99.98"/>
</g>
<!-- Node313 -->
<g id="node9" class="node">
<title>Node313</title>
<g id="a_node9"><a xlink:href="classMR24FDB1.html#a2ccfe8221167944b882b5747b07dae22" target="_top" xlink:title="parse fall type packet ">
<polygon fill="white" stroke="black" points="766,-38.5 766,-57.5 919,-57.5 919,-38.5 766,-38.5"/>
<text text-anchor="middle" x="842.5" y="-45.5" font-family="Helvetica,sans-Serif" font-size="10.00">MR24FDB1::parseFallReport</text>
</a>
</g>
</g>
<!-- Node312&#45;&gt;Node313 -->
<g id="edge8" class="edge">
<title>Node312&#45;&gt;Node313</title>
<path fill="none" stroke="midnightblue" d="M704.24,-48C720.69,-48 738.51,-48 755.69,-48"/>
<polygon fill="midnightblue" stroke="midnightblue" points="755.72,-51.5 765.72,-48 755.72,-44.5 755.72,-51.5"/>
</g>
<!-- Node314 -->
<g id="node10" class="node">
<title>Node314</title>
<g id="a_node10"><a xlink:href="classMR24FDB1.html#a1759ec9442c191ee6ddc09137a9c0528" target="_top" xlink:title="parse report type packet ">
<polygon fill="white" stroke="black" points="774.5,-0.5 774.5,-19.5 910.5,-19.5 910.5,-0.5 774.5,-0.5"/>
<text text-anchor="middle" x="842.5" y="-7.5" font-family="Helvetica,sans-Serif" font-size="10.00">MR24FDB1::parseReport</text>
</a>
</g>
</g>
<!-- Node312&#45;&gt;Node314 -->
<g id="edge9" class="edge">
<title>Node312&#45;&gt;Node314</title>
<path fill="none" stroke="midnightblue" d="M688.34,-38.46C716.17,-33.29 750.77,-26.86 780.03,-21.42"/>
<polygon fill="midnightblue" stroke="midnightblue" points="780.95,-24.81 790.14,-19.54 779.67,-17.93 780.95,-24.81"/>
</g>
<!-- Node316 -->
<g id="node12" class="node">
<title>Node316</title>
<g id="a_node12"><a xlink:href="classMR24FDB1.html#a55ecfd4dffd4d04c97dcd6e6e264ad61" target="_top" xlink:title="parse reponce type packet ">
<polygon fill="white" stroke="black" points="767,-76.5 767,-95.5 918,-95.5 918,-76.5 767,-76.5"/>
<text text-anchor="middle" x="842.5" y="-83.5" font-family="Helvetica,sans-Serif" font-size="10.00">MR24FDB1::parseResponce</text>
</a>
</g>
</g>
<!-- Node312&#45;&gt;Node316 -->
<g id="edge11" class="edge">
<title>Node312&#45;&gt;Node316</title>
<path fill="none" stroke="midnightblue" d="M688.34,-57.54C716.17,-62.71 750.77,-69.14 780.03,-74.58"/>
<polygon fill="midnightblue" stroke="midnightblue" points="779.67,-78.07 790.14,-76.46 780.95,-71.19 779.67,-78.07"/>
</g>
<!-- Node315 -->
<g id="node11" class="node">
<title>Node315</title>
<g id="a_node11"><a xlink:href="classMR24FDB1.html#ae444c38bb80decf58cabe5b12005b819" target="_top" xlink:title="parse Radar group responces and reports ">
<polygon fill="white" stroke="black" points="955,-38.5 955,-57.5 1095,-57.5 1095,-38.5 955,-38.5"/>
<text text-anchor="middle" x="1025" y="-45.5" font-family="Helvetica,sans-Serif" font-size="10.00">MR24FDB1::decodeRadar</text>
</a>
</g>
</g>
<!-- Node314&#45;&gt;Node315 -->
<g id="edge10" class="edge">
<title>Node314&#45;&gt;Node315</title>
<path fill="none" stroke="midnightblue" d="M889.05,-19.59C913.3,-24.69 943.3,-31.01 968.86,-36.39"/>
<polygon fill="midnightblue" stroke="midnightblue" points="968.27,-39.84 978.78,-38.48 969.72,-32.99 968.27,-39.84"/>
</g>
<!-- Node316&#45;&gt;Node315 -->
<g id="edge12" class="edge">
<title>Node316&#45;&gt;Node315</title>
<path fill="none" stroke="midnightblue" d="M889.05,-76.41C913.3,-71.31 943.3,-64.99 968.86,-59.61"/>
<polygon fill="midnightblue" stroke="midnightblue" points="969.72,-63.01 978.78,-57.52 968.27,-56.16 969.72,-63.01"/>
</g>
<!-- Node317&#45;&gt;Node309 -->
<g id="edge14" class="edge">
<title>Node317&#45;&gt;Node309</title>
<path fill="none" stroke="midnightblue" d="M688.34,-133.54C716.17,-138.71 750.77,-145.14 780.03,-150.58"/>
<polygon fill="midnightblue" stroke="midnightblue" points="779.67,-154.07 790.14,-152.46 780.95,-147.19 779.67,-154.07"/>
</g>
<!-- Node318 -->
<g id="node14" class="node">
<title>Node318</title>
<g id="a_node14"><a xlink:href="classMR24FDB1.html#a3de11c024f9b20321cce5d98cd534c3e" target="_top" xlink:title="get one byte from serial ">
<polygon fill="white" stroke="black" points="782,-114.5 782,-133.5 903,-133.5 903,-114.5 782,-114.5"/>
<text text-anchor="middle" x="842.5" y="-121.5" font-family="Helvetica,sans-Serif" font-size="10.00">MR24FDB1::readByte</text>
</a>
</g>
</g>
<!-- Node317&#45;&gt;Node318 -->
<g id="edge15" class="edge">
<title>Node317&#45;&gt;Node318</title>
<path fill="none" stroke="midnightblue" d="M701.71,-124C723.93,-124 748.9,-124 771.52,-124"/>
<polygon fill="midnightblue" stroke="midnightblue" points="771.73,-127.5 781.73,-124 771.73,-120.5 771.73,-127.5"/>
</g>
</g>
</svg>
        <g id="navigator" transform="translate(0 0)" fill="#404254">
                <rect fill="#f2f5e9" fill-opacity="0.5" stroke="#606060" stroke-width=".5" x="0" y="0" width="60" height="60"/>
                <use id="zoomplus" xlink:href="#zoomPlus" x="17" y="9" onmousedown="handleZoom(evt,'in')"/>
                <use id="zoomminus" xlink:href="#zoomMin" x="42" y="9" onmousedown="handleZoom(evt,'out')"/>
                <use id="reset" xlink:href="#resetDef" x="30" y="36" onmousedown="handleReset()"/>
                <g id="arrowUp" xlink:href="#dirArrow" transform="translate(30 24)" onmousedown="handlePan(0,-1)">
                  <use xlink:href="#rim" fill="#404040">
                        <set attributeName="fill" to="#808080" begin="arrowUp.mouseover" end="arrowUp.mouseout"/>
                  </use>
                  <path fill="none" stroke="white" stroke-width="1.5" d="M0,-3.0v7 M-2.5,-0.5L0,-3.0L2.5,-0.5"/>
                </g>
                <g id="arrowRight" xlink:href="#dirArrow" transform="rotate(90) translate(36 -43)" onmousedown="handlePan(1,0)">
                  <use xlink:href="#rim" fill="#404040">
                        <set attributeName="fill" to="#808080" begin="arrowRight.mouseover" end="arrowRight.mouseout"/>
                  </use>
                  <path fill="none" stroke="white" stroke-width="1.5" d="M0,-3.0v7 M-2.5,-0.5L0,-3.0L2.5,-0.5"/>
                </g>
                <g id="arrowDown" xlink:href="#dirArrow" transform="rotate(180) translate(-30 -48)" onmousedown="handlePan(0,1)">
                  <use xlink:href="#rim" fill="#404040">
                        <set attributeName="fill" to="#808080" begin="arrowDown.mouseover" end="arrowDown.mouseout"/>
                  </use>
                  <path fill="none" stroke="white" stroke-width="1.5" d="M0,-3.0v7 M-2.5,-0.5L0,-3.0L2.5,-0.5"/>
                </g>
                <g id="arrowLeft" xlink:href="#dirArrow" transform="rotate(270) translate(-36 17)" onmousedown="handlePan(-1,0)">
                  <use xlink:href="#rim" fill="#404040">
                        <set attributeName="fill" to="#808080" begin="arrowLeft.mouseover" end="arrowLeft.mouseout"/>
                  </use>
                  <path fill="none" stroke="white" stroke-width="1.5" d="M0,-3.0v7 M-2.5,-0.5L0,-3.0L2.5,-0.5"/>
                </g>
        </g>
        <svg viewBox="0 0 15 15" width="100%" height="30px" preserveAspectRatio="xMaxYMin meet">
         <g id="arrow_out" transform="scale(0.3 0.3)">
          <a xlink:href="classMR24FDB1_a6e729c642bc4f67e6ce076fb0fa2aa3e_cgraph_org.svg" target="_base">
           <rect id="button" ry="5" rx="5" y="6" x="6" height="38" width="38"
                fill="#f2f5e9" fill-opacity="0.5" stroke="#606060" stroke-width="1.0"/>
           <path id="arrow"
             d="M 11.500037,31.436501 C 11.940474,20.09759 22.043105,11.32322 32.158766,21.979434 L 37.068811,17.246167 C 37.068811,17.246167 37.088388,32 37.088388,32 L 22.160133,31.978069 C 22.160133,31.978069 26.997745,27.140456 26.997745,27.140456 C 18.528582,18.264221 13.291696,25.230495 11.500037,31.436501 z"
             style="fill:#404040;"/>
          </a>
         </g>
        </svg>
</svg>
