<?xml version="1.0" encoding="UTF-8" standalone="no"?>
<!DOCTYPE svg PUBLIC "-//W3C//DTD SVG 1.1//EN"
 "http://www.w3.org/Graphics/SVG/1.1/DTD/svg11.dtd">
<!-- Generated by graphviz version 2.43.0 (0)
 -->
<!-- Title: MR24FDB1::getScene Pages: 1 -->
<!--zoomable 218 -->
<svg id="main" version="1.1" xmlns="http://www.w3.org/2000/svg" xmlns:xlink="http://www.w3.org/1999/xlink" xml:space="preserve" onload="init(evt)">
<style type="text/css"><![CDATA[
.edge:hover path { stroke: red; }
.edge:hover polygon { stroke: red; fill: red; }
]]></style>
<script type="text/javascript"><![CDATA[
var edges = document.getElementsByTagName('g');
if (edges && edges.length) {
  for (var i=0;i<edges.length;i++) {
    if (edges[i].id.substr(0,4)=='edge') {
      edges[i].setAttribute('class','edge');
    }
  }
}
]]></script>
        <defs>
                <circle id="rim" cx="0" cy="0" r="7"/>
                <circle id="rim2" cx="0" cy="0" r="3.5"/>
                <g id="zoomPlus">
                        <use xlink:href="#rim" fill="#404040">
                                <set attributeName="fill" to="#808080" begin="zoomplus.mouseover" end="zoomplus.mouseout"/>
                        </use>
                        <path d="M-4,0h8M0,-4v8" fill="none" stroke="white" stroke-width="1.5" pointer-events="none"/>
                </g>
                <g id="zoomMin">
                        <use xlink:href="#rim" fill="#404040">
                                <set attributeName="fill" to="#808080" begin="zoomminus.mouseover" end="zoomminus.mouseout"/>
                        </use>
                        <path d="M-4,0h8" fill="none" stroke="white" stroke-width="1.5" pointer-events="none"/>
                </g>
                <g id="dirArrow">
                        <path fill="none" stroke="white" stroke-width="1.5" d="M0,-3.0v7 M-2.5,-0.5L0,-3.0L2.5,-0.5"/>
                </g>
               <g id="resetDef">
                       <use xlink:href="#rim2" fill="#404040">
                               <set attributeName="fill" to="#808080" begin="reset.mouseover" end="reset.mouseout"/>
                       </use>
               </g>
        </defs>

<script type="text/javascript">
var viewWidth = 1066;
var viewHeight = 218;
var sectionId = 'dynsection-22';
</script>
<script xlink:href="svgpan.js"/>
<svg id="graph" class="graph">
<g id="viewport">
<title>MR24FDB1::getScene</title>
<polygon fill="white" stroke="transparent" points="-4,4 -4,-214 1062,-214 1062,4 -4,4"/>
<!-- Node267 -->
<g id="node1" class="node">
<title>Node267</title>
<g id="a_node1"><a xlink:title="get scene parameter ">
<polygon fill="#bfbfbf" stroke="black" points="0,-114.5 0,-133.5 122,-133.5 122,-114.5 0,-114.5"/>
<text text-anchor="middle" x="61" y="-121.5" font-family="Helvetica,sans-Serif" font-size="10.00">MR24FDB1::getScene</text>
</a>
</g>
</g>
<!-- Node268 -->
<g id="node2" class="node">
<title>Node268</title>
<g id="a_node2"><a xlink:href="classMR24FDB1.html#a7dfa1c269d0979718203f9202d4e8578" target="_top" xlink:title="send a &quot;GET&quot; packet to the module and wait for responce ">
<polygon fill="white" stroke="black" points="158,-114.5 158,-133.5 316,-133.5 316,-114.5 158,-114.5"/>
<text text-anchor="middle" x="237" y="-121.5" font-family="Helvetica,sans-Serif" font-size="10.00">MR24FDB1::sendGetAndWait</text>
</a>
</g>
</g>
<!-- Node267&#45;&gt;Node268 -->
<g id="edge1" class="edge">
<title>Node267&#45;&gt;Node268</title>
<path fill="none" stroke="midnightblue" d="M122.37,-124C130.62,-124 139.23,-124 147.85,-124"/>
<polygon fill="midnightblue" stroke="midnightblue" points="147.96,-127.5 157.96,-124 147.96,-120.5 147.96,-127.5"/>
</g>
<!-- Node269 -->
<g id="node3" class="node">
<title>Node269</title>
<g id="a_node3"><a xlink:href="classMR24FDB1.html#a4a5275f119bcbd82dd5a0d6a1d8defe5" target="_top" xlink:title="send a &quot;GET&quot; packet to the module ">
<polygon fill="white" stroke="black" points="352,-152.5 352,-171.5 469,-171.5 469,-152.5 352,-152.5"/>
<text text-anchor="middle" x="410.5" y="-159.5" font-family="Helvetica,sans-Serif" font-size="10.00">MR24FDB1::sendGet</text>
</a>
</g>
</g>
<!-- Node268&#45;&gt;Node269 -->
<g id="edge2" class="edge">
<title>Node268&#45;&gt;Node269</title>
<path fill="none" stroke="midnightblue" d="M281.28,-133.59C304.11,-138.65 332.32,-144.9 356.46,-150.25"/>
<polygon fill="midnightblue" stroke="midnightblue" points="356.01,-153.73 366.53,-152.48 357.53,-146.9 356.01,-153.73"/>
</g>
<!-- Node273 -->
<g id="node7" class="node">
<title>Node273</title>
<g id="a_node7"><a xlink:href="classMR24FDB1.html#a944e9bede6552294ea9940ae6fda3b96" target="_top" xlink:title="wait until packet of the specified type is recieved ">
<polygon fill="white" stroke="black" points="354,-95.5 354,-114.5 467,-114.5 467,-95.5 354,-95.5"/>
<text text-anchor="middle" x="410.5" y="-102.5" font-family="Helvetica,sans-Serif" font-size="10.00">MR24FDB1::waitFor</text>
</a>
</g>
</g>
<!-- Node268&#45;&gt;Node273 -->
<g id="edge6" class="edge">
<title>Node268&#45;&gt;Node273</title>
<path fill="none" stroke="midnightblue" d="M316.22,-115.33C325.46,-114.31 334.83,-113.27 343.87,-112.27"/>
<polygon fill="midnightblue" stroke="midnightblue" points="344.37,-115.74 353.92,-111.16 343.6,-108.78 344.37,-115.74"/>
</g>
<!-- Node270 -->
<g id="node4" class="node">
<title>Node270</title>
<g id="a_node4"><a xlink:href="classMR24FDB1.html#af148f4391ab1003e82d4497d8072aaa0" target="_top" xlink:title="calculate and add crc16 at end of buffer ">
<polygon fill="white" stroke="black" points="538,-152.5 538,-171.5 660,-171.5 660,-152.5 538,-152.5"/>
<text text-anchor="middle" x="599" y="-159.5" font-family="Helvetica,sans-Serif" font-size="10.00">MR24FDB1::addCrc16</text>
</a>
</g>
</g>
<!-- Node269&#45;&gt;Node270 -->
<g id="edge3" class="edge">
<title>Node269&#45;&gt;Node270</title>
<path fill="none" stroke="midnightblue" d="M469.23,-162C487.73,-162 508.42,-162 527.72,-162"/>
<polygon fill="midnightblue" stroke="midnightblue" points="527.96,-165.5 537.96,-162 527.96,-158.5 527.96,-165.5"/>
</g>
<!-- Node272 -->
<g id="node6" class="node">
<title>Node272</title>
<g id="a_node6"><a xlink:href="classMR24FDB1.html#a586848e9efe86b47520f92e049c502eb" target="_top" xlink:title="send a packet to the module ">
<polygon fill="white" stroke="black" points="533,-190.5 533,-209.5 665,-209.5 665,-190.5 533,-190.5"/>
<text text-anchor="middle" x="599" y="-197.5" font-family="Helvetica,sans-Serif" font-size="10.00">MR24FDB1::sendPacket</text>
</a>
</g>
</g>
<!-- Node269&#45;&gt;Node272 -->
<g id="edge5" class="edge">
<title>Node269&#45;&gt;Node272</title>
<path fill="none" stroke="midnightblue" d="M458.56,-171.59C483.73,-176.72 514.9,-183.07 541.38,-188.46"/>
<polygon fill="midnightblue" stroke="midnightblue" points="540.78,-191.91 551.28,-190.48 542.18,-185.05 540.78,-191.91"/>
</g>
<!-- Node271 -->
<g id="node5" class="node">
<title>Node271</title>
<g id="a_node5"><a xlink:href="classMR24FDB1.html#af7b82f23ec8f67c955ae413f4a078af0" target="_top" xlink:title="calculate crc16 of current packet ">
<polygon fill="white" stroke="black" points="731,-152.5 731,-171.5 880,-171.5 880,-152.5 731,-152.5"/>
<text text-anchor="middle" x="805.5" y="-159.5" font-family="Helvetica,sans-Serif" font-size="10.00">MR24FDB1::calculateCrc16</text>
</a>
</g>
</g>
<!-- Node270&#45;&gt;Node271 -->
<g id="edge4" class="edge">
<title>Node270&#45;&gt;Node271</title>
<path fill="none" stroke="midnightblue" d="M660.25,-162C679.2,-162 700.48,-162 720.75,-162"/>
<polygon fill="midnightblue" stroke="midnightblue" points="720.92,-165.5 730.92,-162 720.92,-158.5 720.92,-165.5"/>
</g>
<!-- Node274 -->
<g id="node8" class="node">
<title>Node274</title>
<g id="a_node8"><a xlink:href="classMR24FDB1.html#a8a6f5bebfe9e2f9232e58f0ff909042a" target="_top" xlink:title="parse packet ">
<polygon fill="white" stroke="black" points="531,-38.5 531,-57.5 667,-57.5 667,-38.5 531,-38.5"/>
<text text-anchor="middle" x="599" y="-45.5" font-family="Helvetica,sans-Serif" font-size="10.00">MR24FDB1::parsePacket</text>
</a>
</g>
</g>
<!-- Node273&#45;&gt;Node274 -->
<g id="edge7" class="edge">
<title>Node273&#45;&gt;Node274</title>
<path fill="none" stroke="midnightblue" d="M431.9,-95.43C450.58,-86.98 479.17,-74.81 505,-67 513.8,-64.34 523.19,-61.93 532.48,-59.8"/>
<polygon fill="midnightblue" stroke="midnightblue" points="533.49,-63.16 542.5,-57.59 531.98,-56.32 533.49,-63.16"/>
</g>
<!-- Node279 -->
<g id="node13" class="node">
<title>Node279</title>
<g id="a_node13"><a xlink:href="classMR24FDB1.html#a5e44c632274bde4a6e22f35d80a782f0" target="_top" xlink:title="get a packet from the chip ">
<polygon fill="white" stroke="black" points="533.5,-114.5 533.5,-133.5 664.5,-133.5 664.5,-114.5 533.5,-114.5"/>
<text text-anchor="middle" x="599" y="-121.5" font-family="Helvetica,sans-Serif" font-size="10.00">MR24FDB1::readPacket</text>
</a>
</g>
</g>
<!-- Node273&#45;&gt;Node279 -->
<g id="edge13" class="edge">
<title>Node273&#45;&gt;Node279</title>
<path fill="none" stroke="midnightblue" d="M467.2,-110.67C484.85,-112.47 504.66,-114.49 523.41,-116.4"/>
<polygon fill="midnightblue" stroke="midnightblue" points="523.1,-119.89 533.41,-117.42 523.81,-112.92 523.1,-119.89"/>
</g>
<!-- Node281 -->
<g id="node15" class="node">
<title>Node281</title>
<g id="a_node15"><a xlink:href="classMR24FDB1__Exception.html#a695552f5db7be7840c1af8650af0c235" target="_top" xlink:title="decode error from the Result,class,group , function etc... ">
<polygon fill="white" stroke="black" points="505,-76.5 505,-95.5 693,-95.5 693,-76.5 505,-76.5"/>
<text text-anchor="middle" x="599" y="-83.5" font-family="Helvetica,sans-Serif" font-size="10.00">MR24FDB1_Exception::decodeError</text>
</a>
</g>
</g>
<!-- Node273&#45;&gt;Node281 -->
<g id="edge16" class="edge">
<title>Node273&#45;&gt;Node281</title>
<path fill="none" stroke="midnightblue" d="M467.2,-99.33C476.05,-98.42 485.43,-97.47 494.95,-96.5"/>
<polygon fill="midnightblue" stroke="midnightblue" points="495.31,-99.98 504.91,-95.48 494.6,-93.02 495.31,-99.98"/>
</g>
<!-- Node275 -->
<g id="node9" class="node">
<title>Node275</title>
<g id="a_node9"><a xlink:href="classMR24FDB1.html#a2ccfe8221167944b882b5747b07dae22" target="_top" xlink:title="parse fall type packet ">
<polygon fill="white" stroke="black" points="729,-38.5 729,-57.5 882,-57.5 882,-38.5 729,-38.5"/>
<text text-anchor="middle" x="805.5" y="-45.5" font-family="Helvetica,sans-Serif" font-size="10.00">MR24FDB1::parseFallReport</text>
</a>
</g>
</g>
<!-- Node274&#45;&gt;Node275 -->
<g id="edge8" class="edge">
<title>Node274&#45;&gt;Node275</title>
<path fill="none" stroke="midnightblue" d="M667.24,-48C683.69,-48 701.51,-48 718.69,-48"/>
<polygon fill="midnightblue" stroke="midnightblue" points="718.72,-51.5 728.72,-48 718.72,-44.5 718.72,-51.5"/>
</g>
<!-- Node276 -->
<g id="node10" class="node">
<title>Node276</title>
<g id="a_node10"><a xlink:href="classMR24FDB1.html#a1759ec9442c191ee6ddc09137a9c0528" target="_top" xlink:title="parse report type packet ">
<polygon fill="white" stroke="black" points="737.5,-0.5 737.5,-19.5 873.5,-19.5 873.5,-0.5 737.5,-0.5"/>
<text text-anchor="middle" x="805.5" y="-7.5" font-family="Helvetica,sans-Serif" font-size="10.00">MR24FDB1::parseReport</text>
</a>
</g>
</g>
<!-- Node274&#45;&gt;Node276 -->
<g id="edge9" class="edge">
<title>Node274&#45;&gt;Node276</title>
<path fill="none" stroke="midnightblue" d="M651.34,-38.46C679.17,-33.29 713.77,-26.86 743.03,-21.42"/>
<polygon fill="midnightblue" stroke="midnightblue" points="743.95,-24.81 753.14,-19.54 742.67,-17.93 743.95,-24.81"/>
</g>
<!-- Node278 -->
<g id="node12" class="node">
<title>Node278</title>
<g id="a_node12"><a xlink:href="classMR24FDB1.html#a55ecfd4dffd4d04c97dcd6e6e264ad61" target="_top" xlink:title="parse reponce type packet ">
<polygon fill="white" stroke="black" points="730,-76.5 730,-95.5 881,-95.5 881,-76.5 730,-76.5"/>
<text text-anchor="middle" x="805.5" y="-83.5" font-family="Helvetica,sans-Serif" font-size="10.00">MR24FDB1::parseResponce</text>
</a>
</g>
</g>
<!-- Node274&#45;&gt;Node278 -->
<g id="edge11" class="edge">
<title>Node274&#45;&gt;Node278</title>
<path fill="none" stroke="midnightblue" d="M651.34,-57.54C679.17,-62.71 713.77,-69.14 743.03,-74.58"/>
<polygon fill="midnightblue" stroke="midnightblue" points="742.67,-78.07 753.14,-76.46 743.95,-71.19 742.67,-78.07"/>
</g>
<!-- Node277 -->
<g id="node11" class="node">
<title>Node277</title>
<g id="a_node11"><a xlink:href="classMR24FDB1.html#ae444c38bb80decf58cabe5b12005b819" target="_top" xlink:title="parse Radar group responces and reports ">
<polygon fill="white" stroke="black" points="918,-38.5 918,-57.5 1058,-57.5 1058,-38.5 918,-38.5"/>
<text text-anchor="middle" x="988" y="-45.5" font-family="Helvetica,sans-Serif" font-size="10.00">MR24FDB1::decodeRadar</text>
</a>
</g>
</g>
<!-- Node276&#45;&gt;Node277 -->
<g id="edge10" class="edge">
<title>Node276&#45;&gt;Node277</title>
<path fill="none" stroke="midnightblue" d="M852.05,-19.59C876.3,-24.69 906.3,-31.01 931.86,-36.39"/>
<polygon fill="midnightblue" stroke="midnightblue" points="931.27,-39.84 941.78,-38.48 932.72,-32.99 931.27,-39.84"/>
</g>
<!-- Node278&#45;&gt;Node277 -->
<g id="edge12" class="edge">
<title>Node278&#45;&gt;Node277</title>
<path fill="none" stroke="midnightblue" d="M852.05,-76.41C876.3,-71.31 906.3,-64.99 931.86,-59.61"/>
<polygon fill="midnightblue" stroke="midnightblue" points="932.72,-63.01 941.78,-57.52 931.27,-56.16 932.72,-63.01"/>
</g>
<!-- Node279&#45;&gt;Node271 -->
<g id="edge14" class="edge">
<title>Node279&#45;&gt;Node271</title>
<path fill="none" stroke="midnightblue" d="M651.34,-133.54C679.17,-138.71 713.77,-145.14 743.03,-150.58"/>
<polygon fill="midnightblue" stroke="midnightblue" points="742.67,-154.07 753.14,-152.46 743.95,-147.19 742.67,-154.07"/>
</g>
<!-- Node280 -->
<g id="node14" class="node">
<title>Node280</title>
<g id="a_node14"><a xlink:href="classMR24FDB1.html#a3de11c024f9b20321cce5d98cd534c3e" target="_top" xlink:title="get one byte from serial ">
<polygon fill="white" stroke="black" points="745,-114.5 745,-133.5 866,-133.5 866,-114.5 745,-114.5"/>
<text text-anchor="middle" x="805.5" y="-121.5" font-family="Helvetica,sans-Serif" font-size="10.00">MR24FDB1::readByte</text>
</a>
</g>
</g>
<!-- Node279&#45;&gt;Node280 -->
<g id="edge15" class="edge">
<title>Node279&#45;&gt;Node280</title>
<path fill="none" stroke="midnightblue" d="M664.71,-124C686.93,-124 711.9,-124 734.52,-124"/>
<polygon fill="midnightblue" stroke="midnightblue" points="734.73,-127.5 744.73,-124 734.73,-120.5 734.73,-127.5"/>
</g>
</g>
</svg>
        <g id="navigator" transform="translate(0 0)" fill="#404254">
                <rect fill="#f2f5e9" fill-opacity="0.5" stroke="#606060" stroke-width=".5" x="0" y="0" width="60" height="60"/>
                <use id="zoomplus" xlink:href="#zoomPlus" x="17" y="9" onmousedown="handleZoom(evt,'in')"/>
                <use id="zoomminus" xlink:href="#zoomMin" x="42" y="9" onmousedown="handleZoom(evt,'out')"/>
                <use id="reset" xlink:href="#resetDef" x="30" y="36" onmousedown="handleReset()"/>
                <g id="arrowUp" xlink:href="#dirArrow" transform="translate(30 24)" onmousedown="handlePan(0,-1)">
                  <use xlink:href="#rim" fill="#404040">
                        <set attributeName="fill" to="#808080" begin="arrowUp.mouseover" end="arrowUp.mouseout"/>
                  </use>
                  <path fill="none" stroke="white" stroke-width="1.5" d="M0,-3.0v7 M-2.5,-0.5L0,-3.0L2.5,-0.5"/>
                </g>
                <g id="arrowRight" xlink:href="#dirArrow" transform="rotate(90) translate(36 -43)" onmousedown="handlePan(1,0)">
                  <use xlink:href="#rim" fill="#404040">
                        <set attributeName="fill" to="#808080" begin="arrowRight.mouseover" end="arrowRight.mouseout"/>
                  </use>
                  <path fill="none" stroke="white" stroke-width="1.5" d="M0,-3.0v7 M-2.5,-0.5L0,-3.0L2.5,-0.5"/>
                </g>
                <g id="arrowDown" xlink:href="#dirArrow" transform="rotate(180) translate(-30 -48)" onmousedown="handlePan(0,1)">
                  <use xlink:href="#rim" fill="#404040">
                        <set attributeName="fill" to="#808080" begin="arrowDown.mouseover" end="arrowDown.mouseout"/>
                  </use>
                  <path fill="none" stroke="white" stroke-width="1.5" d="M0,-3.0v7 M-2.5,-0.5L0,-3.0L2.5,-0.5"/>
                </g>
                <g id="arrowLeft" xlink:href="#dirArrow" transform="rotate(270) translate(-36 17)" onmousedown="handlePan(-1,0)">
                  <use xlink:href="#rim" fill="#404040">
                        <set attributeName="fill" to="#808080" begin="arrowLeft.mouseover" end="arrowLeft.mouseout"/>
                  </use>
                  <path fill="none" stroke="white" stroke-width="1.5" d="M0,-3.0v7 M-2.5,-0.5L0,-3.0L2.5,-0.5"/>
                </g>
        </g>
        <svg viewBox="0 0 15 15" width="100%" height="30px" preserveAspectRatio="xMaxYMin meet">
         <g id="arrow_out" transform="scale(0.3 0.3)">
          <a xlink:href="classMR24FDB1_adc620372e2ccd4d3dece13bfe8c8424e_cgraph_org.svg" target="_base">
           <rect id="button" ry="5" rx="5" y="6" x="6" height="38" width="38"
                fill="#f2f5e9" fill-opacity="0.5" stroke="#606060" stroke-width="1.0"/>
           <path id="arrow"
             d="M 11.500037,31.436501 C 11.940474,20.09759 22.043105,11.32322 32.158766,21.979434 L 37.068811,17.246167 C 37.068811,17.246167 37.088388,32 37.088388,32 L 22.160133,31.978069 C 22.160133,31.978069 26.997745,27.140456 26.997745,27.140456 C 18.528582,18.264221 13.291696,25.230495 11.500037,31.436501 z"
             style="fill:#404040;"/>
          </a>
         </g>
        </svg>
</svg>
