<?xml version="1.0" encoding="UTF-8" standalone="no"?>
<!DOCTYPE svg PUBLIC "-//W3C//DTD SVG 1.1//EN"
 "http://www.w3.org/Graphics/SVG/1.1/DTD/svg11.dtd">
<!-- Generated by graphviz version 2.43.0 (0)
 -->
<!-- Title: MR24FDB1::setScene Pages: 1 -->
<svg width="634pt" height="66pt"
 viewBox="0.00 0.00 634.00 66.00" xmlns="http://www.w3.org/2000/svg" xmlns:xlink="http://www.w3.org/1999/xlink">
<g id="graph0" class="graph" transform="scale(1 1) rotate(0) translate(4 62)">
<title>MR24FDB1::setScene</title>
<polygon fill="white" stroke="transparent" points="-4,4 -4,-62 630,-62 630,4 -4,4"/>
<!-- Node355 -->
<g id="node1" class="node">
<title>Node355</title>
<g id="a_node1"><a xlink:title="set scene ">
<polygon fill="#bfbfbf" stroke="black" points="0,-19.5 0,-38.5 121,-38.5 121,-19.5 0,-19.5"/>
<text text-anchor="middle" x="60.5" y="-26.5" font-family="Helvetica,sans-Serif" font-size="10.00">MR24FDB1::setScene</text>
</a>
</g>
</g>
<!-- Node356 -->
<g id="node2" class="node">
<title>Node356</title>
<g id="a_node2"><a xlink:href="classMR24FDB1.html#a465db085a7c6388ad7ba874d2adef8a3" target="_top" xlink:title="send a &quot;GET&quot; packet to the module ">
<polygon fill="white" stroke="black" points="157,-19.5 157,-38.5 273,-38.5 273,-19.5 157,-19.5"/>
<text text-anchor="middle" x="215" y="-26.5" font-family="Helvetica,sans-Serif" font-size="10.00">MR24FDB1::sendSet</text>
</a>
</g>
</g>
<!-- Node355&#45;&gt;Node356 -->
<g id="edge1" class="edge">
<title>Node355&#45;&gt;Node356</title>
<path fill="none" stroke="midnightblue" d="M121.33,-29C129.64,-29 138.22,-29 146.65,-29"/>
<polygon fill="midnightblue" stroke="midnightblue" points="146.83,-32.5 156.83,-29 146.83,-25.5 146.83,-32.5"/>
</g>
<!-- Node357 -->
<g id="node3" class="node">
<title>Node357</title>
<g id="a_node3"><a xlink:href="classMR24FDB1.html#af148f4391ab1003e82d4497d8072aaa0" target="_top" xlink:title="calculate and add crc16 at end of buffer ">
<polygon fill="white" stroke="black" points="314,-38.5 314,-57.5 436,-57.5 436,-38.5 314,-38.5"/>
<text text-anchor="middle" x="375" y="-45.5" font-family="Helvetica,sans-Serif" font-size="10.00">MR24FDB1::addCrc16</text>
</a>
</g>
</g>
<!-- Node356&#45;&gt;Node357 -->
<g id="edge2" class="edge">
<title>Node356&#45;&gt;Node357</title>
<path fill="none" stroke="midnightblue" d="M273.04,-35.86C282.99,-37.06 293.43,-38.31 303.69,-39.54"/>
<polygon fill="midnightblue" stroke="midnightblue" points="303.5,-43.05 313.84,-40.77 304.33,-36.1 303.5,-43.05"/>
</g>
<!-- Node359 -->
<g id="node5" class="node">
<title>Node359</title>
<g id="a_node5"><a xlink:href="classMR24FDB1.html#a586848e9efe86b47520f92e049c502eb" target="_top" xlink:title="send a packet to the module ">
<polygon fill="white" stroke="black" points="309,-0.5 309,-19.5 441,-19.5 441,-0.5 309,-0.5"/>
<text text-anchor="middle" x="375" y="-7.5" font-family="Helvetica,sans-Serif" font-size="10.00">MR24FDB1::sendPacket</text>
</a>
</g>
</g>
<!-- Node356&#45;&gt;Node359 -->
<g id="edge4" class="edge">
<title>Node356&#45;&gt;Node359</title>
<path fill="none" stroke="midnightblue" d="M273.04,-22.14C281.43,-21.13 290.17,-20.08 298.86,-19.04"/>
<polygon fill="midnightblue" stroke="midnightblue" points="299.48,-22.49 308.99,-17.82 298.65,-15.54 299.48,-22.49"/>
</g>
<!-- Node358 -->
<g id="node4" class="node">
<title>Node358</title>
<g id="a_node4"><a xlink:href="classMR24FDB1.html#af7b82f23ec8f67c955ae413f4a078af0" target="_top" xlink:title="calculate crc16 of current packet ">
<polygon fill="white" stroke="black" points="477,-38.5 477,-57.5 626,-57.5 626,-38.5 477,-38.5"/>
<text text-anchor="middle" x="551.5" y="-45.5" font-family="Helvetica,sans-Serif" font-size="10.00">MR24FDB1::calculateCrc16</text>
</a>
</g>
</g>
<!-- Node357&#45;&gt;Node358 -->
<g id="edge3" class="edge">
<title>Node357&#45;&gt;Node358</title>
<path fill="none" stroke="midnightblue" d="M436.05,-48C445.89,-48 456.23,-48 466.52,-48"/>
<polygon fill="midnightblue" stroke="midnightblue" points="466.76,-51.5 476.76,-48 466.76,-44.5 466.76,-51.5"/>
</g>
</g>
</svg>
