<?xml version="1.0" encoding="UTF-8" standalone="no"?>
<!DOCTYPE svg PUBLIC "-//W3C//DTD SVG 1.1//EN"
 "http://www.w3.org/Graphics/SVG/1.1/DTD/svg11.dtd">
<!-- Generated by graphviz version 2.43.0 (0)
 -->
<!-- Title: MR24FDB1::getMovement Pages: 1 -->
<!--zoomable 218 -->
<svg id="main" version="1.1" xmlns="http://www.w3.org/2000/svg" xmlns:xlink="http://www.w3.org/1999/xlink" xml:space="preserve" onload="init(evt)">
<style type="text/css"><![CDATA[
.edge:hover path { stroke: red; }
.edge:hover polygon { stroke: red; fill: red; }
]]></style>
<script type="text/javascript"><![CDATA[
var edges = document.getElementsByTagName('g');
if (edges && edges.length) {
  for (var i=0;i<edges.length;i++) {
    if (edges[i].id.substr(0,4)=='edge') {
      edges[i].setAttribute('class','edge');
    }
  }
}
]]></script>
        <defs>
                <circle id="rim" cx="0" cy="0" r="7"/>
                <circle id="rim2" cx="0" cy="0" r="3.5"/>
                <g id="zoomPlus">
                        <use xlink:href="#rim" fill="#404040">
                                <set attributeName="fill" to="#808080" begin="zoomplus.mouseover" end="zoomplus.mouseout"/>
                        </use>
                        <path d="M-4,0h8M0,-4v8" fill="none" stroke="white" stroke-width="1.5" pointer-events="none"/>
                </g>
                <g id="zoomMin">
                        <use xlink:href="#rim" fill="#404040">
                                <set attributeName="fill" to="#808080" begin="zoomminus.mouseover" end="zoomminus.mouseout"/>
                        </use>
                        <path d="M-4,0h8" fill="none" stroke="white" stroke-width="1.5" pointer-events="none"/>
                </g>
                <g id="dirArrow">
                        <path fill="none" stroke="white" stroke-width="1.5" d="M0,-3.0v7 M-2.5,-0.5L0,-3.0L2.5,-0.5"/>
                </g>
               <g id="resetDef">
                       <use xlink:href="#rim2" fill="#404040">
                               <set attributeName="fill" to="#808080" begin="reset.mouseover" end="reset.mouseout"/>
                       </use>
               </g>
        </defs>

<script type="text/javascript">
var viewWidth = 1089;
var viewHeight = 218;
var sectionId = 'dynsection-19';
</script>
<script xlink:href="svgpan.js"/>
<svg id="graph" class="graph">
<g id="viewport">
<title>MR24FDB1::getMovement</title>
<polygon fill="white" stroke="transparent" points="-4,4 -4,-214 1085,-214 1085,4 -4,4"/>
<!-- Node222 -->
<g id="node1" class="node">
<title>Node222</title>
<g id="a_node1"><a xlink:title="get movement ">
<polygon fill="#bfbfbf" stroke="black" points="0,-114.5 0,-133.5 145,-133.5 145,-114.5 0,-114.5"/>
<text text-anchor="middle" x="72.5" y="-121.5" font-family="Helvetica,sans-Serif" font-size="10.00">MR24FDB1::getMovement</text>
</a>
</g>
</g>
<!-- Node223 -->
<g id="node2" class="node">
<title>Node223</title>
<g id="a_node2"><a xlink:href="classMR24FDB1.html#a7dfa1c269d0979718203f9202d4e8578" target="_top" xlink:title="send a &quot;GET&quot; packet to the module and wait for responce ">
<polygon fill="white" stroke="black" points="181,-114.5 181,-133.5 339,-133.5 339,-114.5 181,-114.5"/>
<text text-anchor="middle" x="260" y="-121.5" font-family="Helvetica,sans-Serif" font-size="10.00">MR24FDB1::sendGetAndWait</text>
</a>
</g>
</g>
<!-- Node222&#45;&gt;Node223 -->
<g id="edge1" class="edge">
<title>Node222&#45;&gt;Node223</title>
<path fill="none" stroke="midnightblue" d="M145.22,-124C153.48,-124 161.98,-124 170.43,-124"/>
<polygon fill="midnightblue" stroke="midnightblue" points="170.7,-127.5 180.7,-124 170.7,-120.5 170.7,-127.5"/>
</g>
<!-- Node224 -->
<g id="node3" class="node">
<title>Node224</title>
<g id="a_node3"><a xlink:href="classMR24FDB1.html#a4a5275f119bcbd82dd5a0d6a1d8defe5" target="_top" xlink:title="send a &quot;GET&quot; packet to the module ">
<polygon fill="white" stroke="black" points="375,-152.5 375,-171.5 492,-171.5 492,-152.5 375,-152.5"/>
<text text-anchor="middle" x="433.5" y="-159.5" font-family="Helvetica,sans-Serif" font-size="10.00">MR24FDB1::sendGet</text>
</a>
</g>
</g>
<!-- Node223&#45;&gt;Node224 -->
<g id="edge2" class="edge">
<title>Node223&#45;&gt;Node224</title>
<path fill="none" stroke="midnightblue" d="M304.28,-133.59C327.11,-138.65 355.32,-144.9 379.46,-150.25"/>
<polygon fill="midnightblue" stroke="midnightblue" points="379.01,-153.73 389.53,-152.48 380.53,-146.9 379.01,-153.73"/>
</g>
<!-- Node228 -->
<g id="node7" class="node">
<title>Node228</title>
<g id="a_node7"><a xlink:href="classMR24FDB1.html#a944e9bede6552294ea9940ae6fda3b96" target="_top" xlink:title="wait until packet of the specified type is recieved ">
<polygon fill="white" stroke="black" points="377,-95.5 377,-114.5 490,-114.5 490,-95.5 377,-95.5"/>
<text text-anchor="middle" x="433.5" y="-102.5" font-family="Helvetica,sans-Serif" font-size="10.00">MR24FDB1::waitFor</text>
</a>
</g>
</g>
<!-- Node223&#45;&gt;Node228 -->
<g id="edge6" class="edge">
<title>Node223&#45;&gt;Node228</title>
<path fill="none" stroke="midnightblue" d="M339.22,-115.33C348.46,-114.31 357.83,-113.27 366.87,-112.27"/>
<polygon fill="midnightblue" stroke="midnightblue" points="367.37,-115.74 376.92,-111.16 366.6,-108.78 367.37,-115.74"/>
</g>
<!-- Node225 -->
<g id="node4" class="node">
<title>Node225</title>
<g id="a_node4"><a xlink:href="classMR24FDB1.html#af148f4391ab1003e82d4497d8072aaa0" target="_top" xlink:title="calculate and add crc16 at end of buffer ">
<polygon fill="white" stroke="black" points="561,-152.5 561,-171.5 683,-171.5 683,-152.5 561,-152.5"/>
<text text-anchor="middle" x="622" y="-159.5" font-family="Helvetica,sans-Serif" font-size="10.00">MR24FDB1::addCrc16</text>
</a>
</g>
</g>
<!-- Node224&#45;&gt;Node225 -->
<g id="edge3" class="edge">
<title>Node224&#45;&gt;Node225</title>
<path fill="none" stroke="midnightblue" d="M492.23,-162C510.73,-162 531.42,-162 550.72,-162"/>
<polygon fill="midnightblue" stroke="midnightblue" points="550.96,-165.5 560.96,-162 550.96,-158.5 550.96,-165.5"/>
</g>
<!-- Node227 -->
<g id="node6" class="node">
<title>Node227</title>
<g id="a_node6"><a xlink:href="classMR24FDB1.html#a586848e9efe86b47520f92e049c502eb" target="_top" xlink:title="send a packet to the module ">
<polygon fill="white" stroke="black" points="556,-190.5 556,-209.5 688,-209.5 688,-190.5 556,-190.5"/>
<text text-anchor="middle" x="622" y="-197.5" font-family="Helvetica,sans-Serif" font-size="10.00">MR24FDB1::sendPacket</text>
</a>
</g>
</g>
<!-- Node224&#45;&gt;Node227 -->
<g id="edge5" class="edge">
<title>Node224&#45;&gt;Node227</title>
<path fill="none" stroke="midnightblue" d="M481.56,-171.59C506.73,-176.72 537.9,-183.07 564.38,-188.46"/>
<polygon fill="midnightblue" stroke="midnightblue" points="563.78,-191.91 574.28,-190.48 565.18,-185.05 563.78,-191.91"/>
</g>
<!-- Node226 -->
<g id="node5" class="node">
<title>Node226</title>
<g id="a_node5"><a xlink:href="classMR24FDB1.html#af7b82f23ec8f67c955ae413f4a078af0" target="_top" xlink:title="calculate crc16 of current packet ">
<polygon fill="white" stroke="black" points="754,-152.5 754,-171.5 903,-171.5 903,-152.5 754,-152.5"/>
<text text-anchor="middle" x="828.5" y="-159.5" font-family="Helvetica,sans-Serif" font-size="10.00">MR24FDB1::calculateCrc16</text>
</a>
</g>
</g>
<!-- Node225&#45;&gt;Node226 -->
<g id="edge4" class="edge">
<title>Node225&#45;&gt;Node226</title>
<path fill="none" stroke="midnightblue" d="M683.25,-162C702.2,-162 723.48,-162 743.75,-162"/>
<polygon fill="midnightblue" stroke="midnightblue" points="743.92,-165.5 753.92,-162 743.92,-158.5 743.92,-165.5"/>
</g>
<!-- Node229 -->
<g id="node8" class="node">
<title>Node229</title>
<g id="a_node8"><a xlink:href="classMR24FDB1.html#a8a6f5bebfe9e2f9232e58f0ff909042a" target="_top" xlink:title="parse packet ">
<polygon fill="white" stroke="black" points="554,-38.5 554,-57.5 690,-57.5 690,-38.5 554,-38.5"/>
<text text-anchor="middle" x="622" y="-45.5" font-family="Helvetica,sans-Serif" font-size="10.00">MR24FDB1::parsePacket</text>
</a>
</g>
</g>
<!-- Node228&#45;&gt;Node229 -->
<g id="edge7" class="edge">
<title>Node228&#45;&gt;Node229</title>
<path fill="none" stroke="midnightblue" d="M454.9,-95.43C473.58,-86.98 502.17,-74.81 528,-67 536.8,-64.34 546.19,-61.93 555.48,-59.8"/>
<polygon fill="midnightblue" stroke="midnightblue" points="556.49,-63.16 565.5,-57.59 554.98,-56.32 556.49,-63.16"/>
</g>
<!-- Node234 -->
<g id="node13" class="node">
<title>Node234</title>
<g id="a_node13"><a xlink:href="classMR24FDB1.html#a5e44c632274bde4a6e22f35d80a782f0" target="_top" xlink:title="get a packet from the chip ">
<polygon fill="white" stroke="black" points="556.5,-114.5 556.5,-133.5 687.5,-133.5 687.5,-114.5 556.5,-114.5"/>
<text text-anchor="middle" x="622" y="-121.5" font-family="Helvetica,sans-Serif" font-size="10.00">MR24FDB1::readPacket</text>
</a>
</g>
</g>
<!-- Node228&#45;&gt;Node234 -->
<g id="edge13" class="edge">
<title>Node228&#45;&gt;Node234</title>
<path fill="none" stroke="midnightblue" d="M490.2,-110.67C507.85,-112.47 527.66,-114.49 546.41,-116.4"/>
<polygon fill="midnightblue" stroke="midnightblue" points="546.1,-119.89 556.41,-117.42 546.81,-112.92 546.1,-119.89"/>
</g>
<!-- Node236 -->
<g id="node15" class="node">
<title>Node236</title>
<g id="a_node15"><a xlink:href="classMR24FDB1__Exception.html#a695552f5db7be7840c1af8650af0c235" target="_top" xlink:title="decode error from the Result,class,group , function etc... ">
<polygon fill="white" stroke="black" points="528,-76.5 528,-95.5 716,-95.5 716,-76.5 528,-76.5"/>
<text text-anchor="middle" x="622" y="-83.5" font-family="Helvetica,sans-Serif" font-size="10.00">MR24FDB1_Exception::decodeError</text>
</a>
</g>
</g>
<!-- Node228&#45;&gt;Node236 -->
<g id="edge16" class="edge">
<title>Node228&#45;&gt;Node236</title>
<path fill="none" stroke="midnightblue" d="M490.2,-99.33C499.05,-98.42 508.43,-97.47 517.95,-96.5"/>
<polygon fill="midnightblue" stroke="midnightblue" points="518.31,-99.98 527.91,-95.48 517.6,-93.02 518.31,-99.98"/>
</g>
<!-- Node230 -->
<g id="node9" class="node">
<title>Node230</title>
<g id="a_node9"><a xlink:href="classMR24FDB1.html#a2ccfe8221167944b882b5747b07dae22" target="_top" xlink:title="parse fall type packet ">
<polygon fill="white" stroke="black" points="752,-38.5 752,-57.5 905,-57.5 905,-38.5 752,-38.5"/>
<text text-anchor="middle" x="828.5" y="-45.5" font-family="Helvetica,sans-Serif" font-size="10.00">MR24FDB1::parseFallReport</text>
</a>
</g>
</g>
<!-- Node229&#45;&gt;Node230 -->
<g id="edge8" class="edge">
<title>Node229&#45;&gt;Node230</title>
<path fill="none" stroke="midnightblue" d="M690.24,-48C706.69,-48 724.51,-48 741.69,-48"/>
<polygon fill="midnightblue" stroke="midnightblue" points="741.72,-51.5 751.72,-48 741.72,-44.5 741.72,-51.5"/>
</g>
<!-- Node231 -->
<g id="node10" class="node">
<title>Node231</title>
<g id="a_node10"><a xlink:href="classMR24FDB1.html#a1759ec9442c191ee6ddc09137a9c0528" target="_top" xlink:title="parse report type packet ">
<polygon fill="white" stroke="black" points="760.5,-0.5 760.5,-19.5 896.5,-19.5 896.5,-0.5 760.5,-0.5"/>
<text text-anchor="middle" x="828.5" y="-7.5" font-family="Helvetica,sans-Serif" font-size="10.00">MR24FDB1::parseReport</text>
</a>
</g>
</g>
<!-- Node229&#45;&gt;Node231 -->
<g id="edge9" class="edge">
<title>Node229&#45;&gt;Node231</title>
<path fill="none" stroke="midnightblue" d="M674.34,-38.46C702.17,-33.29 736.77,-26.86 766.03,-21.42"/>
<polygon fill="midnightblue" stroke="midnightblue" points="766.95,-24.81 776.14,-19.54 765.67,-17.93 766.95,-24.81"/>
</g>
<!-- Node233 -->
<g id="node12" class="node">
<title>Node233</title>
<g id="a_node12"><a xlink:href="classMR24FDB1.html#a55ecfd4dffd4d04c97dcd6e6e264ad61" target="_top" xlink:title="parse reponce type packet ">
<polygon fill="white" stroke="black" points="753,-76.5 753,-95.5 904,-95.5 904,-76.5 753,-76.5"/>
<text text-anchor="middle" x="828.5" y="-83.5" font-family="Helvetica,sans-Serif" font-size="10.00">MR24FDB1::parseResponce</text>
</a>
</g>
</g>
<!-- Node229&#45;&gt;Node233 -->
<g id="edge11" class="edge">
<title>Node229&#45;&gt;Node233</title>
<path fill="none" stroke="midnightblue" d="M674.34,-57.54C702.17,-62.71 736.77,-69.14 766.03,-74.58"/>
<polygon fill="midnightblue" stroke="midnightblue" points="765.67,-78.07 776.14,-76.46 766.95,-71.19 765.67,-78.07"/>
</g>
<!-- Node232 -->
<g id="node11" class="node">
<title>Node232</title>
<g id="a_node11"><a xlink:href="classMR24FDB1.html#ae444c38bb80decf58cabe5b12005b819" target="_top" xlink:title="parse Radar group responces and reports ">
<polygon fill="white" stroke="black" points="941,-38.5 941,-57.5 1081,-57.5 1081,-38.5 941,-38.5"/>
<text text-anchor="middle" x="1011" y="-45.5" font-family="Helvetica,sans-Serif" font-size="10.00">MR24FDB1::decodeRadar</text>
</a>
</g>
</g>
<!-- Node231&#45;&gt;Node232 -->
<g id="edge10" class="edge">
<title>Node231&#45;&gt;Node232</title>
<path fill="none" stroke="midnightblue" d="M875.05,-19.59C899.3,-24.69 929.3,-31.01 954.86,-36.39"/>
<polygon fill="midnightblue" stroke="midnightblue" points="954.27,-39.84 964.78,-38.48 955.72,-32.99 954.27,-39.84"/>
</g>
<!-- Node233&#45;&gt;Node232 -->
<g id="edge12" class="edge">
<title>Node233&#45;&gt;Node232</title>
<path fill="none" stroke="midnightblue" d="M875.05,-76.41C899.3,-71.31 929.3,-64.99 954.86,-59.61"/>
<polygon fill="midnightblue" stroke="midnightblue" points="955.72,-63.01 964.78,-57.52 954.27,-56.16 955.72,-63.01"/>
</g>
<!-- Node234&#45;&gt;Node226 -->
<g id="edge14" class="edge">
<title>Node234&#45;&gt;Node226</title>
<path fill="none" stroke="midnightblue" d="M674.34,-133.54C702.17,-138.71 736.77,-145.14 766.03,-150.58"/>
<polygon fill="midnightblue" stroke="midnightblue" points="765.67,-154.07 776.14,-152.46 766.95,-147.19 765.67,-154.07"/>
</g>
<!-- Node235 -->
<g id="node14" class="node">
<title>Node235</title>
<g id="a_node14"><a xlink:href="classMR24FDB1.html#a3de11c024f9b20321cce5d98cd534c3e" target="_top" xlink:title="get one byte from serial ">
<polygon fill="white" stroke="black" points="768,-114.5 768,-133.5 889,-133.5 889,-114.5 768,-114.5"/>
<text text-anchor="middle" x="828.5" y="-121.5" font-family="Helvetica,sans-Serif" font-size="10.00">MR24FDB1::readByte</text>
</a>
</g>
</g>
<!-- Node234&#45;&gt;Node235 -->
<g id="edge15" class="edge">
<title>Node234&#45;&gt;Node235</title>
<path fill="none" stroke="midnightblue" d="M687.71,-124C709.93,-124 734.9,-124 757.52,-124"/>
<polygon fill="midnightblue" stroke="midnightblue" points="757.73,-127.5 767.73,-124 757.73,-120.5 757.73,-127.5"/>
</g>
</g>
</svg>
        <g id="navigator" transform="translate(0 0)" fill="#404254">
                <rect fill="#f2f5e9" fill-opacity="0.5" stroke="#606060" stroke-width=".5" x="0" y="0" width="60" height="60"/>
                <use id="zoomplus" xlink:href="#zoomPlus" x="17" y="9" onmousedown="handleZoom(evt,'in')"/>
                <use id="zoomminus" xlink:href="#zoomMin" x="42" y="9" onmousedown="handleZoom(evt,'out')"/>
                <use id="reset" xlink:href="#resetDef" x="30" y="36" onmousedown="handleReset()"/>
                <g id="arrowUp" xlink:href="#dirArrow" transform="translate(30 24)" onmousedown="handlePan(0,-1)">
                  <use xlink:href="#rim" fill="#404040">
                        <set attributeName="fill" to="#808080" begin="arrowUp.mouseover" end="arrowUp.mouseout"/>
                  </use>
                  <path fill="none" stroke="white" stroke-width="1.5" d="M0,-3.0v7 M-2.5,-0.5L0,-3.0L2.5,-0.5"/>
                </g>
                <g id="arrowRight" xlink:href="#dirArrow" transform="rotate(90) translate(36 -43)" onmousedown="handlePan(1,0)">
                  <use xlink:href="#rim" fill="#404040">
                        <set attributeName="fill" to="#808080" begin="arrowRight.mouseover" end="arrowRight.mouseout"/>
                  </use>
                  <path fill="none" stroke="white" stroke-width="1.5" d="M0,-3.0v7 M-2.5,-0.5L0,-3.0L2.5,-0.5"/>
                </g>
                <g id="arrowDown" xlink:href="#dirArrow" transform="rotate(180) translate(-30 -48)" onmousedown="handlePan(0,1)">
                  <use xlink:href="#rim" fill="#404040">
                        <set attributeName="fill" to="#808080" begin="arrowDown.mouseover" end="arrowDown.mouseout"/>
                  </use>
                  <path fill="none" stroke="white" stroke-width="1.5" d="M0,-3.0v7 M-2.5,-0.5L0,-3.0L2.5,-0.5"/>
                </g>
                <g id="arrowLeft" xlink:href="#dirArrow" transform="rotate(270) translate(-36 17)" onmousedown="handlePan(-1,0)">
                  <use xlink:href="#rim" fill="#404040">
                        <set attributeName="fill" to="#808080" begin="arrowLeft.mouseover" end="arrowLeft.mouseout"/>
                  </use>
                  <path fill="none" stroke="white" stroke-width="1.5" d="M0,-3.0v7 M-2.5,-0.5L0,-3.0L2.5,-0.5"/>
                </g>
        </g>
        <svg viewBox="0 0 15 15" width="100%" height="30px" preserveAspectRatio="xMaxYMin meet">
         <g id="arrow_out" transform="scale(0.3 0.3)">
          <a xlink:href="classMR24FDB1_ab090aa5731fa4e348a33588f682f1a16_cgraph_org.svg" target="_base">
           <rect id="button" ry="5" rx="5" y="6" x="6" height="38" width="38"
                fill="#f2f5e9" fill-opacity="0.5" stroke="#606060" stroke-width="1.0"/>
           <path id="arrow"
             d="M 11.500037,31.436501 C 11.940474,20.09759 22.043105,11.32322 32.158766,21.979434 L 37.068811,17.246167 C 37.068811,17.246167 37.088388,32 37.088388,32 L 22.160133,31.978069 C 22.160133,31.978069 26.997745,27.140456 26.997745,27.140456 C 18.528582,18.264221 13.291696,25.230495 11.500037,31.436501 z"
             style="fill:#404040;"/>
          </a>
         </g>
        </svg>
</svg>
