<?xml version="1.0" encoding="UTF-8" standalone="no"?>
<!DOCTYPE svg PUBLIC "-//W3C//DTD SVG 1.1//EN"
 "http://www.w3.org/Graphics/SVG/1.1/DTD/svg11.dtd">
<!-- Generated by graphviz version 2.43.0 (0)
 -->
<!-- Title: MR24FDB1::calculateCrc16 Pages: 1 -->
<!--zoomable 486 -->
<svg id="main" version="1.1" xmlns="http://www.w3.org/2000/svg" xmlns:xlink="http://www.w3.org/1999/xlink" xml:space="preserve" onload="init(evt)">
<style type="text/css"><![CDATA[
.edge:hover path { stroke: red; }
.edge:hover polygon { stroke: red; fill: red; }
]]></style>
<script type="text/javascript"><![CDATA[
var edges = document.getElementsByTagName('g');
if (edges && edges.length) {
  for (var i=0;i<edges.length;i++) {
    if (edges[i].id.substr(0,4)=='edge') {
      edges[i].setAttribute('class','edge');
    }
  }
}
]]></script>
        <defs>
                <circle id="rim" cx="0" cy="0" r="7"/>
                <circle id="rim2" cx="0" cy="0" r="3.5"/>
                <g id="zoomPlus">
                        <use xlink:href="#rim" fill="#404040">
                                <set attributeName="fill" to="#808080" begin="zoomplus.mouseover" end="zoomplus.mouseout"/>
                        </use>
                        <path d="M-4,0h8M0,-4v8" fill="none" stroke="white" stroke-width="1.5" pointer-events="none"/>
                </g>
                <g id="zoomMin">
                        <use xlink:href="#rim" fill="#404040">
                                <set attributeName="fill" to="#808080" begin="zoomminus.mouseover" end="zoomminus.mouseout"/>
                        </use>
                        <path d="M-4,0h8" fill="none" stroke="white" stroke-width="1.5" pointer-events="none"/>
                </g>
                <g id="dirArrow">
                        <path fill="none" stroke="white" stroke-width="1.5" d="M0,-3.0v7 M-2.5,-0.5L0,-3.0L2.5,-0.5"/>
                </g>
               <g id="resetDef">
                       <use xlink:href="#rim2" fill="#404040">
                               <set attributeName="fill" to="#808080" begin="reset.mouseover" end="reset.mouseout"/>
                       </use>
               </g>
        </defs>

<script type="text/javascript">
var viewWidth = 1038;
var viewHeight = 486;
var sectionId = 'dynsection-43';
</script>
<script xlink:href="svgpan.js"/>
<svg id="graph" class="graph">
<g id="viewport">
<title>MR24FDB1::calculateCrc16</title>
<polygon fill="white" stroke="transparent" points="-4,4 -4,-482.31 1034,-482.31 1034,4 -4,4"/>
<!-- Node529 -->
<g id="node1" class="node">
<title>Node529</title>
<g id="a_node1"><a xlink:title="calculate crc16 of current packet ">
<polygon fill="#bfbfbf" stroke="black" points="0,-192.81 0,-211.81 149,-211.81 149,-192.81 0,-192.81"/>
<text text-anchor="middle" x="74.5" y="-199.81" font-family="Helvetica,sans-Serif" font-size="10.00">MR24FDB1::calculateCrc16</text>
</a>
</g>
</g>
<!-- Node530 -->
<g id="node2" class="node">
<title>Node530</title>
<g id="a_node2"><a xlink:href="classMR24FDB1.html#af148f4391ab1003e82d4497d8072aaa0" target="_top" xlink:title="calculate and add crc16 at end of buffer ">
<polygon fill="white" stroke="black" points="189.5,-230.81 189.5,-249.81 311.5,-249.81 311.5,-230.81 189.5,-230.81"/>
<text text-anchor="middle" x="250.5" y="-237.81" font-family="Helvetica,sans-Serif" font-size="10.00">MR24FDB1::addCrc16</text>
</a>
</g>
</g>
<!-- Node529&#45;&gt;Node530 -->
<g id="edge1" class="edge">
<title>Node529&#45;&gt;Node530</title>
<path fill="none" stroke="midnightblue" d="M129.31,-214.06C153.92,-219.43 182.69,-225.72 205.91,-230.79"/>
<polygon fill="midnightblue" stroke="midnightblue" points="129.92,-210.61 119.41,-211.9 128.43,-217.45 129.92,-210.61"/>
</g>
<!-- Node553 -->
<g id="node25" class="node">
<title>Node553</title>
<g id="a_node25"><a xlink:href="classMR24FDB1.html#a5e44c632274bde4a6e22f35d80a782f0" target="_top" xlink:title="get a packet from the chip ">
<polygon fill="white" stroke="black" points="185,-173.81 185,-192.81 316,-192.81 316,-173.81 185,-173.81"/>
<text text-anchor="middle" x="250.5" y="-180.81" font-family="Helvetica,sans-Serif" font-size="10.00">MR24FDB1::readPacket</text>
</a>
</g>
</g>
<!-- Node529&#45;&gt;Node553 -->
<g id="edge25" class="edge">
<title>Node529&#45;&gt;Node553</title>
<path fill="none" stroke="midnightblue" d="M159.12,-193.18C167.74,-192.24 176.4,-191.29 184.77,-190.38"/>
<polygon fill="midnightblue" stroke="midnightblue" points="158.6,-189.71 149.04,-194.28 159.36,-196.67 158.6,-189.71"/>
</g>
<!-- Node531 -->
<g id="node3" class="node">
<title>Node531</title>
<g id="a_node3"><a xlink:href="classMR24FDB1.html#a4a5275f119bcbd82dd5a0d6a1d8defe5" target="_top" xlink:title="send a &quot;GET&quot; packet to the module ">
<polygon fill="white" stroke="black" points="352,-230.81 352,-249.81 469,-249.81 469,-230.81 352,-230.81"/>
<text text-anchor="middle" x="410.5" y="-237.81" font-family="Helvetica,sans-Serif" font-size="10.00">MR24FDB1::sendGet</text>
</a>
</g>
</g>
<!-- Node530&#45;&gt;Node531 -->
<g id="edge2" class="edge">
<title>Node530&#45;&gt;Node531</title>
<path fill="none" stroke="midnightblue" d="M321.99,-240.31C331.97,-240.31 342.13,-240.31 351.83,-240.31"/>
<polygon fill="midnightblue" stroke="midnightblue" points="321.68,-236.81 311.68,-240.31 321.68,-243.81 321.68,-236.81"/>
</g>
<!-- Node545 -->
<g id="node17" class="node">
<title>Node545</title>
<g id="a_node17"><a xlink:href="classMR24FDB1.html#a465db085a7c6388ad7ba874d2adef8a3" target="_top" xlink:title="send a &quot;GET&quot; packet to the module ">
<polygon fill="white" stroke="black" points="352.5,-325.81 352.5,-344.81 468.5,-344.81 468.5,-325.81 352.5,-325.81"/>
<text text-anchor="middle" x="410.5" y="-332.81" font-family="Helvetica,sans-Serif" font-size="10.00">MR24FDB1::sendSet</text>
</a>
</g>
</g>
<!-- Node530&#45;&gt;Node545 -->
<g id="edge17" class="edge">
<title>Node530&#45;&gt;Node545</title>
<path fill="none" stroke="midnightblue" d="M276.48,-255.33C309.26,-275.04 365.85,-309.06 393.44,-325.65"/>
<polygon fill="midnightblue" stroke="midnightblue" points="277.89,-252.09 267.52,-249.94 274.29,-258.09 277.89,-252.09"/>
</g>
<!-- Node532 -->
<g id="node4" class="node">
<title>Node532</title>
<g id="a_node4"><a xlink:href="classMR24FDB1.html#a7dfa1c269d0979718203f9202d4e8578" target="_top" xlink:title="send a &quot;GET&quot; packet to the module and wait for responce ">
<polygon fill="white" stroke="black" points="512.5,-192.81 512.5,-211.81 670.5,-211.81 670.5,-192.81 512.5,-192.81"/>
<text text-anchor="middle" x="591.5" y="-199.81" font-family="Helvetica,sans-Serif" font-size="10.00">MR24FDB1::sendGetAndWait</text>
</a>
</g>
</g>
<!-- Node531&#45;&gt;Node532 -->
<g id="edge3" class="edge">
<title>Node531&#45;&gt;Node532</title>
<path fill="none" stroke="midnightblue" d="M466.52,-228.63C491.91,-223.24 521.66,-216.92 545.66,-211.83"/>
<polygon fill="midnightblue" stroke="midnightblue" points="465.72,-225.22 456.67,-230.72 467.18,-232.07 465.72,-225.22"/>
</g>
<!-- Node533 -->
<g id="node5" class="node">
<title>Node533</title>
<g id="a_node5"><a xlink:href="classMR24FDB1.html#a6a61bdca02e1a9ab2c6ab83c3ee2ff21" target="_top" xlink:title="requests Device Id ">
<polygon fill="white" stroke="black" points="727,-287.81 727,-306.81 862,-306.81 862,-287.81 727,-287.81"/>
<text text-anchor="middle" x="794.5" y="-294.81" font-family="Helvetica,sans-Serif" font-size="10.00">MR24FDB1::getDeviceId</text>
</a>
</g>
</g>
<!-- Node532&#45;&gt;Node533 -->
<g id="edge4" class="edge">
<title>Node532&#45;&gt;Node533</title>
<path fill="none" stroke="midnightblue" d="M669.36,-216.09C672.37,-217.65 675.26,-219.38 678,-221.31 702.51,-238.55 689.63,-260.87 714,-278.31 719.42,-282.19 725.54,-285.29 731.9,-287.75"/>
<polygon fill="midnightblue" stroke="midnightblue" points="670.59,-212.8 660.03,-211.9 667.72,-219.19 670.59,-212.8"/>
</g>
<!-- Node534 -->
<g id="node6" class="node">
<title>Node534</title>
<g id="a_node6"><a xlink:href="classMR24FDB1.html#a10ef6d7b6a0d7819b84361c907604fe0" target="_top" xlink:title="get status of fall enable switch ">
<polygon fill="white" stroke="black" points="723,-249.81 723,-268.81 866,-268.81 866,-249.81 723,-249.81"/>
<text text-anchor="middle" x="794.5" y="-256.81" font-family="Helvetica,sans-Serif" font-size="10.00">MR24FDB1::getFallEnable</text>
</a>
</g>
</g>
<!-- Node532&#45;&gt;Node534 -->
<g id="edge5" class="edge">
<title>Node532&#45;&gt;Node534</title>
<path fill="none" stroke="midnightblue" d="M655.92,-214.4C663.45,-216.42 670.95,-218.72 678,-221.31 694.98,-227.55 697.07,-233.93 714,-240.31 723.83,-244.01 734.62,-247.16 744.99,-249.76"/>
<polygon fill="midnightblue" stroke="midnightblue" points="656.59,-210.96 646.04,-211.9 654.88,-217.75 656.59,-210.96"/>
</g>
<!-- Node535 -->
<g id="node7" class="node">
<title>Node535</title>
<g id="a_node7"><a xlink:href="classMR24FDB1.html#a122352e437a57083aba3823b512e2c31" target="_top" xlink:title="get status of fall sensitivty setting ">
<polygon fill="white" stroke="black" points="714,-211.81 714,-230.81 875,-230.81 875,-211.81 714,-211.81"/>
<text text-anchor="middle" x="794.5" y="-218.81" font-family="Helvetica,sans-Serif" font-size="10.00">MR24FDB1::getFallSensitivity</text>
</a>
</g>
</g>
<!-- Node532&#45;&gt;Node535 -->
<g id="edge6" class="edge">
<title>Node532&#45;&gt;Node535</title>
<path fill="none" stroke="midnightblue" d="M680.79,-210.65C691.77,-211.69 702.94,-212.75 713.77,-213.77"/>
<polygon fill="midnightblue" stroke="midnightblue" points="681.07,-207.16 670.79,-209.71 680.41,-214.13 681.07,-207.16"/>
</g>
<!-- Node536 -->
<g id="node8" class="node">
<title>Node536</title>
<g id="a_node8"><a xlink:href="classMR24FDB1.html#a6e729c642bc4f67e6ce076fb0fa2aa3e" target="_top" xlink:title="get status of fall warning time setting ">
<polygon fill="white" stroke="black" points="715,-173.81 715,-192.81 874,-192.81 874,-173.81 715,-173.81"/>
<text text-anchor="middle" x="794.5" y="-180.81" font-family="Helvetica,sans-Serif" font-size="10.00">MR24FDB1::getFallWarnTime</text>
</a>
</g>
</g>
<!-- Node532&#45;&gt;Node536 -->
<g id="edge7" class="edge">
<title>Node532&#45;&gt;Node536</title>
<path fill="none" stroke="midnightblue" d="M681.03,-193.94C692.26,-192.88 703.7,-191.8 714.76,-190.75"/>
<polygon fill="midnightblue" stroke="midnightblue" points="680.41,-190.48 670.79,-194.91 681.07,-197.45 680.41,-190.48"/>
</g>
<!-- Node537 -->
<g id="node9" class="node">
<title>Node537</title>
<g id="a_node9"><a xlink:href="classMR24FDB1.html#a9c858e6eae2bf95de4340b7bb4fe07e7" target="_top" xlink:title="requests Hardware version ">
<polygon fill="white" stroke="black" points="716.5,-135.81 716.5,-154.81 872.5,-154.81 872.5,-135.81 716.5,-135.81"/>
<text text-anchor="middle" x="794.5" y="-142.81" font-family="Helvetica,sans-Serif" font-size="10.00">MR24FDB1::getHardwareVer</text>
</a>
</g>
</g>
<!-- Node532&#45;&gt;Node537 -->
<g id="edge8" class="edge">
<title>Node532&#45;&gt;Node537</title>
<path fill="none" stroke="midnightblue" d="M631.01,-189.52C654.81,-181.81 686.03,-172.01 714,-164.31 726.04,-160.99 739.2,-157.71 751.28,-154.83"/>
<polygon fill="midnightblue" stroke="midnightblue" points="629.73,-186.26 621.3,-192.69 631.9,-192.91 629.73,-186.26"/>
</g>
<!-- Node538 -->
<g id="node10" class="node">
<title>Node538</title>
<g id="a_node10"><a xlink:href="classMR24FDB1.html#ab090aa5731fa4e348a33588f682f1a16" target="_top" xlink:title="get movement ">
<polygon fill="white" stroke="black" points="722,-97.81 722,-116.81 867,-116.81 867,-97.81 722,-97.81"/>
<text text-anchor="middle" x="794.5" y="-104.81" font-family="Helvetica,sans-Serif" font-size="10.00">MR24FDB1::getMovement</text>
</a>
</g>
</g>
<!-- Node532&#45;&gt;Node538 -->
<g id="edge9" class="edge">
<title>Node532&#45;&gt;Node538</title>
<path fill="none" stroke="midnightblue" d="M612.94,-186.59C636.22,-169.43 675.95,-142.25 714,-126.31 723.03,-122.52 732.97,-119.4 742.67,-116.85"/>
<polygon fill="midnightblue" stroke="midnightblue" points="610.78,-183.84 604.87,-192.64 614.97,-189.45 610.78,-183.84"/>
</g>
<!-- Node540 -->
<g id="node12" class="node">
<title>Node540</title>
<g id="a_node12"><a xlink:href="classMR24FDB1.html#af5bcb06d3788fb4743e2f750a6e4a149" target="_top" xlink:title="get presence from module ">
<polygon fill="white" stroke="black" points="726,-59.81 726,-78.81 863,-78.81 863,-59.81 726,-59.81"/>
<text text-anchor="middle" x="794.5" y="-66.81" font-family="Helvetica,sans-Serif" font-size="10.00">MR24FDB1::getPresence</text>
</a>
</g>
</g>
<!-- Node532&#45;&gt;Node540 -->
<g id="edge11" class="edge">
<title>Node532&#45;&gt;Node540</title>
<path fill="none" stroke="midnightblue" d="M606.22,-184.58C626.81,-159.23 668.21,-112.97 714,-88.31 721.25,-84.4 729.29,-81.3 737.4,-78.82"/>
<polygon fill="midnightblue" stroke="midnightblue" points="603.32,-182.6 599.83,-192.6 608.79,-186.96 603.32,-182.6"/>
</g>
<!-- Node541 -->
<g id="node13" class="node">
<title>Node541</title>
<g id="a_node13"><a xlink:href="classMR24FDB1.html#a206d007330f0b2f9c76b070e215dbb05" target="_top" xlink:title="request Protocol Version ">
<polygon fill="white" stroke="black" points="720,-21.81 720,-40.81 869,-40.81 869,-21.81 720,-21.81"/>
<text text-anchor="middle" x="794.5" y="-28.81" font-family="Helvetica,sans-Serif" font-size="10.00">MR24FDB1::getProtocolVer</text>
</a>
</g>
</g>
<!-- Node532&#45;&gt;Node541 -->
<g id="edge13" class="edge">
<title>Node532&#45;&gt;Node541</title>
<path fill="none" stroke="midnightblue" d="M601.92,-183.76C619.38,-151.35 659.97,-84.6 714,-50.31 720.11,-46.43 726.94,-43.34 733.96,-40.89"/>
<polygon fill="midnightblue" stroke="midnightblue" points="598.81,-182.16 597.25,-192.64 605,-185.42 598.81,-182.16"/>
</g>
<!-- Node542 -->
<g id="node14" class="node">
<title>Node542</title>
<g id="a_node14"><a xlink:href="classMR24FDB1.html#adc620372e2ccd4d3dece13bfe8c8424e" target="_top" xlink:title="get scene parameter ">
<polygon fill="white" stroke="black" points="733.5,-401.81 733.5,-420.81 855.5,-420.81 855.5,-401.81 733.5,-401.81"/>
<text text-anchor="middle" x="794.5" y="-408.81" font-family="Helvetica,sans-Serif" font-size="10.00">MR24FDB1::getScene</text>
</a>
</g>
</g>
<!-- Node532&#45;&gt;Node542 -->
<g id="edge14" class="edge">
<title>Node532&#45;&gt;Node542</title>
<path fill="none" stroke="midnightblue" d="M673.95,-217.64C675.36,-218.79 676.71,-220.01 678,-221.31 732.61,-276.53 659.83,-336.65 714,-392.31 719.44,-397.9 726.22,-401.97 733.5,-404.91"/>
<polygon fill="midnightblue" stroke="midnightblue" points="675.54,-214.5 665.28,-211.88 671.67,-220.33 675.54,-214.5"/>
</g>
<!-- Node543 -->
<g id="node15" class="node">
<title>Node543</title>
<g id="a_node15"><a xlink:href="classMR24FDB1.html#a82a44a7291dd7b96de57a2d2cda10251" target="_top" xlink:title="get sensitivity parameter ">
<polygon fill="white" stroke="black" points="722.5,-363.81 722.5,-382.81 866.5,-382.81 866.5,-363.81 722.5,-363.81"/>
<text text-anchor="middle" x="794.5" y="-370.81" font-family="Helvetica,sans-Serif" font-size="10.00">MR24FDB1::getSensitivity</text>
</a>
</g>
</g>
<!-- Node532&#45;&gt;Node543 -->
<g id="edge15" class="edge">
<title>Node532&#45;&gt;Node543</title>
<path fill="none" stroke="midnightblue" d="M673.32,-217.34C674.95,-218.57 676.52,-219.89 678,-221.31 722.28,-263.61 670.06,-311.65 714,-354.31 717.97,-358.16 722.58,-361.28 727.53,-363.81"/>
<polygon fill="midnightblue" stroke="midnightblue" points="674.97,-214.24 664.63,-211.91 671.26,-220.18 674.97,-214.24"/>
</g>
<!-- Node544 -->
<g id="node16" class="node">
<title>Node544</title>
<g id="a_node16"><a xlink:href="classMR24FDB1.html#af9b355c4127c5b937407b3e3b25217c7" target="_top" xlink:title="requests Software verion ">
<polygon fill="white" stroke="black" points="718.5,-325.81 718.5,-344.81 870.5,-344.81 870.5,-325.81 718.5,-325.81"/>
<text text-anchor="middle" x="794.5" y="-332.81" font-family="Helvetica,sans-Serif" font-size="10.00">MR24FDB1::getSoftwareVer</text>
</a>
</g>
</g>
<!-- Node532&#45;&gt;Node544 -->
<g id="edge16" class="edge">
<title>Node532&#45;&gt;Node544</title>
<path fill="none" stroke="midnightblue" d="M672.4,-217.04C674.35,-218.35 676.23,-219.77 678,-221.31 712.13,-250.86 680.1,-286.48 714,-316.31 718.37,-320.15 723.38,-323.25 728.71,-325.75"/>
<polygon fill="midnightblue" stroke="midnightblue" points="673.83,-213.83 663.4,-211.95 670.39,-219.92 673.83,-213.83"/>
</g>
<!-- Node539 -->
<g id="node11" class="node">
<title>Node539</title>
<g id="a_node11"><a xlink:href="classMR24FDB1.html#a0c0b8071f5d90b32f3c109ff71ff2ec0" target="_top" xlink:title="send test ">
<polygon fill="white" stroke="black" points="911,-59.81 911,-78.81 1030,-78.81 1030,-59.81 911,-59.81"/>
<text text-anchor="middle" x="970.5" y="-66.81" font-family="Helvetica,sans-Serif" font-size="10.00">MR24FDB1::testSend</text>
</a>
</g>
</g>
<!-- Node538&#45;&gt;Node539 -->
<g id="edge10" class="edge">
<title>Node538&#45;&gt;Node539</title>
<path fill="none" stroke="midnightblue" d="M849.31,-95.56C873.92,-90.18 902.69,-83.9 925.91,-78.83"/>
<polygon fill="midnightblue" stroke="midnightblue" points="848.43,-92.17 839.41,-97.72 849.92,-99 848.43,-92.17"/>
</g>
<!-- Node540&#45;&gt;Node539 -->
<g id="edge12" class="edge">
<title>Node540&#45;&gt;Node539</title>
<path fill="none" stroke="midnightblue" d="M873.33,-69.31C885.97,-69.31 898.87,-69.31 910.95,-69.31"/>
<polygon fill="midnightblue" stroke="midnightblue" points="873.27,-65.81 863.27,-69.31 873.27,-72.81 873.27,-65.81"/>
</g>
<!-- Node546 -->
<g id="node18" class="node">
<title>Node546</title>
<g id="a_node18"><a xlink:href="classMR24FDB1.html#a23542b21cc78944a36d941eb4eaaf29d" target="_top" xlink:title="reboot ">
<polygon fill="white" stroke="black" points="537.5,-230.81 537.5,-249.81 645.5,-249.81 645.5,-230.81 537.5,-230.81"/>
<text text-anchor="middle" x="591.5" y="-237.81" font-family="Helvetica,sans-Serif" font-size="10.00">MR24FDB1::reboot</text>
</a>
</g>
</g>
<!-- Node545&#45;&gt;Node546 -->
<g id="edge18" class="edge">
<title>Node545&#45;&gt;Node546</title>
<path fill="none" stroke="midnightblue" d="M427.39,-318.39C444.78,-300.92 474.3,-274.16 505,-259.31 514.99,-254.47 526.24,-250.85 537.21,-248.14"/>
<polygon fill="midnightblue" stroke="midnightblue" points="424.75,-316.09 420.29,-325.7 429.77,-320.96 424.75,-316.09"/>
</g>
<!-- Node547 -->
<g id="node19" class="node">
<title>Node547</title>
<g id="a_node19"><a xlink:href="classMR24FDB1.html#a1546763c4f1cb5ffca8f9bebd1a01edd" target="_top" xlink:title="enable / disable fall detection ">
<polygon fill="white" stroke="black" points="521,-344.81 521,-363.81 662,-363.81 662,-344.81 521,-344.81"/>
<text text-anchor="middle" x="591.5" y="-351.81" font-family="Helvetica,sans-Serif" font-size="10.00">MR24FDB1::setFallDetect</text>
</a>
</g>
</g>
<!-- Node545&#45;&gt;Node547 -->
<g id="edge19" class="edge">
<title>Node545&#45;&gt;Node547</title>
<path fill="none" stroke="midnightblue" d="M478.92,-342.46C492.59,-343.92 507,-345.44 520.75,-346.9"/>
<polygon fill="midnightblue" stroke="midnightblue" points="478.94,-338.95 468.63,-341.37 478.2,-345.91 478.94,-338.95"/>
</g>
<!-- Node548 -->
<g id="node20" class="node">
<title>Node548</title>
<g id="a_node20"><a xlink:href="classMR24FDB1.html#a58a9040e025d0546198d2255fe06ac95" target="_top" xlink:title="set fall detection sensitivity ">
<polygon fill="white" stroke="black" points="511,-306.81 511,-325.81 672,-325.81 672,-306.81 511,-306.81"/>
<text text-anchor="middle" x="591.5" y="-313.81" font-family="Helvetica,sans-Serif" font-size="10.00">MR24FDB1::setFallSensitivity</text>
</a>
</g>
</g>
<!-- Node545&#45;&gt;Node548 -->
<g id="edge20" class="edge">
<title>Node545&#45;&gt;Node548</title>
<path fill="none" stroke="midnightblue" d="M478.87,-328.16C489.27,-327.05 500.1,-325.9 510.75,-324.77"/>
<polygon fill="midnightblue" stroke="midnightblue" points="478.2,-324.71 468.63,-329.24 478.94,-331.67 478.2,-324.71"/>
</g>
<!-- Node549 -->
<g id="node21" class="node">
<title>Node549</title>
<g id="a_node21"><a xlink:href="classMR24FDB1.html#a4b764eab220a44327e80f7a5a8dd93ed" target="_top" xlink:title="set fall warn time parameter ">
<polygon fill="white" stroke="black" points="512.5,-268.81 512.5,-287.81 670.5,-287.81 670.5,-268.81 512.5,-268.81"/>
<text text-anchor="middle" x="591.5" y="-275.81" font-family="Helvetica,sans-Serif" font-size="10.00">MR24FDB1::setFallWarnTime</text>
</a>
</g>
</g>
<!-- Node545&#45;&gt;Node549 -->
<g id="edge21" class="edge">
<title>Node545&#45;&gt;Node549</title>
<path fill="none" stroke="midnightblue" d="M441.73,-321.52C459.81,-313.65 483.41,-304.04 505,-297.31 516.47,-293.73 529,-290.55 540.85,-287.87"/>
<polygon fill="midnightblue" stroke="midnightblue" points="440.03,-318.44 432.3,-325.68 442.86,-324.84 440.03,-318.44"/>
</g>
<!-- Node550 -->
<g id="node22" class="node">
<title>Node550</title>
<g id="a_node22"><a xlink:href="classMR24FDB1.html#a00c0a4485d6cc500242439acd036db97" target="_top" xlink:title="set scene ">
<polygon fill="white" stroke="black" points="531,-458.81 531,-477.81 652,-477.81 652,-458.81 531,-458.81"/>
<text text-anchor="middle" x="591.5" y="-465.81" font-family="Helvetica,sans-Serif" font-size="10.00">MR24FDB1::setScene</text>
</a>
</g>
</g>
<!-- Node545&#45;&gt;Node550 -->
<g id="edge22" class="edge">
<title>Node545&#45;&gt;Node550</title>
<path fill="none" stroke="midnightblue" d="M421.38,-353.86C436.07,-379.53 466.14,-425.41 505,-449.31 512.77,-454.09 521.6,-457.67 530.56,-460.35"/>
<polygon fill="midnightblue" stroke="midnightblue" points="424.44,-352.15 416.52,-345.1 418.31,-355.54 424.44,-352.15"/>
</g>
<!-- Node551 -->
<g id="node23" class="node">
<title>Node551</title>
<g id="a_node23"><a xlink:href="classMR24FDB1.html#aebffae5417dedbcc48b35e34b2d2ab13" target="_top" xlink:title="set sensitivity ">
<polygon fill="white" stroke="black" points="520,-420.81 520,-439.81 663,-439.81 663,-420.81 520,-420.81"/>
<text text-anchor="middle" x="591.5" y="-427.81" font-family="Helvetica,sans-Serif" font-size="10.00">MR24FDB1::setSensitivity</text>
</a>
</g>
</g>
<!-- Node545&#45;&gt;Node551 -->
<g id="edge23" class="edge">
<title>Node545&#45;&gt;Node551</title>
<path fill="none" stroke="midnightblue" d="M427.39,-352.22C444.78,-369.7 474.3,-396.46 505,-411.31 512.94,-415.15 521.67,-418.22 530.43,-420.68"/>
<polygon fill="midnightblue" stroke="midnightblue" points="429.77,-349.65 420.29,-344.92 424.75,-354.53 429.77,-349.65"/>
</g>
<!-- Node552 -->
<g id="node24" class="node">
<title>Node552</title>
<g id="a_node24"><a xlink:href="classMR24FDB1.html#a2c1248a5844a078916d833e9a868fb75" target="_top" xlink:title="set unoccupied timeut ">
<polygon fill="white" stroke="black" points="505,-382.81 505,-401.81 678,-401.81 678,-382.81 505,-382.81"/>
<text text-anchor="middle" x="591.5" y="-389.81" font-family="Helvetica,sans-Serif" font-size="10.00">MR24FDB1::setUnoccupiedTime</text>
</a>
</g>
</g>
<!-- Node545&#45;&gt;Node552 -->
<g id="edge24" class="edge">
<title>Node545&#45;&gt;Node552</title>
<path fill="none" stroke="midnightblue" d="M441.73,-349.1C459.81,-356.97 483.41,-366.57 505,-373.31 516.47,-376.88 529,-380.06 540.85,-382.75"/>
<polygon fill="midnightblue" stroke="midnightblue" points="442.86,-345.77 432.3,-344.94 440.03,-352.18 442.86,-345.77"/>
</g>
<!-- Node553&#45;&gt;Node539 -->
<g id="edge27" class="edge">
<title>Node553&#45;&gt;Node539</title>
<path fill="none" stroke="midnightblue" d="M279.31,-169C349.73,-133.66 541.73,-42.95 714,-12.31 784.45,0.22 806.06,6.87 875,-12.31 908.23,-21.55 941.45,-45.98 958.24,-59.66"/>
<polygon fill="midnightblue" stroke="midnightblue" points="277.54,-165.97 270.2,-173.6 280.7,-172.21 277.54,-165.97"/>
</g>
<!-- Node554 -->
<g id="node26" class="node">
<title>Node554</title>
<g id="a_node26"><a xlink:href="classMR24FDB1.html#a667ee611da9f14e82c86cfd7b1d159b9" target="_top" xlink:title="initalize radar ">
<polygon fill="white" stroke="black" points="364.5,-154.81 364.5,-173.81 456.5,-173.81 456.5,-154.81 364.5,-154.81"/>
<text text-anchor="middle" x="410.5" y="-161.81" font-family="Helvetica,sans-Serif" font-size="10.00">MR24FDB1::init</text>
</a>
</g>
</g>
<!-- Node553&#45;&gt;Node554 -->
<g id="edge26" class="edge">
<title>Node553&#45;&gt;Node554</title>
<path fill="none" stroke="midnightblue" d="M326.17,-174.33C339.24,-172.76 352.48,-171.16 364.44,-169.73"/>
<polygon fill="midnightblue" stroke="midnightblue" points="325.73,-170.86 316.22,-175.53 326.57,-177.81 325.73,-170.86"/>
</g>
<!-- Node555 -->
<g id="node27" class="node">
<title>Node555</title>
<g id="a_node27"><a xlink:href="classMR24FDB1.html#a944e9bede6552294ea9940ae6fda3b96" target="_top" xlink:title="wait until packet of the specified type is recieved ">
<polygon fill="white" stroke="black" points="354,-192.81 354,-211.81 467,-211.81 467,-192.81 354,-192.81"/>
<text text-anchor="middle" x="410.5" y="-199.81" font-family="Helvetica,sans-Serif" font-size="10.00">MR24FDB1::waitFor</text>
</a>
</g>
</g>
<!-- Node553&#45;&gt;Node555 -->
<g id="edge28" class="edge">
<title>Node553&#45;&gt;Node555</title>
<path fill="none" stroke="midnightblue" d="M326.21,-192.29C335.48,-193.41 344.82,-194.53 353.72,-195.6"/>
<polygon fill="midnightblue" stroke="midnightblue" points="326.57,-188.81 316.22,-191.09 325.73,-195.76 326.57,-188.81"/>
</g>
<!-- Node555&#45;&gt;Node532 -->
<g id="edge30" class="edge">
<title>Node555&#45;&gt;Node532</title>
<path fill="none" stroke="midnightblue" d="M477.38,-202.31C488.71,-202.31 500.59,-202.31 512.21,-202.31"/>
<polygon fill="midnightblue" stroke="midnightblue" points="477.16,-198.81 467.16,-202.31 477.16,-205.81 477.16,-198.81"/>
</g>
<!-- Node555&#45;&gt;Node546 -->
<g id="edge29" class="edge">
<title>Node555&#45;&gt;Node546</title>
<path fill="none" stroke="midnightblue" d="M466.52,-213.99C491.91,-219.38 521.66,-225.69 545.66,-230.79"/>
<polygon fill="midnightblue" stroke="midnightblue" points="467.18,-210.55 456.67,-211.9 465.72,-217.4 467.18,-210.55"/>
</g>
</g>
</svg>
        <g id="navigator" transform="translate(0 0)" fill="#404254">
                <rect fill="#f2f5e9" fill-opacity="0.5" stroke="#606060" stroke-width=".5" x="0" y="0" width="60" height="60"/>
                <use id="zoomplus" xlink:href="#zoomPlus" x="17" y="9" onmousedown="handleZoom(evt,'in')"/>
                <use id="zoomminus" xlink:href="#zoomMin" x="42" y="9" onmousedown="handleZoom(evt,'out')"/>
                <use id="reset" xlink:href="#resetDef" x="30" y="36" onmousedown="handleReset()"/>
                <g id="arrowUp" xlink:href="#dirArrow" transform="translate(30 24)" onmousedown="handlePan(0,-1)">
                  <use xlink:href="#rim" fill="#404040">
                        <set attributeName="fill" to="#808080" begin="arrowUp.mouseover" end="arrowUp.mouseout"/>
                  </use>
                  <path fill="none" stroke="white" stroke-width="1.5" d="M0,-3.0v7 M-2.5,-0.5L0,-3.0L2.5,-0.5"/>
                </g>
                <g id="arrowRight" xlink:href="#dirArrow" transform="rotate(90) translate(36 -43)" onmousedown="handlePan(1,0)">
                  <use xlink:href="#rim" fill="#404040">
                        <set attributeName="fill" to="#808080" begin="arrowRight.mouseover" end="arrowRight.mouseout"/>
                  </use>
                  <path fill="none" stroke="white" stroke-width="1.5" d="M0,-3.0v7 M-2.5,-0.5L0,-3.0L2.5,-0.5"/>
                </g>
                <g id="arrowDown" xlink:href="#dirArrow" transform="rotate(180) translate(-30 -48)" onmousedown="handlePan(0,1)">
                  <use xlink:href="#rim" fill="#404040">
                        <set attributeName="fill" to="#808080" begin="arrowDown.mouseover" end="arrowDown.mouseout"/>
                  </use>
                  <path fill="none" stroke="white" stroke-width="1.5" d="M0,-3.0v7 M-2.5,-0.5L0,-3.0L2.5,-0.5"/>
                </g>
                <g id="arrowLeft" xlink:href="#dirArrow" transform="rotate(270) translate(-36 17)" onmousedown="handlePan(-1,0)">
                  <use xlink:href="#rim" fill="#404040">
                        <set attributeName="fill" to="#808080" begin="arrowLeft.mouseover" end="arrowLeft.mouseout"/>
                  </use>
                  <path fill="none" stroke="white" stroke-width="1.5" d="M0,-3.0v7 M-2.5,-0.5L0,-3.0L2.5,-0.5"/>
                </g>
        </g>
        <svg viewBox="0 0 15 15" width="100%" height="30px" preserveAspectRatio="xMaxYMin meet">
         <g id="arrow_out" transform="scale(0.3 0.3)">
          <a xlink:href="classMR24FDB1_af7b82f23ec8f67c955ae413f4a078af0_icgraph_org.svg" target="_base">
           <rect id="button" ry="5" rx="5" y="6" x="6" height="38" width="38"
                fill="#f2f5e9" fill-opacity="0.5" stroke="#606060" stroke-width="1.0"/>
           <path id="arrow"
             d="M 11.500037,31.436501 C 11.940474,20.09759 22.043105,11.32322 32.158766,21.979434 L 37.068811,17.246167 C 37.068811,17.246167 37.088388,32 37.088388,32 L 22.160133,31.978069 C 22.160133,31.978069 26.997745,27.140456 26.997745,27.140456 C 18.528582,18.264221 13.291696,25.230495 11.500037,31.436501 z"
             style="fill:#404040;"/>
          </a>
         </g>
        </svg>
</svg>
