<?xml version="1.0" encoding="UTF-8" standalone="no"?>
<!DOCTYPE svg PUBLIC "-//W3C//DTD SVG 1.1//EN"
 "http://www.w3.org/Graphics/SVG/1.1/DTD/svg11.dtd">
<!-- Generated by graphviz version 2.43.0 (0)
 -->
<!-- Title: MR24FDB1::addCrc16 Pages: 1 -->
<svg width="844pt" height="484pt"
 viewBox="0.00 0.00 844.00 484.00" xmlns="http://www.w3.org/2000/svg" xmlns:xlink="http://www.w3.org/1999/xlink">
<g id="graph0" class="graph" transform="scale(1 1) rotate(0) translate(4 480)">
<title>MR24FDB1::addCrc16</title>
<polygon fill="white" stroke="transparent" points="-4,4 -4,-480 840,-480 840,4 -4,4"/>
<!-- Node558 -->
<g id="node1" class="node">
<title>Node558</title>
<g id="a_node1"><a xlink:title="calculate and add crc16 at end of buffer ">
<polygon fill="#bfbfbf" stroke="black" points="0,-152.5 0,-171.5 122,-171.5 122,-152.5 0,-152.5"/>
<text text-anchor="middle" x="61" y="-159.5" font-family="Helvetica,sans-Serif" font-size="10.00">MR24FDB1::addCrc16</text>
</a>
</g>
</g>
<!-- Node559 -->
<g id="node2" class="node">
<title>Node559</title>
<g id="a_node2"><a xlink:href="classMR24FDB1.html#a4a5275f119bcbd82dd5a0d6a1d8defe5" target="_top" xlink:title="send a &quot;GET&quot; packet to the module ">
<polygon fill="white" stroke="black" points="158,-218.5 158,-237.5 275,-237.5 275,-218.5 158,-218.5"/>
<text text-anchor="middle" x="216.5" y="-225.5" font-family="Helvetica,sans-Serif" font-size="10.00">MR24FDB1::sendGet</text>
</a>
</g>
</g>
<!-- Node558&#45;&gt;Node559 -->
<g id="edge1" class="edge">
<title>Node558&#45;&gt;Node559</title>
<path fill="none" stroke="midnightblue" d="M93.84,-175.69C123.6,-188.49 167.28,-207.27 193.4,-218.5"/>
<polygon fill="midnightblue" stroke="midnightblue" points="94.89,-172.33 84.32,-171.6 92.12,-178.76 94.89,-172.33"/>
</g>
<!-- Node573 -->
<g id="node16" class="node">
<title>Node573</title>
<g id="a_node16"><a xlink:href="classMR24FDB1.html#a465db085a7c6388ad7ba874d2adef8a3" target="_top" xlink:title="send a &quot;GET&quot; packet to the module ">
<polygon fill="white" stroke="black" points="158.5,-133.5 158.5,-152.5 274.5,-152.5 274.5,-133.5 158.5,-133.5"/>
<text text-anchor="middle" x="216.5" y="-140.5" font-family="Helvetica,sans-Serif" font-size="10.00">MR24FDB1::sendSet</text>
</a>
</g>
</g>
<!-- Node558&#45;&gt;Node573 -->
<g id="edge16" class="edge">
<title>Node558&#45;&gt;Node573</title>
<path fill="none" stroke="midnightblue" d="M132.4,-153.29C141.12,-152.21 149.96,-151.11 158.46,-150.06"/>
<polygon fill="midnightblue" stroke="midnightblue" points="131.72,-149.84 122.23,-154.55 132.58,-156.79 131.72,-149.84"/>
</g>
<!-- Node560 -->
<g id="node3" class="node">
<title>Node560</title>
<g id="a_node3"><a xlink:href="classMR24FDB1.html#a7dfa1c269d0979718203f9202d4e8578" target="_top" xlink:title="send a &quot;GET&quot; packet to the module and wait for responce ">
<polygon fill="white" stroke="black" points="318.5,-266.5 318.5,-285.5 476.5,-285.5 476.5,-266.5 318.5,-266.5"/>
<text text-anchor="middle" x="397.5" y="-273.5" font-family="Helvetica,sans-Serif" font-size="10.00">MR24FDB1::sendGetAndWait</text>
</a>
</g>
</g>
<!-- Node559&#45;&gt;Node560 -->
<g id="edge2" class="edge">
<title>Node559&#45;&gt;Node560</title>
<path fill="none" stroke="midnightblue" d="M256.35,-240.83C273.08,-246.15 292.91,-252.19 311,-257 323.64,-260.36 337.43,-263.6 350.18,-266.43"/>
<polygon fill="midnightblue" stroke="midnightblue" points="256.97,-237.36 246.38,-237.63 254.83,-244.02 256.97,-237.36"/>
</g>
<!-- Node561 -->
<g id="node4" class="node">
<title>Node561</title>
<g id="a_node4"><a xlink:href="classMR24FDB1.html#a6a61bdca02e1a9ab2c6ab83c3ee2ff21" target="_top" xlink:title="requests Device Id ">
<polygon fill="white" stroke="black" points="533,-456.5 533,-475.5 668,-475.5 668,-456.5 533,-456.5"/>
<text text-anchor="middle" x="600.5" y="-463.5" font-family="Helvetica,sans-Serif" font-size="10.00">MR24FDB1::getDeviceId</text>
</a>
</g>
</g>
<!-- Node560&#45;&gt;Node561 -->
<g id="edge3" class="edge">
<title>Node560&#45;&gt;Node561</title>
<path fill="none" stroke="midnightblue" d="M406.38,-294.85C422.29,-330.49 461.76,-407.68 520,-447 525.76,-450.89 532.23,-453.99 538.93,-456.45"/>
<polygon fill="midnightblue" stroke="midnightblue" points="409.55,-293.37 402.36,-285.59 403.13,-296.16 409.55,-293.37"/>
</g>
<!-- Node562 -->
<g id="node5" class="node">
<title>Node562</title>
<g id="a_node5"><a xlink:href="classMR24FDB1.html#a10ef6d7b6a0d7819b84361c907604fe0" target="_top" xlink:title="get status of fall enable switch ">
<polygon fill="white" stroke="black" points="529,-418.5 529,-437.5 672,-437.5 672,-418.5 529,-418.5"/>
<text text-anchor="middle" x="600.5" y="-425.5" font-family="Helvetica,sans-Serif" font-size="10.00">MR24FDB1::getFallEnable</text>
</a>
</g>
</g>
<!-- Node560&#45;&gt;Node562 -->
<g id="edge4" class="edge">
<title>Node560&#45;&gt;Node562</title>
<path fill="none" stroke="midnightblue" d="M410.11,-294.62C429.27,-323.75 470.38,-379.75 520,-409 526.6,-412.89 533.96,-415.99 541.45,-418.45"/>
<polygon fill="midnightblue" stroke="midnightblue" points="412.82,-292.38 404.47,-285.86 406.93,-296.16 412.82,-292.38"/>
</g>
<!-- Node563 -->
<g id="node6" class="node">
<title>Node563</title>
<g id="a_node6"><a xlink:href="classMR24FDB1.html#a122352e437a57083aba3823b512e2c31" target="_top" xlink:title="get status of fall sensitivty setting ">
<polygon fill="white" stroke="black" points="520,-380.5 520,-399.5 681,-399.5 681,-380.5 520,-380.5"/>
<text text-anchor="middle" x="600.5" y="-387.5" font-family="Helvetica,sans-Serif" font-size="10.00">MR24FDB1::getFallSensitivity</text>
</a>
</g>
</g>
<!-- Node560&#45;&gt;Node563 -->
<g id="edge5" class="edge">
<title>Node560&#45;&gt;Node563</title>
<path fill="none" stroke="midnightblue" d="M415.12,-292.89C437.14,-314.29 478.11,-350.81 520,-371 527.93,-374.82 536.68,-377.9 545.39,-380.38"/>
<polygon fill="midnightblue" stroke="midnightblue" points="417.47,-290.29 407.9,-285.75 412.55,-295.27 417.47,-290.29"/>
</g>
<!-- Node564 -->
<g id="node7" class="node">
<title>Node564</title>
<g id="a_node7"><a xlink:href="classMR24FDB1.html#a6e729c642bc4f67e6ce076fb0fa2aa3e" target="_top" xlink:title="get status of fall warning time setting ">
<polygon fill="white" stroke="black" points="521,-342.5 521,-361.5 680,-361.5 680,-342.5 521,-342.5"/>
<text text-anchor="middle" x="600.5" y="-349.5" font-family="Helvetica,sans-Serif" font-size="10.00">MR24FDB1::getFallWarnTime</text>
</a>
</g>
</g>
<!-- Node560&#45;&gt;Node564 -->
<g id="edge6" class="edge">
<title>Node560&#45;&gt;Node564</title>
<path fill="none" stroke="midnightblue" d="M425.05,-290.39C449.23,-303.02 486.22,-321.18 520,-333 530.31,-336.61 541.62,-339.77 552.38,-342.42"/>
<polygon fill="midnightblue" stroke="midnightblue" points="426.61,-287.25 416.13,-285.68 423.34,-293.44 426.61,-287.25"/>
</g>
<!-- Node565 -->
<g id="node8" class="node">
<title>Node565</title>
<g id="a_node8"><a xlink:href="classMR24FDB1.html#a9c858e6eae2bf95de4340b7bb4fe07e7" target="_top" xlink:title="requests Hardware version ">
<polygon fill="white" stroke="black" points="522.5,-304.5 522.5,-323.5 678.5,-323.5 678.5,-304.5 522.5,-304.5"/>
<text text-anchor="middle" x="600.5" y="-311.5" font-family="Helvetica,sans-Serif" font-size="10.00">MR24FDB1::getHardwareVer</text>
</a>
</g>
</g>
<!-- Node560&#45;&gt;Node565 -->
<g id="edge7" class="edge">
<title>Node560&#45;&gt;Node565</title>
<path fill="none" stroke="midnightblue" d="M458.9,-287.42C487.66,-292.86 521.66,-299.28 549.02,-304.46"/>
<polygon fill="midnightblue" stroke="midnightblue" points="459.44,-283.96 448.96,-285.54 458.14,-290.84 459.44,-283.96"/>
</g>
<!-- Node566 -->
<g id="node9" class="node">
<title>Node566</title>
<g id="a_node9"><a xlink:href="classMR24FDB1.html#ab090aa5731fa4e348a33588f682f1a16" target="_top" xlink:title="get movement ">
<polygon fill="white" stroke="black" points="528,-266.5 528,-285.5 673,-285.5 673,-266.5 528,-266.5"/>
<text text-anchor="middle" x="600.5" y="-273.5" font-family="Helvetica,sans-Serif" font-size="10.00">MR24FDB1::getMovement</text>
</a>
</g>
</g>
<!-- Node560&#45;&gt;Node566 -->
<g id="edge8" class="edge">
<title>Node560&#45;&gt;Node566</title>
<path fill="none" stroke="midnightblue" d="M487.16,-276C500.81,-276 514.77,-276 527.99,-276"/>
<polygon fill="midnightblue" stroke="midnightblue" points="486.79,-272.5 476.79,-276 486.79,-279.5 486.79,-272.5"/>
</g>
<!-- Node568 -->
<g id="node11" class="node">
<title>Node568</title>
<g id="a_node11"><a xlink:href="classMR24FDB1.html#af5bcb06d3788fb4743e2f750a6e4a149" target="_top" xlink:title="get presence from module ">
<polygon fill="white" stroke="black" points="532,-228.5 532,-247.5 669,-247.5 669,-228.5 532,-228.5"/>
<text text-anchor="middle" x="600.5" y="-235.5" font-family="Helvetica,sans-Serif" font-size="10.00">MR24FDB1::getPresence</text>
</a>
</g>
</g>
<!-- Node560&#45;&gt;Node568 -->
<g id="edge10" class="edge">
<title>Node560&#45;&gt;Node568</title>
<path fill="none" stroke="midnightblue" d="M458.9,-264.58C487.66,-259.14 521.66,-252.72 549.02,-247.54"/>
<polygon fill="midnightblue" stroke="midnightblue" points="458.14,-261.16 448.96,-266.46 459.44,-268.04 458.14,-261.16"/>
</g>
<!-- Node569 -->
<g id="node12" class="node">
<title>Node569</title>
<g id="a_node12"><a xlink:href="classMR24FDB1.html#a206d007330f0b2f9c76b070e215dbb05" target="_top" xlink:title="request Protocol Version ">
<polygon fill="white" stroke="black" points="526,-190.5 526,-209.5 675,-209.5 675,-190.5 526,-190.5"/>
<text text-anchor="middle" x="600.5" y="-197.5" font-family="Helvetica,sans-Serif" font-size="10.00">MR24FDB1::getProtocolVer</text>
</a>
</g>
</g>
<!-- Node560&#45;&gt;Node569 -->
<g id="edge12" class="edge">
<title>Node560&#45;&gt;Node569</title>
<path fill="none" stroke="midnightblue" d="M471.45,-262.99C475.8,-261.24 480.02,-259.25 484,-257 504.24,-245.53 499.85,-230.63 520,-219 526.76,-215.1 534.28,-212 541.93,-209.53"/>
<polygon fill="midnightblue" stroke="midnightblue" points="469.98,-259.8 461.74,-266.46 472.34,-266.39 469.98,-259.8"/>
</g>
<!-- Node570 -->
<g id="node13" class="node">
<title>Node570</title>
<g id="a_node13"><a xlink:href="classMR24FDB1.html#adc620372e2ccd4d3dece13bfe8c8424e" target="_top" xlink:title="get scene parameter ">
<polygon fill="white" stroke="black" points="539.5,-152.5 539.5,-171.5 661.5,-171.5 661.5,-152.5 539.5,-152.5"/>
<text text-anchor="middle" x="600.5" y="-159.5" font-family="Helvetica,sans-Serif" font-size="10.00">MR24FDB1::getScene</text>
</a>
</g>
</g>
<!-- Node560&#45;&gt;Node570 -->
<g id="edge13" class="edge">
<title>Node560&#45;&gt;Node570</title>
<path fill="none" stroke="midnightblue" d="M477.44,-261.58C479.73,-260.18 481.92,-258.66 484,-257 513.21,-233.69 490.97,-204.55 520,-181 525.73,-176.35 532.41,-172.81 539.43,-170.11"/>
<polygon fill="midnightblue" stroke="midnightblue" points="475.5,-258.64 468.24,-266.35 478.73,-264.85 475.5,-258.64"/>
</g>
<!-- Node571 -->
<g id="node14" class="node">
<title>Node571</title>
<g id="a_node14"><a xlink:href="classMR24FDB1.html#a82a44a7291dd7b96de57a2d2cda10251" target="_top" xlink:title="get sensitivity parameter ">
<polygon fill="white" stroke="black" points="528.5,-114.5 528.5,-133.5 672.5,-133.5 672.5,-114.5 528.5,-114.5"/>
<text text-anchor="middle" x="600.5" y="-121.5" font-family="Helvetica,sans-Serif" font-size="10.00">MR24FDB1::getSensitivity</text>
</a>
</g>
</g>
<!-- Node560&#45;&gt;Node571 -->
<g id="edge14" class="edge">
<title>Node560&#45;&gt;Node571</title>
<path fill="none" stroke="midnightblue" d="M478.67,-261.29C480.53,-259.97 482.31,-258.54 484,-257 523.17,-221.1 481.11,-179.21 520,-143 524.05,-139.23 528.71,-136.17 533.7,-133.68"/>
<polygon fill="midnightblue" stroke="midnightblue" points="476.86,-258.3 470.05,-266.42 480.44,-264.32 476.86,-258.3"/>
</g>
<!-- Node572 -->
<g id="node15" class="node">
<title>Node572</title>
<g id="a_node15"><a xlink:href="classMR24FDB1.html#af9b355c4127c5b937407b3e3b25217c7" target="_top" xlink:title="requests Software verion ">
<polygon fill="white" stroke="black" points="524.5,-76.5 524.5,-95.5 676.5,-95.5 676.5,-76.5 524.5,-76.5"/>
<text text-anchor="middle" x="600.5" y="-83.5" font-family="Helvetica,sans-Serif" font-size="10.00">MR24FDB1::getSoftwareVer</text>
</a>
</g>
</g>
<!-- Node560&#45;&gt;Node572 -->
<g id="edge15" class="edge">
<title>Node560&#45;&gt;Node572</title>
<path fill="none" stroke="midnightblue" d="M479.9,-260.62C481.33,-259.49 482.7,-258.28 484,-257 533.43,-208.25 470.96,-154.14 520,-105 523.81,-101.18 528.24,-98.08 533.02,-95.56"/>
<polygon fill="midnightblue" stroke="midnightblue" points="477.63,-257.93 471.17,-266.32 481.46,-263.79 477.63,-257.93"/>
</g>
<!-- Node567 -->
<g id="node10" class="node">
<title>Node567</title>
<g id="a_node10"><a xlink:href="classMR24FDB1.html#a0c0b8071f5d90b32f3c109ff71ff2ec0" target="_top" xlink:title="send test ">
<polygon fill="white" stroke="black" points="717,-247.5 717,-266.5 836,-266.5 836,-247.5 717,-247.5"/>
<text text-anchor="middle" x="776.5" y="-254.5" font-family="Helvetica,sans-Serif" font-size="10.00">MR24FDB1::testSend</text>
</a>
</g>
</g>
<!-- Node566&#45;&gt;Node567 -->
<g id="edge9" class="edge">
<title>Node566&#45;&gt;Node567</title>
<path fill="none" stroke="midnightblue" d="M683.04,-267.1C694.49,-265.85 706.07,-264.58 716.98,-263.39"/>
<polygon fill="midnightblue" stroke="midnightblue" points="682.59,-263.62 673.03,-268.19 683.35,-270.58 682.59,-263.62"/>
</g>
<!-- Node568&#45;&gt;Node567 -->
<g id="edge11" class="edge">
<title>Node568&#45;&gt;Node567</title>
<path fill="none" stroke="midnightblue" d="M679.33,-246.5C691.97,-247.88 704.87,-249.29 716.95,-250.61"/>
<polygon fill="midnightblue" stroke="midnightblue" points="679.59,-243.01 669.27,-245.4 678.83,-249.97 679.59,-243.01"/>
</g>
<!-- Node574 -->
<g id="node17" class="node">
<title>Node574</title>
<g id="a_node17"><a xlink:href="classMR24FDB1.html#a23542b21cc78944a36d941eb4eaaf29d" target="_top" xlink:title="reboot ">
<polygon fill="white" stroke="black" points="343.5,-228.5 343.5,-247.5 451.5,-247.5 451.5,-228.5 343.5,-228.5"/>
<text text-anchor="middle" x="397.5" y="-235.5" font-family="Helvetica,sans-Serif" font-size="10.00">MR24FDB1::reboot</text>
</a>
</g>
</g>
<!-- Node573&#45;&gt;Node574 -->
<g id="edge17" class="edge">
<title>Node573&#45;&gt;Node574</title>
<path fill="none" stroke="midnightblue" d="M233.39,-159.91C250.78,-177.39 280.3,-204.15 311,-219 320.99,-223.83 332.24,-227.46 343.21,-230.16"/>
<polygon fill="midnightblue" stroke="midnightblue" points="235.77,-157.34 226.29,-152.61 230.75,-162.22 235.77,-157.34"/>
</g>
<!-- Node575 -->
<g id="node18" class="node">
<title>Node575</title>
<g id="a_node18"><a xlink:href="classMR24FDB1.html#a1546763c4f1cb5ffca8f9bebd1a01edd" target="_top" xlink:title="enable / disable fall detection ">
<polygon fill="white" stroke="black" points="327,-190.5 327,-209.5 468,-209.5 468,-190.5 327,-190.5"/>
<text text-anchor="middle" x="397.5" y="-197.5" font-family="Helvetica,sans-Serif" font-size="10.00">MR24FDB1::setFallDetect</text>
</a>
</g>
</g>
<!-- Node573&#45;&gt;Node575 -->
<g id="edge18" class="edge">
<title>Node573&#45;&gt;Node575</title>
<path fill="none" stroke="midnightblue" d="M247.73,-156.79C265.81,-164.66 289.41,-174.26 311,-181 322.47,-184.58 335,-187.76 346.85,-190.44"/>
<polygon fill="midnightblue" stroke="midnightblue" points="248.86,-153.46 238.3,-152.63 246.03,-159.87 248.86,-153.46"/>
</g>
<!-- Node576 -->
<g id="node19" class="node">
<title>Node576</title>
<g id="a_node19"><a xlink:href="classMR24FDB1.html#a58a9040e025d0546198d2255fe06ac95" target="_top" xlink:title="set fall detection sensitivity ">
<polygon fill="white" stroke="black" points="317,-152.5 317,-171.5 478,-171.5 478,-152.5 317,-152.5"/>
<text text-anchor="middle" x="397.5" y="-159.5" font-family="Helvetica,sans-Serif" font-size="10.00">MR24FDB1::setFallSensitivity</text>
</a>
</g>
</g>
<!-- Node573&#45;&gt;Node576 -->
<g id="edge19" class="edge">
<title>Node573&#45;&gt;Node576</title>
<path fill="none" stroke="midnightblue" d="M284.87,-150.15C295.27,-151.26 306.1,-152.4 316.75,-153.53"/>
<polygon fill="midnightblue" stroke="midnightblue" points="284.94,-146.64 274.63,-149.06 284.2,-153.6 284.94,-146.64"/>
</g>
<!-- Node577 -->
<g id="node20" class="node">
<title>Node577</title>
<g id="a_node20"><a xlink:href="classMR24FDB1.html#a4b764eab220a44327e80f7a5a8dd93ed" target="_top" xlink:title="set fall warn time parameter ">
<polygon fill="white" stroke="black" points="318.5,-114.5 318.5,-133.5 476.5,-133.5 476.5,-114.5 318.5,-114.5"/>
<text text-anchor="middle" x="397.5" y="-121.5" font-family="Helvetica,sans-Serif" font-size="10.00">MR24FDB1::setFallWarnTime</text>
</a>
</g>
</g>
<!-- Node573&#45;&gt;Node577 -->
<g id="edge20" class="edge">
<title>Node573&#45;&gt;Node577</title>
<path fill="none" stroke="midnightblue" d="M284.59,-135.88C295.61,-134.71 307.11,-133.49 318.37,-132.29"/>
<polygon fill="midnightblue" stroke="midnightblue" points="284.2,-132.4 274.63,-136.94 284.94,-139.36 284.2,-132.4"/>
</g>
<!-- Node578 -->
<g id="node21" class="node">
<title>Node578</title>
<g id="a_node21"><a xlink:href="classMR24FDB1.html#a00c0a4485d6cc500242439acd036db97" target="_top" xlink:title="set scene ">
<polygon fill="white" stroke="black" points="337,-76.5 337,-95.5 458,-95.5 458,-76.5 337,-76.5"/>
<text text-anchor="middle" x="397.5" y="-83.5" font-family="Helvetica,sans-Serif" font-size="10.00">MR24FDB1::setScene</text>
</a>
</g>
</g>
<!-- Node573&#45;&gt;Node578 -->
<g id="edge21" class="edge">
<title>Node573&#45;&gt;Node578</title>
<path fill="none" stroke="midnightblue" d="M247.73,-129.21C265.81,-121.34 289.41,-111.74 311,-105 322.47,-101.42 335,-98.24 346.85,-95.56"/>
<polygon fill="midnightblue" stroke="midnightblue" points="246.03,-126.13 238.3,-133.37 248.86,-132.54 246.03,-126.13"/>
</g>
<!-- Node579 -->
<g id="node22" class="node">
<title>Node579</title>
<g id="a_node22"><a xlink:href="classMR24FDB1.html#aebffae5417dedbcc48b35e34b2d2ab13" target="_top" xlink:title="set sensitivity ">
<polygon fill="white" stroke="black" points="326,-38.5 326,-57.5 469,-57.5 469,-38.5 326,-38.5"/>
<text text-anchor="middle" x="397.5" y="-45.5" font-family="Helvetica,sans-Serif" font-size="10.00">MR24FDB1::setSensitivity</text>
</a>
</g>
</g>
<!-- Node573&#45;&gt;Node579 -->
<g id="edge22" class="edge">
<title>Node573&#45;&gt;Node579</title>
<path fill="none" stroke="midnightblue" d="M233.39,-126.09C250.78,-108.61 280.3,-81.85 311,-67 318.94,-63.16 327.67,-60.08 336.43,-57.62"/>
<polygon fill="midnightblue" stroke="midnightblue" points="230.75,-123.78 226.29,-133.39 235.77,-128.66 230.75,-123.78"/>
</g>
<!-- Node580 -->
<g id="node23" class="node">
<title>Node580</title>
<g id="a_node23"><a xlink:href="classMR24FDB1.html#a2c1248a5844a078916d833e9a868fb75" target="_top" xlink:title="set unoccupied timeut ">
<polygon fill="white" stroke="black" points="311,-0.5 311,-19.5 484,-19.5 484,-0.5 311,-0.5"/>
<text text-anchor="middle" x="397.5" y="-7.5" font-family="Helvetica,sans-Serif" font-size="10.00">MR24FDB1::setUnoccupiedTime</text>
</a>
</g>
</g>
<!-- Node573&#45;&gt;Node580 -->
<g id="edge23" class="edge">
<title>Node573&#45;&gt;Node580</title>
<path fill="none" stroke="midnightblue" d="M227.38,-124.45C242.07,-98.78 272.14,-52.9 311,-29 317.35,-25.1 324.4,-21.99 331.65,-19.52"/>
<polygon fill="midnightblue" stroke="midnightblue" points="224.31,-122.76 222.52,-133.21 230.44,-126.16 224.31,-122.76"/>
</g>
</g>
</svg>
