<?xml version="1.0" encoding="UTF-8" standalone="no"?>
<!DOCTYPE svg PUBLIC "-//W3C//DTD SVG 1.1//EN"
 "http://www.w3.org/Graphics/SVG/1.1/DTD/svg11.dtd">
<!-- Generated by graphviz version 2.43.0 (0)
 -->
<!-- Title: MR24FDB1::sendSet Pages: 1 -->
<svg width="477pt" height="66pt"
 viewBox="0.00 0.00 477.00 66.00" xmlns="http://www.w3.org/2000/svg" xmlns:xlink="http://www.w3.org/1999/xlink">
<g id="graph0" class="graph" transform="scale(1 1) rotate(0) translate(4 62)">
<title>MR24FDB1::sendSet</title>
<polygon fill="white" stroke="transparent" points="-4,4 -4,-62 473,-62 473,4 -4,4"/>
<!-- Node337 -->
<g id="node1" class="node">
<title>Node337</title>
<g id="a_node1"><a xlink:title="send a &quot;GET&quot; packet to the module ">
<polygon fill="#bfbfbf" stroke="black" points="0,-19.5 0,-38.5 116,-38.5 116,-19.5 0,-19.5"/>
<text text-anchor="middle" x="58" y="-26.5" font-family="Helvetica,sans-Serif" font-size="10.00">MR24FDB1::sendSet</text>
</a>
</g>
</g>
<!-- Node338 -->
<g id="node2" class="node">
<title>Node338</title>
<g id="a_node2"><a xlink:href="classMR24FDB1.html#af148f4391ab1003e82d4497d8072aaa0" target="_top" xlink:title="calculate and add crc16 at end of buffer ">
<polygon fill="white" stroke="black" points="157,-38.5 157,-57.5 279,-57.5 279,-38.5 157,-38.5"/>
<text text-anchor="middle" x="218" y="-45.5" font-family="Helvetica,sans-Serif" font-size="10.00">MR24FDB1::addCrc16</text>
</a>
</g>
</g>
<!-- Node337&#45;&gt;Node338 -->
<g id="edge1" class="edge">
<title>Node337&#45;&gt;Node338</title>
<path fill="none" stroke="midnightblue" d="M116.04,-35.86C125.99,-37.06 136.43,-38.31 146.69,-39.54"/>
<polygon fill="midnightblue" stroke="midnightblue" points="146.5,-43.05 156.84,-40.77 147.33,-36.1 146.5,-43.05"/>
</g>
<!-- Node340 -->
<g id="node4" class="node">
<title>Node340</title>
<g id="a_node4"><a xlink:href="classMR24FDB1.html#a586848e9efe86b47520f92e049c502eb" target="_top" xlink:title="send a packet to the module ">
<polygon fill="white" stroke="black" points="152,-0.5 152,-19.5 284,-19.5 284,-0.5 152,-0.5"/>
<text text-anchor="middle" x="218" y="-7.5" font-family="Helvetica,sans-Serif" font-size="10.00">MR24FDB1::sendPacket</text>
</a>
</g>
</g>
<!-- Node337&#45;&gt;Node340 -->
<g id="edge3" class="edge">
<title>Node337&#45;&gt;Node340</title>
<path fill="none" stroke="midnightblue" d="M116.04,-22.14C124.43,-21.13 133.17,-20.08 141.86,-19.04"/>
<polygon fill="midnightblue" stroke="midnightblue" points="142.48,-22.49 151.99,-17.82 141.65,-15.54 142.48,-22.49"/>
</g>
<!-- Node339 -->
<g id="node3" class="node">
<title>Node339</title>
<g id="a_node3"><a xlink:href="classMR24FDB1.html#af7b82f23ec8f67c955ae413f4a078af0" target="_top" xlink:title="calculate crc16 of current packet ">
<polygon fill="white" stroke="black" points="320,-38.5 320,-57.5 469,-57.5 469,-38.5 320,-38.5"/>
<text text-anchor="middle" x="394.5" y="-45.5" font-family="Helvetica,sans-Serif" font-size="10.00">MR24FDB1::calculateCrc16</text>
</a>
</g>
</g>
<!-- Node338&#45;&gt;Node339 -->
<g id="edge2" class="edge">
<title>Node338&#45;&gt;Node339</title>
<path fill="none" stroke="midnightblue" d="M279.05,-48C288.89,-48 299.23,-48 309.52,-48"/>
<polygon fill="midnightblue" stroke="midnightblue" points="309.76,-51.5 319.76,-48 309.76,-44.5 309.76,-51.5"/>
</g>
</g>
</svg>
