<?xml version="1.0" encoding="UTF-8" standalone="no"?>
<!DOCTYPE svg PUBLIC "-//W3C//DTD SVG 1.1//EN"
 "http://www.w3.org/Graphics/SVG/1.1/DTD/svg11.dtd">
<!-- Generated by graphviz version 2.43.0 (0)
 -->
<!-- Title: MR24FDB1::readByte Pages: 1 -->
<svg width="991pt" height="484pt"
 viewBox="0.00 0.00 991.00 484.00" xmlns="http://www.w3.org/2000/svg" xmlns:xlink="http://www.w3.org/1999/xlink">
<g id="graph0" class="graph" transform="scale(1 1) rotate(0) translate(4 480)">
<title>MR24FDB1::readByte</title>
<polygon fill="white" stroke="transparent" points="-4,4 -4,-480 987,-480 987,4 -4,4"/>
<!-- Node10 -->
<g id="node1" class="node">
<title>Node10</title>
<g id="a_node1"><a xlink:title="get one byte from serial ">
<polygon fill="#bfbfbf" stroke="black" points="0,-418.5 0,-437.5 121,-437.5 121,-418.5 0,-418.5"/>
<text text-anchor="middle" x="60.5" y="-425.5" font-family="Helvetica,sans-Serif" font-size="10.00">MR24FDB1::readByte</text>
</a>
</g>
</g>
<!-- Node11 -->
<g id="node2" class="node">
<title>Node11</title>
<g id="a_node2"><a xlink:href="classMR24FDB1.html#a5e44c632274bde4a6e22f35d80a782f0" target="_top" xlink:title="get a packet from the chip ">
<polygon fill="white" stroke="black" points="157,-418.5 157,-437.5 288,-437.5 288,-418.5 157,-418.5"/>
<text text-anchor="middle" x="222.5" y="-425.5" font-family="Helvetica,sans-Serif" font-size="10.00">MR24FDB1::readPacket</text>
</a>
</g>
</g>
<!-- Node10&#45;&gt;Node11 -->
<g id="edge1" class="edge">
<title>Node10&#45;&gt;Node11</title>
<path fill="none" stroke="midnightblue" d="M131.3,-428C139.76,-428 148.38,-428 156.77,-428"/>
<polygon fill="midnightblue" stroke="midnightblue" points="131.08,-424.5 121.08,-428 131.08,-431.5 131.08,-424.5"/>
</g>
<!-- Node12 -->
<g id="node3" class="node">
<title>Node12</title>
<g id="a_node3"><a xlink:href="classMR24FDB1.html#a667ee611da9f14e82c86cfd7b1d159b9" target="_top" xlink:title="initalize radar ">
<polygon fill="white" stroke="black" points="334.5,-456.5 334.5,-475.5 426.5,-475.5 426.5,-456.5 334.5,-456.5"/>
<text text-anchor="middle" x="380.5" y="-463.5" font-family="Helvetica,sans-Serif" font-size="10.00">MR24FDB1::init</text>
</a>
</g>
</g>
<!-- Node11&#45;&gt;Node12 -->
<g id="edge2" class="edge">
<title>Node11&#45;&gt;Node12</title>
<path fill="none" stroke="midnightblue" d="M272.63,-439.97C294.49,-445.29 319.88,-451.48 340.42,-456.48"/>
<polygon fill="midnightblue" stroke="midnightblue" points="273.41,-436.56 262.87,-437.59 271.75,-443.36 273.41,-436.56"/>
</g>
<!-- Node13 -->
<g id="node4" class="node">
<title>Node13</title>
<g id="a_node4"><a xlink:href="classMR24FDB1.html#a0c0b8071f5d90b32f3c109ff71ff2ec0" target="_top" xlink:title="send test ">
<polygon fill="white" stroke="black" points="864,-190.5 864,-209.5 983,-209.5 983,-190.5 864,-190.5"/>
<text text-anchor="middle" x="923.5" y="-197.5" font-family="Helvetica,sans-Serif" font-size="10.00">MR24FDB1::testSend</text>
</a>
</g>
</g>
<!-- Node11&#45;&gt;Node13 -->
<g id="edge3" class="edge">
<title>Node11&#45;&gt;Node13</title>
<path fill="none" stroke="midnightblue" d="M298.55,-435.21C440.9,-447.37 743.45,-465.46 828,-409 899.86,-361.01 917.8,-244.21 921.59,-209.73"/>
<polygon fill="midnightblue" stroke="midnightblue" points="298.44,-431.69 288.17,-434.31 297.83,-438.67 298.44,-431.69"/>
</g>
<!-- Node14 -->
<g id="node5" class="node">
<title>Node14</title>
<g id="a_node5"><a xlink:href="classMR24FDB1.html#a944e9bede6552294ea9940ae6fda3b96" target="_top" xlink:title="wait until packet of the specified type is recieved ">
<polygon fill="white" stroke="black" points="324,-323.5 324,-342.5 437,-342.5 437,-323.5 324,-323.5"/>
<text text-anchor="middle" x="380.5" y="-330.5" font-family="Helvetica,sans-Serif" font-size="10.00">MR24FDB1::waitFor</text>
</a>
</g>
</g>
<!-- Node11&#45;&gt;Node14 -->
<g id="edge4" class="edge">
<title>Node11&#45;&gt;Node14</title>
<path fill="none" stroke="midnightblue" d="M248.16,-412.98C280.53,-393.27 336.4,-359.25 363.64,-342.66"/>
<polygon fill="midnightblue" stroke="midnightblue" points="246.04,-410.18 239.32,-418.37 249.68,-416.16 246.04,-410.18"/>
</g>
<!-- Node15 -->
<g id="node6" class="node">
<title>Node15</title>
<g id="a_node6"><a xlink:href="classMR24FDB1.html#a23542b21cc78944a36d941eb4eaaf29d" target="_top" xlink:title="reboot ">
<polygon fill="white" stroke="black" points="498,-323.5 498,-342.5 606,-342.5 606,-323.5 498,-323.5"/>
<text text-anchor="middle" x="552" y="-330.5" font-family="Helvetica,sans-Serif" font-size="10.00">MR24FDB1::reboot</text>
</a>
</g>
</g>
<!-- Node14&#45;&gt;Node15 -->
<g id="edge5" class="edge">
<title>Node14&#45;&gt;Node15</title>
<path fill="none" stroke="midnightblue" d="M447.29,-333C464.08,-333 481.91,-333 497.97,-333"/>
<polygon fill="midnightblue" stroke="midnightblue" points="447,-329.5 437,-333 447,-336.5 447,-329.5"/>
</g>
<!-- Node16 -->
<g id="node7" class="node">
<title>Node16</title>
<g id="a_node7"><a xlink:href="classMR24FDB1.html#a7dfa1c269d0979718203f9202d4e8578" target="_top" xlink:title="send a &quot;GET&quot; packet to the module and wait for responce ">
<polygon fill="white" stroke="black" points="473,-209.5 473,-228.5 631,-228.5 631,-209.5 473,-209.5"/>
<text text-anchor="middle" x="552" y="-216.5" font-family="Helvetica,sans-Serif" font-size="10.00">MR24FDB1::sendGetAndWait</text>
</a>
</g>
</g>
<!-- Node14&#45;&gt;Node16 -->
<g id="edge6" class="edge">
<title>Node14&#45;&gt;Node16</title>
<path fill="none" stroke="midnightblue" d="M404.35,-317.63C439.8,-293.79 507.03,-248.57 536.52,-228.74"/>
<polygon fill="midnightblue" stroke="midnightblue" points="402,-314.99 395.66,-323.48 405.91,-320.8 402,-314.99"/>
</g>
<!-- Node17 -->
<g id="node8" class="node">
<title>Node17</title>
<g id="a_node8"><a xlink:href="classMR24FDB1.html#a6a61bdca02e1a9ab2c6ab83c3ee2ff21" target="_top" xlink:title="requests Device Id ">
<polygon fill="white" stroke="black" points="680,-380.5 680,-399.5 815,-399.5 815,-380.5 680,-380.5"/>
<text text-anchor="middle" x="747.5" y="-387.5" font-family="Helvetica,sans-Serif" font-size="10.00">MR24FDB1::getDeviceId</text>
</a>
</g>
</g>
<!-- Node16&#45;&gt;Node17 -->
<g id="edge7" class="edge">
<title>Node16&#45;&gt;Node17</title>
<path fill="none" stroke="midnightblue" d="M568.33,-236.33C584.57,-254.98 610.63,-285.79 631,-314 648.54,-338.29 642.63,-353.57 667,-371 672.42,-374.88 678.54,-377.98 684.9,-380.45"/>
<polygon fill="midnightblue" stroke="midnightblue" points="570.84,-233.88 561.62,-228.66 565.57,-238.49 570.84,-233.88"/>
</g>
<!-- Node18 -->
<g id="node9" class="node">
<title>Node18</title>
<g id="a_node9"><a xlink:href="classMR24FDB1.html#a10ef6d7b6a0d7819b84361c907604fe0" target="_top" xlink:title="get status of fall enable switch ">
<polygon fill="white" stroke="black" points="676,-342.5 676,-361.5 819,-361.5 819,-342.5 676,-342.5"/>
<text text-anchor="middle" x="747.5" y="-349.5" font-family="Helvetica,sans-Serif" font-size="10.00">MR24FDB1::getFallEnable</text>
</a>
</g>
</g>
<!-- Node16&#45;&gt;Node18 -->
<g id="edge8" class="edge">
<title>Node16&#45;&gt;Node18</title>
<path fill="none" stroke="midnightblue" d="M565.86,-237.09C584.95,-262.54 623.27,-308.54 667,-333 673.94,-336.88 681.64,-339.97 689.45,-342.43"/>
<polygon fill="midnightblue" stroke="midnightblue" points="568.46,-234.72 559.73,-228.72 562.82,-238.86 568.46,-234.72"/>
</g>
<!-- Node19 -->
<g id="node10" class="node">
<title>Node19</title>
<g id="a_node10"><a xlink:href="classMR24FDB1.html#a122352e437a57083aba3823b512e2c31" target="_top" xlink:title="get status of fall sensitivty setting ">
<polygon fill="white" stroke="black" points="667,-304.5 667,-323.5 828,-323.5 828,-304.5 667,-304.5"/>
<text text-anchor="middle" x="747.5" y="-311.5" font-family="Helvetica,sans-Serif" font-size="10.00">MR24FDB1::getFallSensitivity</text>
</a>
</g>
</g>
<!-- Node16&#45;&gt;Node19 -->
<g id="edge9" class="edge">
<title>Node16&#45;&gt;Node19</title>
<path fill="none" stroke="midnightblue" d="M572.3,-235.01C594.03,-252.24 631.01,-279.3 667,-295 675.71,-298.8 685.31,-301.91 694.74,-304.44"/>
<polygon fill="midnightblue" stroke="midnightblue" points="574.48,-232.26 564.5,-228.71 570.08,-237.71 574.48,-232.26"/>
</g>
<!-- Node20 -->
<g id="node11" class="node">
<title>Node20</title>
<g id="a_node11"><a xlink:href="classMR24FDB1.html#a6e729c642bc4f67e6ce076fb0fa2aa3e" target="_top" xlink:title="get status of fall warning time setting ">
<polygon fill="white" stroke="black" points="668,-266.5 668,-285.5 827,-285.5 827,-266.5 668,-266.5"/>
<text text-anchor="middle" x="747.5" y="-273.5" font-family="Helvetica,sans-Serif" font-size="10.00">MR24FDB1::getFallWarnTime</text>
</a>
</g>
</g>
<!-- Node16&#45;&gt;Node20 -->
<g id="edge10" class="edge">
<title>Node16&#45;&gt;Node20</title>
<path fill="none" stroke="midnightblue" d="M589.23,-231.97C611.51,-239.73 640.73,-249.5 667,-257 678.73,-260.35 691.56,-263.6 703.41,-266.43"/>
<polygon fill="midnightblue" stroke="midnightblue" points="590.11,-228.57 579.51,-228.57 587.79,-235.18 590.11,-228.57"/>
</g>
<!-- Node21 -->
<g id="node12" class="node">
<title>Node21</title>
<g id="a_node12"><a xlink:href="classMR24FDB1.html#a9c858e6eae2bf95de4340b7bb4fe07e7" target="_top" xlink:title="requests Hardware version ">
<polygon fill="white" stroke="black" points="669.5,-228.5 669.5,-247.5 825.5,-247.5 825.5,-228.5 669.5,-228.5"/>
<text text-anchor="middle" x="747.5" y="-235.5" font-family="Helvetica,sans-Serif" font-size="10.00">MR24FDB1::getHardwareVer</text>
</a>
</g>
</g>
<!-- Node16&#45;&gt;Node21 -->
<g id="edge11" class="edge">
<title>Node16&#45;&gt;Node21</title>
<path fill="none" stroke="midnightblue" d="M641.25,-227.67C650.62,-228.59 660.09,-229.52 669.32,-230.42"/>
<polygon fill="midnightblue" stroke="midnightblue" points="641.44,-224.17 631.15,-226.67 640.76,-231.13 641.44,-224.17"/>
</g>
<!-- Node22 -->
<g id="node13" class="node">
<title>Node22</title>
<g id="a_node13"><a xlink:href="classMR24FDB1.html#ab090aa5731fa4e348a33588f682f1a16" target="_top" xlink:title="get movement ">
<polygon fill="white" stroke="black" points="675,-190.5 675,-209.5 820,-209.5 820,-190.5 675,-190.5"/>
<text text-anchor="middle" x="747.5" y="-197.5" font-family="Helvetica,sans-Serif" font-size="10.00">MR24FDB1::getMovement</text>
</a>
</g>
</g>
<!-- Node16&#45;&gt;Node22 -->
<g id="edge12" class="edge">
<title>Node16&#45;&gt;Node22</title>
<path fill="none" stroke="midnightblue" d="M641.4,-210.32C652.63,-209.22 664.02,-208.1 674.94,-207.03"/>
<polygon fill="midnightblue" stroke="midnightblue" points="640.76,-206.87 631.15,-211.33 641.44,-213.83 640.76,-206.87"/>
</g>
<!-- Node23 -->
<g id="node14" class="node">
<title>Node23</title>
<g id="a_node14"><a xlink:href="classMR24FDB1.html#af5bcb06d3788fb4743e2f750a6e4a149" target="_top" xlink:title="get presence from module ">
<polygon fill="white" stroke="black" points="679,-152.5 679,-171.5 816,-171.5 816,-152.5 679,-152.5"/>
<text text-anchor="middle" x="747.5" y="-159.5" font-family="Helvetica,sans-Serif" font-size="10.00">MR24FDB1::getPresence</text>
</a>
</g>
</g>
<!-- Node16&#45;&gt;Node23 -->
<g id="edge14" class="edge">
<title>Node16&#45;&gt;Node23</title>
<path fill="none" stroke="midnightblue" d="M589.23,-206.03C611.51,-198.27 640.73,-188.5 667,-181 678.73,-177.65 691.56,-174.4 703.41,-171.57"/>
<polygon fill="midnightblue" stroke="midnightblue" points="587.79,-202.82 579.51,-209.43 590.11,-209.43 587.79,-202.82"/>
</g>
<!-- Node24 -->
<g id="node15" class="node">
<title>Node24</title>
<g id="a_node15"><a xlink:href="classMR24FDB1.html#a206d007330f0b2f9c76b070e215dbb05" target="_top" xlink:title="request Protocol Version ">
<polygon fill="white" stroke="black" points="673,-114.5 673,-133.5 822,-133.5 822,-114.5 673,-114.5"/>
<text text-anchor="middle" x="747.5" y="-121.5" font-family="Helvetica,sans-Serif" font-size="10.00">MR24FDB1::getProtocolVer</text>
</a>
</g>
</g>
<!-- Node16&#45;&gt;Node24 -->
<g id="edge16" class="edge">
<title>Node16&#45;&gt;Node24</title>
<path fill="none" stroke="midnightblue" d="M572.3,-202.99C594.03,-185.76 631.01,-158.7 667,-143 675.71,-139.2 685.31,-136.09 694.74,-133.56"/>
<polygon fill="midnightblue" stroke="midnightblue" points="570.08,-200.29 564.5,-209.29 574.48,-205.74 570.08,-200.29"/>
</g>
<!-- Node25 -->
<g id="node16" class="node">
<title>Node25</title>
<g id="a_node16"><a xlink:href="classMR24FDB1.html#adc620372e2ccd4d3dece13bfe8c8424e" target="_top" xlink:title="get scene parameter ">
<polygon fill="white" stroke="black" points="686.5,-76.5 686.5,-95.5 808.5,-95.5 808.5,-76.5 686.5,-76.5"/>
<text text-anchor="middle" x="747.5" y="-83.5" font-family="Helvetica,sans-Serif" font-size="10.00">MR24FDB1::getScene</text>
</a>
</g>
</g>
<!-- Node16&#45;&gt;Node25 -->
<g id="edge17" class="edge">
<title>Node16&#45;&gt;Node25</title>
<path fill="none" stroke="midnightblue" d="M565.86,-200.91C584.95,-175.46 623.27,-129.46 667,-105 673.94,-101.12 681.64,-98.03 689.45,-95.57"/>
<polygon fill="midnightblue" stroke="midnightblue" points="562.82,-199.14 559.73,-209.28 568.46,-203.28 562.82,-199.14"/>
</g>
<!-- Node26 -->
<g id="node17" class="node">
<title>Node26</title>
<g id="a_node17"><a xlink:href="classMR24FDB1.html#a82a44a7291dd7b96de57a2d2cda10251" target="_top" xlink:title="get sensitivity parameter ">
<polygon fill="white" stroke="black" points="675.5,-38.5 675.5,-57.5 819.5,-57.5 819.5,-38.5 675.5,-38.5"/>
<text text-anchor="middle" x="747.5" y="-45.5" font-family="Helvetica,sans-Serif" font-size="10.00">MR24FDB1::getSensitivity</text>
</a>
</g>
</g>
<!-- Node16&#45;&gt;Node26 -->
<g id="edge18" class="edge">
<title>Node16&#45;&gt;Node26</title>
<path fill="none" stroke="midnightblue" d="M561.73,-200.03C577.75,-167.47 615,-101.14 667,-67 672.93,-63.11 679.58,-60.01 686.44,-57.54"/>
<polygon fill="midnightblue" stroke="midnightblue" points="558.44,-198.81 557.29,-209.34 564.76,-201.82 558.44,-198.81"/>
</g>
<!-- Node27 -->
<g id="node18" class="node">
<title>Node27</title>
<g id="a_node18"><a xlink:href="classMR24FDB1.html#af9b355c4127c5b937407b3e3b25217c7" target="_top" xlink:title="requests Software verion ">
<polygon fill="white" stroke="black" points="671.5,-0.5 671.5,-19.5 823.5,-19.5 823.5,-0.5 671.5,-0.5"/>
<text text-anchor="middle" x="747.5" y="-7.5" font-family="Helvetica,sans-Serif" font-size="10.00">MR24FDB1::getSoftwareVer</text>
</a>
</g>
</g>
<!-- Node16&#45;&gt;Node27 -->
<g id="edge19" class="edge">
<title>Node16&#45;&gt;Node27</title>
<path fill="none" stroke="midnightblue" d="M558.91,-199.69C571.81,-160.92 606.31,-73.48 667,-29 672.27,-25.14 678.2,-22.06 684.41,-19.59"/>
<polygon fill="midnightblue" stroke="midnightblue" points="555.56,-198.67 555.84,-209.27 562.22,-200.81 555.56,-198.67"/>
</g>
<!-- Node22&#45;&gt;Node13 -->
<g id="edge13" class="edge">
<title>Node22&#45;&gt;Node13</title>
<path fill="none" stroke="midnightblue" d="M830.04,-200C841.49,-200 853.07,-200 863.98,-200"/>
<polygon fill="midnightblue" stroke="midnightblue" points="830.03,-196.5 820.03,-200 830.03,-203.5 830.03,-196.5"/>
</g>
<!-- Node23&#45;&gt;Node13 -->
<g id="edge15" class="edge">
<title>Node23&#45;&gt;Node13</title>
<path fill="none" stroke="midnightblue" d="M802.31,-173.75C826.92,-179.13 855.69,-185.41 878.91,-190.48"/>
<polygon fill="midnightblue" stroke="midnightblue" points="802.92,-170.3 792.41,-171.59 801.43,-177.14 802.92,-170.3"/>
</g>
</g>
</svg>
