<?xml version="1.0" encoding="UTF-8" standalone="no"?>
<!DOCTYPE svg PUBLIC "-//W3C//DTD SVG 1.1//EN"
 "http://www.w3.org/Graphics/SVG/1.1/DTD/svg11.dtd">
<!-- Generated by graphviz version 2.43.0 (0)
 -->
<!-- Title: MR24FDB1::getPresence Pages: 1 -->
<svg width="1081pt" height="218pt"
 viewBox="0.00 0.00 1081.00 218.00" xmlns="http://www.w3.org/2000/svg" xmlns:xlink="http://www.w3.org/1999/xlink">
<g id="graph0" class="graph" transform="scale(1 1) rotate(0) translate(4 214)">
<title>MR24FDB1::getPresence</title>
<polygon fill="white" stroke="transparent" points="-4,4 -4,-214 1077,-214 1077,4 -4,4"/>
<!-- Node203 -->
<g id="node1" class="node">
<title>Node203</title>
<g id="a_node1"><a xlink:title="get presence from module ">
<polygon fill="#bfbfbf" stroke="black" points="0,-114.5 0,-133.5 137,-133.5 137,-114.5 0,-114.5"/>
<text text-anchor="middle" x="68.5" y="-121.5" font-family="Helvetica,sans-Serif" font-size="10.00">MR24FDB1::getPresence</text>
</a>
</g>
</g>
<!-- Node204 -->
<g id="node2" class="node">
<title>Node204</title>
<g id="a_node2"><a xlink:href="classMR24FDB1.html#a7dfa1c269d0979718203f9202d4e8578" target="_top" xlink:title="send a &quot;GET&quot; packet to the module and wait for responce ">
<polygon fill="white" stroke="black" points="173,-114.5 173,-133.5 331,-133.5 331,-114.5 173,-114.5"/>
<text text-anchor="middle" x="252" y="-121.5" font-family="Helvetica,sans-Serif" font-size="10.00">MR24FDB1::sendGetAndWait</text>
</a>
</g>
</g>
<!-- Node203&#45;&gt;Node204 -->
<g id="edge1" class="edge">
<title>Node203&#45;&gt;Node204</title>
<path fill="none" stroke="midnightblue" d="M137.08,-124C145.49,-124 154.17,-124 162.83,-124"/>
<polygon fill="midnightblue" stroke="midnightblue" points="162.96,-127.5 172.96,-124 162.96,-120.5 162.96,-127.5"/>
</g>
<!-- Node205 -->
<g id="node3" class="node">
<title>Node205</title>
<g id="a_node3"><a xlink:href="classMR24FDB1.html#a4a5275f119bcbd82dd5a0d6a1d8defe5" target="_top" xlink:title="send a &quot;GET&quot; packet to the module ">
<polygon fill="white" stroke="black" points="367,-152.5 367,-171.5 484,-171.5 484,-152.5 367,-152.5"/>
<text text-anchor="middle" x="425.5" y="-159.5" font-family="Helvetica,sans-Serif" font-size="10.00">MR24FDB1::sendGet</text>
</a>
</g>
</g>
<!-- Node204&#45;&gt;Node205 -->
<g id="edge2" class="edge">
<title>Node204&#45;&gt;Node205</title>
<path fill="none" stroke="midnightblue" d="M296.28,-133.59C319.11,-138.65 347.32,-144.9 371.46,-150.25"/>
<polygon fill="midnightblue" stroke="midnightblue" points="371.01,-153.73 381.53,-152.48 372.53,-146.9 371.01,-153.73"/>
</g>
<!-- Node209 -->
<g id="node7" class="node">
<title>Node209</title>
<g id="a_node7"><a xlink:href="classMR24FDB1.html#a944e9bede6552294ea9940ae6fda3b96" target="_top" xlink:title="wait until packet of the specified type is recieved ">
<polygon fill="white" stroke="black" points="369,-95.5 369,-114.5 482,-114.5 482,-95.5 369,-95.5"/>
<text text-anchor="middle" x="425.5" y="-102.5" font-family="Helvetica,sans-Serif" font-size="10.00">MR24FDB1::waitFor</text>
</a>
</g>
</g>
<!-- Node204&#45;&gt;Node209 -->
<g id="edge6" class="edge">
<title>Node204&#45;&gt;Node209</title>
<path fill="none" stroke="midnightblue" d="M331.22,-115.33C340.46,-114.31 349.83,-113.27 358.87,-112.27"/>
<polygon fill="midnightblue" stroke="midnightblue" points="359.37,-115.74 368.92,-111.16 358.6,-108.78 359.37,-115.74"/>
</g>
<!-- Node206 -->
<g id="node4" class="node">
<title>Node206</title>
<g id="a_node4"><a xlink:href="classMR24FDB1.html#af148f4391ab1003e82d4497d8072aaa0" target="_top" xlink:title="calculate and add crc16 at end of buffer ">
<polygon fill="white" stroke="black" points="553,-152.5 553,-171.5 675,-171.5 675,-152.5 553,-152.5"/>
<text text-anchor="middle" x="614" y="-159.5" font-family="Helvetica,sans-Serif" font-size="10.00">MR24FDB1::addCrc16</text>
</a>
</g>
</g>
<!-- Node205&#45;&gt;Node206 -->
<g id="edge3" class="edge">
<title>Node205&#45;&gt;Node206</title>
<path fill="none" stroke="midnightblue" d="M484.23,-162C502.73,-162 523.42,-162 542.72,-162"/>
<polygon fill="midnightblue" stroke="midnightblue" points="542.96,-165.5 552.96,-162 542.96,-158.5 542.96,-165.5"/>
</g>
<!-- Node208 -->
<g id="node6" class="node">
<title>Node208</title>
<g id="a_node6"><a xlink:href="classMR24FDB1.html#a586848e9efe86b47520f92e049c502eb" target="_top" xlink:title="send a packet to the module ">
<polygon fill="white" stroke="black" points="548,-190.5 548,-209.5 680,-209.5 680,-190.5 548,-190.5"/>
<text text-anchor="middle" x="614" y="-197.5" font-family="Helvetica,sans-Serif" font-size="10.00">MR24FDB1::sendPacket</text>
</a>
</g>
</g>
<!-- Node205&#45;&gt;Node208 -->
<g id="edge5" class="edge">
<title>Node205&#45;&gt;Node208</title>
<path fill="none" stroke="midnightblue" d="M473.56,-171.59C498.73,-176.72 529.9,-183.07 556.38,-188.46"/>
<polygon fill="midnightblue" stroke="midnightblue" points="555.78,-191.91 566.28,-190.48 557.18,-185.05 555.78,-191.91"/>
</g>
<!-- Node207 -->
<g id="node5" class="node">
<title>Node207</title>
<g id="a_node5"><a xlink:href="classMR24FDB1.html#af7b82f23ec8f67c955ae413f4a078af0" target="_top" xlink:title="calculate crc16 of current packet ">
<polygon fill="white" stroke="black" points="746,-152.5 746,-171.5 895,-171.5 895,-152.5 746,-152.5"/>
<text text-anchor="middle" x="820.5" y="-159.5" font-family="Helvetica,sans-Serif" font-size="10.00">MR24FDB1::calculateCrc16</text>
</a>
</g>
</g>
<!-- Node206&#45;&gt;Node207 -->
<g id="edge4" class="edge">
<title>Node206&#45;&gt;Node207</title>
<path fill="none" stroke="midnightblue" d="M675.25,-162C694.2,-162 715.48,-162 735.75,-162"/>
<polygon fill="midnightblue" stroke="midnightblue" points="735.92,-165.5 745.92,-162 735.92,-158.5 735.92,-165.5"/>
</g>
<!-- Node210 -->
<g id="node8" class="node">
<title>Node210</title>
<g id="a_node8"><a xlink:href="classMR24FDB1.html#a8a6f5bebfe9e2f9232e58f0ff909042a" target="_top" xlink:title="parse packet ">
<polygon fill="white" stroke="black" points="546,-38.5 546,-57.5 682,-57.5 682,-38.5 546,-38.5"/>
<text text-anchor="middle" x="614" y="-45.5" font-family="Helvetica,sans-Serif" font-size="10.00">MR24FDB1::parsePacket</text>
</a>
</g>
</g>
<!-- Node209&#45;&gt;Node210 -->
<g id="edge7" class="edge">
<title>Node209&#45;&gt;Node210</title>
<path fill="none" stroke="midnightblue" d="M446.9,-95.43C465.58,-86.98 494.17,-74.81 520,-67 528.8,-64.34 538.19,-61.93 547.48,-59.8"/>
<polygon fill="midnightblue" stroke="midnightblue" points="548.49,-63.16 557.5,-57.59 546.98,-56.32 548.49,-63.16"/>
</g>
<!-- Node215 -->
<g id="node13" class="node">
<title>Node215</title>
<g id="a_node13"><a xlink:href="classMR24FDB1.html#a5e44c632274bde4a6e22f35d80a782f0" target="_top" xlink:title="get a packet from the chip ">
<polygon fill="white" stroke="black" points="548.5,-114.5 548.5,-133.5 679.5,-133.5 679.5,-114.5 548.5,-114.5"/>
<text text-anchor="middle" x="614" y="-121.5" font-family="Helvetica,sans-Serif" font-size="10.00">MR24FDB1::readPacket</text>
</a>
</g>
</g>
<!-- Node209&#45;&gt;Node215 -->
<g id="edge13" class="edge">
<title>Node209&#45;&gt;Node215</title>
<path fill="none" stroke="midnightblue" d="M482.2,-110.67C499.85,-112.47 519.66,-114.49 538.41,-116.4"/>
<polygon fill="midnightblue" stroke="midnightblue" points="538.1,-119.89 548.41,-117.42 538.81,-112.92 538.1,-119.89"/>
</g>
<!-- Node217 -->
<g id="node15" class="node">
<title>Node217</title>
<g id="a_node15"><a xlink:href="classMR24FDB1__Exception.html#a695552f5db7be7840c1af8650af0c235" target="_top" xlink:title="decode error from the Result,class,group , function etc... ">
<polygon fill="white" stroke="black" points="520,-76.5 520,-95.5 708,-95.5 708,-76.5 520,-76.5"/>
<text text-anchor="middle" x="614" y="-83.5" font-family="Helvetica,sans-Serif" font-size="10.00">MR24FDB1_Exception::decodeError</text>
</a>
</g>
</g>
<!-- Node209&#45;&gt;Node217 -->
<g id="edge16" class="edge">
<title>Node209&#45;&gt;Node217</title>
<path fill="none" stroke="midnightblue" d="M482.2,-99.33C491.05,-98.42 500.43,-97.47 509.95,-96.5"/>
<polygon fill="midnightblue" stroke="midnightblue" points="510.31,-99.98 519.91,-95.48 509.6,-93.02 510.31,-99.98"/>
</g>
<!-- Node211 -->
<g id="node9" class="node">
<title>Node211</title>
<g id="a_node9"><a xlink:href="classMR24FDB1.html#a2ccfe8221167944b882b5747b07dae22" target="_top" xlink:title="parse fall type packet ">
<polygon fill="white" stroke="black" points="744,-38.5 744,-57.5 897,-57.5 897,-38.5 744,-38.5"/>
<text text-anchor="middle" x="820.5" y="-45.5" font-family="Helvetica,sans-Serif" font-size="10.00">MR24FDB1::parseFallReport</text>
</a>
</g>
</g>
<!-- Node210&#45;&gt;Node211 -->
<g id="edge8" class="edge">
<title>Node210&#45;&gt;Node211</title>
<path fill="none" stroke="midnightblue" d="M682.24,-48C698.69,-48 716.51,-48 733.69,-48"/>
<polygon fill="midnightblue" stroke="midnightblue" points="733.72,-51.5 743.72,-48 733.72,-44.5 733.72,-51.5"/>
</g>
<!-- Node212 -->
<g id="node10" class="node">
<title>Node212</title>
<g id="a_node10"><a xlink:href="classMR24FDB1.html#a1759ec9442c191ee6ddc09137a9c0528" target="_top" xlink:title="parse report type packet ">
<polygon fill="white" stroke="black" points="752.5,-0.5 752.5,-19.5 888.5,-19.5 888.5,-0.5 752.5,-0.5"/>
<text text-anchor="middle" x="820.5" y="-7.5" font-family="Helvetica,sans-Serif" font-size="10.00">MR24FDB1::parseReport</text>
</a>
</g>
</g>
<!-- Node210&#45;&gt;Node212 -->
<g id="edge9" class="edge">
<title>Node210&#45;&gt;Node212</title>
<path fill="none" stroke="midnightblue" d="M666.34,-38.46C694.17,-33.29 728.77,-26.86 758.03,-21.42"/>
<polygon fill="midnightblue" stroke="midnightblue" points="758.95,-24.81 768.14,-19.54 757.67,-17.93 758.95,-24.81"/>
</g>
<!-- Node214 -->
<g id="node12" class="node">
<title>Node214</title>
<g id="a_node12"><a xlink:href="classMR24FDB1.html#a55ecfd4dffd4d04c97dcd6e6e264ad61" target="_top" xlink:title="parse reponce type packet ">
<polygon fill="white" stroke="black" points="745,-76.5 745,-95.5 896,-95.5 896,-76.5 745,-76.5"/>
<text text-anchor="middle" x="820.5" y="-83.5" font-family="Helvetica,sans-Serif" font-size="10.00">MR24FDB1::parseResponce</text>
</a>
</g>
</g>
<!-- Node210&#45;&gt;Node214 -->
<g id="edge11" class="edge">
<title>Node210&#45;&gt;Node214</title>
<path fill="none" stroke="midnightblue" d="M666.34,-57.54C694.17,-62.71 728.77,-69.14 758.03,-74.58"/>
<polygon fill="midnightblue" stroke="midnightblue" points="757.67,-78.07 768.14,-76.46 758.95,-71.19 757.67,-78.07"/>
</g>
<!-- Node213 -->
<g id="node11" class="node">
<title>Node213</title>
<g id="a_node11"><a xlink:href="classMR24FDB1.html#ae444c38bb80decf58cabe5b12005b819" target="_top" xlink:title="parse Radar group responces and reports ">
<polygon fill="white" stroke="black" points="933,-38.5 933,-57.5 1073,-57.5 1073,-38.5 933,-38.5"/>
<text text-anchor="middle" x="1003" y="-45.5" font-family="Helvetica,sans-Serif" font-size="10.00">MR24FDB1::decodeRadar</text>
</a>
</g>
</g>
<!-- Node212&#45;&gt;Node213 -->
<g id="edge10" class="edge">
<title>Node212&#45;&gt;Node213</title>
<path fill="none" stroke="midnightblue" d="M867.05,-19.59C891.3,-24.69 921.3,-31.01 946.86,-36.39"/>
<polygon fill="midnightblue" stroke="midnightblue" points="946.27,-39.84 956.78,-38.48 947.72,-32.99 946.27,-39.84"/>
</g>
<!-- Node214&#45;&gt;Node213 -->
<g id="edge12" class="edge">
<title>Node214&#45;&gt;Node213</title>
<path fill="none" stroke="midnightblue" d="M867.05,-76.41C891.3,-71.31 921.3,-64.99 946.86,-59.61"/>
<polygon fill="midnightblue" stroke="midnightblue" points="947.72,-63.01 956.78,-57.52 946.27,-56.16 947.72,-63.01"/>
</g>
<!-- Node215&#45;&gt;Node207 -->
<g id="edge14" class="edge">
<title>Node215&#45;&gt;Node207</title>
<path fill="none" stroke="midnightblue" d="M666.34,-133.54C694.17,-138.71 728.77,-145.14 758.03,-150.58"/>
<polygon fill="midnightblue" stroke="midnightblue" points="757.67,-154.07 768.14,-152.46 758.95,-147.19 757.67,-154.07"/>
</g>
<!-- Node216 -->
<g id="node14" class="node">
<title>Node216</title>
<g id="a_node14"><a xlink:href="classMR24FDB1.html#a3de11c024f9b20321cce5d98cd534c3e" target="_top" xlink:title="get one byte from serial ">
<polygon fill="white" stroke="black" points="760,-114.5 760,-133.5 881,-133.5 881,-114.5 760,-114.5"/>
<text text-anchor="middle" x="820.5" y="-121.5" font-family="Helvetica,sans-Serif" font-size="10.00">MR24FDB1::readByte</text>
</a>
</g>
</g>
<!-- Node215&#45;&gt;Node216 -->
<g id="edge15" class="edge">
<title>Node215&#45;&gt;Node216</title>
<path fill="none" stroke="midnightblue" d="M679.71,-124C701.93,-124 726.9,-124 749.52,-124"/>
<polygon fill="midnightblue" stroke="midnightblue" points="749.73,-127.5 759.73,-124 749.73,-120.5 749.73,-127.5"/>
</g>
</g>
</svg>
